<svg width="1280" height="720" viewBox="0 0 1280 720" fill="none" xmlns="http://www.w3.org/2000/svg">
<g clip-path="url(#clip0_47_1282)">
<g clip-path="url(#clip1_47_1282)">
<path d="M1043.44 611.11C1042.03 602.97 1040.61 594.83 1038.95 585.25C1031.11 590 1025.18 593.53 1019.32 597.17C1013.67 600.68 1009.64 599.61 1005.11 594.41C987.61 574.34 969.85 554.49 951.71 535C935.56 517.66 924.96 497.59 919.08 474.77C916.58 465.04 912.5 456.49 904.96 448.96C899.12 443.12 896.36 434.22 892.09 426.75C890.67 424.26 888.82 422.02 886.24 418.34C884.14 436.17 880.21 451.58 870.8 465.06C873.13 456.23 876.54 447.53 877.57 438.56C879.51 421.64 877.93 405.29 862.74 393.75C861.75 392.99 861.03 391.85 859.99 391.18C849.5 384.45 846.73 375.98 852.93 364.59C854.42 361.86 854.12 357.76 853.64 354.43C851.89 342.26 849.69 330.16 847.7 318.02C846.28 309.34 848.55 301.44 853.76 294.6C859.53 287.03 865.85 279.87 872.01 272.43C857.06 254.2 861.52 235.1 871.18 216.61C876.42 206.59 883.9 197.75 891.45 189.31C885.88 199.79 878.86 209.79 875.13 220.9C871.4 232.02 870.85 244.25 878.68 256.32C881.73 248.26 884.37 241.57 886.81 234.8C894.94 212.22 910.69 197.09 932.08 186.82C956.9 174.9 983.41 169.67 1010.32 166.2C1040.96 162.25 1071.49 163.2 1101.37 171.98C1109.61 174.4 1117.57 177.81 1125.13 181.91C1111.23 178.78 1097.47 174.44 1083.4 172.87C1069.36 171.31 1055 172.53 1040.76 173.62C1083.22 173.86 1121.12 191.22 1160.18 204.17C1175.83 209.36 1192.03 212.89 1207.97 217.19C1209.11 217.5 1210.22 217.93 1211.11 219.49C1187.85 217.85 1165.44 211.19 1142.13 208.2C1144.36 209.44 1146.58 210.71 1148.83 211.91C1164.5 220.25 1178.39 230.85 1190.28 244.09C1201.57 256.66 1205.1 272.26 1208.14 288.14C1210.59 300.94 1212.03 314.13 1216.2 326.37C1221.29 341.34 1228.76 355.51 1234.84 369.21C1223.56 356.67 1214.13 341.1 1203.47 325.8C1206.04 341.59 1206.66 358.03 1211.72 372.97C1216.83 388.06 1226.34 401.67 1233.42 416.67C1224.85 405.88 1216.27 395.09 1206.22 382.45C1207.32 396.1 1207.85 408.1 1209.36 419.98C1210.87 431.84 1213.35 443.57 1215.57 456.34C1207.35 443.68 1206.01 429.16 1201.06 415.89C1192.85 432.07 1200.4 449.09 1196.85 465.49C1196.2 459.37 1195.55 453.25 1194.9 447.13C1189.76 465.57 1187.43 483.88 1193.32 502.5C1184.89 487.95 1182.21 471.73 1178.13 455.64C1178.13 464.18 1177.16 472.85 1178.33 481.23C1180.88 499.57 1184.5 517.76 1187.7 536.01C1188.54 540.79 1190.72 543.29 1196.28 543.22C1199.18 543.19 1202.81 545.35 1204.89 547.64C1210.79 554.13 1215.78 561.44 1221.73 567.88C1223.5 569.8 1227.89 571.45 1229.93 570.57C1236.95 567.53 1240.45 571.86 1244.98 575.6C1256.53 585.15 1268.44 594.26 1280.21 603.55V606.57C1277.51 605.44 1274.35 604.86 1272.18 603.08C1261.76 594.51 1251.35 585.9 1241.48 576.71C1237.68 573.17 1234.8 571.38 1229.83 574.07C1224.77 576.81 1219.23 578.63 1214.12 581.28C1190.39 593.61 1165.13 603.63 1147.72 625.49C1135.76 640.5 1123.65 655.38 1111.6 670.31C1112.29 670.97 1112.98 671.63 1113.67 672.28C1128.29 648.92 1151.25 634.67 1170.07 615.89C1170.65 616.4 1171.24 616.91 1171.82 617.42C1171.2 619.2 1170.57 620.98 1169.95 622.76C1170.43 622.99 1170.91 623.22 1171.4 623.45C1174.9 618.32 1178.4 613.18 1181.9 608.05L1183.13 608.59C1182.76 610.49 1182.38 612.4 1182 614.34C1185.54 612.16 1189.18 608.06 1191.77 608.65C1203.57 611.33 1215.07 615.32 1228.72 619.47C1224.88 621.9 1222.73 622.97 1220.91 624.45C1213.21 630.72 1203.75 635.84 1198.31 643.71C1182.28 666.92 1171.05 692.73 1162.58 719.68H1076.62C1077.71 717.22 1078.52 714.59 1079.94 712.33C1086.84 701.38 1093.9 690.52 1100.69 679.96C1090.5 689.42 1080.05 699.12 1069.18 709.22C1066.47 704.26 1063.77 699.33 1061.21 694.64C1057.58 697.95 1053.98 700.67 1051.09 704.01C1046.77 709.01 1042.95 714.44 1038.92 719.68H1010.27V697.93C1009.41 697.86 1008.55 697.78 1007.69 697.71C1006.04 705.03 1004.38 712.36 1002.73 719.68H993.68C997.6 709.72 1002.61 700.03 1005.15 689.73C1008.39 676.62 1009.99 663.05 1011.51 649.59C1012 645.28 1010.9 641.15 1015.82 638.75C1017.01 638.17 1018.49 636.5 1018.46 635.36C1018.17 622.28 1028.54 618.65 1037.37 613.68C1039.3 612.59 1041.45 611.88 1043.5 611C1037.33 615.72 1031.16 620.43 1024.01 625.89C1026.68 628.05 1029 629.93 1031.33 631.81C1033.1 629.45 1034.88 627.09 1036.65 624.74C1038.66 622.07 1040.93 619.56 1042.56 616.68C1043.43 615.14 1043.16 612.97 1043.41 611.08L1043.44 611.11ZM1158.12 413.45C1159.63 422.54 1161.15 431.62 1162.66 440.71C1163.59 440.5 1164.52 440.3 1165.45 440.09C1162.97 431.24 1160.5 422.39 1158.02 413.54C1163.02 410.48 1165.45 410.45 1165.5 417.75C1165.6 433.47 1165.76 449.28 1167.55 464.86C1169.24 479.68 1173.03 494.25 1175.89 508.93C1173.12 479.36 1168.68 450.02 1170.64 420.38C1171.75 420.3 1172.86 420.22 1173.97 420.14V449.41C1174.56 449.43 1175.15 449.46 1175.74 449.48C1176.68 445.41 1177.62 441.34 1178.55 437.27L1180.76 437.38C1182.35 448.39 1183.94 459.41 1185.28 468.67C1200.09 438.01 1185.01 413.32 1165.43 389.17C1163.36 394.17 1161.25 398.42 1159.86 402.89C1158.81 406.26 1158.67 409.92 1158.12 413.45ZM1135.44 316.96C1139.38 321.1 1142.81 327.95 1147.38 328.83C1158.17 330.9 1163.95 339.25 1171.83 344.76C1180.3 350.67 1187.73 358.09 1195.61 364.85C1179.97 343.29 1159.87 327.39 1135.36 317.06C1122.77 310.69 1110.17 304.31 1097.58 297.94C1097.24 298.6 1096.89 299.26 1096.55 299.91C1134.07 337.04 1164.98 379.24 1192.65 424.41C1190.95 418.44 1189.35 412.68 1187.66 406.95C1178.54 376.09 1159.38 351.22 1139.93 326.48C1137.82 323.79 1136.91 320.16 1135.45 316.97L1135.44 316.96ZM1010.35 338.05C1010.88 339.91 1011.04 343.18 1012 343.43C1034.71 349.48 1057.5 355.2 1080.28 360.98C1057.21 352.55 1035.49 339.97 1010.22 338.15C1008.73 336.83 1007.23 335.5 1006.77 335.09C1017.71 332.69 1029.21 330.18 1040.71 327.66C1040.84 328.12 1040.97 328.58 1041.1 329.04C1034.92 330.94 1028.75 332.85 1023.85 334.36C1058.31 349.21 1093.14 364.22 1127.26 378.92C1127.48 379.68 1127.49 379.13 1127.23 378.89C1104.03 358.01 1079.05 339.55 1052.06 323.85C1049.8 322.53 1046.69 321.36 1044.29 321.8C1027.14 324.92 1010.07 328.48 992.97 331.91C992.91 332.77 992.85 333.64 992.8 334.5C998.65 335.68 1004.51 336.87 1010.36 338.05H1010.35ZM1150.59 397.02L1150.49 396.95C1148.97 410.8 1137.52 422.17 1124.32 422.49C1123.2 422.52 1120.87 419.65 1121.05 418.43C1121.85 413.24 1119.89 409.14 1118.39 404.35C1116.11 397.06 1113.98 388.55 1118.77 380.3C1114.61 378.76 1110.55 377.26 1105.29 375.31C1108.61 400.02 1110.9 423.44 1104.93 446.8C1107.12 432.81 1102.69 419.9 1097.65 407.57C1092.61 395.23 1085.53 383.73 1079.34 371.86C1080.86 385.09 1082.29 398.25 1095.07 406.27C1094.38 406.69 1093.7 407.11 1093.01 407.53C1090.81 405.84 1088.6 404.14 1085.32 401.62C1086.05 406.16 1086.74 409.31 1087.01 412.49C1087.26 415.41 1087.06 418.38 1087.06 421.32C1084.55 416.15 1083.42 411.03 1082.23 405.92C1080.23 397.33 1069.56 390.34 1060.94 392.15C1053.86 393.63 1046.83 395.35 1039.79 397.01C1039.44 397.09 1039.18 397.59 1038.88 397.89C1039.71 398.29 1040.54 398.69 1041.36 399.09C1016.51 397.76 999.56 414.54 980.7 426.85C980.22 426.11 979.74 425.37 979.27 424.64C983.7 420.79 988.13 416.94 992.57 413.09C992.21 412.72 991.84 412.34 991.48 411.97C986.39 414.15 981.31 416.33 976.22 418.51C997.01 392.59 1025.92 389.68 1056.06 388.89C1030.55 383.86 1005.09 380.09 979.56 376.96C974.52 376.34 969.72 378.76 968.58 385.04C968.17 387.29 967.06 389.42 966.27 391.61C965.78 391.49 965.29 391.37 964.8 391.25V383.02C963.95 382.81 963.1 382.59 962.25 382.38C961.16 385.89 960.06 389.39 958.7 393.76C957.46 394 954.88 394.49 951.56 395.13C954.22 385.04 961.3 380.04 968.87 375.84C956.99 370.67 946.83 372.19 938.98 383.63C938.64 383 938.3 382.37 937.96 381.74C940.1 378.31 942.23 374.88 944 372.04C929.47 366.53 915.37 361.17 899.27 355.06C907.7 369.17 915.59 382.41 923.51 395.62C931.73 409.34 943.54 419.05 957.66 426.31C927.68 412.9 900.84 395.12 877.84 368.38C879.16 381.68 880.23 392.43 881.32 403.45C894.73 399.6 905.09 400.58 908.9 404.72C901.55 405.18 893.52 405.68 883.81 406.29C890.66 416.98 896.49 426.08 900.92 432.99C911.23 429.97 919.65 427.51 928.07 425.04C928.06 424.81 928.05 424.58 928.03 424.36C923.88 424.72 919.73 425.08 913.38 425.63C916.69 423.2 918.13 422.15 919.92 420.83C911.8 417.47 904.22 414.33 895.21 410.6C913.73 408.84 926.6 415.87 935.94 429.4C939.39 434.4 942.19 440.21 939.82 447C935.56 459.19 931.58 471.47 927.13 484.76C937.92 488.95 950.15 493.7 962.37 498.45C962.05 499.28 961.73 500.11 961.42 500.94C950.53 497.36 939.64 493.78 928.75 490.19C928.21 490.74 927.67 491.29 927.12 491.84C933.22 501.54 938.35 512.04 945.61 520.78C965.5 544.74 986.37 567.89 1006.66 591.53C1010.4 595.88 1013.6 596.04 1018.21 593.02C1060.59 565.26 1094.48 529.6 1118.85 485.08C1121.9 479.51 1125.64 475.44 1134.87 475.4C1132.2 477.79 1131.12 479 1129.82 479.88C1127.65 481.34 1124.35 482.05 1123.25 484.03C1117.02 495.21 1111.21 506.62 1105.44 518.05C1090.34 547.97 1072.99 576.45 1051.4 602.18C1048.45 605.69 1047.83 608.43 1051.22 612.05C1052.42 611.51 1053.58 611.07 1054.64 610.48C1080.81 596.08 1106.83 581.4 1133.19 567.36C1150.1 558.36 1167.51 550.32 1185.39 541.51C1176.11 517.68 1166.25 492.35 1157.06 468.74C1154.34 485.68 1153.47 505.14 1146.22 523.22C1146.71 508.93 1148.66 494.74 1148.29 480.61C1147.92 466.26 1145.25 451.97 1143.61 437.79C1132.95 438.51 1127.31 443.487 1126.69 452.72C1126.64 453.47 1126.64 454.23 1126.56 454.98C1125.86 461.19 1125.14 467.4 1124.43 473.61C1123.68 473.61 1122.93 473.61 1122.18 473.62C1121.98 471.05 1121.51 468.47 1121.62 465.91C1121.93 458.14 1123.41 450.27 1122.63 442.63C1121.86 435.07 1125.21 433.69 1131.07 434.36C1138.81 435.24 1143.6 431.57 1146.45 424.95C1151.02 414.35 1155.63 403.76 1159.65 392.95C1162.39 385.6 1161.31 378.67 1154.96 373.08C1150.25 368.94 1146.07 364.18 1141.28 360.15C1130.82 351.36 1123.3 353.32 1117.24 366.51C1120.23 369.09 1123.32 371.75 1126.5 374.48C1128.8 369.99 1130.66 366.34 1132.52 362.72C1145.27 368.94 1148.63 371.9 1150.35 377.83C1145.05 374.84 1139.56 371.75 1133.48 368.32C1132.03 371.95 1131.01 374.5 1129.31 378.74C1132.81 377.14 1134.33 376.45 1137.03 375.21C1135.94 378.49 1135.28 380.47 1134.48 382.87C1138.13 384.92 1141.51 386.82 1145.75 389.2C1138.22 391.55 1129.44 385.11 1125.81 395.5C1137.51 398.56 1137.71 398.84 1138.24 413.79C1140.52 411.29 1143.58 409.27 1143.29 408.02C1142 402.46 1139.74 397.12 1137.41 390.47C1141.09 393.88 1144.33 396.89 1147.79 400.1C1148.63 399.18 1149.61 398.11 1150.59 397.04V397.02ZM1189.79 350.24L1189.67 350.12C1196.12 358.79 1202.56 367.47 1208.02 374.81C1203.14 358.72 1198.42 340.59 1192.16 323C1178.2 283.79 1151.96 254.18 1116.85 232.78C1099.24 222.05 1080.11 213.82 1061.67 204.45C1064.3 205.95 1067.84 206.25 1070.88 207.63C1086.15 214.59 1101.69 221.12 1116.36 229.21C1127.49 235.36 1138.17 242.81 1147.77 251.15C1161.65 263.19 1174.4 276.55 1187.6 289.39C1188.82 290.58 1189.8 292.03 1190.81 293.41C1193.64 297.25 1196.96 300.85 1199.14 305.04C1203.65 313.71 1207.55 322.69 1211.7 331.55C1209.57 315.49 1206.72 299.99 1204.11 284.45C1201.66 269.86 1197.58 256.12 1187.02 245.02C1168.3 225.33 1146.01 211.36 1120.37 202.58C1119.29 202.21 1118.38 201.34 1117.39 200.71C1117.57 200.25 1117.76 199.78 1117.94 199.32C1129.92 201.61 1141.89 203.9 1153.87 206.2C1132.45 198.04 1110.78 190.89 1088.8 184.88C1059.66 176.92 1030.48 174.53 1001.81 187.63C996.7 189.96 991 191 985.58 192.63C1008.7 178.24 1033.25 168.43 1060.94 168.41C1022.18 165.86 984.5 171.32 947.74 183.49C915.38 194.2 893.23 214.72 885.13 248.79C884 253.53 882.24 258.12 880.67 263.12C870.42 252.73 868.42 245.15 870.48 226.22C861.95 244.77 865.25 264.36 878.2 269.84C871.39 277.99 864.27 285.76 858.09 294.22C854.8 298.73 851.04 304.47 851.14 309.59C851.41 323.42 853.63 337.21 855.08 351.01C856.32 350.97 857.56 350.93 858.8 350.88C858.84 344.5 859.57 338.03 858.76 331.76C857.79 324.29 856.59 317.21 863.65 309.91C852.46 340.4 892.4 387.23 919.7 401.04C912.15 390.14 903.32 378.69 895.92 366.37C887.45 352.29 879.46 334.31 881.84 324.98C888.67 347.41 897.9 367.93 912.47 385.72C902.47 369.18 894.62 351.85 892.01 331.86C900.95 362.89 929.01 360.79 951.1 368.3C951.53 366.32 951.79 365.14 952.05 363.95C954.1 364.58 956.87 364.58 958.06 365.95C961.99 370.46 976.66 373.67 984.01 370.38C956.81 361.17 930.66 351.52 908 334.57C934.21 350.56 962.55 361.27 991.97 369.3C984.07 365.57 975.73 362.96 967.6 359.83C959.64 356.76 951.88 353.16 944.04 349.79C944.41 348.86 944.78 347.93 945.15 347.01C985.26 366.06 1030.41 369.94 1070.51 389.65C1058.88 380.7 1046.95 372.43 1034.1 365.99C1019.69 358.77 1004.41 353.3 989.62 346.82C987.31 345.81 985.58 343.46 983.58 341.72C984.03 341 984.49 340.27 984.94 339.55C995.23 343.83 1005.51 348.1 1015.8 352.38C1009.62 347.01 1002.64 343.17 996.02 338.79C987.22 332.96 977.7 332.53 967.46 332.32C951.99 332 936.15 331.25 921.22 327.6C907.06 324.14 893.73 317.03 880.35 310.83C876.37 308.99 871.12 305.56 873.66 299.81C875.82 294.91 879.75 290.78 882.89 286.31C883.45 286.72 884.01 287.13 884.56 287.54C883.37 289.34 882.26 291.19 880.98 292.93C874.28 302.07 874.59 303.94 884.07 309.87C885.56 310.8 887.09 311.68 888.66 312.47C924.94 330.54 963.39 331.26 1000.54 327.61C984.82 325.35 966.96 324.25 949.91 319.94C931.33 315.24 913.46 307.69 895.39 301.06C893.06 300.21 891.43 297.44 889.48 295.56C909 308.99 931.68 311.69 953.05 318.03C953.28 317.37 953.52 316.72 953.75 316.06C937.64 310.56 921.53 305.06 905.42 299.56C908.02 298.97 910.51 299.04 912.78 299.79C926.82 304.45 941.42 307.98 954.7 314.28C983.29 327.85 1012.28 322.25 1041.52 318.7C1001.73 296.86 961.65 276.44 914.4 279.11C938.7 272.72 961.75 279.36 984.03 287.95C1006.23 296.51 1027.64 307.13 1049.39 316.84C1022.37 298.85 993.52 284.73 962.03 276.13C992.1 279.98 1018.83 292.42 1043.44 309.05C1067.84 325.54 1091.16 343.64 1115.12 361.15C1118.62 357.91 1123.13 353.74 1127.92 349.31C1104.45 313.99 1076.57 283.79 1039.49 263.21C1029.28 257.55 1018.04 253.74 1007.27 249.09L1007.33 249.17C1005.69 247.75 1004.04 246.33 1002.4 244.91C1002.72 244.68 1003.05 244.47 1003.39 244.28C1011.07 247.32 1018.63 250.71 1026.47 253.27C1031.56 254.93 1037.03 255.95 1042.38 256.24C1058.85 257.12 1075.42 256.71 1091.8 258.38C1102.5 259.47 1112.91 263.29 1123.45 265.88C1123.29 266.85 1123.13 267.82 1122.97 268.8C1098.56 259.36 1073.74 258.98 1048.05 265.18C1097.9 289.27 1151.02 307.98 1189.79 350.22V350.24ZM1069.18 707.21C1089.34 685.73 1109.21 667.69 1125.25 646.73C1149.13 615.54 1178.03 592.12 1214.26 577.44C1216.68 576.46 1218.94 575.08 1221.1 573.97C1214.52 565.46 1208.49 557.47 1202.18 549.7C1200.75 547.94 1198 545.49 1196.46 545.85C1183.84 548.86 1170.31 550.45 1159.03 556.28C1125.85 573.43 1093.6 592.37 1060.95 610.55C1054.65 614.06 1048.21 617.31 1041.05 621.1C1050.32 649.47 1059.4 677.26 1069.18 707.21ZM1156.59 341.66C1174.73 365.15 1188.31 390.76 1194.91 419.86L1197.32 419.6V390.48C1198.33 390.45 1199.34 390.42 1200.35 390.39C1201.45 397.02 1202.55 403.65 1203.65 410.28C1204.03 410.21 1204.4 410.13 1204.78 410.06C1204.19 398.66 1203.59 387.27 1203 375.87C1202.36 375.86 1201.71 375.84 1201.07 375.83C1198.39 380.74 1195.71 385.64 1192.91 390.77C1186.57 388.48 1185.04 384.13 1189.71 379.29C1174.06 370.79 1170.14 352.05 1156.58 341.65L1156.59 341.66ZM1076.32 388.85C1064.18 361.81 1050.24 352.41 1019.86 350.38C1038.88 363.34 1056.82 375.56 1076.32 388.85ZM876.34 402.24C866.29 384.57 864.52 364.97 863.88 344.97C859.64 354.33 856.79 363.62 853.45 372.74C851.84 377.15 852.53 380.28 856.02 383.38C862.92 389.52 869.58 395.94 876.33 402.24H876.34ZM919.41 451.53C918.42 452.47 917.44 453.41 916.45 454.35C914.92 450.98 913.39 447.6 911.86 444.23C911.29 444.85 910.71 445.46 910.14 446.08C914.99 456.42 919.84 466.75 925.43 478.66C929.34 469 932.72 460.63 936.47 451.37C930.55 454.92 926.08 457.61 921.61 460.29C921.04 459.42 920.47 458.54 919.9 457.67C921.62 456.3 923.33 454.91 925.07 453.56C926.97 452.08 928.89 450.64 930.79 449.19C924.243 440.357 918.427 437.78 913.34 441.46C915.36 444.81 917.39 448.18 919.42 451.54L919.41 451.53ZM1105.36 417.45C1105.62 417.36 1105.89 417.27 1106.15 417.19C1105.23 406.5 1104.5 395.79 1103.35 385.12C1102.13 373.86 1099.31 371.28 1087.41 369.44C1093.4 385.46 1099.38 401.45 1105.36 417.45ZM1153.71 435.02C1154.28 434.99 1154.85 434.95 1155.43 434.92C1158.64 450.11 1161.85 465.29 1165.06 480.48C1165.63 480.36 1166.19 480.24 1166.76 480.12C1162.74 459.82 1158.73 439.51 1154.24 416.84C1151.81 423.57 1148.41 428.43 1148.69 433.07C1149.47 446.01 1151.78 458.86 1153.72 473.44V435.02H1153.71ZM1130.2 309.03C1130.31 308.86 1130.42 308.68 1130.52 308.51C1111.82 299.34 1093.13 290.17 1074.43 281C1074.06 281.61 1073.69 282.22 1073.33 282.83C1079.14 286.93 1084.46 292.18 1090.85 294.9C1103.65 300.34 1117.05 304.4 1130.2 309.03ZM1203.89 347.21C1200.32 329.69 1197.11 313.88 1193.89 298.07C1192.8 298.02 1191.72 297.96 1190.63 297.91C1189.95 300.88 1187.97 304.3 1188.8 306.75C1193.21 319.77 1198.33 332.56 1203.88 347.2L1203.89 347.21ZM1137.74 353.42L1139.41 351.97C1129.87 340.65 1120.32 329.33 1110.78 318.01C1110.15 318.56 1109.52 319.11 1108.88 319.66C1120.47 329.19 1125.53 344.44 1137.74 353.43V353.42ZM1163.68 265.56L1162.38 266.56C1167.56 273.13 1172.73 279.69 1177.91 286.26C1178.72 285.55 1179.54 284.85 1180.35 284.14C1174.79 277.95 1169.24 271.76 1163.68 265.57V265.56ZM1023.62 379.08C1023.84 378.5 1024.06 377.92 1024.27 377.35C1015.8 375.03 1007.32 372.7 998.85 370.38C998.65 371.12 998.46 371.86 998.26 372.61C1006.71 374.77 1015.17 376.93 1023.62 379.08ZM869.94 355.34C869.17 355.5 868.41 355.67 867.64 355.83C868.41 362.4 869.17 368.96 869.94 375.52V355.34ZM1041.23 258.69C1041.19 259.38 1041.14 260.07 1041.1 260.76C1049.76 260.19 1058.42 259.62 1067.08 259.06C1067.08 258.94 1067.08 258.81 1067.08 258.69H1041.23Z" fill="#000000"/>
<path d="M1280.21 665.42V719.72H1164.09C1173.67 695.11 1184.75 671.25 1200.09 649.61C1203.54 644.74 1207.01 639.47 1211.64 635.93C1227.65 623.71 1246.22 616.89 1265.69 612.36C1267.12 612.03 1268.69 612.32 1271.45 612.32C1244.22 626.41 1204.98 660.2 1199.12 674.07C1205.51 669.67 1212.03 665.19 1219.26 660.22C1219.58 662.74 1219.76 664.2 1220.17 667.47C1222.55 662.46 1224.15 659.1 1225.74 655.73C1226.29 655.96 1226.84 656.19 1227.39 656.42V664.18C1227.88 664.32 1228.38 664.46 1228.87 664.6C1230.22 660.69 1231.57 656.79 1232.92 652.88C1233.41 652.92 1233.9 652.96 1234.38 653C1234.54 656.04 1234.69 659.09 1234.96 664.22C1237.26 659.59 1238.6 656.9 1240.37 653.35C1241.22 656.09 1241.73 657.71 1242.41 659.9C1243.94 657.46 1244.98 655.82 1245.14 655.56C1259 653.78 1268.89 661.79 1280.21 665.41V665.42Z" fill="#000000"/>
<path d="M833.83 719.72C835.73 713.25 837.02 706.51 839.74 700.41C841.38 696.73 845.24 694.03 849.61 689.24C846.49 690.49 845.25 690.98 844 691.48C843.51 690.99 843.01 690.5 842.52 690.01C847.08 685.3 851.52 680.48 856.21 675.91C868.1 664.3 878.88 651.85 878.59 634.08C878.35 619.35 879.19 603.87 874.94 590.15C871.03 577.54 875.1 568.61 879.17 558.23C880.83 554 880.68 548.84 880.47 544.15C880.14 536.36 875.46 534.13 868.84 538.14C853.11 547.67 844.61 567.31 848.33 585.53C848.92 588.44 849.59 591.33 849.8 592.3C847.07 594.55 844.95 595.59 843.91 597.3C841.16 601.79 838.21 604.23 832.85 599.22C834.55 605.83 835.92 611.37 837.41 616.89C839.6 625.02 832.3 627.98 828.13 631.66C825.82 633.71 818.49 633.5 816.02 631.34C807.89 624.24 800.94 615.78 793 607.26C790.81 608.61 786.79 611.09 782.77 613.56C782.38 612.98 781.99 612.4 781.59 611.83C785.56 608.94 789.54 606.06 794.27 602.62C790.9 600.85 788.65 599.22 786.13 598.45C782.85 597.44 778.6 595.58 776.13 596.82C771.42 599.18 769.62 604.15 771.17 609.73C771.57 611.17 771.71 612.69 771.97 614.18L772.05 614.11C769.91 612.44 767.76 610.77 764.84 608.48C760.97 608.88 755.74 609.42 750.52 609.96C766.46 600.48 772.383 591.84 768.29 584.04C780.92 593.69 797.27 594.57 802.76 611.15C804.74 617.13 810.25 621.95 815.41 626.43C814.27 623.35 813.12 620.28 811.24 615.2C817.97 620.03 817.76 629.87 827.48 628.19C827.16 626.14 827.06 624.45 826.62 622.87C823.43 611.36 820.38 599.81 816.79 588.43C815.96 585.8 813.63 582.83 811.21 581.67C802.44 577.47 793.33 573.99 784.36 570.2C778.48 567.72 772.62 565.18 766.67 561.2C769.49 561.2 772.7 560.31 775.06 561.35C789.06 567.47 803.2 573.43 816.48 580.89C819.88 582.8 820.68 589.87 822.06 594.74C824.72 604.16 826.94 613.71 829.34 623.21C830.5 623.1 831.66 622.98 832.82 622.87C833.12 621.1 834.06 619.15 833.62 617.59C828.98 601.3 826.73 584.76 827.2 567.79C827.32 563.34 824.82 560.86 819.8 560.07C806.7 558 793.59 555.71 780.74 552.48C773.99 550.78 768.26 550.24 762.99 555.31C765.75 550.25 764.07 546.7 760.21 542.58C742.53 523.74 725.36 504.41 707.83 485.43C699.72 476.66 690.34 469.46 678.49 466.56C676.09 465.97 673.18 467.46 670.5 468C671.15 470.5 671.1 473.57 672.58 475.4C676.82 480.67 681.99 485.19 686.24 490.46C707.44 516.79 728.47 543.27 747.86 567.57C752.12 564.13 757.54 559.75 762.96 555.37C756.34 565 749.74 574.64 743.09 584.24C741.1 587.11 738.97 589.89 736.9 592.71C737.55 593.21 738.2 593.7 738.85 594.2C746.16 585.51 753.47 576.82 761.65 567.1C761.65 569.22 761.99 570.3 761.6 570.79C753.82 580.57 746.72 591.06 737.9 599.8C726.9 610.71 725.83 614.72 736.26 626.72C750.24 642.82 764.31 658.85 778.6 674.67C786.87 683.82 795.67 692.49 804.09 701.23C793.52 700.34 788.05 691.09 780.39 684.52C782.03 687.55 783.67 690.57 785.3 693.6C784.56 694.03 783.81 694.46 783.07 694.9C780.34 690.46 777.6 686.02 774.87 681.58C769.72 690.01 770.33 698.16 775.88 706.28C778.84 710.62 781.37 715.25 784.1 719.75H779.58C774.32 709.85 769.05 699.96 763.76 690.01C758.26 697.89 756.29 706.16 759.67 715.36C760.16 716.68 759.89 718.28 759.97 719.75H743.38C747.39 713.1 751.41 706.45 755.42 699.8L753.96 698.92C748.93 705.86 743.89 712.81 738.86 719.75H734.34C745.7 703.8 757.06 687.85 769.72 670.07C764.36 663.98 757.51 656.2 750.66 648.41C743.37 640.12 735.66 632.16 728.95 623.44C723.17 615.93 723.85 610.5 729.41 602.8C730.7 601.01 732.59 599.09 732.74 597.13C733.29 589.81 736.87 584.33 742.12 579.73C745.79 576.52 746.14 573.48 743.11 569.46C737.97 562.65 733.61 555.25 728.28 548.6C712.57 529.01 696.61 509.62 680.61 490.26C677.75 486.8 674.28 483.83 671.03 480.69C666.94 476.74 664.35 472.33 667.28 466.66C670.37 460.68 675.37 462.24 680.93 462.57C699.36 463.69 714.4 471.94 727.53 483.82C736.05 491.53 742.72 501.29 751.16 509.1C766.97 523.74 783.09 538.11 799.94 551.52C804.56 555.2 812.2 555.2 818.52 556.59C829.85 559.09 831.14 560.53 831.3 572.17C831.54 589.48 831.78 590.42 838.92 599.19C840.8 592.87 844.37 587.29 843.58 582.41C840.06 560.59 852.1 547.41 867.43 535.61C868.8 534.55 870.39 533.63 872.02 533.07C879.91 530.38 888.06 536.48 886.42 544.61C884.76 552.88 881.9 560.97 878.83 568.86C876.63 574.51 875.37 579.65 878.19 585.47C879.33 587.82 879.24 590.82 879.48 593.54C880.49 605.22 881.02 616.95 882.47 628.57C884.44 644.42 877.25 656.49 868.33 668.53C859.84 679.98 851.99 692 845.07 704.45C842.86 708.44 844.52 714.58 844.42 719.74H833.86L833.83 719.72ZM694.3 469.26C698.98 472.99 704.18 476.23 708.25 480.54C723.73 496.94 740.03 512.77 753.72 530.59C764.01 543.98 776.61 549.43 792.9 551.27C791.35 549.89 790.3 548.87 789.16 547.97C767.43 530.83 747.42 512.05 729.63 490.66C720.74 479.97 708.04 473.12 694.31 469.26H694.3Z" fill="#000000"/>
<path d="M771.97 614.15C789.5 622.55 807.04 630.96 826.42 640.25C823.19 640.1 821.74 640.42 820.65 639.93C805.39 632.99 790.15 626.01 775.02 618.79C773.6 618.11 773.01 615.69 772.04 614.08L771.96 614.15H771.97Z" fill="#000000"/>
<path d="M855.1 641.54C843.62 637.2 835.7 613.23 842.88 604.71C845.46 607.99 848.02 611.25 850.59 614.52C850.41 614.9 850.24 615.29 850.06 615.67C847.49 614.37 844.92 613.06 841.14 611.15C843.25 617.16 844.68 622.44 846.94 627.34C849.2 632.23 852.29 636.72 855.1 641.54Z" fill="#000000"/>
<path d="M845.2 673.78C840.5 663.76 835.76 653.66 831.31 644.17C838.54 645.25 846.44 660.83 845.2 673.78Z" fill="#000000"/>
<path d="M954.99 221.05C951.77 223.69 948.55 226.33 945.54 228.81C983.31 238.69 1019.18 233.75 1054.36 217.94C1050.64 220.39 1047.12 223.24 1043.17 225.21C1030 231.75 1016.66 237.96 1003.39 244.3C1003.05 244.49 1002.72 244.7 1002.4 244.93C999.25 245.65 996.07 246.28 992.95 247.1C968.22 253.61 943.54 260.27 918.76 266.59C914.52 267.67 909.91 267.32 905.47 267.63C905.25 266.79 905.03 265.95 904.81 265.11C907.69 264.32 910.54 262.98 913.46 262.83C933.54 261.8 1000.02 243.22 1018.26 233.27C1003.82 235.69 989.65 239.22 975.3 240.2C953.59 241.68 931.77 241.62 909.99 241.77C894.28 241.88 890.6 245.05 889.91 261.08C889.8 263.77 890.12 266.49 890.24 269.19C889.57 269.38 888.9 269.57 888.23 269.76C887.72 266.85 886.37 263.79 886.88 261.07C887.98 255.18 889.35 249.14 891.97 243.83C893.27 241.19 897.51 238.64 900.54 238.49C909.53 238.03 918.59 239.05 927.62 238.98C943.11 238.86 958.59 238.35 974.05 237.09C957.22 231.47 940.36 232.45 923.41 235.83C920.53 236.4 917.37 235.57 914.33 235.38C914.84 232.27 914.67 228.84 915.97 226.11C925.84 205.41 944.05 193.88 963.16 183.43C947.89 194.97 931.17 204.93 920.8 221.89C918.63 225.45 917.2 229.46 914.36 235.57C926.21 231.38 937.55 234.1 945.92 225.38C948.12 223.09 951.25 221.7 953.96 219.9C954.3 220.28 954.64 220.67 954.97 221.05H954.99Z" fill="#000000"/>
<path d="M1201.6 297.05C1196.75 292.65 1192.21 290.1 1189.92 286.22C1160.03 235.46 1113.7 210.84 1057.2 203.04C1036.06 200.12 1015.23 204.51 994.91 210.7C992.83 211.34 990.75 211.98 988.66 212.61C988.46 211.88 988.26 211.16 988.06 210.43C999.26 207.72 1010.34 204.26 1021.68 202.44C1059.61 196.38 1094.82 205.3 1128.36 222.89C1147.23 232.79 1164.61 244.66 1179.63 259.8C1182.59 262.78 1184.58 266.71 1187.54 269.68C1189.77 271.92 1192.63 273.84 1195.57 274.97C1199.8 276.6 1203.35 286.04 1201.58 297.03L1201.6 297.05Z" fill="#000000"/>
<path d="M1015.37 245.36C1056.73 225.77 1144.06 258.64 1168.83 303.47C1151.15 279.52 1128.46 262.55 1100.13 253.68C1072.52 245.03 1044.41 240.58 1015.37 245.36Z" fill="#000000"/>
<path d="M1189.79 350.23C1186.78 346.06 1183.94 341.76 1180.73 337.76C1173.91 329.28 1166.81 321.03 1160.01 312.54C1157.49 309.39 1155.47 305.84 1153.85 301.99C1171.58 314.89 1183.08 332.93 1195.39 351.82C1192.79 351.04 1191.23 350.58 1189.68 350.11L1189.8 350.23H1189.79Z" fill="#000000"/>
<path d="M953.97 219.9C968.67 209.67 985.52 204.67 1002.59 200.47C1026.82 194.51 1051.37 191.84 1076.38 195.85C1033.92 194.82 993 201.04 954.98 221.05C954.64 220.67 954.3 220.28 953.97 219.9Z" fill="#000000"/>
<path d="M1119.55 353.18C1109.75 353.44 1105.98 347.11 1101.29 342.38C1093.83 334.87 1086.57 327.16 1079.01 319.76C1076.43 317.24 1073.18 315.4 1070.94 312.4C1088.19 323.88 1106.27 334.4 1119.55 353.18Z" fill="#000000"/>
<path d="M1007.27 249.1C994.93 256.75 981.49 260.72 967.32 262.25C966.68 261.36 966.05 260.47 965.41 259.58C966.76 259.01 968.43 257.63 969.41 258.01C977.98 261.36 982.47 252.87 989.26 251.48C995.19 250.26 1001.3 249.92 1007.34 249.19L1007.28 249.11L1007.27 249.1Z" fill="#000000"/>
<path d="M1029.27 297.29C1040.28 299.45 1073.57 318.68 1079.82 327.09C1062.33 316.78 1045.7 306.97 1029.27 297.29Z" fill="#000000"/>
<path d="M984.35 338.39C972.97 337.87 961.59 337.36 950.2 336.84C950.23 336.66 950.25 336.49 950.28 336.31H984.43C984.4 337 984.37 337.7 984.34 338.39H984.35Z" fill="#000000"/>
<path d="M920.43 211.07C916.5 218.71 912.57 226.36 908.63 234C907.96 233.65 907.29 233.31 906.63 232.96C910.58 225.33 914.54 217.7 918.49 210.06C919.13 210.39 919.78 210.73 920.42 211.06L920.43 211.07Z" fill="#000000"/>
<path d="M958.27 264.04L935.38 267.51C935.32 267.15 935.25 266.79 935.19 266.43C942.74 264.85 950.3 263.26 957.85 261.68C957.99 262.47 958.13 263.25 958.27 264.04Z" fill="#000000"/>
<path d="M995.46 524.01C1014.22 514.85 1032.99 505.68 1050.98 496.9C1047.48 506.16 998.29 528.83 987.09 525.44C986.48 530.76 981.13 531.96 973.8 528.44C973.92 527.97 973.92 527.18 974.19 527.08C982.85 523.82 991.54 520.62 1000.81 518.39C998.65 519.68 996.49 520.97 994.33 522.27C994.71 522.85 995.08 523.44 995.46 524.02V524.01Z" fill="#000000"/>
<path d="M1106.98 577.22C1109.96 559.2 1112.94 541.18 1115.92 523.15C1117.1 523.36 1118.28 523.57 1119.46 523.78C1116.11 541.74 1112.76 559.7 1109.41 577.65C1108.6 577.5 1107.79 577.36 1106.99 577.21L1106.98 577.22Z" fill="#000000"/>
<path d="M1024.24 535C1018.87 539.71 1013.5 544.42 1008.13 549.12C1007.63 548.55 1007.13 547.98 1006.62 547.41C1008.11 546.1 1009.6 544.79 1011.26 543.33C1005.79 542.24 1001.96 551.52 995.97 544.26C1005.18 540.66 1014.21 537.12 1023.24 533.59C1023.57 534.06 1023.91 534.52 1024.24 534.99V535Z" fill="#000000"/>
<path d="M1011.28 391.57C998.14 399.16 981.05 398.47 970.32 411.12C979.73 395.68 996.36 395.41 1011.28 391.57Z" fill="#000000"/>
<path d="M1132.4 451.08C1134.07 449.55 1136.6 447.23 1139.13 444.91C1139.86 445.1 1140.6 445.28 1141.33 445.47C1139.76 451.44 1138.19 457.42 1136.84 462.57C1135.64 459.46 1134.24 455.85 1132.4 451.08Z" fill="#000000"/>
<path d="M1150.59 397.01C1149.03 392.72 1147.47 388.43 1145.12 381.97C1148.47 384.46 1152.14 385.8 1152.59 387.84C1153.19 390.59 1151.31 393.88 1150.49 396.93L1150.59 397V397.01Z" fill="#000000"/>
</g>
</g>
<defs>
<clipPath id="clip0_47_1282">
<rect width="1280" height="720" fill="white"/>
</clipPath>
<clipPath id="clip1_47_1282">
<rect width="614.21" height="555.72" fill="white" transform="translate(666 164)"/>
</clipPath>
</defs>
</svg>
