<svg width="1280" height="720" viewBox="0 0 1280 720" fill="none" xmlns="http://www.w3.org/2000/svg">
<g clip-path="url(#clip0_46_1141)">
<g clip-path="url(#clip1_46_1141)">
<path d="M1005.49 719.375C1005.6 716.687 1006.25 713.876 1005.69 711.339C1004.54 706.038 1006 701.429 1009.09 697.52C1014.13 691.149 1019.65 685.148 1025.03 679.052C1025.47 678.56 1026.42 678.532 1027.13 678.286C1028.72 677.737 1030.15 677.188 1029.08 674.954C1028.06 672.815 1029.88 672.635 1031.21 672.341C1038.59 670.723 1045.64 670.581 1051.17 676.989C1051.27 677.112 1051.54 677.103 1051.74 677.159C1051.91 677.065 1052.21 676.97 1052.22 676.866C1052.38 671.792 1055.43 668.404 1059.31 665.933C1067.31 660.841 1073.05 653.676 1078.65 646.274C1081.47 642.544 1084.6 639.042 1087.56 635.407C1091.43 630.665 1093.15 625.043 1094.38 619.155C1096.46 609.216 1098.6 599.278 1101.04 589.415C1103.66 578.87 1106.71 568.439 1109.48 557.933C1111.93 548.666 1117.38 541.046 1122.73 533.36C1124.73 530.473 1126.45 527.34 1128.74 524.718C1132.63 520.27 1136.51 515.66 1141.05 511.94C1152.72 502.389 1164.66 493.151 1176.7 484.045C1187.28 476.047 1198.25 468.55 1208.8 460.505C1211.77 458.242 1213.89 454.844 1216.33 451.91C1223.4 443.41 1230.41 434.853 1237.52 426.382C1238.92 424.716 1238.84 423.608 1237.67 421.696C1231.14 411.067 1224.94 400.229 1218.45 389.58C1215.19 384.251 1211.63 379.14 1206.03 375.817C1202.06 373.47 1197.16 374.7 1194.52 378.543C1189.07 386.494 1183.4 394.294 1177.8 402.141C1175.35 405.577 1172.71 408.88 1170.41 412.411C1166.36 418.62 1161.33 423.646 1154.57 426.864C1148.82 429.6 1137.11 427.035 1133.86 421.791C1132 418.772 1131.44 414.957 1129.73 411.814C1125.89 404.763 1121.82 397.825 1117.56 391.028C1116.46 389.287 1114.31 388.151 1112.51 386.92C1110.66 385.652 1108.88 386.191 1106.86 387.072C1103.96 388.331 1100.83 389.22 1097.72 389.722C1096.8 389.874 1095.12 388.425 1094.58 387.327C1091.33 380.645 1091.85 373.707 1093.67 366.74C1094.41 363.929 1095.07 361.099 1095.85 357.937C1094.65 358.07 1093.76 358.174 1092.87 358.268C1092.63 358.013 1092.41 357.767 1092.17 357.511C1093.24 356.432 1094.11 354.927 1095.39 354.34C1104.46 350.213 1113.7 346.474 1123.76 345.537C1124.64 345.452 1125.58 345.907 1126.48 346.115C1126.1 347.052 1125.78 348.017 1125.3 348.898C1125.08 349.305 1124.55 349.551 1124.16 349.863C1119.11 353.829 1114.07 357.795 1109.01 361.771C1108.38 362.272 1107.78 362.812 1107.12 363.276C1102.76 366.38 1101.73 365.954 1100.55 360.474C1099.47 362.367 1097.98 364.137 1097.39 366.172C1095.85 371.473 1094.23 376.792 1095.48 382.49C1096.35 386.485 1097.7 387.431 1101.59 386.097C1104.35 385.15 1107.08 384.119 1109.86 383.21C1112.72 382.273 1114.77 382.926 1116.9 385.472C1125.09 395.259 1131.13 406.145 1135.06 418.27C1135.37 419.235 1136.49 420.248 1137.46 420.646C1142.88 422.861 1148.54 423.362 1154.34 422.671C1158.63 422.16 1160.72 418.838 1163.24 415.979C1173.72 404.062 1182.13 390.678 1190.6 377.332C1195.29 369.949 1200.07 362.622 1204.83 355.277C1205.31 354.539 1205.9 353.876 1206.45 353.176L1207.24 353.63C1203.51 360.038 1199.78 366.447 1195.7 373.47C1197.06 372.978 1197.74 372.845 1198.31 372.514C1204.44 369.021 1209.06 370.271 1213.41 376.385C1218.59 383.664 1223.08 391.464 1227.43 399.282C1233.73 410.593 1241.18 421.043 1249.64 430.802C1257.34 439.69 1264.03 449.193 1268.06 460.353C1269.55 464.461 1268.41 468.465 1268.06 472.497C1267.61 472.535 1267.16 472.573 1266.7 472.611C1265.75 467.727 1265.54 462.521 1263.62 458.034C1261.66 453.443 1258.04 449.572 1254.67 444.697C1253.07 449.222 1251.63 452.932 1250.44 456.728C1247.79 465.275 1244.9 473.785 1242.78 482.474C1240.96 489.961 1239.99 497.675 1238.78 505.305C1237.42 513.842 1236 522.371 1234.97 530.956C1232.75 549.452 1231.07 567.985 1232.93 586.651C1233.22 589.566 1232.96 592.548 1232.96 595.491C1233.36 595.567 1233.75 595.643 1234.15 595.719C1234.7 594.971 1235.32 594.251 1235.8 593.456C1247.14 574.667 1258.47 555.869 1269.79 537.08C1271.77 533.805 1274.05 530.663 1275.57 527.198C1276.62 524.813 1277.01 521.973 1277.02 519.332C1277.11 481.452 1277.07 443.58 1277.07 405.7C1277.07 382.528 1277.07 359.366 1277.07 336.195C1277.07 273.24 1277.06 210.286 1277.12 147.331C1277.12 144.34 1276.03 142.655 1273.83 140.563C1266.52 133.578 1259.25 126.422 1257.63 115.574C1257.18 112.507 1255.67 109.592 1254.64 106.61C1254.29 106.61 1253.95 106.62 1253.6 106.629C1252.98 107.652 1252.35 108.674 1251.76 109.668C1245.52 108.163 1243.43 113.321 1240.32 116.814C1238.37 114.164 1238.8 112.432 1242.65 106.601C1238.79 106.639 1236.36 108.021 1233.56 112.186C1231.89 114.675 1230.55 117.392 1228.95 119.938C1228.62 120.468 1227.72 121.093 1227.21 120.988C1221.36 119.843 1219.1 112.583 1222.91 107.813C1228.27 101.111 1234.89 96.9462 1243.71 96.7569C1249.28 96.6339 1254.02 98.2714 1257.47 102.834C1261.23 107.803 1264.78 112.943 1268.74 117.751C1270.11 119.417 1272.29 120.544 1274.29 121.537C1275.91 122.351 1277.04 121.443 1277.03 119.578C1277 112.432 1276.96 105.276 1276.86 98.1294C1276.84 97.145 1276.55 96.1322 1276.19 95.2046C1274.7 91.3616 1272.93 87.6133 1271.67 83.7041C1270.12 78.8767 1266.22 77.684 1262.04 76.747C1254.39 75.0337 1248.46 78.0721 1242.93 83.1551C1240.03 85.8243 1236.28 87.5754 1232.9 89.7241C1231.8 90.4245 1230.71 91.1723 1229.53 91.7213C1228.72 92.0999 1227.76 92.1946 1226.87 92.4123C1227.11 91.4279 1227.11 90.3015 1227.62 89.4969C1228.96 87.3767 1230.43 85.3227 1232.04 83.3917C1237.14 77.2202 1241.37 70.2821 1248.22 65.6251C1254.04 61.6685 1260.44 60.3339 1267.16 61.1763C1269.44 61.4603 1271.58 63.6752 1273.6 65.2559C1274.66 66.0794 1275.3 67.433 1276.51 69.0421V43.5422C1276.26 43.5232 1276.02 43.5043 1275.77 43.4854C1275.58 43.9776 1275.4 44.4698 1275.38 44.5076C1268.72 33.6792 1261.91 22.6235 1255.1 11.5584C1261.03 15.3446 1267.61 14.398 1273.81 15.3067C1276.19 15.6569 1276.93 14.6915 1276.72 12.4955C1276.62 11.5016 1276.59 10.4604 1276.73 9.476C1277.99 0.890838 1272.9 -1.55125 1265.13 -2.54512C1263.68 -2.73443 1262.21 -2.92374 1260.01 -3.19824C1262.77 -5.10079 1266.3 -2.56405 1267.61 -5.98108C1268.02 -5.98108 1268.41 -5.98108 1268.82 -5.98108C1270.63 -4.59912 1272.44 -3.2077 1274.25 -1.83521C1273.77 -3.49167 1273.41 -4.74111 1273.05 -5.98108C1274.86 -5.98108 1276.67 -5.98108 1278.49 -5.98108C1278.74 -5.33743 1279.01 -4.70324 1279.25 -4.05959C1280.78 -0.121966 1279.45 3.81566 1279.37 7.77222C1279.11 18.932 1279.23 30.1107 1279.3 41.2704C1279.38 54.257 1279.64 67.2436 1279.66 80.2302C1279.71 111.239 1279.66 142.257 1279.64 173.266C1279.63 200.053 1279.64 226.831 1279.57 253.618C1279.52 281.106 1279.31 308.594 1279.32 336.081C1279.34 373.337 1279.57 410.593 1279.57 447.849C1279.57 466.279 1279.11 484.708 1279.08 503.128C1278.99 559.333 1279.03 615.53 1278.97 671.736C1278.97 681.797 1278.81 691.859 1278.7 701.921C1278.65 707.742 1278.55 713.573 1278.48 719.394H1245.87C1244.67 716.848 1243.55 714.273 1242.27 711.775C1236.69 700.804 1228.82 691.859 1217.73 686.435C1210.81 683.056 1203.48 680.198 1196.04 678.371C1191.06 677.15 1185.47 677.689 1180.26 678.314C1177.43 678.655 1176.14 678.172 1175.23 675.692C1174.53 673.771 1173.66 671.916 1172.87 670.032C1172.57 670.098 1172.28 670.164 1171.98 670.231C1171.98 672.606 1171.78 675.001 1172.03 677.349C1172.41 681.182 1172.54 681.154 1168.69 680.387C1168.01 680.255 1167.29 680.33 1166.59 680.349C1155.13 680.633 1145.71 685.981 1136.41 692.001C1127.82 697.567 1124.3 706.767 1119.14 714.813C1118.32 716.1 1118.24 717.87 1117.81 719.413H1114.79C1115.46 717.217 1116.14 715.021 1116.78 712.816C1117.47 710.43 1116.29 708.84 1114.11 709.162C1108.39 710.023 1105.62 708.225 1104.25 702.659C1102.97 697.491 1101.64 692.323 1100.58 687.108C1100.14 684.978 1100.42 682.716 1100.28 680.52C1100.21 679.422 1100.19 677.566 1099.69 677.396C1098.53 676.998 1096.91 677.036 1095.81 677.576C1089.79 680.567 1084.49 691.064 1085.25 697.983C1085.55 700.776 1086.56 702.858 1088.91 704.798C1092.61 707.875 1097.21 710.847 1095.67 717.037C1095.49 717.747 1095.92 718.609 1096.08 719.394H1092.45C1091.79 715.059 1091.38 710.658 1086.64 708.414C1084.13 707.231 1081.57 705.972 1079.42 704.259C1071.97 698.305 1064.7 692.124 1057.33 686.066C1053.53 682.933 1049.56 680.008 1045.89 676.733C1044.16 675.191 1042.47 674.698 1040.22 674.613C1034.46 674.405 1030.58 677.235 1027.32 681.599C1022.22 688.452 1016.94 695.172 1011.81 702.006C1008.86 705.944 1006.4 710.061 1009.27 715.627C1013.38 710.232 1018.48 712.787 1023.38 713.724C1024.95 714.027 1026.46 714.747 1028.04 714.945C1029.93 715.182 1031.86 715.078 1033.77 715.116C1032.94 713.384 1032.48 711.292 1031.2 709.986C1027.95 706.663 1027.33 702.584 1027.17 698.324C1027.13 697.434 1027.92 696.507 1028.33 695.598C1028.77 696.459 1029.66 697.349 1029.59 698.163C1029.29 701.968 1030.74 705.149 1033.04 707.875C1036.38 711.841 1040.02 715.561 1043.54 719.394H1031.46C1026.03 718.031 1020.6 716.649 1015.16 715.315C1012.55 714.671 1010.3 716.384 1009.71 719.394H1005.48L1005.49 719.375ZM1207.69 678.238L1209.32 677.708C1209.18 675.957 1209.02 674.197 1208.88 672.446C1208.75 670.713 1208.28 668.915 1208.57 667.259C1209.74 660.519 1213.75 654.367 1212.77 647.163C1212.76 647.059 1213.05 646.917 1213.36 646.652C1215.53 647.154 1215.99 648.924 1215.71 650.741C1214.46 659.052 1213.05 667.334 1211.72 675.635C1211.5 676.998 1210.3 678.655 1212.56 679.431C1214.79 680.198 1215.52 678.541 1215.91 676.98C1218.24 667.722 1220.44 658.437 1220.52 648.801C1220.54 646.709 1219.8 645.327 1217.66 644.835C1216.69 644.608 1215.71 644.314 1214.8 643.898C1212.73 642.932 1211.6 643.642 1211.02 645.744C1209.86 650.012 1208.48 654.225 1207.48 658.531C1206.67 662.043 1206.14 665.64 1205.78 669.227C1205.56 671.319 1205.76 673.496 1206.08 675.588C1206.23 676.535 1207.14 677.358 1207.7 678.238H1207.69ZM1107.77 675.058C1104.89 676.847 1103.03 678.466 1103.42 681.57C1104.03 686.54 1104.64 691.518 1105.14 696.507C1105.49 700.037 1105.92 703.492 1109.71 705.111C1110.98 705.65 1112.39 705.859 1113.73 706.228C1113.92 704.95 1114.47 703.606 1114.25 702.404C1113.08 696.09 1111.8 689.786 1110.39 683.52C1109.76 680.747 1108.71 678.068 1107.77 675.058ZM1261.34 16.4615C1265.03 19.7271 1268.79 22.9169 1274.3 22.8885C1276.47 22.8791 1276.78 21.6486 1276.74 19.9921C1276.7 18.4303 1277.09 16.5088 1274.62 16.471C1270.24 16.4142 1265.86 16.452 1261.33 16.452L1261.34 16.4615ZM1100.11 356.016C1102.54 356.726 1105.51 358.675 1107.26 357.89C1111.78 355.883 1115.74 352.655 1119.92 349.92C1119.77 349.645 1119.62 349.38 1119.47 349.106C1118.8 349.106 1118.13 349.106 1117.47 349.106C1113.64 349.106 1111.22 351.936 1108.21 353.611C1107.12 354.217 1105.2 354.88 1104.52 354.378C1102.51 352.864 1101.49 354.094 1100.11 356.016ZM1249.51 105.919C1247.76 99.7953 1238.42 98.3944 1232.2 103.96C1238.89 100.865 1243.87 105.531 1249.51 105.919ZM1270.06 24.9709C1270.8 26.6274 1271.07 28.1797 1271.99 29.0316C1272.94 29.9214 1274.52 30.1391 1275.83 30.6502C1276.12 29.5144 1276.55 28.3974 1276.67 27.2426C1276.84 25.6335 1275.96 24.8952 1274.33 24.9615C1272.99 25.0183 1271.65 24.9709 1270.05 24.9709H1270.06ZM1144.92 677.197C1145.14 677.084 1145.34 676.98 1145.56 676.866C1145.56 675.607 1145.62 674.348 1145.53 673.099C1145.49 672.55 1145.15 672.02 1144.95 671.48C1144.43 671.906 1143.4 672.436 1143.46 672.73C1143.79 674.253 1144.4 675.711 1144.91 677.197H1144.92ZM1226.4 115.366C1226.7 115.432 1227.01 115.508 1227.31 115.574C1227.85 113.274 1228.39 110.965 1228.93 108.664C1228.62 108.598 1228.32 108.522 1228.02 108.456C1227.48 110.756 1226.94 113.066 1226.41 115.366H1226.4Z" fill="#000000"/>
<path d="M1034.48 -6C1034.28 -5.2049 1034.33 -4.03119 1033.82 -3.66203C1023.84 3.51278 1018.45 14.0005 1013.61 24.7532C1007.27 38.8094 1002.35 53.4146 999.176 68.512C997.965 74.2765 997.842 80.2776 997.199 86.1651C997.095 87.1116 996.878 88.0487 996.083 88.8722C995.043 74.1534 999.214 60.3149 1003.54 46.5522C1007.89 32.6948 1013.53 19.3958 1021.57 7.01499C1018.53 7.85742 1012.39 13.1202 1007.28 18.6859C1003.14 23.2009 999.081 27.8863 994.381 31.7671C989.5 35.7994 986.644 41.2894 982.823 46.0789C992.555 23.1157 1010.09 7.35575 1030.26 -6C1031.67 -6 1033.07 -6 1034.48 -6Z" fill="#000000"/>
<path d="M1138.38 -5.99999C1139.76 -3.0373 1137.44 -1.65535 1135.66 -0.434305C1132.02 2.07404 1128.01 4.03339 1124.41 6.59852C1107.81 18.4777 1091.31 30.4799 1074.77 42.4347C1074.2 42.8417 1073.64 43.2677 1073.05 43.6463C1072.94 43.722 1072.69 43.5895 1071.67 43.3813C1081.17 34.143 1091.82 27.2427 1102.17 20.0016C1112.6 12.7132 1123.25 5.7277 1133.57 -1.82573C1124.22 3.75889 1114.88 9.35297 1105.53 14.9376C1105.41 14.7577 1105.29 14.5779 1105.16 14.3981C1108.27 12.1074 1111.24 9.60854 1114.5 7.564C1120.47 3.83461 1126.61 0.389189 1132.65 -3.22661C1134.02 -4.05011 1135.26 -5.08184 1136.56 -6.01892C1137.16 -6.01892 1137.77 -6.01892 1138.37 -6.01892L1138.38 -5.99999Z" fill="#000000"/>
<path d="M1255.53 -1.17261C1257.12 1.25054 1258.75 3.65477 1260.28 6.11579C1260.59 6.61746 1260.51 7.35576 1260.6 7.98995C1260.05 7.99941 1259.49 8.10353 1258.97 7.99941C1256.97 7.60186 1255.07 7.2895 1254.25 4.79062C1253.95 3.86301 1252.28 3.10577 1251.09 2.78395C1242.78 0.531171 1234.45 -1.57962 1226.13 -3.74721C1225.28 -3.96492 1224.46 -4.27728 1223.21 -4.68429C1223.96 -5.31848 1224.36 -5.6687 1224.76 -6.00946C1225.77 -6.00946 1226.78 -6.00946 1227.78 -6.00946C1229.24 -5.40367 1230.65 -4.6559 1232.15 -4.22995C1238.31 -2.49777 1244.48 -0.869716 1250.65 0.796203C1251.81 1.10856 1252.98 1.41146 1254.15 1.71435C1254.3 1.47772 1254.45 1.25054 1254.6 1.01391C1253.55 -0.405909 1252.42 -1.75947 1251.52 -3.25501C1251.05 -4.05011 1250.97 -5.09131 1250.73 -6.01892C1250.93 -6.01892 1251.13 -6.01892 1251.33 -6.01892C1252.74 -4.40033 1254.16 -2.77227 1255.57 -1.15368L1255.53 -1.19154V-1.17261Z" fill="#000000"/>
<path d="M1057.44 -6C1057.36 -5.04399 1057.67 -3.73776 1057.15 -3.16983C1051.51 3.10576 1045.74 9.27724 1039.98 15.4676C1039.73 15.7327 1039.31 15.8368 1038.75 15.8179C1042.66 7.39361 1048.89 0.729935 1055.03 -6H1057.44Z" fill="#000000"/>
<path d="M1071.94 -6C1071.7 -5.2049 1071.67 -4.24889 1071.2 -3.6431C1064.49 4.88527 1057.69 13.3568 1050.97 21.8852C1050.35 22.6614 1050.09 23.7215 1049.66 24.6397C1049.24 24.2326 1048.81 23.8256 1048.39 23.4186C1054.76 12.8268 1062.26 3.04897 1070.73 -6C1071.13 -6 1071.53 -6 1071.94 -6Z" fill="#000000"/>
<path d="M1088.85 719.375C1086.55 717.132 1084.21 714.936 1081.99 712.617C1081.4 711.992 1081.23 710.97 1080.86 710.137C1081.74 710.251 1082.7 710.175 1083.48 710.525C1084.92 711.178 1086.26 712.087 1088.06 713.137C1087.1 713.44 1086.54 713.62 1085.54 713.933C1087.56 715.864 1089.42 717.624 1091.27 719.385H1088.86L1088.85 719.375Z" fill="#000000"/>
<path d="M1071.33 719.375C1071.78 717.766 1072.22 716.157 1072.67 714.548C1073.18 714.643 1073.69 714.747 1074.2 714.841C1074.05 716.356 1073.9 717.861 1073.75 719.375H1071.34H1071.33Z" fill="#000000"/>
<path d="M960.218 126.355C958.95 125.56 958.279 125.873 958.553 127.397C959.612 133.265 960.795 139.086 965.713 143.232C966.214 143.658 966.517 144.359 966.81 144.983C967.113 145.618 967.103 146.659 967.557 146.905C973.336 150.019 971.955 156.049 972.977 160.866C976.533 177.781 981.83 194.052 988.8 209.869C992.442 218.142 995.081 226.85 998.136 235.378C998.401 236.126 998.495 236.95 998.533 237.754C998.798 242.468 998.807 242.392 1003.39 243.85C1006.65 244.882 1009.87 246.046 1013.05 247.305C1021.3 250.552 1025.14 256.761 1024.49 265.687C1023.66 276.922 1023.3 288.224 1021.82 299.374C1020.23 311.329 1017.59 323.152 1015.39 335.021C1015.29 335.551 1014.96 336.043 1014.06 336.517C1014.06 335.031 1013.9 333.516 1014.09 332.049C1016.52 312.891 1019.25 293.752 1021.3 274.556C1021.88 269.18 1020.67 263.585 1019.95 258.133C1019.76 256.732 1018.57 255.18 1017.4 254.243C1013.51 251.082 1009.2 249.075 1003.94 248.905C1001.02 248.81 998.079 247.513 995.26 246.444C992.735 245.488 992.924 242.515 993.757 241.275C996.149 237.735 994.182 234.631 993.539 231.46C991.345 220.716 986.757 210.863 981.82 201.151C979.966 197.498 978.548 193.617 976.23 189.869C975.975 212.945 975.71 236.022 975.455 259.099L974.339 259.241C974.065 257.887 973.563 256.543 973.544 255.19C973.393 239.382 973.506 223.575 973.157 207.768C972.967 199.429 972.022 191.109 971.416 182.788C971.303 181.283 970.991 179.778 971.047 178.283C971.255 172.698 970.508 167.275 968.9 161.908C968.087 159.182 967.888 156.266 967.377 153.294C964.862 154.278 964.918 156.276 965.07 158.14C965.505 163.451 966.299 168.742 966.545 174.061C967.236 189.149 968.077 204.237 968.172 219.325C968.257 231.583 967.378 243.85 966.876 256.108C966.819 257.528 966.413 258.938 965.713 260.301C966.895 231.63 966.82 203.044 963.821 174.487C963.821 178.359 963.812 182.23 963.821 186.101C963.831 190.134 963.774 194.156 963.916 198.189C964.218 207.143 964.682 216.088 964.937 225.042C964.985 226.841 964.417 228.649 964.133 230.456C963.717 230.428 963.292 230.4 962.875 230.371C962.308 209.661 961.74 188.96 961.173 168.249C956.718 189.414 957.673 210.901 958.373 232.368C957.986 232.387 957.588 232.397 957.2 232.416C956.813 229.226 956.084 226.027 956.084 222.837C956.103 213.078 956.453 203.328 956.557 193.57C956.586 191.071 955.924 188.543 956.056 186.063C956.538 177.44 956.888 168.789 958.023 160.251C958.468 156.948 960.814 153.871 962.44 150.776C964.133 147.549 962.97 143.885 959.499 142.011C956.917 140.61 953.748 141.595 952.311 144.794C950.343 149.177 948.338 153.644 947.222 158.282C943.666 173.096 941.282 188.07 942.238 203.423C942.985 215.463 943.637 227.522 944.12 239.572C944.706 254.309 947.79 268.82 948.017 283.577C948.244 298.182 948.272 312.787 948.3 327.392C948.329 344.212 948.262 361.032 948.215 377.862C948.215 379.206 948.007 380.541 947.894 381.885C947.525 381.913 947.165 381.941 946.796 381.979C946.617 380.436 946.276 378.903 946.267 377.36C946.191 353.384 946.352 329.408 946.04 305.442C945.832 289.256 946.617 272.928 943.164 256.979C938.549 235.691 938.019 214.195 939.797 192.67C940.658 182.296 943.127 172.064 944.886 161.766C945.084 160.611 945.434 159.494 945.378 158.254C941.698 164.302 941.112 171.364 938.521 177.829C939.041 174.298 939.183 170.654 940.147 167.246C943.023 157.109 945.16 146.451 952.982 138.679C956.415 135.272 956.69 132.196 955.337 128.04C954.571 125.702 954.59 123.071 954.439 120.563C954.127 115.319 953.436 110.169 953.824 104.784C954.789 91.4468 960.123 79.6718 965.562 67.9157C966.952 64.9057 969.988 62.6435 972.608 60.1541C971.851 61.8389 971.18 63.5616 970.338 65.1991C966.848 72.0048 963.679 78.8105 961.731 86.3639C959.887 93.5576 958.014 100.628 957.125 108.04C956.33 114.628 957.286 120.61 960.199 126.412L960.237 126.384L960.218 126.355Z" fill="#000000"/>
<path d="M1186.06 120.941C1183.3 121.689 1180.55 122.522 1177.76 123.156C1171.68 124.538 1165.56 125.721 1159.49 127.169C1150.9 129.223 1146.03 135.035 1145.16 143.904C1144.93 146.309 1144.71 148.713 1144.35 151.098C1143.92 153.966 1142.61 154.667 1139.92 153.587C1136.47 152.206 1133.02 150.814 1129.58 149.423C1129.11 149.233 1128.54 149.11 1128.23 148.76C1127.29 147.691 1126.46 146.526 1125.58 145.4C1126.84 145.05 1128.1 144.643 1129.39 144.387C1130.21 144.226 1131.08 144.283 1132.6 144.207C1131.59 142.617 1130.95 141.547 1130.25 140.516C1129.4 139.257 1129.39 138.358 1131.01 137.723C1131.68 137.468 1132.66 136.777 1132.67 136.275C1132.72 132.536 1133.97 128.551 1131.03 125.286C1127.36 121.216 1124.75 115.924 1119.39 113.738C1116.43 112.526 1113.08 112.214 1109.88 111.75C1109.47 111.693 1108.77 113.142 1108.31 113.946C1107.49 115.413 1106.75 116.928 1105.98 118.423C1105.07 116.966 1104.04 115.565 1103.29 114.022C1102.75 112.905 1102.61 111.599 1102.07 109.535C1100.9 113.539 1099.96 116.748 1098.79 120.761C1097.73 119.446 1096.96 118.84 1096.65 118.054C1093.67 110.633 1093.93 103.08 1096.14 95.5737C1096.96 92.7625 1099.65 92.4218 1103.27 94.1161C1107 95.8577 1110.94 97.1923 1114.52 99.1801C1120.91 102.739 1127.04 101.688 1133.3 99.0002C1136.44 97.6561 1139.66 96.4446 1142.91 95.4128C1151.96 92.5637 1160.88 96.8232 1164.45 105.702C1165.31 107.832 1165.89 110.094 1166.44 112.337C1167.22 115.489 1168.96 117.505 1172.3 117.988C1176.84 118.632 1181.37 119.341 1185.9 120.023C1185.95 120.326 1185.99 120.629 1186.04 120.932L1186.06 120.941ZM1145.86 113.511C1146 113.71 1146.13 113.908 1146.25 114.098C1147.34 113.274 1148.65 112.63 1149.47 111.589C1150.63 110.122 1150.84 108.362 1148.99 107.141C1147.24 105.967 1141.96 107.491 1141.11 109.308C1139.85 111.996 1141.07 116.947 1143.52 117.524C1147.25 118.404 1151.22 118.641 1154.42 115.943C1156.75 113.994 1158.54 111.637 1157.73 108.097C1156.71 103.667 1154.02 101.035 1149.76 99.9752C1145.41 98.8961 1141.19 99.3126 1137.23 101.613C1135.05 102.872 1132.57 103.742 1130.67 105.314C1126.34 108.911 1122.04 107.415 1117.66 105.787C1116.44 105.333 1115.37 104.509 1114.16 104.036C1111.18 102.862 1108.21 101.651 1105.15 100.77C1104.2 100.496 1102.95 101.262 1101.85 101.556C1104.46 102.342 1107.02 102.105 1109.01 103.042C1114.84 105.778 1120.42 109.081 1127.1 109.119C1128.61 109.119 1130.31 108.892 1131.61 108.182C1134.59 106.535 1137.28 104.348 1140.25 102.692C1145.22 99.9279 1151.12 101.291 1154.58 105.759C1156.59 108.343 1156.49 112.564 1154.27 114.268C1151.52 116.398 1148.28 117.524 1144.95 116.568C1143.47 116.142 1141.21 113.653 1141.48 112.905C1142.16 111.088 1144.03 109.658 1145.62 108.314C1145.84 108.115 1147.45 109.043 1147.9 109.772C1148.21 110.274 1147.76 111.409 1147.39 112.119C1147.08 112.687 1146.38 113.047 1145.85 113.501L1145.86 113.511Z" fill="#000000"/>
<path d="M1131.7 41.5071C1133.2 40.1725 1134.65 38.8473 1136.13 37.5695C1139.83 34.3985 1148.78 37.2193 1150.06 41.952C1151.08 45.6624 1148.48 52.5344 1144.84 53.4714C1140.08 54.6925 1135.02 54.9196 1130.07 55.1563C1129.05 55.2036 1127.19 53.5093 1127.01 52.4113C1126.34 48.1992 1125.34 43.7504 1126.04 39.6613C1127.44 31.4359 1135.31 23.9203 1146.5 25.9648C1154.4 27.413 1162.1 37.7872 1160.9 45.776C1160.74 46.8267 1160.19 47.8679 1159.65 48.8144C1156.67 54.0583 1153.61 59.2548 1150.66 64.5081C1149.99 65.7103 1149.45 67.0543 1149.15 68.3984C1148.19 72.6484 1148.66 73.1217 1152.81 74.002C1154.62 74.3901 1156.48 75.1473 1158.03 76.1696C1163.59 79.8327 1169.23 80.0693 1175.19 77.2486C1180.65 74.674 1185.74 71.7208 1188.45 65.9564C1191.57 59.3495 1192.18 53.85 1186.65 48.9091C1185.16 47.5839 1183.15 46.5427 1181.21 46.1357C1178.39 45.5299 1175.43 45.6719 1172.54 45.3974C1169.63 45.1229 1167.56 46.5522 1166.34 48.8618C1165.04 51.3322 1163.07 53.9542 1164.71 56.9736C1166.11 59.5293 1172.13 61.8389 1174.95 60.8072C1176.12 60.3812 1176.88 58.8289 1177.83 57.7971C1177.6 57.4753 1177.36 57.144 1177.12 56.8222C1176.19 56.9263 1175.25 57.144 1174.32 57.1062C1173.5 57.0683 1172.34 56.9926 1171.96 56.4814C1171.56 55.9419 1171.66 54.7398 1171.97 54.011C1173.08 51.3985 1177.22 49.4013 1179.18 50.3668C1182.68 52.08 1184.13 56.6234 1182.46 59.747C1179.77 64.7732 1175.15 64.4797 1170.64 64.1295C1166.37 63.7982 1162.6 60.2676 1161.61 56.2921C1159.97 49.6474 1162.61 44.1574 1168.53 40.8256C1176.31 36.4336 1183.21 37.2666 1190.28 42.6997C1194.37 45.8423 1197.27 49.5338 1199.31 54.0867C1199.61 54.7587 1199.76 55.6674 1199.59 56.3773C1197.1 66.9029 1190.63 74.1818 1181.45 79.6434C1174.11 84.007 1166.45 84.9157 1158.24 83.7987C1152.49 83.0131 1147.13 83.7703 1142.26 87.4997C1138.38 90.4719 1133.52 90.9451 1128.75 91.0303C1127.86 91.0493 1126.95 90.1217 1126.05 89.6294C1126.77 88.9006 1127.43 88.096 1128.21 87.4429C1131.74 84.5181 1135.57 81.8867 1138.75 78.6117C1140.21 77.1161 1140.55 74.4279 1141.13 72.213C1142.44 67.3099 1145.2 63.325 1148.46 59.5482C1153.26 54.0015 1155.96 47.7638 1154.57 40.1725C1153.85 36.2254 1150.12 32.4487 1145.71 32.4865C1142.34 32.5149 1138.88 33.0923 1135.63 33.9915C1131.86 35.0327 1130.95 37.1814 1131.68 41.5071H1131.7ZM1131.84 46.8361C1133.61 47.8679 1135.34 48.9753 1137.15 49.9124C1139.9 51.3228 1142.37 50.4614 1143.69 47.7732C1145.06 44.962 1144.1 41.1947 1141.61 40.1535C1140.91 39.8601 1139.94 40.2009 1138.69 40.2766C1141.66 43.58 1141.98 44.8673 1140.56 46.7036C1138.78 49.0227 1137.11 48.928 1131.83 46.8361H1131.84Z" fill="#000000"/>
<path d="M1220.87 256.259C1226.69 274.045 1224.76 291.565 1220.34 309.001C1219.88 308.982 1219.43 308.953 1218.98 308.934C1219.15 307.448 1219.32 305.953 1219.48 304.467C1220.22 297.775 1221.03 291.102 1221.69 284.4C1221.98 281.475 1221.08 278.976 1218.97 276.705C1217.84 275.502 1217.26 273.534 1216.98 271.811C1216.17 266.756 1215.55 261.655 1214.99 256.562C1214.49 252.028 1215.15 251.385 1219.59 251.536C1220.08 251.555 1220.57 251.536 1221.24 251.536C1221.6 249.217 1221.56 246.813 1222.37 244.74C1223.53 241.824 1225.14 239.061 1226.86 236.429C1228.21 234.366 1230.3 234.328 1232.08 235.918C1233.79 237.432 1234.63 239.382 1233.1 241.531C1231.42 243.888 1230.12 246.264 1231.6 249.993C1233.28 248.658 1235.02 247.769 1236.05 246.368C1241.65 238.739 1244.53 230.078 1245.9 220.745C1247.03 213.087 1248.93 205.553 1250.26 197.924C1252.75 183.735 1253.35 169.461 1250.1 155.339C1246.97 141.689 1238.56 133.294 1224.53 130.473C1216.79 128.911 1209.7 129.186 1203.42 134.325C1198.29 138.518 1194.94 144.094 1192.95 150.284C1191.71 154.136 1191.52 158.33 1190.86 162.371C1190.69 163.384 1190.49 164.397 1190.31 165.4C1189.89 165.438 1189.48 165.476 1189.06 165.514C1188.73 163.81 1187.86 162.012 1188.14 160.422C1189.77 151.316 1192.63 142.693 1198.82 135.49C1205.86 127.302 1214.64 124.727 1225.11 126.507C1241.27 129.242 1249.67 137.345 1253.06 153.89C1257.22 174.109 1254.5 193.939 1249.58 213.646C1248.57 217.697 1248.18 221.909 1247.53 225.875C1248.03 226.216 1248.18 226.415 1248.35 226.424C1258.09 227.181 1262.26 235.019 1262.83 243.263C1263.38 251.015 1260.81 257.925 1256.35 264.191C1254.43 266.898 1252.05 269.208 1248.7 269.681C1244.16 270.306 1239.5 271.073 1234.99 270.656C1229.11 270.117 1225.91 265.554 1223.5 260.585C1222.81 259.165 1222.36 257.632 1221.8 256.155C1221.49 256.193 1221.18 256.231 1220.88 256.269L1220.87 256.259ZM1241.57 267.542C1244.26 267.201 1246.97 267.002 1249.61 266.444C1250.93 266.17 1252.46 265.545 1253.27 264.56C1260.22 256.221 1263.73 243.878 1255.38 233.306C1253.86 231.375 1250.91 230.475 1248.47 229.444C1247.99 229.245 1246.4 230.485 1246.13 231.327C1245.87 232.141 1246.38 233.968 1246.97 234.195C1254.16 236.836 1255.61 242.762 1255.57 249.312C1255.53 255.805 1251.65 259.78 1246.03 262.412C1241.16 264.693 1236.86 263.443 1233.24 260.055C1228.65 255.767 1228.31 250.192 1229.53 244.39C1229.82 243.017 1230.5 241.664 1230.49 240.31C1230.49 239.468 1229.69 238.284 1228.93 237.896C1228.41 237.641 1226.96 238.294 1226.57 238.928C1222.37 245.819 1223.16 252.738 1226.76 259.572C1229.89 265.526 1234.9 267.977 1241.55 267.533L1241.57 267.542ZM1253.04 248.412C1252.29 245.194 1251.9 241.029 1248.47 238.076C1245.75 235.748 1244.71 236.088 1243.13 239.259C1241.77 242.014 1240.15 244.692 1238.29 247.125C1236.9 248.933 1234.79 250.173 1233.3 251.905C1232.72 252.577 1232.45 254.224 1232.88 254.934C1235.34 259.042 1241.2 261.266 1245.49 259.979C1250.33 258.521 1252.99 254.735 1253.05 248.403L1253.04 248.412Z" fill="#000000"/>
<path d="M1242.93 165.826C1242.55 164.53 1242.08 163.242 1241.8 161.917C1240.69 156.74 1238.37 152.253 1234.35 148.751C1231.48 146.233 1228.95 146.365 1226.15 148.94C1224.92 150.066 1223.57 151.06 1221.6 152.66C1233.56 156.9 1239.24 165.817 1241.63 177.204C1242.9 183.233 1242.67 186.234 1240.44 189.547C1240.44 188.241 1240.5 186.934 1240.43 185.628C1239.71 172.793 1234.74 162.144 1223.4 155.575C1220.77 154.051 1216.61 154.827 1213.21 155.13C1211.24 155.31 1208.99 160.942 1209.84 162.892C1210.12 163.555 1211.09 164.227 1211.82 164.312C1213.19 164.492 1214.62 164.141 1216.02 164.198C1221.9 164.435 1226.55 168.316 1226.68 175.169C1224.89 172.244 1222.98 174.232 1221.56 174.951C1220.83 175.33 1220.68 177.677 1220.95 179.002C1221.6 182.135 1220.84 183.413 1217.69 183.328C1214.69 183.243 1211.67 183.148 1208.69 182.817C1205.71 182.486 1205.91 184.71 1205.4 186.47C1204.86 188.316 1204.76 189.906 1207.18 190.38C1210.13 190.957 1213.11 191.43 1216.02 192.159C1217.61 192.557 1219.63 192.964 1220.53 194.1C1225.75 200.707 1227.19 207.881 1220.11 214.81C1217.09 217.763 1215.22 220.716 1215.55 225.061C1215.65 226.339 1214.94 228.081 1213.99 228.97C1211.65 231.176 1209.39 231.176 1207.89 229.472C1206.02 227.352 1206.18 223.376 1208.12 221.502C1209.19 220.47 1210.3 219.401 1211.07 218.142C1213.93 213.456 1213.05 208.733 1208.34 205.875C1205.07 203.896 1203.97 201.227 1203.53 197.753C1202.2 187.294 1202.29 176.891 1204.33 166.546C1204.66 164.918 1205.63 163.413 1206.37 161.879C1208.08 158.368 1209.7 154.79 1211.62 151.392C1216.39 142.939 1232.2 138.235 1239.33 150.805C1241.51 154.667 1242.56 159.182 1244.04 163.432C1244.27 164.085 1243.94 164.927 1243.87 165.675L1242.94 165.836L1242.93 165.826ZM1214.62 216.675C1215.39 216.059 1216.63 215.075 1217.86 214.062C1223.44 209.462 1223.36 202.779 1218.94 197.242C1217.77 195.784 1216.57 193.844 1214.31 195.567C1210.45 198.501 1209.81 200.337 1211.66 202.855C1214.87 207.266 1216.79 211.914 1214.62 216.684V216.675ZM1212.8 181.406C1213.23 181.056 1214.67 180.413 1215.24 179.315C1216.75 176.38 1217.89 173.257 1219.16 170.199C1220.35 167.322 1219.69 166.101 1216.66 166.319C1215.21 166.423 1213.31 167.104 1212.53 168.183C1210.79 170.578 1209.52 173.342 1208.26 176.049C1206.77 179.277 1208.06 181.151 1212.8 181.406Z" fill="#000000"/>
<path d="M1102.69 165.192C1100.95 165.192 1099.2 165.268 1097.46 165.183C1084.55 164.501 1075.97 171.061 1069.96 181.766C1066.47 187.985 1063.22 194.346 1059.79 200.602C1054.65 210.002 1046.73 217.11 1039.6 224.862C1035.86 228.923 1032.02 232.889 1028.3 236.959C1027.74 237.565 1027.7 238.616 1027.26 239.363C1026.68 240.329 1026.03 241.805 1025.22 241.947C1024.19 242.118 1022.69 241.446 1021.9 240.641C1018.88 237.508 1018.63 231.318 1021.53 227.872C1026.7 221.71 1032 215.643 1037.41 209.689C1043.42 203.063 1049.7 196.674 1055.73 190.058C1062.12 183.034 1068.35 175.85 1074.67 168.751C1075.27 168.079 1075.89 167.312 1076.68 166.953C1083.69 163.725 1090.95 161.453 1098.82 162.476C1100.22 162.655 1101.55 163.346 1102.91 163.801L1102.7 165.192H1102.69Z" fill="#000000"/>
<path d="M1245.87 64.8489C1245.2 65.7576 1244.96 66.2971 1244.54 66.6379C1235.05 74.3806 1227.99 84.1773 1221.69 94.4852C1219.65 97.836 1218.96 102.001 1217.57 105.759C1216.53 108.579 1215.67 111.532 1214.16 114.098C1210.09 121.026 1201.88 123.251 1194.79 119.465C1190.3 117.07 1185.51 116.189 1180.53 116.35C1177.54 116.445 1175.24 115.281 1173.36 113.17C1172.84 112.593 1172.75 111.618 1172.46 110.832C1173.2 110.7 1174.01 110.293 1174.65 110.482C1182.31 112.763 1189.82 111.854 1197.17 109.327C1199.09 108.664 1201.28 107.311 1202.28 105.636C1205.02 101.083 1207.09 96.1511 1209.58 91.4563C1211.33 88.1812 1213.14 84.8873 1215.32 81.8962C1216.84 79.8327 1218.77 77.7882 1220.97 76.5671C1228.35 72.497 1235.93 68.796 1243.46 65.0003C1243.97 64.7448 1244.7 64.8962 1245.86 64.8205L1245.87 64.8489Z" fill="#000000"/>
<path d="M1077.52 255.351C1078.63 254.631 1079.73 253.921 1080.85 253.202C1079.33 257.575 1075.83 259.809 1072.26 261.891C1071.09 262.582 1069.61 262.828 1068.24 263.103C1066.26 263.51 1064.26 263.832 1064.45 260.67C1064.48 260.178 1063.97 259.553 1063.57 259.165C1060.24 255.994 1056.83 252.89 1053.52 249.7C1052.36 248.583 1051.37 248.204 1049.83 249.16C1049.2 249.558 1048.07 249.141 1047.16 249.103C1047.38 248.204 1047.31 246.945 1047.89 246.453C1052.01 242.941 1055.96 239.117 1060.53 236.297C1069.08 231.024 1077.93 226.216 1086.82 221.512C1093.96 217.735 1099.79 212.434 1105.47 206.868C1106.1 206.253 1106.75 205.647 1107.45 204.975C1106.23 208.023 1104.81 210.863 1104 213.863C1103.55 215.567 1104.11 217.536 1104.21 219.391C1104.24 219.874 1104.48 220.47 1104.29 220.83C1102.57 223.935 1100.8 227.001 1099.02 230.068C1098.73 230.561 1098.35 231.005 1097.67 231.942V228.885C1091.47 238.161 1085.59 247.542 1076.64 254.536C1076.93 254.811 1077.23 255.085 1077.52 255.36V255.351ZM1053.84 245.346C1057.94 249.539 1061.42 253.42 1065.3 256.846C1066.29 257.726 1069.08 257.897 1070.15 257.139C1077.04 252.236 1083.66 246.888 1087.88 239.382C1090.94 233.968 1093.45 228.241 1096.08 222.6C1096.51 221.672 1096.34 220.461 1096.5 218.871C1093.99 220.149 1092.19 221.209 1090.27 222.013C1087.81 223.035 1086.84 224.635 1086.93 227.371C1087.03 230.759 1086.65 234.167 1086.37 237.555C1086.21 239.515 1085.07 240.405 1083.08 240.831C1078.29 241.843 1074.5 239.628 1070.59 237.555C1069.59 237.035 1068.03 236.287 1067.35 236.685C1062.82 239.363 1058.46 242.326 1053.84 245.346H1053.84Z" fill="#000000"/>
<path d="M964.521 465.465C962.298 464.49 960.085 463.515 957.617 462.426C957.484 463.155 957.096 463.95 957.267 464.613C959.603 473.747 961.92 482.881 964.502 491.939C965.022 493.776 966.413 495.527 967.813 496.89C968.948 497.997 970.641 498.679 972.211 499.114C973.128 499.37 974.282 498.792 975.332 498.584C975.067 497.6 975.048 496.445 974.509 495.65C970.631 490.018 967.85 483.903 966.375 477.249C964.739 469.904 965.684 468.986 972.816 470.623C975.653 471.276 978.425 472.185 981.234 472.961C985.793 474.22 994.05 472.98 996.272 467.717C996.726 466.648 997.105 465.54 997.757 463.808C993.605 464.348 990.815 467.897 986.786 466.477C983.324 465.256 979.692 464.537 976.07 463.571C977.157 467.708 981.546 467.178 984.1 469.128C984.005 469.478 983.91 469.828 983.816 470.178C982.482 470.008 980.808 470.292 979.872 469.592C977.432 467.765 974.679 465.881 973.223 463.344C971.047 459.53 969.865 455.147 968.266 451.001C968.654 450.85 969.042 450.698 969.43 450.547C970.234 452.554 971.113 454.532 971.813 456.577C972.561 458.744 973.383 460.448 976.07 461.006C978.983 461.612 981.801 462.795 984.544 464.007C988.696 465.853 992.044 464.774 995.232 461.877C996.149 461.035 997.521 460.703 998.694 460.135C999.091 461.906 1000.22 463.884 999.762 465.398C997.994 471.248 990.304 478.063 981.867 475.441C978.226 474.305 974.518 473.378 970.83 472.422C968.427 471.797 967.463 472.696 967.813 475.252C968.427 479.795 969.647 483.932 973.932 486.459C974.462 486.771 974.802 487.415 975.512 488.22C974.509 488.115 973.97 488.059 973.431 488.002C973.336 488.248 973.232 488.503 973.138 488.75C975.076 489.554 977.025 490.359 978.964 491.173L979.446 490.387C978.945 489.8 978.444 489.204 977.933 488.617C978.85 487.585 982.076 489.024 981.99 490.643C981.924 491.883 981.158 493.198 980.383 494.24C979.843 494.968 978.765 495.29 977.999 496.502H982.681C982.823 496.88 982.974 497.25 983.116 497.628C981.451 498.669 979.891 500.25 978.094 500.61C975.285 501.178 972.267 501.263 969.392 500.96C961.107 500.089 957.56 493.984 955.942 486.961C954.032 478.64 953.133 470.159 955.763 461.584C956.217 460.107 954.117 457.097 952.415 455.848C948.565 452.989 946.721 449.193 945.586 444.82C943.666 437.428 943.533 429.912 943.826 422.321C944.243 411.758 945.037 401.241 946.976 390.839C947.175 389.779 947.458 388.738 947.704 387.677L948.546 387.659C948.603 388.917 948.801 390.195 948.697 391.435C947.837 401.156 946.834 410.858 946.04 420.589C945.226 430.528 945.974 440.315 949.568 449.733C949.946 450.727 950.457 451.664 951.45 452.459C950.381 447.376 949.312 442.303 948.243 437.22C948.584 437.134 948.934 437.04 949.274 436.955C949.672 438.497 950.163 440.031 950.438 441.602C951.752 448.985 954.401 455.744 959.688 461.205C961.097 462.663 962.989 463.638 964.663 464.83C964.606 465.029 964.549 465.237 964.493 465.436L964.521 465.465ZM956.926 471.731C956.018 481.225 956.907 490.226 964.408 497.231C959.962 489.318 958.629 480.486 956.926 471.731Z" fill="#000000"/>
<path d="M965.335 317.652C965.968 313.563 966.611 309.483 967.245 305.394C967.453 305.413 967.652 305.442 967.86 305.461C967.482 309.446 966.914 313.421 966.763 317.415C966.526 323.843 966.347 330.289 966.536 336.706C966.952 350.791 967.765 364.875 968.106 378.96C968.229 383.948 967.472 388.955 966.782 393.906C963.727 351.245 960.681 308.584 957.626 265.923C958.156 265.857 958.685 265.8 959.215 265.734C959.726 269.208 960.284 272.682 960.728 276.165C962.071 286.747 963.386 297.33 964.644 307.922C964.833 309.502 964.739 311.121 964.71 312.721C964.682 314.339 964.578 315.967 964.512 317.586C964.786 317.605 965.06 317.624 965.325 317.643L965.335 317.652Z" fill="#000000"/>
<path d="M1062.88 364.146C1067.68 366.257 1072.64 366.882 1077.39 365.935C1082.09 364.998 1086.54 362.783 1091.75 360.9C1091.21 362.073 1091.06 362.878 1090.59 363.351C1083.13 370.678 1070.15 372.353 1062.39 367.582C1059.6 365.86 1059.37 364.695 1060.97 361.884C1061.9 360.228 1062.99 358.609 1063.63 356.839C1065.26 352.333 1064.04 347.582 1060.18 344.79C1058.86 343.834 1056.59 343.654 1054.85 343.871C1047.58 344.79 1040.37 346.749 1033.11 346.844C1027.65 346.91 1022.15 344.723 1016.67 343.521C1016.3 343.436 1015.78 343.237 1015.64 342.944C1015.25 342.035 1015 341.051 1014.7 340.095C1015.51 340.095 1016.5 339.773 1017.12 340.123C1025.43 344.884 1034.36 344.297 1043.3 343.124C1046.97 342.641 1050.58 341.628 1054.19 340.738C1060.16 339.262 1062.78 340.54 1064.98 346.162C1065.31 347.004 1065.66 347.837 1065.99 348.68C1067.98 353.753 1068.71 358.6 1063.71 362.537C1063.37 362.802 1063.26 363.37 1062.89 364.137L1062.88 364.146Z" fill="#000000"/>
<path d="M1137.98 10.2427C1146.36 8.28337 1154.69 6.07792 1163.13 4.44039C1171.8 2.76501 1180.55 1.5061 1189.3 0.303991C1209.27 -2.45045 1228.99 -1.87306 1248.01 5.71823C1250.02 6.51333 1251.79 7.89528 1253.66 9.00274C1253.46 9.38136 1253.26 9.75051 1253.06 10.1291C1250.95 9.22045 1248.85 8.29283 1246.73 7.42201C1236.76 3.3424 1226.28 1.77114 1215.65 0.606886C1207.92 -0.235539 1200.44 1.26 1192.89 2.07403C1182.61 3.19095 1172.33 4.44986 1162.13 6.15364C1155.11 7.32736 1148.24 9.35296 1141.3 10.9716C1140.26 11.2082 1139.21 11.3502 1138.17 11.53C1138.11 11.1041 1138.03 10.6687 1137.97 10.2427H1137.98Z" fill="#000000"/>
<path d="M1244.86 8.63359C1241.41 8.21711 1237.97 7.60186 1234.51 7.42202C1230.33 7.20431 1226.14 7.28003 1221.95 7.36522C1212.63 7.55453 1203.3 7.85743 1193.97 8.0562C1190.25 8.13193 1186.53 8.09406 1182.82 8.0278C1181.64 8.00887 1180.48 7.69651 1178.73 7.43148C1185.45 2.48105 1237.65 3.27615 1244.85 8.62413L1244.86 8.63359Z" fill="#000000"/>
<path d="M1030.99 59.9836C1027.12 66.2119 1023.24 72.4307 1019.35 78.659C1019.59 78.8388 1019.82 79.0187 1020.06 79.208C1020.86 78.4602 1021.67 77.7124 1022.47 76.9741L1022.81 77.2013C1019.06 83.6567 1015.31 90.1122 1011.56 96.5581L1010.94 96.3026C1011.64 94.542 1012.34 92.7814 1013.04 91.0208C1012.92 90.9546 1012.81 90.8978 1012.68 90.8315L1009.26 96.1511C1008.95 95.9429 1008.62 95.7441 1008.31 95.5359C1014.55 82.8806 1021.31 70.5565 1030.21 59.5293C1030.46 59.6807 1030.73 59.8322 1030.98 59.9931L1030.99 59.9836Z" fill="#000000"/>
<path d="M1055.45 224.512C1063.16 221.019 1070.88 217.527 1078.59 214.034C1078.74 214.308 1078.89 214.583 1079.04 214.857C1077.47 215.823 1075.94 216.874 1074.32 217.744C1067.78 221.247 1061.21 224.72 1054.63 228.147C1050.27 230.419 1048.42 234.072 1048.32 238.843C1048.3 239.912 1047.9 240.982 1047.69 242.042C1047.38 242.042 1047.05 242.061 1046.74 242.071C1046.44 241.01 1046.2 239.922 1045.83 238.89C1045.37 237.603 1045.09 236.079 1044.21 235.161C1042.2 233.078 1043.34 232.312 1045.28 231.621C1048.68 229.254 1052.07 226.878 1055.46 224.512H1055.45Z" fill="#000000"/>
<path d="M966.299 76.5672C966.299 80.9023 966.498 85.2564 966.261 89.5821C965.675 100.458 966.848 111.126 970.111 121.49C971.18 124.898 972.844 128.192 974.708 131.249C975.89 133.18 977.942 134.581 979.834 136.436C978.103 136.853 976.334 136.323 975.285 134.742C973.015 131.334 970.376 127.965 969.07 124.178C964.89 112.053 963.49 99.4925 964.739 86.6668C964.937 84.6696 964.881 82.644 965.06 80.6373C965.193 79.2269 965.524 77.8355 965.77 76.4346C965.94 76.4725 966.11 76.5198 966.29 76.5577L966.299 76.5672Z" fill="#000000"/>
<path d="M966.176 402.396C966.715 403.494 967.302 404.573 967.775 405.69C970.65 412.439 973.185 419.358 976.486 425.89C978.16 429.202 980.95 432.08 983.665 434.692C987.145 438.043 989.604 438.015 993.709 435.525C994.315 435.166 994.92 434.513 995.516 434.513C996.594 434.513 997.663 434.929 998.731 435.166C998.287 436.055 997.947 437.011 997.379 437.797C996.991 438.337 996.282 438.649 995.544 438.299C994.787 438.251 994.031 438.147 993.284 438.157C991.174 438.195 988.904 438.829 986.994 438.242C980.723 436.311 976.713 431.503 974.046 425.88C971.208 419.907 969.165 413.556 966.772 407.375C966.186 405.861 965.637 404.346 965.06 402.832C965.429 402.68 965.798 402.538 966.157 402.387L966.176 402.396Z" fill="#000000"/>
<path d="M975.493 286.965C975.625 303.132 973.639 319.091 970.716 334.955L969.695 334.851C971.293 318.854 972.882 302.858 974.481 286.861C974.821 286.899 975.152 286.937 975.493 286.965Z" fill="#000000"/>
<path d="M1058.53 32.1174C1049.13 50.3384 1038.53 67.8968 1025.07 83.6094C1036.22 66.4486 1047.38 49.2782 1058.53 32.1174Z" fill="#000000"/>
<path d="M1049.93 -4.57069C1037.48 7.30845 1025.03 19.1971 1012.59 31.0762C1023.55 17.6826 1036.78 6.61747 1049.02 -5.47937C1049.32 -5.17648 1049.63 -4.87358 1049.93 -4.57069Z" fill="#000000"/>
<path d="M967.245 434.229C967.737 435.421 968.229 436.614 968.739 437.797C971.038 443.164 973.658 448.323 980.174 449.392C982.161 449.714 984.289 449.25 986.341 449.023C987.268 448.919 988.167 448.512 989.075 448.247C989.254 448.569 989.425 448.891 989.604 449.203C988.29 450.026 987.079 451.295 985.66 451.598C976.751 453.491 966.034 444.555 966.016 435.355C966.016 435.09 966.243 434.825 966.356 434.56C966.659 434.446 966.952 434.333 967.255 434.219L967.245 434.229Z" fill="#000000"/>
<path d="M1007.34 73.1312C1005.61 85.2469 1003.88 97.3532 1002.16 109.469C1001.76 109.412 1001.37 109.346 1000.97 109.289C1002.66 97.1734 1002.91 84.8305 1007.34 73.1312Z" fill="#000000"/>
<path d="M982.851 128.249C978.869 116.53 977.526 104.367 978.236 91.9201C979.777 104.026 981.31 116.142 982.851 128.249Z" fill="#000000"/>
<path d="M996.386 113.738C997.597 103.184 998.807 92.6394 1000.03 82.0854C1000.47 82.1422 1000.93 82.1896 1001.37 82.2464C1000.23 92.8193 999.081 103.383 997.937 113.956C997.426 113.889 996.906 113.814 996.395 113.747L996.386 113.738Z" fill="#000000"/>
<path d="M1058.61 333.355C1057.34 333.762 1056.33 334.226 1055.26 334.406C1052.87 334.822 1050.72 335.419 1050.18 338.296C1050.09 338.817 1049.56 339.546 1049.11 339.64C1047.84 339.924 1046.5 339.934 1045.2 340.047C1045.41 338.826 1045.31 337.416 1045.9 336.422C1047.16 334.292 1055.38 331.547 1057.72 332.238C1057.95 332.305 1058.08 332.674 1058.61 333.355Z" fill="#000000"/>
<path d="M1041.31 47.4041C1047.46 38.7432 1053.62 30.0823 1059.77 21.4309C1060.06 21.6297 1060.34 21.8285 1060.64 22.0367C1054.56 30.7449 1048.5 39.4531 1042.43 48.1708C1042.06 47.9152 1041.68 47.6691 1041.31 47.4136V47.4041Z" fill="#000000"/>
<path d="M994.986 92.5543C994.362 100.136 993.709 107.936 993.057 115.877C990.21 113.17 991.855 96.8137 994.986 92.5543Z" fill="#000000"/>
<path d="M1055.22 52.6953C1061.98 44.6686 1069.72 37.8061 1078.93 32.6948C1071.02 39.3584 1063.12 46.0316 1055.22 52.6953Z" fill="#000000"/>
<path d="M960.18 126.384C961.769 128.031 963.358 129.687 964.956 131.325C967.917 134.363 970.877 137.383 974.358 140.942C972.948 140.591 971.53 140.648 970.735 139.976C966.252 136.218 962.44 131.883 960.218 126.346L960.18 126.374V126.384Z" fill="#000000"/>
<path d="M1120.25 382.292C1120.58 381.553 1120.85 380.768 1121.26 380.086C1123.5 376.499 1125.95 373.016 1125.64 368.453C1125.61 367.97 1126.31 367.431 1126.68 366.92C1127.13 367.497 1128.03 368.198 1127.93 368.633C1127.22 371.425 1126.59 374.293 1125.35 376.859C1124.31 379.017 1122.48 380.796 1121.01 382.746C1120.75 382.595 1120.5 382.443 1120.25 382.292Z" fill="#000000"/>
<path d="M1055.45 224.512C1052.07 226.878 1048.67 229.254 1045.28 231.621C1044.72 231.554 1044.15 231.488 1043.59 231.412C1043.49 231.176 1043.37 230.939 1043.27 230.703C1047.57 227.759 1051.88 224.815 1056.18 221.871C1056.36 222.051 1056.55 222.231 1056.73 222.411C1056.3 223.111 1055.88 223.812 1055.45 224.503V224.512Z" fill="#000000"/>
<path d="M1015.79 33.1207C1021.02 27.6213 1026.25 22.1219 1031.47 16.6224C1031.76 16.9064 1032.05 17.1904 1032.36 17.4649C1027.1 22.9359 1021.85 28.4069 1016.59 33.878L1015.79 33.1207Z" fill="#000000"/>
<path d="M1118.29 13.319C1124.51 10.5835 1130.72 7.84794 1136.94 5.12189C1137.14 5.57623 1137.34 6.04004 1137.54 6.49438C1131.27 9.10684 1125.01 11.7288 1118.74 14.3412C1118.59 14.0005 1118.44 13.6597 1118.29 13.319Z" fill="#000000"/>
<path d="M973.979 144.662C969.676 145.201 962.998 139.484 962.09 134.647C965.902 137.856 969.941 141.254 973.979 144.662Z" fill="#000000"/>
<path d="M1094.44 -4.58019C1090.31 -2.08132 1086.17 0.408097 1082.04 2.90698C1081.87 2.62301 1081.7 2.33905 1081.52 2.05509C1085.76 -0.26395 1089.24 -3.83242 1093.8 -5.63086C1094.01 -5.28064 1094.22 -4.93042 1094.44 -4.58019Z" fill="#000000"/>
<path d="M1104.29 381.392C1107.63 379.641 1110.98 377.881 1114.72 375.921C1113.06 378.837 1107.08 382.386 1104.71 382.178C1104.57 381.913 1104.44 381.648 1104.29 381.383V381.392Z" fill="#000000"/>
<path d="M984.412 441.015C987.363 441.233 990.304 441.441 993.624 441.687C993.274 442.606 992.858 443.713 992.555 444.518C989.51 443.495 986.757 442.568 984.005 441.631L984.412 441.015Z" fill="#000000"/>
<path d="M1137.51 2.09297C1140.66 1.13696 1143.82 0.180949 1147.5 -0.935974C1146.01 1.55344 1141.59 3.01112 1137.51 2.09297Z" fill="#000000"/>
<path d="M254.313 305.584C254.029 308.944 252.203 309.767 249.215 308.688C236.333 304.031 223.441 299.365 210.852 294.812C180.983 319.507 164.374 353.971 149.875 389.864C160.194 377.332 170.522 364.79 180.841 352.258C181.361 352.57 181.891 352.883 182.411 353.195C182.26 354.113 182.449 355.457 181.91 355.874C170.059 365.112 168.319 379.064 165.84 392.202C162.379 410.574 160.213 429.202 157.877 447.774C157.366 451.825 158.756 456.084 158.756 460.24C158.756 463.572 157.498 466.922 157.64 470.226C158.17 482.323 159.059 494.4 160.468 506.668C177.843 438.677 205.234 375.041 243.464 315.286C245.696 316.743 249.271 319.063 253.159 321.599C249.659 325.026 244.741 326.767 246.027 332.589C246.179 333.28 243.965 335.144 242.641 335.39C237.553 336.365 235.633 339.972 233.741 344.212C229.097 354.624 224.075 364.866 218.844 375.921C235.983 378.752 248.392 388.444 261.028 400.825C259.997 392.609 259.193 386.239 258.399 379.869C259.099 379.727 259.798 379.585 260.508 379.443C262.409 387.469 264.301 395.496 266.561 405.066C264.092 404.924 260.129 405.899 258.578 404.394C249.924 395.988 239.927 401.109 230.516 400.891C227.499 400.825 224.481 401.658 221.455 401.753C205.423 402.283 199.616 407.706 197.393 424.943C217.861 427.754 237.373 421.961 256.933 416.746C257.169 417.551 257.405 418.365 257.651 419.169C256.384 420.305 255.277 422.094 253.811 422.463C246.68 424.262 240.589 427.253 235.642 433.102C233.656 435.44 229.438 435.885 225.049 437.674C225.257 441.479 225.55 446.714 225.843 451.948C225.465 452.033 225.087 452.118 224.708 452.213C223.526 446.628 222.344 441.044 221.171 435.459C220.651 435.431 220.131 435.402 219.61 435.374C218.788 437.456 217.965 439.539 216.801 442.501C215.714 440.107 214.919 438.374 214.134 436.652C213.387 436.576 212.64 436.491 211.893 436.415C211.439 440.145 210.985 443.864 210.445 448.238C209.414 446.941 208.648 445.975 207.655 444.726C207.258 446.657 206.908 448.379 206.293 451.418C205.215 446.401 204.402 442.596 203.352 437.693C201.129 439.586 199.587 440.902 197.951 442.293C196.684 439.548 195.445 436.87 193.742 433.178C192.106 435.45 190.782 436.718 190.12 438.27C184.379 451.825 182.477 464.84 187.036 480.06C191.226 494.05 198.755 504.519 208.951 513.237C216.423 519.616 225.626 524.415 234.734 528.344C252.232 535.878 270.742 538.699 289.904 538.614C296.023 538.585 299.816 537.563 304.952 533.843C312.679 528.24 322.289 524.624 331.605 521.954C350.673 516.483 359.091 501.471 366.374 485.342C367.887 481.991 367.982 477.173 366.875 473.595C360.273 452.166 353.161 430.887 346.095 409.609C345.811 408.757 344.317 408.312 342.217 406.883C342.274 388.851 331.615 372.93 323.604 356.025C323.008 356.101 322.402 356.177 321.807 356.262C323.433 369.39 325.06 382.509 326.696 395.638C325.949 395.799 325.211 395.969 324.464 396.13C323.708 394.644 322.667 393.234 322.251 391.653C321.258 387.905 318.77 386.75 315.384 387.649C303.94 390.688 292.458 393.641 281.146 397.143C276.067 398.714 271.508 397.408 270.42 392.306C269.597 388.416 269.711 384.336 269.399 380.342C270.079 380.247 270.77 380.143 271.451 380.048C272.52 384.81 273.589 389.571 275.064 396.168C282.999 386.788 289.535 379.055 296.08 371.321C297.877 369.192 299.315 366.522 301.538 365.027C307.222 361.212 307.354 357.265 304.243 351.406C298.445 340.473 293.612 329.03 288.192 317.898C283.822 308.916 277.391 308.527 270.675 317.681C273.475 316.781 275.329 316.128 277.22 315.598C278.895 315.125 280.616 314.803 283.009 315.74C281.24 317.302 279.472 318.854 276.927 321.107C280.19 322.659 283.103 324.051 286.007 325.423C281.335 329.976 279.613 329.806 272.009 323.947C269.578 324.941 267.043 325.982 264.14 327.165C261.86 322.678 261.577 318.627 265.568 315.683C269.966 312.437 274.705 309.55 279.576 307.079C284.257 304.703 288.362 306.029 290.632 310.988C296.354 323.492 301.859 336.1 307.629 348.576C309.832 353.327 312.547 357.852 315.63 363.607C318.572 354.605 310.57 348.443 313.71 340.246C316.169 333.81 308.697 326.086 313.597 318.069C314.656 319.356 315.375 319.82 315.441 320.359C317.654 338.031 327.529 352.58 334.66 368.283C341.111 382.5 347.221 396.916 352.48 411.606C358.145 427.423 362.912 443.581 367.565 459.738C370.27 469.128 371.954 478.82 374.158 488.362C374.508 489.886 375.198 491.324 377.402 492.791C377.657 487.207 378.196 481.622 378.102 476.047C377.752 455.677 377.761 435.279 376.532 414.957C375.567 398.894 373.401 382.86 370.866 366.958C370.11 362.206 366.572 357.767 363.82 353.498C361.276 349.551 358.069 346.03 355.147 342.319C355.639 341.912 356.14 341.515 356.632 341.108C362.609 347.695 368.587 354.283 374.574 360.871C374.99 360.654 375.406 360.445 375.822 360.228C375.16 358.496 374.773 356.593 373.808 355.06C361.342 335.334 346.653 317.491 327.254 304.277C323.064 301.428 316.727 301.23 311.298 300.813C299.391 299.904 287.483 299.971 275.991 304.221C273.986 304.959 271.602 304.684 269.399 304.874C269.105 304.325 268.822 303.766 268.528 303.217C269.644 302.157 270.59 300.51 271.905 300.132C289.79 294.945 308.158 294.831 326.148 298.021C332.551 299.157 338.302 305.593 343.74 310.307C361.994 326.133 373.505 346.739 383.663 368.217C384.344 369.655 384.165 371.492 384.628 374.956C381.119 372.542 379.199 371.217 375.766 368.86C376.371 373.678 376.759 377.209 377.27 380.72C377.969 385.567 378.282 390.546 379.644 395.203C380.949 399.661 382.585 404.479 385.508 407.924C393.065 416.831 395.401 433.187 385.716 445.474C381.989 450.197 381.526 454.258 383.682 460.666C390.152 457.731 394.058 461.584 397.312 466.459C405.19 463.808 410.269 446.95 421.307 463.269C424.04 459.482 426.84 456.425 428.675 452.866C431.825 446.761 434.993 446.818 439.022 451.844C439.703 452.696 440.81 453.207 441.822 453.936C451.488 442.795 460.965 431.891 470.433 420.986C471.067 421.479 471.7 421.961 472.325 422.454C469.847 428.303 467.369 434.153 464.824 440.135C479.702 443.571 479.749 443.656 471.596 452.866C474.131 455.053 476.742 457.154 479.172 459.454C483.589 463.638 488.006 467.822 492.168 472.251C493.416 473.586 493.814 475.716 494.608 477.486C492.745 478.148 490.787 479.578 489.047 479.35C476.401 477.703 463.803 475.716 451.186 473.86C449.351 473.595 447.506 473.482 445.198 473.255C445.586 478.309 445.927 481.878 438.398 481.556C431.834 481.281 424.163 481.338 418.744 488.257C416.918 490.595 410.96 489.554 406.959 490.359C403.393 491.078 399.922 492.223 397.056 493C401.473 502.74 405.483 511.003 408.964 519.484C411.196 524.908 413.4 528.93 420.56 527.104C425.44 525.864 430.122 526.876 430.69 534.411C434.378 531.174 437.414 528.552 440.403 525.873C444.082 522.579 447.894 522.437 451.895 525.22C452.273 525.485 452.746 525.618 453.153 525.845C467.208 533.464 467.823 536.039 458.033 548.827C462.97 548.571 467.473 547.805 471.833 548.316C474.528 548.628 477.763 550.285 479.418 552.395C486.351 561.17 492.3 570.749 499.545 579.249C505.845 586.632 513.317 593.03 520.42 599.713C524.742 603.783 529.254 607.683 533.841 611.45C539.355 615.984 544.992 620.376 550.686 624.683C552.663 626.178 554.952 627.248 557.099 628.516V632.738C553.334 651.063 549.655 669.398 545.72 687.685C545.002 691.026 543.413 694.254 541.824 697.321C540.017 700.814 537.35 703.899 535.789 707.477C532.81 714.292 529.698 720.426 520.552 718.77C520.164 718.703 519.597 719.593 519.114 720.028H514.896C521.772 715.637 514.66 712.664 512.607 707.203C516.599 708.66 518.963 709.522 522.907 710.961C529.093 703.975 535.789 696.412 542.486 688.849C539.535 685.319 536.65 683.577 541.757 680.065C544.822 677.955 548.511 672.313 542.58 668.006C546.799 663.302 550.572 659.014 547.196 652.634C546.931 652.133 547.026 650.883 547.366 650.675C553.921 646.719 548.662 643.879 547.101 642.194C549.182 638.872 550.79 636.297 551.301 635.483C534.853 620.348 519.814 606.509 505.003 592.87C502.865 594.441 501.229 595.652 499.583 596.864C499.205 596.381 498.827 595.899 498.448 595.406C499.385 593.693 500.312 591.98 502.052 588.781C498.392 590.2 496.443 590.958 494.504 591.715C494.202 591.289 493.899 590.863 493.606 590.437C494.816 588.781 496.027 587.124 497.521 585.061C490.097 577.242 482.738 569.499 473.346 559.608C472.627 561.965 471.748 564.871 470.868 567.786C469.913 567.029 468.958 566.262 468.002 565.505C469.866 562.183 471.729 558.86 473.592 555.538C473.148 555.188 472.703 554.837 472.258 554.497C469.459 556.57 466.669 558.643 463.491 560.999C460.521 553.228 457.314 556.38 454.174 561.785C450.391 556.021 447.572 557.384 443.893 561.435C433.735 572.623 423.009 583.281 412.709 594.346C407.649 599.779 403.024 605.62 398.21 611.28C398.655 612.245 399.099 613.211 399.544 614.167H411.442C414.176 616.978 417.486 619.751 421.184 620.442C423.445 620.868 427.02 618.701 428.76 616.647C433.064 611.545 436.658 605.847 440.536 600.385L440.384 600.253C441.926 602.941 444.186 604.626 439.637 607.91C435.693 610.769 434.057 616.827 431.456 621.503C431.38 621.635 431.966 622.127 432.43 622.657C433.499 621.361 434.53 620.111 435.371 619.079C438.152 621.096 440.583 622.866 442.522 624.285C445.775 619.893 448.121 616.741 449.776 614.508H462.167C461.845 613.646 468.485 631.309 468.437 631.186C466.016 633.391 463.651 635.54 460.067 638.815C460.511 635.18 460.786 632.956 461.079 630.57C459.149 631.224 457.296 631.848 454.666 632.748C455.565 629.596 456.151 627.57 456.728 625.554C456.161 625.222 455.593 624.891 455.026 624.55C450.533 628.81 446.05 633.069 441.548 637.329C434.728 630.324 432.127 629.52 424.627 632.804C422.073 622.061 418.545 633.107 414.8 632.53C414.563 630.75 414.346 629.047 414.1 627.201C409.314 626.614 404.424 626.018 398.891 625.336C397.671 621.342 390.842 619.449 384.297 622.477C381.724 617.697 375.009 614.716 371.311 616.808C365.825 619.922 370.081 623.027 371.008 627.144C369.277 626.453 367.546 625.753 365.229 624.825C365.853 627.087 366.364 628.952 366.629 629.908C361.692 635.956 357.218 641.446 352.792 646.87C354.835 648.706 356.272 649.994 356.726 650.401C351.874 656.998 346.511 662.45 343.494 668.981C341.063 674.235 338.869 680.264 337.621 685.498C336.315 690.96 334.518 696.062 332.485 701.211C332.362 701.524 332.712 702.035 332.844 702.451C340.572 700.17 343.021 716.242 352.158 707.515C355.222 714.056 361.588 716.185 367.424 713.062C368.748 715.381 370.081 717.7 371.405 720.019H309.501C307.212 701.012 304.924 682.006 302.635 662.999L300.204 663.207C300.204 665.649 300.053 668.101 300.232 670.534C301.405 687.032 302.654 703.53 303.883 720.019H211.022C211.807 717.681 213.273 715.324 213.255 712.996C213.179 705.963 212.517 698.93 212.101 692.067C211.363 692.616 209.727 693.838 208.081 695.059C203.844 690.78 198.859 687.392 196.419 682.687C194.906 679.753 185.911 676.828 194.187 671.897C191.122 666.691 188.304 661.911 185.258 656.733C184.738 656.544 182.913 655.891 181.097 655.247C182.534 653.695 183.972 652.152 185.457 650.543C182.525 646.728 179.612 642.913 176.358 638.673C181.721 631.725 174.93 628.034 171.042 623.434C173.568 616.94 172.688 614.119 166.408 608.516C168.498 603.083 169.624 597.99 163.164 594.356C162.36 593.901 162 590.532 162.672 589.964C165.093 587.891 168.035 586.433 171.156 584.512C168.716 593.968 169.993 597.943 177.19 602.553C166.975 610.646 182.629 614.186 180.416 621.219C182.194 621.664 184.104 622.146 187.008 622.885C179.933 627.996 182.165 634.357 191.936 638.862C183.168 643.008 190.129 647.258 191.397 651.47C192.276 654.386 194.348 656.932 196.154 660.103C196.343 660.055 198.415 659.582 200.495 659.099C200.675 659.677 200.845 660.245 201.025 660.822C199.446 662.213 197.857 663.595 196.296 664.968C198.367 668.148 200.212 670.988 202.264 674.14C208.743 670.079 201.082 668.281 201.328 665.498C206.965 657.897 201.602 653.581 195.36 649.18C200.59 647.135 205.045 645.214 197.781 641.115C197.176 640.774 197.724 638.133 197.979 636.6C198.206 635.237 199.171 633.912 199.133 632.587C198.944 626.926 198.367 621.275 198.206 615.606C198.036 609.5 198.169 603.386 198.169 595.359C198.244 595.321 200.164 594.403 202.359 593.352C200.798 591.611 199.966 591.052 199.71 590.304C199.2 588.828 199.02 587.238 198.698 585.695C199.966 586.509 201.252 587.294 202.501 588.146C204.298 589.377 206.066 590.664 207.825 591.904C204.95 594.886 203.021 596.902 200.656 599.353C216.574 604.029 195.899 607.096 203.427 611.687C203.456 611.696 205.234 612.378 207.353 613.192C200.004 619.023 199.956 619.704 206.662 624.333C198.954 627.589 202.623 630.769 207.201 633.76C205.347 635.739 203.9 637.291 203.059 638.19C205.177 646.198 207.05 653.269 208.913 660.339C209.632 660.226 210.341 660.112 211.06 659.999C210.181 661.882 208.346 663.917 208.629 665.602C209.083 668.366 210.89 670.912 212.309 673.449C212.356 673.534 214.446 672.465 215.591 671.934C214.408 670.24 213.198 668.565 212.053 666.852C211.817 666.492 211.779 666 211.647 665.564L213.311 665.858C213.794 663.321 214.635 660.775 214.607 658.247C214.598 656.97 213.009 655.701 212.138 654.433C214.04 654.092 215.95 653.761 217.662 653.458C218.126 645.176 218.598 636.799 219.062 628.422C218.4 628.176 217.728 627.939 217.066 627.693C218.911 626.727 220.755 625.762 224.444 623.831C219.932 622.25 217.719 621.474 215.506 620.698C223.318 615.596 223.242 615.662 218.958 611.024C218.305 610.324 218.277 607.74 218.684 607.551C226.6 603.802 220.727 601.123 217.577 598.36C218.882 596.324 219.979 594.63 220.651 593.58C219.913 590.711 218.825 588.421 218.825 586.149C218.835 580.792 219.866 575.396 219.459 570.096C219.298 567.966 216.3 566.149 214.919 563.972C214.314 563.016 214.125 560.555 214.408 560.431C223.11 556.929 214.985 554.601 213.425 551.534C217.709 548.249 218.39 544.672 212.971 541.179C216.064 537.847 218.712 534.998 221.143 532.395C218.485 532.064 215.307 532.631 213.746 531.297C206.085 524.718 202.822 524.785 196.145 532.688C195.908 532.045 195.681 531.401 195.445 530.757C191.359 532.082 187.263 533.408 183.177 534.733C184.606 536.56 186.043 538.386 187.888 540.743C187.074 541.785 185.741 543.507 184.691 544.861C185.873 548.022 186.336 552.632 187.982 553.096C197.847 555.898 190.649 557.819 187.973 560.176C186.838 561.17 185.977 562.486 184.634 564.085C182.95 561.605 181.569 559.58 178.685 555.33C177.275 566.84 173.937 564.331 170.541 559.665C167.883 561.643 165.576 563.356 162.937 565.325C164.554 567.332 166.049 569.187 167.959 571.563C164.838 574.317 162.029 576.807 158.094 580.281C157.527 576.589 157.215 574.611 156.751 571.572C153.62 574.213 151.114 576.324 148.371 578.634C147.302 578.17 145.855 577.536 144.399 576.901C144.919 577.45 145.449 578.009 145.969 578.558C144.805 580.252 143.453 581.852 142.516 583.669C141.003 586.632 137.872 590.532 138.771 592.614C141.164 598.199 145.326 603.035 149.118 608.667C148.466 609.254 147.075 610.494 144.172 613.097C145.931 614.015 148.125 614.413 148.664 615.577C150.698 619.969 152.202 624.087 156.042 616.741C156.316 616.221 158.472 616.685 159.749 616.694C159.437 617.934 159.475 619.449 158.747 620.357C157.375 622.08 155.559 623.462 152.873 625.97H159.816C159.324 629.103 157.65 632.492 158.69 634.413C162.18 640.859 166.644 646.775 171.052 653.363C171.024 653.363 172.461 652.937 173.908 652.511C174.258 652.862 174.608 653.212 174.949 653.553C173.643 655.389 172.338 657.225 170.683 659.563C175.11 664.476 179.744 669.275 183.943 674.424C186.412 677.453 188.181 681.04 190.81 685.252C190.091 685.508 190.848 685.091 191.633 684.987C192.702 684.845 193.799 684.949 194.887 684.949C195.341 685.498 195.785 686.038 196.239 686.587C193.6 689.55 190.961 692.512 187.273 696.649C186.128 692.768 185.646 691.112 185.05 689.086C183.281 689.578 181.617 690.051 179.952 690.515C179.262 691.405 178.571 692.304 177.89 693.194C180.378 694.263 182.856 695.333 184.861 696.194C184.095 699.119 183.556 701.23 182.459 705.414C185.428 702.943 186.724 701.874 189.117 699.876C188.919 702.565 189.212 704.638 188.682 704.874C183.783 707.089 185.239 708.793 188.342 711.718C190.498 713.753 191.33 717.189 192.749 720H180.085C181.03 717.974 181.976 715.939 183.054 713.62C182.288 712.674 181.021 711.746 180.652 710.544C178.41 703.35 177.19 705.376 172.508 709.673C166.985 714.737 172.736 716.687 173.048 720H167.42C166.446 717.861 165.481 715.712 164.261 713.024C169.567 706.114 163.779 701.665 158.832 697.141C166.294 692.787 168.413 687.382 164.753 683.085C165.103 680.823 165.443 678.57 166.105 674.291C161.433 679.885 158.075 683.908 154.245 688.49C156.543 688.982 157.65 689.218 158.766 689.455C156.43 693.042 154.093 696.63 151.369 700.814C149.591 698.731 148.494 697.463 146.952 695.655C138.383 702.83 130.107 709.768 120.999 717.397C120.999 717.227 120.999 718.599 120.999 719.981H106.925C107.606 718.656 107.975 716.952 109.034 716.072C111.683 713.866 117.14 711.869 117.027 710.09C116.591 703.426 120.98 706.341 122.957 706.076C123.25 703.852 123.496 702.044 123.732 700.246C125.69 701.022 127.658 701.807 130.684 703.01C141.211 693.194 152.41 682.81 163.485 672.285C164.242 671.565 164.46 668.792 164.176 668.669C155.957 665.044 163.334 663.065 164.677 661.627C162.767 657.689 161.206 654.49 159.494 650.969C159.191 650.94 157.309 650.77 155.427 650.599C156.373 648.602 157.319 646.614 158.35 644.428C152.694 637.679 146.725 630.552 140.436 623.045C141.325 621.626 142.498 619.761 143.793 617.697C141.372 614.99 139.149 612.52 138.185 611.441C134.165 612.794 131.602 613.665 128.906 614.574C131.091 620.48 124.045 622.023 121.264 626.027C119.051 629.217 114.681 631.508 118.039 636.581C118.464 637.225 116.932 639.913 115.693 640.812C108.713 645.857 105.771 652.464 107.559 659.904C101.912 664.258 96.0577 668.347 96.7009 676.894C96.8522 678.892 95.7645 681.343 94.5065 683.019C90.2503 688.698 80.8489 691.604 84.9443 701.684C85.1429 702.177 83.308 703.435 82.5324 704.42C78.4465 709.588 74.3984 714.794 70.3408 719.981H64.7131C66.4251 716.555 68.1465 713.128 69.8584 709.702C69.395 709.219 68.941 708.736 68.4775 708.244C64.8739 712.153 61.2798 716.072 57.6762 719.981H53.4579C54.6401 717.085 55.8319 714.179 57.1371 710.989C55.009 708.736 52.1999 707.136 57.9316 703.644C63.1336 700.473 66.4629 694.235 70.1233 689.928C68.3924 687.666 67.1628 686.047 65.9333 684.438C68.0424 684.552 70.1516 684.675 72.2135 684.789C71.6082 682.962 70.9272 680.889 70.7948 680.472C76.8386 673.875 81.9744 668.271 87.1008 662.677C86.6184 662.157 86.136 661.636 85.6536 661.115C84.2633 662.299 82.9013 663.501 81.492 664.656C78.5032 667.098 74.1714 672.181 72.7243 671.471C66.5386 668.404 63.5309 672.654 60.0975 675.512C50.942 683.132 42.0796 691.102 33.1132 698.939C31.1554 700.653 27.7504 702.309 27.5896 704.202C27.06 710.412 24.0617 708.348 22.0282 707.392C21.2053 709.73 20.6378 712.096 19.5501 714.188C18.4624 716.261 16.8451 718.06 15.4642 719.981H0C6.26134 715.106 12.7118 710.468 18.7367 705.319C31.3351 694.538 43.7064 683.482 56.1818 672.54C57.9411 670.997 59.5395 669.104 61.573 668.091C82.854 657.462 98.1101 639.421 114.757 623.424C122.285 616.192 125.861 604.787 130.959 595.132C131.706 593.721 131.214 591.431 130.798 589.67C128.253 578.889 128.112 578.444 137.39 573.323C142.933 570.266 149.071 568.316 156.155 565.363C156.165 565.212 155.692 563.072 156.524 561.776C158.047 559.428 160.024 556.39 162.379 555.756C168.12 554.213 174.192 553.881 180.52 553.011C179.356 546.11 178.127 539.532 177.181 532.906C176.471 527.956 178.051 526.261 183.811 526.28C190.47 526.299 197.138 523.734 205.272 521.983C201.611 517.761 198.528 514.742 196.107 511.268C192.825 506.554 190.148 501.424 187.008 496.606C184.492 492.754 181.674 489.1 178.997 485.352C178.117 485.55 177.247 485.749 176.367 485.948C174.438 492.64 172.499 499.341 170.57 506.034C170.106 505.929 169.643 505.835 169.179 505.731C170.361 498.168 171.544 490.605 172.726 483.042C172.244 482.938 171.761 482.824 171.279 482.72C167.335 497.448 163.4 512.177 159.456 526.914C158.709 526.801 157.952 526.697 157.205 526.583C156.382 517.165 155.332 507.766 154.784 498.329C154.16 487.576 154.491 476.747 153.393 466.061C152.76 459.946 149.941 454.087 148.39 448.039C145.751 437.797 146.782 428.398 155.134 420.769C156.24 419.765 156.931 418.005 157.243 416.481C159.712 404.422 162.029 392.335 162.965 379.386C153.989 392.183 145.023 404.98 136.047 417.778C152.135 372.003 167.874 326.162 206.539 294.121C204.77 291.963 203.787 290.761 202.803 289.559C204.175 288.925 205.518 287.827 206.936 287.713C217.7 286.842 225.843 293.667 235.008 297.529C241.44 300.236 247.909 302.877 254.35 305.546H254.322L254.313 305.584ZM360.188 560.024C348.744 559.57 341.915 565.032 339.692 577.176C338.585 583.243 329.089 584.71 325.656 579.183C319.593 569.433 309.511 565.42 300.554 559.854C293.422 555.424 292.023 556.551 286.792 566.357C283.359 572.793 289.393 572.954 292.193 575.368C295.777 578.454 300.034 581.114 302.644 584.9C305.51 589.055 304.583 592.642 298.104 591.781C288.05 590.446 277.968 589.263 268.5 588.08C265.88 593.172 263.894 597.025 261.558 601.578C268.784 603.471 275.934 604.815 282.631 607.361C285.496 608.45 287.407 612.037 289.753 614.489C287.398 615.984 285.232 618.076 282.659 618.871C275.802 620.982 268.547 621.947 261.86 624.465C251.797 628.242 251.825 628.952 255.987 639.629C263.969 638.853 272.066 637.802 280.2 637.395C283.614 637.225 287.104 638.398 290.557 638.957C288.428 642.166 286.735 645.791 284.087 648.479C279.585 653.032 274.487 656.998 270.439 660.519C274.345 663.501 277.779 666.132 282.006 669.369C286.839 665.403 292.25 660.974 297.66 656.544C299.967 655.957 302.881 657.396 305.841 658.73C311.421 661.239 316.964 665.46 322.648 665.678C328.626 665.896 334.764 662.308 340.78 660.245C341.499 659.999 342.009 658.882 342.444 658.077C347.571 648.451 352.688 638.824 357.738 629.16C358.363 627.958 359.346 626.179 358.902 625.298C354.513 616.543 356.584 607.711 357.625 598.653C359.072 585.979 359.375 573.181 360.197 560.053L360.188 560.024ZM392.507 578.757C397.226 573.645 401.502 569.13 405.654 564.492C411.991 557.421 418.46 550.436 424.381 543.015C425.762 541.283 426.017 537.61 425.157 535.509C424.589 534.118 421.08 533.294 418.914 533.341C415.944 533.408 413.012 534.61 410.042 535.216C406.477 535.935 404.481 533.89 406.495 531.126C409.815 526.593 405.294 524.425 404.405 521.311C403.62 518.566 401.483 516.199 399.884 513.559H395.987C396.971 511.647 397.955 509.735 398.929 507.813C397.258 505.781 392.983 504.491 386.104 503.942C385.29 502.664 384.392 501.235 382.576 498.376C380.968 501.121 379.804 503.09 378.792 504.812C369.646 499.995 367.017 503.875 356.206 518.783C358.608 517.572 361.001 516.351 362.638 515.527C364.321 518.405 365.882 521.055 367.48 523.8C372.304 516.957 374.754 513.483 377.203 510.009C377.752 510.179 378.291 510.359 378.84 510.53C378.537 512.006 378.253 513.483 377.913 514.95C377.563 516.483 376.693 518.064 376.891 519.512C377.118 521.14 378.272 522.645 379.019 524.207C377.137 523.791 375.255 523.374 372.711 522.816C373.59 524.908 374.328 526.64 375.056 528.363C366.903 532.272 361.872 542.636 365.116 548.373C359.961 552.31 360.018 553.096 362.978 555.585C367.651 559.504 371.689 564.199 375.908 568.638C376.087 568.827 375.435 569.812 374.971 570.891C373.269 570.01 371.727 569.225 370.195 568.43C370.677 569.017 371.169 569.604 371.651 570.2C368.369 575.065 365.087 579.93 361.701 584.956C363.129 586.168 364.567 587.38 366.724 589.197C357.133 593.116 363.583 596.239 366.705 599.325C359.081 606.926 358.561 610.116 363.498 617.262C370.567 611.141 376.897 608.447 382.49 609.179C380.722 607.569 379.275 606.254 377.695 604.815C387.21 598.236 394.72 584.351 392.488 578.776L392.507 578.757ZM432.269 452.516C428.325 459.814 421.818 464.707 427.805 473.122C427.029 473.453 426.254 473.785 425.488 474.116C420.796 469.44 416.105 464.764 410.789 459.454C405.729 464.726 400.925 469.734 395.845 475.015C394.162 472.384 392.828 469.629 390.899 467.405C387.759 463.799 382.443 464.811 381.781 469.45C380.665 477.145 380.599 484.992 380.05 493.53C387.683 492.11 394.758 494.533 398.484 487.32C400.82 482.805 404.102 482.682 408.463 484.026C419.065 487.301 419.803 486.847 424.39 476.653C430.727 474.902 441.188 480.751 441.33 468.077C455.215 470.188 468.749 472.251 482.275 474.315C482.7 473.207 483.126 472.1 483.542 470.992C478.217 467.159 473.043 463.079 467.51 459.558C463.169 456.785 460.899 453.851 464.73 448.427C461.75 448.673 459.537 448.853 455.253 449.203C457.92 444.413 459.982 440.722 462.044 437.021C461.24 436.576 460.426 436.141 459.622 435.696C455.281 443.249 450.514 450.594 446.759 458.441C444.442 463.297 442.579 463.458 439.278 459.871C437.263 457.684 435.182 455.554 432.26 452.497L432.269 452.516ZM444.546 529.177C430.103 544.577 416.36 559.239 403.516 572.945C404.736 576.513 405.512 578.766 406.278 581.009C405.663 581.255 405.048 581.511 404.434 581.757C403.176 580.669 401.927 579.59 399.43 577.431C400.196 580.915 400.612 582.798 400.868 583.953C396.129 589.576 391.722 594.81 387.106 600.291C389.102 601.862 391.353 602.714 391.703 604.058C393.311 610.277 395.552 607.702 398.087 604.862C400.603 602.042 403.138 599.24 405.729 596.485C416.398 585.146 427.199 573.929 437.745 562.467C445.104 554.468 452.112 546.148 459.603 537.601C457.494 535.178 453.853 530.596 447.156 536.314C446.324 534.032 445.738 532.433 444.546 529.158V529.177ZM265.048 550.578C268.982 575.567 281.363 586.764 297.064 585.562C295.484 584.218 294.416 583.12 293.167 582.287C287.956 578.804 282.404 575.775 277.533 571.875C272.548 567.881 269.559 563.016 273.059 555.973C275.48 551.108 271.555 544.018 266.949 544.227C258.351 544.615 249.716 545.183 241.232 546.555C237.515 547.161 234.138 549.934 230.61 551.723L231.339 553.702C242.679 554.194 253.301 544.927 265.038 550.559L265.048 550.578ZM315.167 562.107C315.167 558.737 315.488 555.519 315.11 552.376C313.833 541.841 315.791 538.405 326.205 535.348C332.683 533.445 339.38 532.3 345.906 530.549C347.873 530.019 349.623 528.646 351.468 527.653C349.207 525.864 347.523 525.315 346.105 525.731C336.968 528.372 327.888 531.174 318.808 534.004C304.205 538.557 304.413 538.557 306.096 553.295C306.73 558.87 309.057 561.757 315.176 562.107H315.167ZM284.882 388.567C285.232 389.287 285.582 390.006 285.931 390.725C296.553 387.886 307.175 385.046 317.929 382.169C315.867 377.464 314.164 372.911 311.8 368.737C311.28 367.819 307.629 367.384 306.721 368.198C299.268 374.795 292.117 381.733 284.882 388.577V388.567ZM240.598 393.783C240.844 392.874 241.09 391.956 241.336 391.047C233.58 387.791 225.824 384.535 218.078 381.279C215.042 386.021 211.987 390.744 208.989 395.515C208.79 395.827 209.008 396.386 209.046 397.247C219.592 396.092 230.09 394.938 240.598 393.792V393.783ZM276.227 544.804C277.911 547.606 278.545 550.001 279.632 550.237C287.133 551.856 294.728 553.02 302.219 554.317C304.186 546.82 301.188 544.397 294.491 544.747C288.958 545.041 283.397 544.804 276.218 544.804H276.227ZM381.582 412.496C382.122 422.293 382.604 430.944 383.181 441.451C390.227 428.228 389.735 419.51 381.582 412.496ZM224.538 533.275C223.706 537.516 214.616 541.33 224.141 545.93C227.045 547.331 233.382 542.305 234.394 539.219C230.913 537.118 227.839 535.263 224.538 533.275ZM82.5608 681.637C77.6898 687.732 73.5755 692.882 69.045 698.561C71.873 699.223 73.6512 699.64 75.9117 700.16C73.4242 692.579 87.167 690.771 82.5608 681.637ZM226.439 581.757C231.358 568.856 230.658 565.808 221.332 564.331C224.075 567.919 225.796 570.171 227.792 572.784C226.089 573.787 224.425 574.772 222.221 576.068C223.432 577.696 224.548 579.201 226.439 581.748V581.757ZM327.879 672.644C328.352 672.01 328.825 671.367 329.288 670.732C327.519 671.177 325.751 671.622 323.982 672.076C325.382 676.705 326.791 681.343 328.191 685.972C328.995 685.972 329.808 685.962 330.612 685.953C330.905 684.192 331.794 682.271 331.378 680.699C330.631 677.907 329.089 675.323 327.869 672.654L327.879 672.644ZM150.395 446.477C151.35 446.732 152.315 446.988 153.27 447.244C153.895 441.072 154.528 434.901 155.153 428.729L152.684 428.464C151.918 434.465 151.161 440.476 150.395 446.477ZM285.232 552.935C283.359 556.702 282.054 558.453 281.732 560.365C281.571 561.321 283.198 562.58 284.021 563.697C285.459 562.135 287.341 560.763 288.154 558.917C288.551 558.037 286.934 556.257 285.232 552.925V552.935Z" fill="#000000"/>
<path d="M333.96 485.124C319.262 487.453 304.564 489.857 289.847 492.072C282.924 493.113 275.944 493.889 268.982 494.647C258.786 495.754 249.612 498.594 242.178 506.478C234.233 514.903 217.757 515.556 208.648 508.267C206.908 506.876 205.593 504.093 205.357 501.812C203.569 484.973 211.902 473.406 228.719 470.51C257.699 465.521 286.783 461.158 315.81 456.454C323.878 455.147 332.078 454.163 339.872 451.882C345.66 450.187 347.769 452.942 349.396 457.116C351.59 462.767 353.51 468.541 355.326 474.324C357.01 479.682 353.898 484.5 348.11 485.342C343.504 486.014 338.822 486.222 334.178 486.639C334.112 486.128 334.036 485.626 333.97 485.115L333.96 485.124ZM351.543 478.877C349.33 472.185 347.504 466.695 345.717 461.196C344.506 457.466 342.151 456.113 338.226 456.898C325.193 459.501 312.159 462.067 299.078 464.423C274.071 468.929 249.073 473.577 223.971 477.457C218.305 478.338 214.929 480.704 212.696 485.266C210.805 489.147 209.225 493.246 208.166 497.42C207.778 498.944 208.856 502.087 210.029 502.56C221.72 507.217 230.743 510.085 241.09 500.241C248.354 493.321 257.207 489.024 267.214 487.936C291.71 485.276 316.255 482.947 340.77 480.439C344.185 480.089 347.571 479.455 351.553 478.868L351.543 478.877Z" fill="#000000"/>
<path d="M320.842 414.682C320.549 418.648 320.397 420.807 320.236 422.965C317.721 418.185 314.533 418.667 310.324 420.144C306.9 421.346 302.985 421.261 299.268 421.412C298.095 421.46 296.591 420.712 295.721 419.841C293.659 417.797 291.89 415.459 288.996 412.061C290.793 411.18 293.375 409.098 296.213 408.681C306.115 407.243 316.122 406.571 326.034 405.189C329.543 404.706 332.882 403.031 337.044 401.649C337.829 408.965 338.51 415.345 339.191 421.725L337.346 422.122C336.221 417.229 335.086 412.326 333.96 407.432C333.175 407.489 332.4 407.546 331.615 407.593C331.832 411.635 332.05 415.686 332.352 421.393C330.527 418.118 329.449 416.178 327.387 412.477C326.649 416.841 326.214 419.406 325.524 423.466C323.925 420.475 322.885 418.525 320.832 414.673L320.842 414.682Z" fill="#000000"/>
<path d="M254.341 305.574C249.375 297.765 255.731 292.54 258.777 286.634C260.025 284.211 262.002 282.176 263.553 279.913C271.318 268.574 280.465 259.033 294.359 255.313C297.357 254.508 300.157 252.956 303.552 252.71C295.21 261.295 285.79 269.085 278.828 278.673C271.716 288.47 267.015 300.028 260.81 310.572C264.934 293.724 272.785 278.759 284.938 264.059C273.541 271.754 264.357 278.995 259.865 290.581C257.935 295.56 256.148 300.586 254.303 305.593L254.341 305.584V305.574Z" fill="#000000"/>
<path d="M405.096 349.352C400.745 351.245 396.403 353.138 391.362 355.334C390.293 347.336 396.876 346.342 400.991 344.42C403.516 343.237 407.375 344.941 410.638 345.348C410.08 348.841 410.364 352.826 408.699 355.684C407.299 358.098 403.686 359.262 400.953 360.805C400.716 360.938 399.146 359.669 399.194 359.149C399.279 358.174 399.912 357.066 400.66 356.375C402.561 354.634 404.651 353.091 406.666 351.463C406.145 350.762 405.616 350.062 405.096 349.352Z" fill="#000000"/>
<path d="M416.436 376.3C414.308 375.94 411.783 375.789 409.475 374.994C408.311 374.596 407.555 373.035 406.609 372.003C407.602 371.236 408.746 369.684 409.56 369.835C414.289 370.734 419.264 371.369 423.52 373.413C427.512 375.325 427.53 378.913 423.492 381.544C422.168 382.405 420.512 383.342 419.056 383.276C416.351 383.163 413.674 382.33 410.979 381.8C412.7 380.067 414.421 378.326 416.445 376.291L416.436 376.3Z" fill="#000000"/>
<path d="M426.329 400.181C421.004 397.342 416.805 395.099 412.605 392.865C420.21 388.899 425.1 392.202 429.072 396.954C430.226 398.336 430.604 401.677 429.725 403.163C428.297 405.577 425.629 407.337 423.274 409.07C422.849 409.382 420.806 408.483 420.513 407.744C420.087 406.675 420.115 404.857 420.787 404.062C421.893 402.737 423.672 401.97 426.329 400.181Z" fill="#000000"/>
<path d="M235.784 358.297C239.756 361.231 242.745 362.954 245.006 365.368C245.847 366.267 245.45 368.964 244.788 370.469C244.259 371.672 242.121 373.3 241.317 373.006C239.52 372.362 237.146 370.886 236.73 369.305C235.841 365.888 236.049 362.197 235.784 358.297Z" fill="#000000"/>
<path d="M256.876 348.841C257.472 351.397 258.077 353.943 258.796 357.01C260.432 356.669 262.087 356.337 264.953 355.741C263.837 358.609 263.449 361.203 261.974 362.793C261.208 363.616 257.188 363.153 256.952 362.471C255.486 358.231 254.682 353.763 253.651 349.371C254.729 349.191 255.798 349.011 256.876 348.831V348.841Z" fill="#000000"/>
<path d="M290.017 435.97C291.663 438.535 293.441 441.044 294.813 443.751C295.011 444.148 292.704 446.382 292.581 446.297C290.509 444.858 288.107 443.486 286.849 441.432C286.187 440.362 287.606 438.015 288.088 436.245C288.731 436.15 289.374 436.055 290.027 435.97H290.017Z" fill="#000000"/>
<path d="M236.701 403.343L240.551 411.748C240.088 412.25 239.624 412.752 239.161 413.253C237.468 412.676 234.63 412.458 234.299 411.436C233.561 409.145 234.072 406.448 234.072 403.92C234.952 403.731 235.822 403.532 236.701 403.343Z" fill="#000000"/>
<path d="M440.555 600.376C439.571 598.341 438.587 596.296 438.086 595.264C444.338 588.506 449.937 582.448 455.536 576.4C456.189 576.901 456.842 577.412 457.494 577.914C454.695 581.691 451.469 585.231 449.237 589.311C447.279 592.888 446.447 597.082 444.896 601.663C444.357 601.493 442.371 600.868 440.394 600.253L440.555 600.385V600.376Z" fill="#000000"/>
<path d="M196.315 699.697C194.31 699.318 192.371 698.958 190.432 698.589C191.538 697.274 192.636 695.958 193.742 694.642C194.953 693.213 196.173 691.803 197.488 690.26C201.507 693.923 205.272 697.274 208.923 700.738C209.632 701.41 210.266 702.536 210.285 703.464C210.304 704.117 208.932 705.452 208.677 705.348C207.561 704.865 205.934 704.117 205.726 703.189C204.789 698.921 202.945 699.877 200.609 701.94C199.323 703.066 197.932 704.079 196.589 705.149C196.495 703.246 196.391 701.344 196.305 699.697H196.315Z" fill="#000000"/>
</g>
</g>
<defs>
<clipPath id="clip0_46_1141">
<rect width="1280" height="720" fill="white"/>
</clipPath>
<clipPath id="clip1_46_1141">
<rect width="1280" height="726" fill="white" transform="translate(0 -6)"/>
</clipPath>
</defs>
</svg>
