<svg width="63" height="63" viewBox="0 0 63 63" fill="none" xmlns="http://www.w3.org/2000/svg">
<path d="M13.4456 20.7186C13.4448 12.5396 17.9457 6.16588 28.2506 5.90994C39.06 5.64101 48.4803 19.902 43.7413 23.5351" stroke="#A660A7" stroke-width="1.25" stroke-linecap="round" stroke-linejoin="round"/>
<path d="M13.9298 16.9629C11.3161 30.1768 10.8056 43.7206 12.4174 57.0938" stroke="#A660A7" stroke-width="1.25" stroke-linecap="round" stroke-linejoin="round"/>
<path d="M42.7148 17.5544C42.7148 17.5544 44.2714 36.5925 43.5234 48.4132" stroke="#A660A7" stroke-width="1.25" stroke-linecap="round" stroke-linejoin="round"/>
<path d="M19.4448 31.3096C19.5733 37.2859 20.1873 52.6534 23.1159 57.0936" stroke="#A660A7" stroke-width="1.25" stroke-linecap="round" stroke-linejoin="round"/>
<path d="M39.022 13.65C39.022 13.65 39.0247 21.9566 33.7902 27.7872" stroke="#A660A7" stroke-width="1.25" stroke-linecap="round" stroke-linejoin="round"/>
<path d="M34.1939 14.7141C33.8789 18.6785 34.2262 20.1555 30.9473 25.8847" stroke="#A660A7" stroke-width="1.25" stroke-linecap="round" stroke-linejoin="round"/>
<path d="M31.185 15.4975C31.3504 18.834 29.6728 22.2213 27.0727 26.0954C27.4303 23.7317 27.6687 21.3516 27.787 18.9639" stroke="#A660A7" stroke-width="1.25" stroke-linecap="round" stroke-linejoin="round"/>
<path d="M28.0122 16.22C28.0122 16.22 28.6924 21.2132 23.1311 27.594" stroke="#A660A7" stroke-width="1.25" stroke-linecap="round" stroke-linejoin="round"/>
<path d="M29.2549 8.23818C29.1167 8.17741 16.8605 18.6425 26.5451 40.6849" stroke="#A660A7" stroke-width="1.25" stroke-linecap="round" stroke-linejoin="round"/>
<path d="M25.4444 13.7025C25.4444 13.7025 37.6008 7.77 42.7148 17.5551" stroke="#A660A7" stroke-width="1.25" stroke-linecap="round" stroke-linejoin="round"/>
<path d="M27.7551 9.88209C30.0985 9.2546 32.5568 9.18764 34.9309 9.68663C37.305 10.1856 39.5283 11.2366 41.4208 12.7544" stroke="#A660A7" stroke-width="1.25" stroke-linecap="round" stroke-linejoin="round"/>
<path d="M43.7003 37.7353C43.7003 37.7353 45.7571 45.8766 46.7191 47.496" stroke="#A660A7" stroke-width="1.25" stroke-linecap="round" stroke-linejoin="round"/>
<path d="M25.1908 36.9496C25.1908 36.9496 30.2261 41.0041 33.4623 41.3099" stroke="#A660A7" stroke-width="1.25" stroke-linecap="round" stroke-linejoin="round"/>
<path d="M33.4618 41.31C33.4618 41.31 34.6547 42.0969 39.5518 35.8369C40.9692 32.2781 41.69 28.4803 41.6749 24.6497" stroke="#A660A7" stroke-width="1.25" stroke-linecap="round" stroke-linejoin="round"/>
<path d="M23.2113 43.7301C23.6831 41.9674 23.827 40.133 23.636 38.3183" stroke="#A660A7" stroke-width="1.25" stroke-linecap="round" stroke-linejoin="round"/>
<path d="M32.5012 41.1303C32.5012 41.1303 31.2224 43.9266 35.7693 47.0467" stroke="#A660A7" stroke-width="1.25" stroke-linecap="round" stroke-linejoin="round"/>
<path d="M33.5594 45.0861L47.9346 47.8692C47.9346 47.8692 48.7653 47.843 50.4204 53.2494" stroke="#A660A7" stroke-width="1.25" stroke-linecap="round" stroke-linejoin="round"/>
<path d="M23.2113 43.7302C23.2113 43.7302 30.4155 56.7675 38.4745 57.0938" stroke="#A660A7" stroke-width="1.25" stroke-linecap="round" stroke-linejoin="round"/>
<path d="M35.7688 47.0466C35.7688 47.0466 38.6453 52.2786 38.4741 57.0938" stroke="#A660A7" stroke-width="1.25" stroke-linecap="round" stroke-linejoin="round"/>
<path d="M31.9344 54.1013C33.7377 52.9353 35.9223 52.5124 38.0304 52.9213" stroke="#A660A7" stroke-width="1.25" stroke-linecap="round" stroke-linejoin="round"/>
<path d="M53.7033 57.0938L53.3137 55.7567C50.8065 53.3466 47.8062 51.509 44.52 50.3706C42.1477 51.1183 40.0057 52.4597 38.2973 54.2675C38.2973 54.2675 38.9753 56.8824 41.0641 56.9524" stroke="#A660A7" stroke-width="1.25" stroke-linecap="round" stroke-linejoin="round"/>
<path d="M38.9828 55.7104C40.5451 54.5017 42.2544 53.4962 44.0698 52.7179" stroke="#A660A7" stroke-width="1.25" stroke-linecap="round" stroke-linejoin="round"/>
<path d="M41.0637 56.952C42.2865 56.9105 43.031 56.0292 43.9593 55.4708L46.6268 55.5488" stroke="#A660A7" stroke-width="1.25" stroke-linecap="round" stroke-linejoin="round"/>
<path d="M44.0694 52.7178C44.8215 52.7187 45.5631 52.8951 46.235 53.2331" stroke="#A660A7" stroke-width="1.25" stroke-linecap="round" stroke-linejoin="round"/>
<path d="M21.4725 21.4339C20.4967 13.2551 18.0654 14.8525 18.0654 14.8525C18.0654 14.8525 16.7323 13.0947 13.9103 21.2928" stroke="#A660A7" stroke-width="1.25" stroke-linecap="round" stroke-linejoin="round"/>
<path d="M18.0651 14.8522C16.2407 18.8868 14.9412 23.1387 14.1984 27.5038" stroke="#A660A7" stroke-width="1.25" stroke-linecap="round" stroke-linejoin="round"/>
<path d="M18.0651 14.8522C18.692 19.1219 18.8899 23.4436 18.6557 27.7527" stroke="#A660A7" stroke-width="1.25" stroke-linecap="round" stroke-linejoin="round"/>
<path d="M16.6474 29.6823C15.3928 38.8258 15.8627 48.1234 18.0327 57.0937" stroke="#A660A7" stroke-width="1.25" stroke-linecap="round" stroke-linejoin="round"/>
<path d="M28.105 57.0938C28.105 57.0938 23.422 55.0856 21.6752 53.0313" stroke="#A660A7" stroke-width="1.25" stroke-linecap="round" stroke-linejoin="round"/>
<path d="M39.8185 26.1955C41.0022 22.552 41.3187 18.6824 40.7429 14.8949" stroke="#A660A7" stroke-width="1.25" stroke-linecap="round" stroke-linejoin="round"/>
<path d="M23.2113 43.7302L20.4609 45.2571" stroke="#A660A7" stroke-width="1.25" stroke-linecap="round" stroke-linejoin="round"/>
<path d="M30.9477 25.8848C30.9477 25.8848 31.0733 20.4331 30.8359 18.6267" stroke="#A660A7" stroke-width="1.25" stroke-linecap="round" stroke-linejoin="round"/>
<path d="M33.7903 27.7872C34.0435 24.6381 34.0848 21.4754 33.9139 18.3207" stroke="#A660A7" stroke-width="1.25" stroke-linecap="round" stroke-linejoin="round"/>
<path d="M26.5444 40.684C25.816 40.8076 23.2305 38.2415 19.4666 32.1624" stroke="#A660A7" stroke-width="1.25" stroke-linecap="round" stroke-linejoin="round"/>
<path d="M11.7133 50.3965C10.8906 51.2992 10.2546 52.3556 9.84166 53.5049C9.42874 54.6543 9.2471 55.874 9.30718 57.0938" stroke="#A660A7" stroke-width="1.25" stroke-linecap="round" stroke-linejoin="round"/>
<path d="M39.4078 46.2181C39.5937 43.9649 39.6175 41.7012 39.4791 39.4446" stroke="#A660A7" stroke-width="1.25" stroke-linecap="round" stroke-linejoin="round"/>
</svg>
