<svg width="430" height="203" viewBox="0 0 430 203" fill="none" xmlns="http://www.w3.org/2000/svg">
<mask id="mask0_59_43" style="mask-type:alpha" maskUnits="userSpaceOnUse" x="0" y="0" width="434" height="203">
<rect width="433.601" height="202.854" fill="#280E49"/>
</mask>
<g mask="url(#mask0_59_43)">
<g filter="url(#filter0_f_59_43)">
<ellipse cx="80.8599" cy="166.51" rx="80.8599" ry="80.0147" fill="#A660A7"/>
</g>
<g filter="url(#filter1_f_59_43)">
<ellipse cx="374.153" cy="30.1464" rx="80.8599" ry="80.0147" fill="#A660A7"/>
</g>
<g filter="url(#filter2_f_59_43)">
<ellipse cx="330.765" cy="110.161" rx="53.8127" ry="53.2492" fill="#3A8EC7"/>
</g>
<g filter="url(#filter3_f_59_43)">
<ellipse cx="43.8127" cy="36.2492" rx="53.8127" ry="53.2492" fill="#3A8EC7"/>
</g>
</g>
<g clip-path="url(#clip0_59_43)">
<path d="M105.597 72.6893C109.429 77.0563 110.522 81.8206 109.538 87.2385C109.865 87.2695 110.136 87.3596 110.381 87.3117C114.621 86.4947 118.611 87.3709 122.09 89.7206C125.848 92.262 129.348 95.1921 132.909 98.0179C134.628 99.3816 136.479 100.348 138.6 100.971C143.962 102.54 149.278 104.25 154.606 105.932C156.674 106.586 157.023 106.955 156.556 109.079C155.924 111.956 155.113 114.807 154.152 117.591C153.175 120.428 152.011 123.208 150.757 125.939C149.751 128.131 149.557 130.294 150.025 132.638C152.039 142.716 154.014 152.803 155.953 162.895C156.981 168.242 157.863 173.601 157.482 179.106C157.201 183.203 156.84 187.358 157.237 191.418C157.536 194.461 157.111 197.166 156.082 199.904C155.443 201.606 155.434 201.603 153.208 202.169V192.666C153.104 192.649 152.997 192.635 152.893 192.618C150.949 195.351 148.937 198.036 147.103 200.84C146.475 201.8 145.855 202.172 144.751 202.172C127.24 202.133 109.727 202.119 92.217 202.11C81.8404 202.105 71.4638 202.141 61.0873 202.099C60.1519 202.096 59.1405 201.806 58.2952 201.386C52.5533 198.532 48.8541 193.951 47.0509 187.815C46.7889 186.922 46.4987 186.034 46.2226 185.144C46.1043 185.147 45.9831 185.149 45.8648 185.155V193.762L45.3689 193.881C45.1435 193.534 44.8618 193.213 44.7068 192.838C42.4557 187.448 41.7344 181.822 42.05 176.018C42.5177 167.45 45.5746 159.536 48.1441 151.498C50.4853 144.167 52.9252 136.865 55.2073 129.514C55.5595 128.378 55.5088 127.015 55.289 125.823C54.1311 119.551 52.8548 113.3 51.6292 107.039C51.5475 106.628 51.5531 106.197 51.494 105.78C51.3503 104.797 51.7166 104.354 52.7534 104.222C58.0135 103.54 63.268 102.83 68.5112 102.027C69.3001 101.906 70.1763 101.407 70.7257 100.816C78.5158 92.4197 87.8922 87.4075 99.531 87.1652C100.559 87.1427 101.602 87.2131 102.619 87.3596C103.935 87.5484 104.253 87.0554 104.087 85.796C103.549 81.7304 104.149 77.7466 105.138 73.805C105.202 73.543 105.343 73.2979 105.597 72.6865V72.6893ZM118.258 200.964C118.385 201.119 118.515 201.274 118.642 201.429C119.098 201.429 119.554 201.429 120.011 201.429C122.687 201.429 125.367 201.496 128.038 201.392C129.229 201.344 130.503 201.158 131.579 200.676C135.642 198.862 139.166 196.168 142.294 193.08C145.652 189.767 148.856 186.243 150.946 181.918C151.529 180.712 152.172 179.444 152.329 178.148C152.684 175.269 152.848 172.358 152.915 169.456C153.008 165.498 152.938 161.537 152.938 157.353C153.992 163.965 153.31 170.381 153.206 176.804C154.44 172.688 156.046 168.837 155.336 164.182C153.623 152.983 151.326 141.919 148.664 130.925C147.069 124.335 144.415 118.131 141.299 112.083C136.96 103.664 131.421 96.4176 123.279 91.3238C118.83 88.5401 114.224 87.0216 108.978 88.5317C108.792 88.5852 108.558 88.4782 108.285 88.4359C109.727 83.4237 109.138 78.8482 106.005 74.732C104.535 79.1779 104.588 83.6885 105.126 88.2922C104.385 88.2922 103.83 88.3457 103.287 88.2838C95.9529 87.4442 89.0784 88.9487 82.6518 92.4761C80.3641 93.7326 77.9946 95.0202 76.107 96.7726C73.6164 99.0801 71.3399 101.7 69.379 104.475C66.8179 108.096 64.1188 111.778 62.4368 115.83C59.5236 122.845 59.4053 130.373 60.1266 137.879C60.3632 140.336 60.7238 142.781 61.0281 145.232C58.963 136.797 58.7517 128.316 60.4703 119.732C60.335 119.847 60.2421 119.89 60.2111 119.957C59.8364 120.819 59.4673 121.681 59.1038 122.546C56.5907 128.55 55.0467 134.701 56.9175 141.184C57.8529 144.424 59.1123 147.571 60.2252 150.76C60.3745 151.191 60.5238 151.625 60.676 152.056C57.743 146.424 55.568 140.592 55.7088 134.12C55.5567 134.112 55.4017 134.103 55.2496 134.095C53.9367 139.349 52.6209 144.607 51.308 149.861C51.2291 149.842 51.1503 149.825 51.0686 149.805C51.8631 146.199 52.6576 142.595 53.4521 138.989C53.1365 139.242 53.0267 139.547 52.9252 139.851C51.5672 143.897 50.3952 148.022 48.8062 151.974C46.586 157.502 45.7267 163.103 46.7438 168.992C47.9243 175.824 50.043 182.363 52.8971 188.663C53.4859 189.962 54.4692 191.083 55.2693 192.286C55.3736 192.218 55.4806 192.151 55.5849 192.08C52.3336 187.043 50.2402 181.549 49.2767 175.658C48.2004 169.076 48.6258 160.021 50.1219 158.161C49.0935 163.534 48.8005 168.732 49.5894 173.981C50.7784 181.887 53.238 189.229 58.8249 195.191C60.2928 196.754 62.1748 197.946 63.5469 199.577C64.6485 200.888 65.9304 201.336 67.4378 201.414C69.1705 201.507 70.9116 201.414 72.6472 201.44C73.4473 201.451 73.8361 201.124 73.977 200.333C74.6391 196.65 74.6334 192.962 74.1686 189.263C73.1149 180.878 70.8187 172.815 67.8547 164.929C65.8234 159.528 63.73 154.149 61.6818 148.757C61.5015 148.281 61.4254 147.768 61.2986 147.272C61.4085 147.244 61.5212 147.216 61.6311 147.188C63.1187 151.247 64.6062 155.305 66.0938 159.364C66.1727 156.536 65.9051 153.797 65.829 151.053C65.7529 148.34 65.7417 145.61 65.9417 142.905C66.1474 140.15 66.5559 137.397 67.0433 134.675C67.5223 131.999 68.1337 129.342 68.8324 126.716C69.5255 124.119 70.4017 121.569 71.1962 118.996C71.3371 119.042 71.4808 119.084 71.6216 119.129C69.393 125.448 68.0266 131.945 67.3476 138.58C67.4687 138.631 67.5927 138.679 67.7139 138.73C68.745 137.067 69.779 135.405 70.9426 133.534C71.3202 134.509 71.5174 135.23 71.8667 135.867C72.2302 136.529 72.7401 137.112 73.3741 137.986C73.5995 127.928 74.9039 120.707 76.8789 118.98C76.5606 119.842 76.2056 120.515 76.0703 121.228C75.6534 123.423 74.9941 125.637 75.0222 127.838C75.087 133.089 79.1977 137.304 83.7478 137.284C83.7478 134.968 83.4914 132.621 83.7985 130.351C84.5479 124.798 87.1259 119.935 90.0391 115.238C90.4279 114.613 90.828 113.939 90.9942 113.235C91.8986 109.431 93.5637 105.994 95.8458 102.844C96.0064 102.624 96.26 102.472 96.4713 102.289C95.9895 103.622 95.3697 104.822 94.7047 105.997C91.7549 111.209 90.5152 116.844 90.7913 122.777C91.0308 127.874 92.5917 132.458 96.815 135.757C99.0267 137.484 103.087 138.496 105.036 137.893C100.624 133.684 96.8798 129.269 97.9138 122.324C98.5984 117.737 99.9085 113.466 102.044 109.403C102.379 108.766 102.794 108.175 103.168 107.561C103.278 107.623 103.385 107.687 103.495 107.749C103.298 108.135 103.106 108.527 102.901 108.91C100.962 112.578 99.4183 116.376 98.6801 120.501C97.5729 126.665 99.3281 131.804 103.904 136.011C104.453 136.515 105.132 136.881 105.659 137.248C105.935 134.363 106.036 131.647 106.496 128.995C106.955 126.344 107.975 123.84 109.685 121.591C109.575 125.553 111.009 128.981 112.886 132.264C114.83 135.661 117.577 137.972 121.411 138.687C120.707 135.994 119.816 133.47 119.422 130.869C118.833 126.989 119.18 124.155 119.701 123.462C119.873 126.116 119.788 129.086 120.326 131.94C120.901 134.991 123.885 137.932 125.95 138.242C125.398 136.577 124.75 134.918 124.307 133.202C123.876 131.528 123.671 129.798 124.192 128.08C125.04 133.557 128.094 137.4 132.808 140.147C132.548 137.16 132.14 134.247 131.573 131.368C131.004 128.469 130.421 125.558 129.59 122.73C128.781 119.977 127.649 117.317 126.657 114.615L127.13 114.505C132.067 127.646 135.256 141.136 134.906 155.741C135.411 153.834 135.819 152.301 136.222 150.768C137.854 144.57 138.259 138.234 138.361 131.85C138.49 132.148 138.535 132.45 138.552 132.754C138.935 139.859 137.907 146.782 136.056 153.631C134.715 158.592 133.588 163.613 132.368 168.608C132.52 168.653 132.672 168.699 132.824 168.744C134.011 165.368 135.194 161.996 136.38 158.621C136.493 158.663 136.603 158.702 136.715 158.745C133.72 168.372 129.827 177.675 126.102 187.288C128.86 184.169 131.571 181.312 134.044 178.261C138.758 172.454 142.514 166.101 144.52 158.815C146.59 151.29 148.45 143.731 148.205 135.833C148.196 135.597 148.25 135.357 148.275 135.121C148.585 135.912 148.734 136.707 148.653 137.476C148.244 141.384 147.903 145.303 147.3 149.182C145.489 160.866 140.823 171.248 133.084 180.267C129.331 184.642 125.741 189.173 122.307 193.799C120.684 195.985 119.594 198.569 118.261 200.975L118.258 200.964ZM91.6873 148.909C91.6986 149.106 91.707 149.306 91.7183 149.503C91.2449 149.58 90.7688 149.737 90.2983 149.72C87.1597 149.602 84.0211 149.34 80.8825 149.326C76.5746 149.306 72.264 149.461 67.9562 149.557C66.7926 149.582 66.3728 150.18 66.4348 151.374C66.6799 156.175 67.2828 160.897 68.931 165.453C69.9988 168.408 70.9708 171.4 71.9372 174.393C72.4725 176.049 72.9655 177.292 75.0251 178.038C82.5898 180.782 90.3152 182.518 98.3336 182.924C103.129 183.166 107.882 182.749 112.514 181.363C114.308 180.825 116.176 180.487 117.906 179.799C121.152 178.509 124.29 176.945 127.539 175.663C129.266 174.981 130.232 173.95 130.742 172.141C132.41 166.202 133.701 160.19 133.957 154.023C134.123 149.968 134.867 145.669 131.207 142.48C131.109 142.392 131.086 142.223 130.999 142.113C129.446 140.141 127.891 138.169 126.336 136.2C126.237 136.273 126.139 136.346 126.04 136.422C126.415 137.169 126.88 137.89 127.122 138.676C127.232 139.034 127.021 139.786 126.75 139.91C126.094 140.212 125.31 140.4 124.592 140.367C120.056 140.169 116.365 138.135 113.646 134.613C112.314 132.886 110.646 132.312 108.735 132.016C108.417 131.965 107.696 132.529 107.682 132.833C107.6 134.515 107.425 136.256 107.772 137.873C108.152 139.654 107.397 140.496 105.442 140.896C104.862 141.015 104.225 140.913 103.622 140.84C99.0154 140.274 95.719 137.876 93.4989 133.805C91.9099 130.894 90.5434 127.953 90.3011 124.586C90.2222 123.501 89.9743 122.428 89.8052 121.349C87.3118 124.347 86.1285 127.753 85.5791 131.61H88.9628C88.0697 132.114 87.1681 132.328 86.2553 132.461C85.3706 132.59 84.9283 132.974 84.9649 133.937C85.0213 135.36 84.979 136.786 84.979 138.203C82.742 138.304 81.122 137.566 75.9126 134.064C75.5491 135.735 75.211 137.298 74.8335 139.034C74.3799 138.882 73.8896 138.783 73.4586 138.566C71.261 137.453 71.2582 137.436 69.4381 139.164C68.9986 139.581 68.5816 140.037 68.2182 140.522C67.7251 141.178 67.018 141.834 66.8912 142.573C66.5953 144.322 66.5784 146.12 66.4827 147.898C66.4657 148.23 66.5925 148.568 66.6771 149.05C75.1603 143.925 83.4407 145.162 91.6901 148.906L91.6873 148.909ZM89.9856 188.311C89.8475 190.311 90.1011 192.125 89.5348 193.63C88.5994 196.12 89.639 198.104 90.4392 200.225C90.7547 201.057 91.3154 201.454 92.2649 201.445C97.1925 201.412 102.12 201.445 107.048 201.395C107.642 201.389 108.434 201.147 108.789 200.724C110.141 199.115 111.389 197.417 112.587 195.689C112.874 195.272 112.824 194.622 112.928 194.078C112.812 194.053 112.697 194.03 112.581 194.005C112.494 194.25 112.407 194.495 112.319 194.743L111.871 194.762C111.652 193.362 111.336 191.968 111.237 190.559C111.119 188.835 110.699 188.485 109.231 189.401C106.913 190.849 104.411 191.596 101.709 191.855C97.8969 192.218 94.3159 191.83 91.321 189.119C90.997 188.826 90.5603 188.657 89.9827 188.316L89.9856 188.311ZM138.11 101.929C143.08 109.812 147.337 117.551 149.613 126.395C151.129 124.031 150.87 121.811 148.999 119.892C149.27 119.425 149.585 118.963 149.819 118.461C150.453 117.112 150.123 115.576 148.861 114.886C148.038 114.435 148.013 113.97 148.174 113.198C148.54 111.457 148.016 110.55 146.427 109.668C146.125 109.502 145.816 108.972 145.849 108.645C145.985 107.324 145.396 106.445 144.291 105.926C143.271 105.447 142.156 105.169 142.463 103.639C142.499 103.461 142.206 103.078 141.998 103.01C140.826 102.644 139.631 102.343 138.107 101.929H138.11ZM113.004 192.734C114.325 195.078 112.998 196.757 111.674 198.448C110.967 199.349 110.305 200.285 109.465 201.417C111.998 201.417 114.277 201.437 116.554 201.395C116.872 201.389 117.348 201.164 117.475 200.904C118.21 199.4 119.163 197.898 119.397 196.304C119.49 195.67 117.934 194.793 117.131 194.027C116.962 193.867 116.762 193.723 116.636 193.534C115.765 192.252 114.576 192.32 113.01 192.737L113.004 192.734ZM56.5541 126.572C58.9799 117.915 62.4594 109.919 68.8352 103.388C68.1816 103.315 67.6716 103.346 67.2462 103.551C66.8602 103.74 66.6123 104.25 66.2234 104.391C65.2599 104.74 64.5837 105.228 64.4738 106.346C64.4457 106.639 64.1132 107.113 63.8737 107.144C61.8452 107.414 61.1014 108.668 61.1859 110.53C59.0531 111.15 58.4558 112.35 58.7995 115.173C57.0189 115.892 56.4301 117.154 56.8865 119.098C56.9936 119.549 57.0809 120.185 56.8527 120.504C55.8046 121.96 55.568 124.767 56.5569 126.575L56.5541 126.572ZM89.701 201.324C89.3207 200.082 88.9206 198.989 88.6642 197.864C88.3965 196.684 88.3148 195.461 88.0331 194.284C87.9824 194.075 87.2837 193.802 87.016 193.903C86.2356 194.196 85.5509 194.748 84.7705 195.047C82.8011 195.799 80.3415 199.09 80.2401 201.324H89.701ZM109.282 127.885C109.068 127.891 108.857 127.897 108.643 127.902C108.42 128.998 108.197 130.091 107.952 131.3C109.127 131.368 109.924 131.416 110.899 131.472C110.294 130.125 109.789 129.004 109.285 127.883L109.282 127.885ZM88.5008 148.819C86.1116 147.39 84.0155 147.117 83.5506 148.219C85.134 148.41 86.6723 148.596 88.5008 148.819ZM71.1398 148.072C72.8885 148.219 73.9676 147.937 74.3771 147.227C73.1233 147.554 72.1316 147.813 71.1398 148.072ZM64.471 104.453C64.4344 104.27 64.4006 104.087 64.364 103.904C63.4877 103.997 62.6115 104.087 61.7381 104.18L61.7973 104.735C62.6876 104.642 63.5807 104.549 64.471 104.453Z" fill="#280E49"/>
<path d="M90.8956 97.4066C87.5711 101.348 83.976 104.98 81.7446 109.668C83.4492 104.977 85.8243 100.728 89.825 97.5193C89.6672 97.8067 89.5123 98.0912 89.2023 98.6547C89.9067 98.1363 90.3997 97.7729 90.8928 97.4066H90.8956Z" fill="#280E49"/>
<path d="M139.282 124.206C140.285 132.906 139.981 141.953 138.037 150.94C138.451 146.418 139.028 141.905 139.237 137.374C139.445 132.861 139.282 128.331 139.282 124.206Z" fill="#280E49"/>
<path d="M61.648 153.62C64.3752 159.59 67.1025 165.56 69.8298 171.533C69.6945 171.595 69.5565 171.657 69.4212 171.716C66.6686 165.757 63.916 159.798 61.1634 153.84L61.6508 153.62H61.648Z" fill="#280E49"/>
<path d="M78.8089 102.994C76.6789 107.448 74.5489 111.905 72.4189 116.359C73.8953 111.587 76.0337 107.127 78.8089 102.994Z" fill="#280E49"/>
<path d="M98.142 114.043L97.0939 120.574C96.9784 120.557 96.8629 120.543 96.7474 120.526C97.0517 118.343 97.3559 116.159 97.663 113.976C97.8236 113.998 97.9842 114.021 98.1448 114.043H98.142Z" fill="#280E49"/>
<path d="M106.611 149.554C107.437 148.934 107.899 148.453 108.462 148.185C114.632 145.246 120.848 145.136 127.068 148.033C128.979 148.923 130.852 149.892 132.746 150.819C132.957 150.923 133.191 150.98 133.416 151.059C133.317 151.177 133.222 151.298 133.123 151.417C124.429 150.808 115.737 150.197 106.614 149.557L106.611 149.554ZM128.246 150.126C128.286 149.994 128.325 149.861 128.367 149.732C126.891 149.177 125.429 148.591 123.933 148.103C123.679 148.022 123.287 148.362 122.961 148.509C123.206 148.81 123.409 149.32 123.702 149.382C125.203 149.695 126.73 149.892 128.246 150.132V150.126ZM109.2 148.765C109.234 148.895 109.265 149.022 109.299 149.151C110.319 149.072 111.344 149.027 112.356 148.892C112.593 148.861 112.787 148.526 113.001 148.331C112.708 148.202 112.381 147.917 112.128 147.971C111.139 148.176 110.175 148.492 109.2 148.765Z" fill="#280E49"/>
<path d="M85.6186 167.132C86.5765 168.887 88.3149 169.107 89.9631 169.33C95.8712 170.121 101.799 170.603 107.764 169.972C108.364 169.907 108.981 169.809 109.541 169.6C110.071 169.403 110.539 169.039 111.249 168.983C111.06 169.262 110.913 169.583 110.674 169.809C108.479 171.899 106.028 173.485 102.85 173.412C99.7705 173.342 96.6798 173.353 93.6229 173.054C90.8365 172.781 88.4867 171.316 86.461 169.425C85.9003 168.901 85.5989 168.101 85.1791 167.428C85.3256 167.329 85.4721 167.234 85.6186 167.135V167.132ZM108.535 170.612C101.483 171.184 94.7189 170.75 87.7542 169.609C92.4396 173.654 104.98 174.269 108.535 170.612Z" fill="#280E49"/>
<path d="M107.158 146.41C109.313 145.694 111.466 144.979 113.621 144.263L113.767 144.68C111.632 145.424 109.493 146.168 107.358 146.914L107.158 146.41Z" fill="#280E49"/>
<path d="M97.4151 158.705C97.4574 157.77 97.4996 156.834 97.5447 155.899C97.7307 155.905 97.9194 155.91 98.1054 155.919V158.716L97.4151 158.705Z" fill="#280E49"/>
<path d="M87.8584 145.415C89.2023 145.908 90.5462 146.404 91.8873 146.897C91.8366 147.035 91.7859 147.176 91.7324 147.314C90.3913 146.813 89.053 146.309 87.7119 145.807C87.7598 145.677 87.8077 145.545 87.8556 145.415H87.8584Z" fill="#280E49"/>
<path d="M73.4727 156.364C73.2191 157.542 72.9627 158.719 72.7092 159.897C72.5796 159.872 72.45 159.843 72.3204 159.818C72.557 158.649 72.7937 157.48 73.0304 156.31C73.1769 156.327 73.3262 156.347 73.4727 156.364Z" fill="#280E49"/>
</g>
<g clip-path="url(#clip1_59_43)">
<path d="M256.667 187.822C256.956 188.128 257.274 188.411 257.526 188.744C257.974 189.34 258.715 189.537 259.267 189.457C259.965 189.353 260.678 188.896 261.237 188.419C261.662 188.057 261.826 187.404 262.163 186.92C262.357 186.644 262.627 186.357 262.927 186.233C264.447 185.601 265.575 184.464 266.677 183.319C267.215 182.76 267.552 182.013 268.029 181.387C269.17 179.888 270.388 178.447 271.479 176.915C272.147 175.976 272.572 174.861 273.227 173.908C273.931 172.882 273.88 171.638 274.377 170.581C274.622 170.062 275.068 169.488 275.568 169.266C277.245 168.519 278.254 167.162 279.315 165.762C280.645 164.007 281.151 161.895 282.083 159.969C282.678 158.74 283.122 157.437 283.722 156.21C284.418 154.785 285.081 153.311 286 152.034C287.103 150.499 288.385 149.105 290.097 148.127C291.659 147.233 293.083 146.098 294.561 145.06C295.495 144.404 296.422 143.735 297.349 143.067C300.012 141.141 302.64 139.168 305.343 137.297C307.652 135.699 309.882 133.972 312.49 132.831C313.271 132.488 313.931 131.862 314.632 131.346C314.722 131.279 314.732 131.085 314.757 130.947C314.866 130.337 314.898 129.701 315.088 129.115C315.314 128.419 315.025 127.904 314.613 127.467C314.339 127.178 313.122 127.509 312.714 127.783C311.67 128.482 310.604 129.15 309.521 129.785C309.354 129.883 309.053 129.749 308.814 129.72C308.921 129.502 308.985 129.242 309.147 129.079C309.381 128.845 309.697 128.7 309.955 128.489C310.2 128.292 310.416 128.062 310.646 127.848C310.612 127.76 310.577 127.672 310.543 127.582C309.668 127.699 308.793 127.85 307.914 127.919C307.553 127.948 307.078 127.925 306.827 127.718C306.32 127.297 306.456 126.931 307.089 126.742C308.167 126.42 309.061 124.904 308.85 123.757C308.611 122.463 308.219 122.208 307.022 121.818C305.42 121.293 303.597 120.989 302.646 119.375C302.049 118.364 301.262 118 300.176 117.861C299.355 117.755 298.597 117.415 298.543 116.36C298.532 116.145 298.329 115.946 298.241 115.73C298.078 115.326 297.76 114.888 297.818 114.512C297.994 113.352 297.931 112.133 298.595 111.067C298.959 110.481 298.702 109.646 298.028 109.185C297.13 108.568 296.165 108.048 295.27 107.427C293.987 106.539 292.915 105.427 292.059 104.117C291.594 103.405 291.249 102.649 291.441 101.755C291.552 101.234 291.77 101.052 292.35 101.223C293.229 101.479 294.165 101.82 295.038 101.734C295.985 101.642 296.943 101.198 297.785 100.712C298.124 100.516 298.183 99.8062 298.31 99.3142C298.323 99.2625 297.925 99.0635 297.699 99.0041C297.017 98.8242 296.307 98.7304 295.647 98.493C295.413 98.4087 295.296 98.0048 295.126 97.7464C295.423 97.664 295.716 97.5205 296.014 97.5109C296.556 97.4937 297.125 97.6736 297.638 97.5645C299.592 97.1491 300.63 95.2768 300.067 93.3012C299.757 92.2138 300.203 91.2528 300.674 90.3549C301.867 88.0826 303.147 85.8581 304.386 83.6087C304.801 82.8563 305.184 82.0848 305.596 81.3306C306.145 80.3255 306.689 79.3166 307.267 78.3269C308.167 76.7935 309.13 75.2945 309.997 73.7439C310.863 72.199 311.602 70.5852 312.476 69.046C313.198 67.7749 314.035 66.5707 314.789 65.3819C313.12 65.803 311.55 67.6236 311.33 69.3849C311.297 69.6414 310.995 69.8615 310.817 70.0989C310.621 69.8634 310.29 69.6471 310.252 69.3887C310.074 68.1654 310.476 67.0799 311.418 66.3104C312.672 65.2843 314.027 64.3845 315.312 63.3948C317.029 62.0719 318.689 60.6744 320.435 59.3956C321.105 58.9036 321.947 58.6452 322.713 58.2853C325.439 57.0065 328.42 57.2783 331.29 56.8916C332.928 56.6696 334.594 56.4054 336.233 56.4839C338.101 56.5738 339.895 56.2828 341.725 56.0895C342.736 55.9823 343.814 56.2082 344.821 56.4532C346.454 56.8514 348.098 57.0429 349.766 57.0065C351.717 56.9625 353.394 57.7301 355.013 58.6777C357.881 60.3566 360.286 62.6214 362.575 64.9799C364.176 66.6281 365.596 68.4564 367.026 70.2616C368.498 72.1205 369.908 74.031 371.301 75.9512C372.08 77.0232 372.735 78.1833 373.512 79.2554C374.357 80.4232 375.266 81.545 376.168 82.6687C377.119 83.8537 378.032 85.077 379.072 86.1816C381.128 88.3678 383.029 90.7187 385.485 92.4991C385.736 92.6809 385.998 92.8647 386.194 93.0983C386.312 93.2399 386.406 93.5156 386.345 93.6649C386.287 93.8066 386.008 93.9521 385.838 93.9387C384.042 93.797 382.238 93.6802 380.693 92.5622C379.987 92.0511 378.953 92.5852 378.79 93.5692C378.687 94.1952 378.716 94.8499 378.735 95.4893C378.812 98.1158 379.633 100.471 381.43 102.421C382.462 103.539 383.793 104.213 385.271 104.458C385.86 104.556 386.523 104.282 387.141 104.129C387.411 104.062 387.643 103.844 387.911 103.758C388.064 103.71 388.257 103.79 388.433 103.815C388.405 103.991 388.433 104.225 388.334 104.336C388.06 104.63 387.767 104.948 387.415 105.121C386.536 105.553 386.109 106.275 385.952 107.186C385.774 108.222 385.137 108.924 384.383 109.585C383.695 110.188 383.065 110.854 382.411 111.494C382.554 111.702 382.6 111.781 382.658 111.851C383.182 112.481 383.178 112.679 382.476 113.054C381.934 113.343 381.93 113.628 382.284 114.057C382.495 114.311 382.683 114.593 382.836 114.886C383.119 115.429 383.406 115.301 383.676 114.903C383.952 114.497 384.191 114.068 384.448 113.651C384.515 113.659 384.582 113.666 384.649 113.676C384.712 113.875 384.857 114.091 384.823 114.273C384.585 115.531 384.415 116.785 383.328 117.731C382.491 118.46 381.833 119.398 381.117 120.261C380.923 120.495 380.718 120.788 380.684 121.073C380.502 122.532 379.443 123.033 378.243 123.19C377.098 123.342 376.405 124.037 375.739 124.812C375.582 124.994 375.645 125.357 375.59 125.633C375.467 126.234 375.396 126.856 375.188 127.427C374.964 128.039 374.359 128.223 373.821 128.017C373.474 127.884 373.26 127.408 372.98 127.092C372.794 126.883 372.63 126.627 372.396 126.5C372.004 126.29 371.563 126.165 371.175 126.016C371.175 127.069 371.165 128.147 371.181 129.226C371.184 129.559 371.309 129.896 371.278 130.222C371.161 131.468 371.971 132.152 372.764 132.896C373.654 133.731 374.475 134.636 375.318 135.521C375.894 136.126 376.478 136.727 377.018 137.364C377.791 138.276 378.528 139.219 379.282 140.15C380.052 141.099 380.831 142.043 381.591 143.002C382.441 144.076 383.291 145.152 384.113 146.249C385.278 147.804 386.418 149.379 387.572 150.943C389.046 152.94 390.39 155.051 392.038 156.893C393.413 158.43 393.819 160.191 394.142 162.079C394.33 163.176 394.65 164.252 394.858 165.347C395.109 166.675 395.314 168.014 395.521 169.352C395.691 170.46 395.894 171.567 395.974 172.683C396.04 173.579 395.896 174.49 395.93 175.39C395.98 176.667 396.068 177.943 396.216 179.213C396.38 180.62 396.622 182.017 396.849 183.415C396.886 183.635 397.008 183.847 397.119 184.047C397.198 184.19 397.408 184.303 397.414 184.437C397.491 185.858 398.524 186.064 399.604 186.16C401.362 186.317 403.121 186.489 404.884 186.543C406.908 186.606 408.935 186.564 410.959 186.533C411.47 186.526 411.667 186.709 411.61 187.198C411.504 188.076 411.376 188.953 411.296 189.834C411.209 190.776 411.169 191.723 411.244 192.682L411.403 192.209C411.464 192.215 411.523 192.221 411.585 192.227V200.591H409.146C409.138 200.328 409.106 200.066 409.125 199.806C409.272 197.882 409.425 195.958 409.586 194.034C409.751 192.085 409.913 190.134 410.105 188.187C410.162 187.611 409.877 187.475 409.4 187.473C407.252 187.466 405.102 187.437 402.956 187.471C402.732 187.475 402.365 187.804 402.321 188.032C402.166 188.825 402.095 189.637 402.041 190.444C401.817 193.825 401.611 197.208 401.398 200.591H399.964C400.066 199.26 400.161 197.928 400.27 196.597C400.378 195.292 400.475 193.986 400.619 192.684C400.799 191.051 401.027 189.422 401.214 187.791C401.231 187.642 401.101 187.475 401.038 187.316C400.931 187.414 400.753 187.496 400.73 187.611C400.604 188.222 400.194 188.348 399.662 188.295C399.353 188.264 399.026 188.139 398.745 188.206C398.448 188.277 398.032 188.471 397.948 188.71C397.452 190.107 397.429 191.559 398.105 192.881C398.63 193.906 398.551 194.89 398.417 195.939C398.335 196.595 398.272 197.265 398.316 197.922C398.377 198.816 398.549 199.704 398.674 200.594H343.885V197.57C343.774 197.552 343.663 197.535 343.55 197.518C343.477 197.78 343.35 198.043 343.339 198.309C343.305 199.071 343.316 199.832 343.31 200.594H342.736C342.7 199.79 342.659 198.986 342.625 198.182C342.604 197.675 342.359 197.522 341.874 197.673V200.592H341.157V192.349C340.984 192.359 340.822 192.363 340.659 192.376C339.426 192.472 338.197 192.613 336.962 192.654C335.298 192.707 333.633 192.671 331.967 192.711C331.801 192.715 331.506 192.987 331.502 193.14C331.479 194.07 331.491 195.004 331.561 195.931C331.59 196.299 331.801 196.653 331.929 197.015C332.006 196.992 332.082 196.97 332.157 196.948C332.189 196.815 332.251 196.683 332.249 196.549C332.241 195.527 332.208 194.503 332.218 193.481C332.218 193.281 332.362 193.084 332.438 192.885C332.582 193.036 332.808 193.169 332.85 193.345C332.944 193.735 332.97 194.147 332.978 194.551C332.995 195.339 332.959 196.13 333.001 196.917C333.009 197.072 333.263 197.214 333.405 197.363C333.491 197.208 333.642 197.057 333.652 196.896C333.715 195.944 333.744 194.993 333.786 194.041C333.803 193.674 333.822 193.308 333.842 192.943C333.92 192.933 333.998 192.925 334.077 192.916C334.697 193.446 334.387 194.227 334.431 194.897C334.479 195.623 334.443 196.354 334.443 197.083C334.517 197.124 334.592 197.162 334.667 197.202C334.822 197.032 335.063 196.882 335.115 196.683C335.218 196.297 335.245 195.881 335.249 195.477C335.256 194.784 335.205 194.091 335.218 193.398C335.222 193.23 335.385 193.065 335.473 192.899C335.599 193.046 335.783 193.176 335.838 193.347C335.909 193.567 335.878 193.819 335.89 194.057C335.919 194.654 335.921 195.253 335.989 195.845C336.012 196.032 336.213 196.201 336.332 196.377C336.455 196.197 336.667 196.025 336.681 195.837C336.73 195.146 336.696 194.451 336.728 193.76C336.742 193.494 336.851 193.232 336.916 192.968C336.989 192.973 337.062 192.979 337.134 192.985C337.199 193.153 337.318 193.32 337.324 193.488C337.345 194.321 337.307 195.156 337.354 195.987C337.368 196.214 337.6 196.433 337.732 196.655C337.868 196.456 338.109 196.262 338.122 196.053C338.176 195.221 338.141 194.38 338.182 193.546C338.193 193.326 338.358 193.111 338.453 192.895C338.585 193.117 338.823 193.333 338.832 193.559C338.875 194.53 338.85 195.502 338.85 196.488C339.37 196.494 339.612 196.21 339.604 195.65C339.596 194.957 339.598 194.264 339.642 193.572C339.659 193.303 339.801 193.04 339.885 192.774C339.968 192.78 340.052 192.786 340.134 192.791C340.186 193.05 340.305 193.314 340.28 193.563C340.136 194.999 340.645 196.413 340.322 197.874C340.13 198.739 340.291 199.683 340.293 200.591H339.719C339.677 199.857 339.667 199.118 339.575 198.393C339.545 198.159 339.296 197.953 339.146 197.734C339.037 197.951 338.844 198.165 338.834 198.387C338.806 199.12 338.846 199.857 338.857 200.592H338.139V198.056C337.678 198.056 337.408 198.255 337.433 198.818C337.46 199.407 337.427 200.001 337.421 200.592H336.56C336.411 199.863 336.69 199.03 336.108 198.406C336.02 198.41 335.932 198.414 335.842 198.418V200.591H335.124C335.13 200.072 335.18 199.547 335.118 199.038C335.094 198.826 334.827 198.64 334.605 198.358C334.525 199.262 334.466 199.928 334.408 200.592H333.834C333.792 200.166 333.742 199.739 333.711 199.31C333.673 198.793 333.436 198.646 332.974 198.843V200.592H332.4C332.356 200.007 332.312 199.419 332.268 198.835C331.649 198.623 331.376 198.799 331.452 199.45C331.498 199.829 331.512 200.212 331.54 200.592H330.822C330.755 200.213 330.688 199.834 330.612 199.402C329.951 199.683 330.162 200.189 330.105 200.592H327.809C327.644 199.922 327.478 199.254 327.313 198.584C327.239 198.596 327.166 198.605 327.091 198.617V200.592H326.23C326.147 199.574 326.077 198.556 325.971 197.539C325.956 197.399 325.766 197.279 325.657 197.149C325.609 197.185 325.562 197.223 325.514 197.26V200.591H324.939C324.945 199.492 324.932 198.393 324.964 197.296C324.982 196.739 324.662 196.827 324.221 196.852V200.589H323.504C323.509 197.926 323.515 195.265 323.517 192.602C323.517 192.317 323.505 192.029 323.496 191.744C323.481 191.268 323.247 191.011 322.767 190.99C322.736 191.063 322.701 191.105 322.701 191.147C322.68 194.294 322.661 197.441 322.642 200.589H321.924C321.924 197.411 321.934 194.231 321.911 191.053C321.909 190.795 321.683 190.536 321.562 190.278C321.497 190.307 321.432 190.335 321.367 190.362C321.325 191.049 321.252 191.735 321.245 192.422C321.22 195.144 321.218 197.864 321.206 200.587H320.488C320.519 198.94 320.576 197.294 320.552 195.65C320.548 195.397 320.174 195.148 319.971 194.899C319.864 195.15 319.671 195.399 319.665 195.651C319.631 197.296 319.634 198.942 319.627 200.589H319.053C319.049 198.845 319.005 197.097 319.064 195.355C319.085 194.719 318.867 194.288 318.335 193.885V200.589H294.092C294.666 199.884 295.147 199.065 295.84 198.51C296.567 197.93 296.872 197.219 297.079 196.31C296.694 196.339 296.319 196.408 296.054 196.616C295.708 196.89 295.534 196.953 295.317 196.496C295.225 196.302 294.961 196.105 294.751 196.073C293.945 195.95 293.334 195.527 292.817 194.939C291.45 193.385 290.357 191.591 288.672 190.316C288.314 190.046 288.257 189.642 288.579 189.238C288.682 189.11 288.793 188.836 288.732 188.752C288.234 188.069 288.506 187.376 288.665 186.686C288.984 185.304 289.362 183.924 288.238 182.689C288.11 182.548 288.152 182.26 288.044 182.086C287.951 181.935 287.759 181.751 287.602 181.745C286.067 181.682 283.507 183.717 283.228 185.262C283.013 186.449 282.942 187.661 282.738 188.85C282.426 190.668 283.08 192.315 283.595 193.978C283.98 195.221 284.524 196.415 284.939 197.65C285.263 198.613 285.498 199.608 285.772 200.589H260.396C260.222 199.499 259.985 198.448 259.583 197.397C259.004 195.887 258.185 194.547 257.293 193.234C257.165 193.046 256.879 192.966 256.667 192.835C256.667 191.16 256.667 189.485 256.667 187.81V187.822ZM318.838 188.631C318.966 187.401 319.137 187.311 320.213 187.894C320.402 187.998 320.594 188.095 320.783 188.197C322.864 189.33 324.991 190.375 327.336 190.814C328.573 191.045 329.854 191.032 331.104 191.206C334.018 191.612 336.922 191.4 339.818 191.086C340.975 190.959 342.125 190.705 343.253 190.414C344.063 190.205 344.392 189.474 344.057 188.712C343.821 188.178 343.887 187.747 344.201 187.307C345.575 185.377 345.606 183.16 345.565 180.928C345.562 180.738 345.544 180.547 345.565 180.359C345.659 179.441 345.797 178.524 345.858 177.603C345.989 175.652 346.067 173.697 346.195 171.747C346.312 169.985 346.582 168.226 346.559 166.469C346.548 165.563 346.438 164.55 345.615 163.808C344.811 163.084 344.093 162.255 343.408 161.415C343.172 161.126 343.037 160.655 343.063 160.281C343.09 159.893 343.312 159.477 343.565 159.169C343.641 159.075 344.105 159.301 344.495 159.41C343.431 155.164 343.149 150.857 343.923 146.521C343.463 146.841 343.071 147.114 342.679 147.388C342.376 147.643 342.041 147.995 341.947 148.403C341.771 149.165 341.681 149.955 341.649 150.738C341.599 151.925 341.65 153.114 341.61 154.301C341.601 154.556 341.382 154.804 341.258 155.055C341.051 154.864 340.806 154.699 340.651 154.473C340.523 154.286 340.452 154.025 340.446 153.794C340.406 152.41 340.343 151.023 340.397 149.641C340.416 149.121 340.73 148.613 340.9 148.094C340.967 147.886 341.005 147.668 341.057 147.453C340.86 147.405 340.661 147.315 340.465 147.317C339.259 147.333 338.17 147.897 336.91 147.897C335.553 147.897 334.559 147.488 333.66 146.599C332.963 145.91 332.291 145.198 331.581 144.524C331.357 144.312 331.048 144.187 330.752 144.007C330.461 144.545 330.009 144.991 330.038 145.403C330.116 146.527 330.166 147.698 330.876 148.676C331.619 149.701 332.36 150.727 333.087 151.761C333.215 151.944 333.273 152.178 333.363 152.388C333.284 152.455 333.206 152.524 333.127 152.591C332.365 151.981 331.604 151.372 330.813 150.738C330.62 151.087 330.438 151.447 330.229 151.789C329.584 152.85 329.701 153.958 330.646 154.776C331.458 155.476 332.312 156.137 333.202 156.734C333.993 157.264 334.937 157.576 335.863 157.305C337.481 156.828 339.055 156.204 340.645 155.639C340.98 155.52 341.317 155.283 341.645 155.298C341.924 155.312 342.355 155.555 342.432 155.79C342.694 156.594 342.86 157.433 342.991 158.271C343.035 158.551 342.857 158.865 342.78 159.163C342.456 159.029 342.024 158.982 341.834 158.74C341.518 158.336 341.348 157.816 341.137 157.335C340.971 156.952 340.732 156.87 340.339 157.01C339.014 157.483 337.693 157.969 336.349 158.377C334.9 158.815 333.522 158.595 332.256 157.728C331.686 157.337 331.1 156.97 330.499 156.629C330.032 156.365 329.367 156.61 329.22 157.115C328.732 158.802 327.415 159.261 325.889 159.42C324.847 159.529 323.804 159.615 322.763 159.717C322.646 159.728 322.474 159.732 322.428 159.803C321.974 160.517 321.214 161.028 321.055 161.943C320.887 162.925 320.645 163.894 320.475 164.876C320.105 167.007 319.654 169.132 319.428 171.28C319.075 174.626 318.882 177.989 318.622 181.347C318.612 181.466 318.605 181.587 318.58 181.701C318.067 184.039 318.271 186.35 318.84 188.628L318.838 188.631ZM357.565 119.379C357.429 119.415 357.295 119.461 357.155 119.484C356.755 119.547 356.353 119.601 355.951 119.658C356.104 119.235 356.181 118.759 356.426 118.397C357.06 117.463 357.747 116.649 357.992 115.422C358.212 114.315 358.222 113.312 357.95 112.28C357.877 112.007 357.538 111.679 357.263 111.61C356.302 111.365 356.171 111.204 356.395 110.228C356.533 109.627 356.838 108.974 356.717 108.419C356.445 107.165 356.376 105.775 355.124 104.933C354.439 104.472 353.834 103.886 353.143 103.432C352.944 103.302 352.484 103.323 352.31 103.472C352.163 103.599 352.197 104.018 352.253 104.286C352.32 104.607 352.505 104.902 352.616 105.216C352.741 105.57 353.173 106.024 352.647 106.26C352.398 106.371 351.933 106.003 351.569 105.84C351.51 105.814 351.483 105.722 351.426 105.683C350.654 105.144 349.883 104.604 349.103 104.077C349.038 104.033 348.918 104.066 348.824 104.068C347.821 104.068 346.871 104.875 346.626 105.886C346.475 106.51 346.264 107.119 346.063 107.73C345.904 108.218 345.573 108.335 345.058 108.285C343.735 108.155 342.407 108.09 341.08 108.017C340.406 107.981 339.721 107.91 339.06 107.996C338.432 108.076 338.021 108.094 337.835 107.332C337.772 107.073 337.307 106.859 336.983 106.744C336.859 106.7 336.617 106.995 336.426 107.133C336.185 107.307 335.932 107.634 335.699 107.623C335.002 107.588 334.297 107.475 333.623 107.288C332.605 107.004 331.709 106.344 330.568 106.405C330.217 106.424 329.641 106.221 329.526 105.961C328.918 104.581 328.062 103.256 328.119 101.669C328.163 100.474 328.253 99.2817 327.813 98.1426C327.69 97.8268 327.376 97.3214 327.2 97.3405C326.796 97.3865 326.197 97.6181 326.082 97.9263C325.747 98.8222 325.355 99.766 325.751 100.792C325.826 100.723 325.902 100.654 326.002 100.564C326.082 100.827 326.084 101.146 326.245 101.301C326.971 102.002 326.806 102.883 326.798 103.727C326.796 103.937 326.687 104.269 326.544 104.324C326.346 104.399 326.065 104.276 325.828 104.211C325.527 104.129 325.234 104.02 324.792 103.874C324.844 104.954 324.901 105.81 324.913 106.667C324.916 106.903 324.777 107.138 324.704 107.376C324.453 107.278 324.084 107.249 323.975 107.067C323.737 106.673 323.519 106.204 323.498 105.756C323.452 104.807 323.567 103.849 323.553 102.898C323.55 102.62 323.415 102.251 323.211 102.082C322.347 101.372 320.797 101.667 320.134 102.64C319.68 103.308 319.236 103.985 318.836 104.686C318.093 105.988 317.946 107.301 318.93 108.566C319.204 108.919 319.491 109.363 320.037 109.06C322.579 107.646 325.592 108.741 327.024 110.546C327.934 111.691 328.244 113.05 328.094 114.461C327.939 115.921 326.057 117.118 324.597 116.603C323.084 116.071 321.664 115.278 320.115 114.558C319.803 114.746 319.307 115.043 318.888 115.294C319.131 116.48 319.799 117.156 320.708 117.65C320.906 117.757 321.022 118.012 321.176 118.2C320.95 118.383 320.745 118.667 320.49 118.726C320.216 118.791 319.851 118.724 319.596 118.584C318.85 118.179 318.139 117.709 317.419 117.269C316.122 117.461 315.976 118.416 316.043 119.519C316.091 120.303 316.242 121.119 316.097 121.871C315.737 123.726 316.206 125.243 317.582 126.508C317.913 126.812 318.289 127.088 318.549 127.446C319.629 128.932 321.017 130.053 322.571 130.999C323.257 131.416 323.879 131.979 324.612 132.265C325.382 132.565 325.946 133.58 326.992 133.047C327.02 133.032 327.078 133.084 327.122 133.092C327.344 133.126 327.564 133.157 327.786 133.189C327.736 132.913 327.767 132.58 327.622 132.37C326.821 131.21 325.983 130.076 325.15 128.939C324.593 128.179 324.273 127.346 324.363 126.395C324.463 125.331 325.169 124.852 326.209 125.112C326.741 125.246 327.277 125.367 327.813 125.48C330.055 125.953 332.302 126.41 334.538 126.908C334.774 126.96 334.958 127.239 335.166 127.413C334.94 127.62 334.745 127.884 334.481 128.018C334.291 128.114 334.01 128.064 333.774 128.034C332.993 127.934 332.216 127.815 331.437 127.703C330.097 127.507 328.757 127.312 327.599 127.144C327.262 127.597 327.009 127.938 326.668 128.397C327.821 129.921 329.004 131.7 330.415 133.275C331.32 134.288 332.574 134.985 333.64 135.862C333.926 136.095 334.092 136.474 334.312 136.784C334.002 136.915 333.692 137.043 333.386 137.179C333.351 137.194 333.334 137.251 333.323 137.267C333.769 138.368 334.563 138.923 335.756 138.907C336.009 138.904 336.279 138.999 336.512 139.108C337.41 139.522 338.239 139.784 339.2 139.114C339.855 138.659 340.697 138.469 341.461 138.176C341.742 138.069 342.043 138.011 342.332 137.92C342.973 137.713 343.645 137.556 343.954 137.075C344.482 136.907 344.922 136.832 345.296 136.633C345.923 136.298 346.492 135.85 347.12 135.515C347.53 135.297 347.999 135.194 348.353 135.069C348.845 134.826 349.272 134.648 349.666 134.414C350.79 133.748 351.921 133.092 353.015 132.376C355.415 130.802 357.619 128.995 359.336 126.663C359.855 125.959 360.242 125.143 360.829 124.509C361.293 124.01 361.469 123.433 361.7 122.853C361.97 122.174 361.792 121.439 361.379 120.996C360.963 120.554 360.326 120.939 359.799 121.207C358.928 121.647 358.034 122.047 357.136 122.43C356.859 122.547 356.531 122.595 356.229 122.587C356.055 122.583 355.884 122.404 355.712 122.302C355.817 122.13 355.9 121.936 356.034 121.789C356.124 121.689 356.288 121.663 356.411 121.59C357.05 121.207 357.688 120.82 358.362 120.415C358.04 119.999 357.81 119.7 357.565 119.383V119.379ZM355.21 139.219C354.508 139.265 353.866 139.346 353.227 139.342C351.877 139.334 350.704 139.88 349.628 140.579C349.006 140.983 348.554 141.649 348.018 142.189C345.987 144.224 345.23 146.814 344.884 149.553C344.608 151.73 344.911 153.895 345.273 156.041C345.5 157.395 345.918 158.691 346.93 159.696C348.569 161.319 350.107 163.08 352.808 162.743C354.232 162.565 355.641 162.46 356.882 161.65C357.021 161.558 357.15 161.401 357.297 161.382C358.699 161.21 359.347 160.044 360.077 159.112C360.739 158.266 361.109 157.182 361.578 156.188C361.978 155.34 361.829 154.927 361.002 154.349C360.871 154.508 360.758 154.688 360.605 154.818C360.339 155.044 360.008 155.203 359.769 155.451C358.833 156.426 357.726 156.677 356.614 155.924C355.967 155.488 355.335 154.868 354.985 154.184C353.945 152.155 354.559 148.456 356.644 146.877C357.5 146.23 358.417 146.071 359.415 146.362C359.82 146.481 360.196 146.712 360.575 146.913C361.934 147.627 362.684 146.536 362.543 145.529C362.487 145.127 362.39 144.725 362.386 144.323C362.386 144.093 362.533 143.862 362.614 143.63C362.822 143.712 363.094 143.741 363.224 143.891C363.54 144.254 363.802 144.139 364.072 143.881C364.26 143.699 364.432 143.498 364.593 143.291C365.523 142.097 366.594 141.004 367.185 139.572C367.62 138.525 368.15 137.512 368.506 136.442C368.87 135.343 369.071 134.19 369.349 133.063C369.898 130.842 370.31 128.612 369.496 126.37C369.362 126.003 369.073 125.551 368.744 125.423C367.784 125.047 366.762 125.532 366.41 126.518C366.065 127.477 365.847 128.482 365.589 129.471C364.723 132.781 362.763 135.417 360.462 137.843C360.012 138.318 359.527 138.737 359.929 139.499C360.014 139.66 359.876 139.937 359.841 140.163C359.623 140.112 359.401 140.073 359.189 140.004C359.104 139.978 359.043 139.884 358.968 139.824C358.124 139.164 357.644 138.995 356.958 139.962C356.778 140.217 356.273 140.435 355.988 140.37C355.71 140.305 355.517 139.859 355.298 139.568C355.247 139.499 355.251 139.39 355.207 139.218L355.21 139.219ZM322.14 151.759C322.734 152.446 323.327 152.746 324.141 152.283C324.361 152.159 324.702 152.249 324.989 152.239C324.878 152.503 324.807 152.796 324.648 153.028C324.055 153.895 323.082 153.901 322.183 154.111C321.268 154.326 320.81 154.159 320.574 153.237C320.151 151.573 319.776 149.896 319.405 148.219C318.888 145.887 318.388 143.552 318.488 141.136C318.553 139.56 318.629 137.981 318.614 136.405C318.606 135.674 318.394 134.945 318.273 134.213C318.166 134.188 318.059 134.164 317.954 134.137C317.504 134.694 316.945 135.194 316.629 135.818C315.984 137.089 315.486 138.427 315.407 139.888C315.287 142.127 315.212 144.358 315.79 146.561C316.053 147.56 316.177 148.594 316.42 149.599C316.638 150.501 316.895 151.399 317.205 152.274C317.435 152.919 317.864 153.501 318.053 154.154C318.425 155.436 319.225 156.317 320.417 156.792C320.8 156.945 321.373 156.839 321.763 156.652C321.92 156.577 321.888 155.955 321.828 155.601C321.7 154.845 321.972 154.422 322.682 154.59C322.952 154.655 323.199 155.134 323.314 155.474C323.662 156.497 323.697 156.543 324.715 156.278C325.692 156.026 325.826 156.099 326.017 157.037C326.454 156.677 326.873 156.336 327.29 155.989C327.886 155.494 328.259 153.656 327.895 153.003C327.851 152.924 327.773 152.859 327.696 152.806C326.881 152.245 326.299 151.504 326.069 150.539C325.787 149.352 325.309 148.196 325.485 146.927C325.525 146.636 325.418 146.316 325.338 146.019C324.945 144.57 325.003 143.188 325.891 141.911C325.994 141.762 326.08 141.57 326.088 141.394C326.123 140.627 326.299 139.884 326.113 139.084C325.877 138.075 325.292 137.452 324.444 137.003C324.302 136.928 324.04 136.905 323.921 136.987C323.228 137.464 322.56 137.977 321.941 138.435C321.859 139.064 321.782 139.654 321.708 140.238C322.058 140.374 322.424 140.454 322.713 140.649C322.931 140.797 323.054 141.09 323.218 141.318C322.962 141.432 322.692 141.668 322.454 141.637C321.844 141.557 321.463 141.846 321.22 142.304C320.609 143.458 320.174 144.675 320.404 146.015C320.605 147.191 320.837 148.363 321.091 149.526C321.333 150.623 321.373 150.629 322.489 150.34C322.627 150.304 322.774 150.248 322.908 150.269C323.084 150.296 323.251 150.388 323.421 150.453C323.347 150.637 323.32 150.872 323.188 150.991C322.872 151.274 322.506 151.5 322.144 151.762L322.14 151.759ZM356.845 186.265L356.857 186.189C357.203 186.26 357.565 186.286 357.894 186.405C359.885 187.121 360.95 188.649 361.331 190.636C361.578 191.924 361.356 193.203 360.621 194.348C360.356 194.759 360.153 195.215 359.87 195.611C359.466 196.174 359.799 196.536 360.213 196.775C360.653 197.032 361.155 197.137 361.538 196.578C361.825 196.161 362.166 195.833 362.254 195.253C362.338 194.708 362.809 194.231 363.044 193.695C363.312 193.082 363.548 192.449 363.728 191.805C363.963 190.969 363.98 190.037 364.369 189.288C364.821 188.417 365.118 187.525 365.215 186.591C365.273 186.045 365.148 185.392 364.876 184.918C364.16 183.664 363.559 182.318 362.384 181.366C361.608 180.738 361.174 179.73 360.152 179.358C359.543 179.136 359.346 178.705 359.478 178.051C359.579 177.549 358.815 176.705 358.39 176.833C357.716 177.038 357.069 177.327 356.416 177.599C355.737 177.882 355.078 178.221 354.387 178.476C353.566 178.778 352.614 178.857 351.916 179.328C351.012 179.936 350.265 180.8 349.526 181.623C348.902 182.316 348.554 183.16 348.445 184.121C348.387 184.628 348.55 185.27 348.998 185.507C349.982 186.028 351.029 185.808 352.061 185.812C352.611 185.813 353.164 185.913 353.708 186.005C354.004 186.055 354.288 186.238 354.582 186.254C355.333 186.29 356.087 186.265 356.842 186.265H356.845ZM301.687 177.463C301.754 177.497 301.821 177.532 301.888 177.566C302.062 177.212 302.326 176.873 302.393 176.5C302.692 174.806 302.433 173.135 301.736 171.605C301.099 170.206 300.188 168.934 299.435 167.585C299.299 167.342 299.351 166.995 299.315 166.697C299.588 166.764 299.925 166.754 300.119 166.915C300.414 167.162 300.607 167.527 300.844 167.843C300.952 167.767 301.059 167.69 301.166 167.612C301.026 167.122 300.95 166.603 300.737 166.147C300.113 164.809 299.301 163.593 298.25 162.538C297.506 161.79 296.587 161.352 295.62 161.675C294.45 162.066 293.52 162.883 293.108 164.141C292.681 165.446 292.98 166.695 293.56 167.849C294.351 169.424 295.248 170.945 296.135 172.47C296.321 172.79 296.663 173.014 296.922 173.293C297.366 173.772 297.871 174.214 298.218 174.756C298.509 175.212 298.719 175.688 299.315 175.753C299.659 175.792 300.111 175.887 300.329 175.719C300.523 175.57 300.546 175.07 300.486 174.756C300.383 174.224 300.144 173.72 299.983 173.198C299.686 172.223 299.684 172.233 298.75 172.589C298.541 172.667 298.266 172.568 298.021 172.551C298.057 172.313 298.017 172.02 298.143 171.852C298.537 171.329 299.029 170.828 299.747 170.96C300.433 171.086 300.819 171.62 301.026 172.281C301.482 173.732 301.857 175.181 300.919 176.647C301.294 176.737 301.583 176.804 301.926 176.887C301.834 177.109 301.761 177.287 301.687 177.463ZM306.073 178.279C306.882 178.78 307.69 179.081 307.696 180.157C309.048 179.634 309.055 178.547 309.08 177.427C308.747 177.739 308.468 178.087 308.112 178.303C307.857 178.458 307.495 178.441 307.183 178.499C307.24 178.181 307.189 177.758 307.374 177.563C308.029 176.875 308.764 176.265 309.471 175.625C309.697 175.422 310.018 175.267 310.139 175.014C310.616 174.009 311.106 172.999 311.443 171.944C311.764 170.933 311.904 169.861 312.118 168.818C312.365 167.619 312.89 166.484 312.852 165.219C312.804 163.607 312.44 162.617 310.953 162.73C310.321 162.778 309.614 163.138 309.128 163.567C307.767 164.769 307.087 166.317 307.03 168.172C306.986 169.576 306.76 170.975 306.626 172.376C306.434 174.366 306.251 176.356 306.071 178.279H306.073ZM301.277 179.465C300.829 179.567 300.509 179.624 300.199 179.71C298.476 180.193 297.46 179.502 297.234 177.741C297.149 177.086 297.096 176.355 296.767 175.817C295.76 174.168 294.628 172.595 293.541 170.996C293.508 170.948 293.424 170.937 293.323 170.889C293.323 171.077 293.323 171.232 293.323 171.19C292.936 171.371 292.618 171.446 292.404 171.638C291.76 172.212 291.467 172.93 291.368 173.822C291.238 174.984 291.569 176.008 292.189 176.871C293.106 178.146 294.203 179.293 295.235 180.484C296.033 181.407 296.899 182.218 298.009 182.81C299.104 183.394 300.475 183.748 300.839 185.406C301.051 185.163 301.262 185.032 301.264 184.902C301.285 183.116 301.279 181.328 301.279 179.465H301.277ZM291.891 178.177C291.27 178.901 290.778 179.448 290.323 180.024C290.156 180.237 290.062 180.513 289.961 180.769C289.614 181.642 289.88 182.303 290.392 183.112C291.644 185.099 293.208 186.778 294.892 188.369C295.16 188.622 295.516 188.823 295.869 188.93C296.351 189.078 296.679 188.934 296.701 188.312C296.73 187.504 296.841 186.698 296.933 185.892C297.079 184.611 297.048 183.405 295.829 182.567C295.562 182.383 295.392 182.065 295.17 181.816C294.09 180.614 293.007 179.416 291.892 178.179L291.891 178.177ZM303.898 175.3C304.223 175.126 304.468 174.995 304.711 174.865C304.796 174.932 304.88 175.001 304.964 175.068C305.401 171.37 305.835 167.673 306.277 163.976C306.36 163.287 306.23 162.703 305.741 162.156C305.238 161.591 304.342 161.227 303.609 161.451C302.839 161.685 302.332 162.378 302.326 163.214C302.315 164.864 302.274 166.517 302.315 168.165C302.332 168.869 302.475 169.581 302.642 170.271C302.887 171.289 303.224 172.283 303.484 173.297C303.66 173.981 303.771 174.681 303.896 175.3H303.898ZM290.206 185.126C289.89 186.351 289.612 187.328 289.404 188.319C289.358 188.534 289.515 188.836 289.66 189.037C290.845 190.684 292.038 192.328 293.257 193.95C293.702 194.541 294.328 194.92 295.084 194.964C295.844 195.01 296.61 195.004 297.372 194.987C297.557 194.983 297.877 194.867 297.9 194.752C298.13 193.634 298.386 192.512 298.476 191.377C298.526 190.751 297.837 190.843 297.425 190.806C297.299 190.795 297.065 191.145 297.008 191.363C296.885 191.823 296.88 192.311 296.765 192.774C296.625 193.339 296.424 193.888 296.25 194.445C296.162 194.424 296.074 194.403 295.986 194.382C295.986 194.105 295.957 193.825 295.991 193.551C296.06 193.008 296.175 192.468 296.248 191.924C296.426 190.576 296.412 190.592 295.245 189.95C294.766 189.688 294.289 189.39 293.893 189.018C293.127 188.3 292.413 187.527 291.69 186.765C291.236 186.288 290.805 185.789 290.206 185.124V185.126ZM301.526 112.571C300.883 112.899 300.157 113.184 299.531 113.617C299.033 113.961 298.932 114.555 299.043 115.173C299.288 116.523 301.491 117.26 302.343 116.863C302.636 116.727 302.899 116.507 303.138 116.285C303.561 115.895 304.03 115.525 304.34 115.052C304.635 114.601 304.334 113.555 303.911 113.383C303.188 113.09 302.433 112.876 301.524 112.571H301.526ZM325.611 115.15C326.752 115.135 327.084 114.606 326.682 113.544C326.368 112.719 325.791 112.133 325.087 111.672C324.114 111.034 323.394 111.024 322.659 111.767C322.372 112.056 322.146 112.753 322.297 113.067C322.864 114.235 324.168 115.121 325.609 115.15H325.611ZM298.172 189.474C298.38 189.194 298.737 188.922 298.802 188.593C298.98 187.688 299.081 186.759 299.125 185.836C299.167 184.983 298.851 184.655 297.923 184.399C297.854 184.646 297.747 184.889 297.722 185.14C297.613 186.227 297.559 187.32 297.419 188.402C297.341 189.014 297.538 189.347 298.172 189.472V189.474ZM341.92 196.647C342.416 196.624 342.602 196.452 342.612 195.942C342.634 194.807 342.765 193.676 342.814 192.541C342.822 192.372 342.585 192.031 342.527 192.045C342.179 192.131 341.589 191.962 341.622 192.588C341.689 193.917 341.813 195.242 341.92 196.645V196.647ZM320.525 193.595C320.525 192.523 320.465 191.524 320.544 190.532C320.599 189.83 320.293 189.669 319.659 189.633C319.659 190.636 319.677 191.589 319.654 192.541C319.638 193.149 319.935 193.452 320.525 193.595ZM302.763 180.34V185.406C303.193 183.759 304.08 182.094 302.763 180.34ZM325.661 194.112C325.615 194.12 325.569 194.126 325.523 194.133C325.567 194.34 325.567 194.572 325.669 194.744C325.763 194.907 325.962 195.008 326.113 195.137C326.18 194.957 326.295 194.78 326.306 194.599C326.35 193.844 326.392 193.088 326.364 192.336C326.358 192.181 326.056 192.035 325.889 191.886C325.743 192.049 325.474 192.211 325.477 192.37C325.489 192.952 325.592 193.532 325.661 194.112ZM325.1 195.441C324.557 194.177 325.104 192.839 324.593 191.664C324.468 191.67 324.346 191.675 324.221 191.683C324.221 192.667 324.231 193.651 324.218 194.633C324.212 195.127 324.43 195.387 325.098 195.441H325.1ZM329.879 192.412C330.045 193.703 330.198 194.888 330.351 196.073C331.11 194.823 330.844 192.925 329.879 192.412ZM326.984 192.204C327.047 193.192 327.107 194.101 327.174 195.133C328.094 194.202 327.698 193.197 327.69 192.204H326.984ZM343.724 193.01C343.605 193.002 343.486 192.994 343.368 192.989C343.347 194.087 343.322 195.186 343.316 196.285C343.316 196.339 343.486 196.392 343.724 196.536V193.012V193.01ZM318.855 191.189C318.204 191.805 318.224 192.257 318.855 192.596V191.189ZM299.552 192.548C299.468 192.531 299.386 192.512 299.301 192.495C299.242 193.01 299.181 193.527 299.121 194.041C299.188 194.051 299.257 194.061 299.324 194.068C299.416 193.605 299.508 193.142 299.594 192.678C299.602 192.638 299.567 192.592 299.552 192.548Z" fill="#280E49"/>
<path d="M257.048 181.395C257.4 180.635 257.599 179.856 258.057 179.282C259.939 176.912 261.893 174.599 263.842 172.283C264.081 171.999 264.415 171.739 264.757 171.618C265.037 171.521 265.395 171.647 265.718 171.676C265.603 171.932 265.54 172.235 265.366 172.442C263.388 174.76 261.363 177.036 259.426 179.389C258.911 180.015 258.675 180.867 258.271 181.59C258.141 181.826 257.879 181.987 257.676 182.18C257.484 181.941 257.293 181.7 257.05 181.397L257.048 181.395Z" fill="#280E49"/>
<path d="M259.785 181.298C260.073 180.708 260.245 180.111 260.603 179.663C261.989 177.932 263.429 176.246 264.863 174.553C265.108 174.264 265.408 174.019 265.709 173.786C266.053 173.516 266.473 173.458 266.685 173.881C266.79 174.09 266.695 174.528 266.528 174.722C265.14 176.326 263.687 177.873 262.316 179.49C261.784 180.118 261.432 180.898 260.957 181.581C260.792 181.816 260.505 181.968 260.274 182.157C260.12 181.887 259.967 181.615 259.785 181.298Z" fill="#280E49"/>
<path d="M332.923 171.551C333.022 171.806 333.07 171.871 333.07 171.936C333.043 176.272 333.407 179.584 334.276 183.811C334.703 185.892 335.023 187.994 335.363 190.09C335.402 190.328 335.266 190.594 335.208 190.848L334.948 190.866C334.745 190.272 334.466 189.692 334.355 189.081C333.864 186.378 333.434 183.666 332.959 180.961C332.798 180.046 332.572 179.144 332.364 178.236C332.333 178.102 332.268 177.934 332.163 177.867C331.433 177.396 331.657 176.801 331.868 176.161C332.007 175.738 332.067 175.281 332.101 174.835C332.147 174.243 332.053 173.747 331.268 173.701C330.897 173.68 330.688 173.34 331.022 173.041C331.598 172.524 332.237 172.08 332.923 171.55V171.551Z" fill="#280E49"/>
<path d="M332.835 168.776C332.308 168.979 331.791 169.231 331.246 169.354C331.09 169.388 330.817 169.07 330.677 168.862C330.642 168.81 330.901 168.444 331.069 168.402C331.628 168.261 332.216 168.108 332.754 168.452C332.781 168.559 332.808 168.668 332.835 168.776Z" fill="#280E49"/>
<path d="M346.105 109.348C346.456 109.284 346.783 109.267 347.08 109.166C349.01 108.5 350.968 108.431 352.911 109.001C354.906 109.587 355.637 111.319 354.569 113.102C353.072 115.6 350.978 117.357 347.957 117.713C347.02 117.824 346.096 117.771 345.253 117.267C344.566 116.854 344.072 116.272 343.938 115.477C343.584 113.381 343.978 111.49 345.579 109.964C345.778 109.775 345.939 109.545 346.103 109.35L346.105 109.348ZM346.806 115.049C347.12 115.137 347.398 115.297 347.658 115.273C348.876 115.152 350.062 114.901 351.069 114.139C351.186 114.051 351.334 113.833 351.297 113.741C351.073 113.167 350.934 112.453 350.505 112.099C350.172 111.823 349.458 111.955 348.921 112.007C348.749 112.022 348.619 112.367 348.449 112.539C348.317 112.675 348.127 112.757 348.006 112.899C347.721 113.23 347.421 113.561 347.2 113.936C347.024 114.237 346.957 114.601 346.804 115.049H346.806Z" fill="#280E49"/>
<path d="M347.436 128.12C345.99 128.191 344.493 128.3 342.994 128.329C340.992 128.367 338.987 128.367 336.985 128.329C336.61 128.321 335.972 128.447 336.02 127.697C336.064 126.981 336.631 127.144 337.046 127.14C339.244 127.121 341.44 127.153 343.638 127.111C344.315 127.098 344.993 126.924 345.665 126.791C347.208 126.491 348.742 126.142 350.288 125.871C351.016 125.742 351.653 126.382 351.774 127.215C351.9 128.082 351.586 128.828 351.104 129.496C349.737 131.388 348.106 133 346.079 134.2C345.301 134.66 344.633 135.305 343.846 135.739C343.006 136.203 342.083 136.513 341.199 136.896C340.703 137.11 340.226 137.376 339.715 137.541C339.481 137.615 339.15 137.571 338.93 137.456C338.737 137.355 338.635 137.077 338.494 136.878C338.698 136.74 338.894 136.501 339.108 136.482C340.85 136.325 342.334 135.54 343.705 134.55C344.92 133.674 346.059 132.686 347.212 131.725C347.482 131.501 347.664 131.173 347.903 130.909C348.345 130.417 348.408 129.931 348.012 129.361C347.777 129.022 347.654 128.604 347.436 128.126V128.12Z" fill="#280E49"/>
<path d="M333.755 119.446C334.021 119.117 334.242 118.847 334.46 118.575C334.605 118.918 334.806 119.251 334.887 119.609C335.038 120.279 335.159 120.964 335.208 121.647C335.229 121.935 335.118 122.319 334.921 122.499C334.812 122.599 334.341 122.436 334.134 122.268C333.189 121.494 332.528 120.551 332.754 119.247C332.804 118.962 333.053 118.711 333.212 118.443C333.357 118.686 333.506 118.927 333.646 119.174C333.7 119.268 333.729 119.375 333.755 119.444V119.446Z" fill="#280E49"/>
<path d="M319.349 121.159C319.365 121.422 319.424 121.692 319.384 121.944C319.345 122.174 319.185 122.58 319.102 122.572C318.802 122.549 318.425 122.467 318.237 122.262C317.839 121.824 318.061 119.932 318.505 119.534C318.595 119.454 318.813 119.387 318.878 119.436C319.053 119.57 319.271 119.754 319.301 119.948C319.366 120.342 319.321 120.755 319.321 121.161C319.33 121.161 319.34 121.161 319.349 121.161V121.159Z" fill="#280E49"/>
<path d="M351.274 122.57C351.217 122.949 351.546 123.548 350.865 123.585C350.3 123.615 350.049 123.125 350.028 122.607C350.005 122.082 349.827 121.309 350.57 121.263C351.406 121.211 351.186 122.04 351.276 122.57H351.274Z" fill="#280E49"/>
<path d="M320.504 121.659C320.617 121.286 320.62 120.995 320.768 120.849C321.045 120.574 321.405 120.38 321.731 120.152C321.769 120.499 321.827 120.843 321.836 121.19C321.84 121.374 321.815 121.605 321.706 121.736C321.518 121.961 321.256 122.124 321.024 122.314C320.839 122.08 320.653 121.845 320.506 121.657L320.504 121.659Z" fill="#280E49"/>
<path d="M353.407 122.025C353.52 122.151 353.851 122.474 353.828 122.503C353.545 122.846 353.208 123.143 352.886 123.453C352.712 123.234 352.41 123.026 352.389 122.794C352.339 122.237 352.804 122.128 353.407 122.027V122.025Z" fill="#280E49"/>
<path d="M349.846 152.109C350.041 152.45 350.304 152.77 350.424 153.135C350.978 154.831 351.535 156.527 352.006 158.248C352.291 159.292 352.856 159.977 353.889 160.283C354.094 160.345 354.307 160.414 354.477 160.536C354.594 160.62 354.718 160.812 354.701 160.934C354.682 161.059 354.504 161.174 354.374 161.262C354.303 161.31 354.19 161.302 354.096 161.306C353.089 161.363 351.361 160.431 351.037 159.481C350.323 157.393 349.391 155.346 349.438 153.066C349.444 152.775 349.528 152.486 349.576 152.195C349.668 152.167 349.758 152.14 349.85 152.111L349.846 152.109Z" fill="#280E49"/>
<path d="M354.996 140.562C354.923 140.717 354.893 140.837 354.822 140.927C354.089 141.859 353.359 142.796 352.595 143.703C352.484 143.835 352.199 143.822 351.994 143.875C352.002 143.651 351.921 143.366 352.031 143.213C352.716 142.242 353.432 141.295 354.169 140.362C354.269 140.236 354.544 140.19 354.726 140.211C354.829 140.223 354.91 140.445 354.994 140.563L354.996 140.562Z" fill="#280E49"/>
<path d="M349.817 150.926C349.392 150.066 349.622 149.18 349.812 148.309C349.923 147.8 350.108 147.304 350.294 146.814C350.352 146.663 350.518 146.552 350.635 146.423C350.725 146.594 350.903 146.774 350.888 146.936C350.822 147.622 350.71 148.303 350.599 148.983C350.526 149.429 350.443 149.873 350.33 150.31C350.271 150.543 350.135 150.757 350.034 150.98L349.814 150.926H349.817Z" fill="#280E49"/>
<path d="M362.074 141.85C361.957 141.904 361.718 142.103 361.614 142.047C361.118 141.781 360.638 141.477 360.205 141.119C360.092 141.025 360.102 140.663 360.188 140.489C360.261 140.339 360.519 140.207 360.701 140.2C361.124 140.181 362.085 141.272 362.074 141.85Z" fill="#280E49"/>
</g>
<defs>
<filter id="filter0_f_59_43" x="-100" y="-13.5052" width="361.72" height="360.029" filterUnits="userSpaceOnUse" color-interpolation-filters="sRGB">
<feFlood flood-opacity="0" result="BackgroundImageFix"/>
<feBlend mode="normal" in="SourceGraphic" in2="BackgroundImageFix" result="shape"/>
<feGaussianBlur stdDeviation="50" result="effect1_foregroundBlur_59_43"/>
</filter>
<filter id="filter1_f_59_43" x="193.293" y="-149.868" width="361.72" height="360.029" filterUnits="userSpaceOnUse" color-interpolation-filters="sRGB">
<feFlood flood-opacity="0" result="BackgroundImageFix"/>
<feBlend mode="normal" in="SourceGraphic" in2="BackgroundImageFix" result="shape"/>
<feGaussianBlur stdDeviation="50" result="effect1_foregroundBlur_59_43"/>
</filter>
<filter id="filter2_f_59_43" x="176.952" y="-43.0881" width="307.625" height="306.498" filterUnits="userSpaceOnUse" color-interpolation-filters="sRGB">
<feFlood flood-opacity="0" result="BackgroundImageFix"/>
<feBlend mode="normal" in="SourceGraphic" in2="BackgroundImageFix" result="shape"/>
<feGaussianBlur stdDeviation="50" result="effect1_foregroundBlur_59_43"/>
</filter>
<filter id="filter3_f_59_43" x="-110" y="-117" width="307.625" height="306.498" filterUnits="userSpaceOnUse" color-interpolation-filters="sRGB">
<feFlood flood-opacity="0" result="BackgroundImageFix"/>
<feBlend mode="normal" in="SourceGraphic" in2="BackgroundImageFix" result="shape"/>
<feGaussianBlur stdDeviation="50" result="effect1_foregroundBlur_59_43"/>
</filter>
<clipPath id="clip0_59_43">
<rect width="115.599" height="129.483" fill="white" transform="translate(41.9796 72.6894)"/>
</clipPath>
<clipPath id="clip1_59_43">
<rect width="154.958" height="144.534" fill="white" transform="translate(256.667 56.0667)"/>
</clipPath>
</defs>
</svg>
