<svg width="1280" height="720" viewBox="0 0 1280 720" fill="none" xmlns="http://www.w3.org/2000/svg">
<mask id="mask0_2_167" style="mask-type:alpha" maskUnits="userSpaceOnUse" x="-149" y="0" width="1539" height="720">
<rect x="-149" width="1539" height="720" fill="#280E49"/>
</mask>
<g mask="url(#mask0_2_167)">
<g filter="url(#filter0_f_2_167)">
<ellipse cx="138" cy="591" rx="287" ry="284" fill="#A660A7"/>
</g>
<g filter="url(#filter1_f_2_167)">
<ellipse cx="1179" cy="107" rx="287" ry="284" fill="#A660A7"/>
</g>
<g filter="url(#filter2_f_2_167)">
<ellipse cx="1025" cy="391" rx="191" ry="189" fill="#3A8EC7"/>
</g>
<g filter="url(#filter3_f_2_167)">
<ellipse cx="35" cy="46" rx="191" ry="189" fill="#3A8EC7"/>
</g>
</g>
<g clip-path="url(#clip0_2_167)">
<path d="M225.8 258C239.4 273.5 243.28 290.41 239.79 309.64C240.95 309.75 241.91 310.07 242.78 309.9C257.83 307 271.99 310.11 284.34 318.45C297.68 327.47 310.1 337.87 322.74 347.9C328.84 352.74 335.41 356.17 342.94 358.38C361.97 363.95 380.84 370.02 399.75 375.99C407.09 378.31 408.33 379.62 406.67 387.16C404.43 397.37 401.55 407.49 398.14 417.37C394.67 427.44 390.54 437.31 386.09 447C382.52 454.78 381.83 462.46 383.49 470.78C390.64 506.55 397.65 542.35 404.53 578.17C408.18 597.15 411.31 616.17 409.96 635.71C408.96 650.25 407.68 665 409.09 679.41C410.15 690.21 408.64 699.81 404.99 709.53C402.72 715.57 402.69 715.56 394.79 717.57V683.84C394.42 683.78 394.04 683.73 393.67 683.67C386.77 693.37 379.63 702.9 373.12 712.85C370.89 716.26 368.69 717.58 364.77 717.58C302.62 717.44 240.46 717.39 178.31 717.36C141.48 717.34 104.65 717.47 67.82 717.32C64.5 717.31 60.91 716.28 57.91 714.79C37.53 704.66 24.4 688.4 18 666.62C17.07 663.45 16.04 660.3 15.06 657.14C14.64 657.15 14.21 657.16 13.79 657.18V687.73L12.03 688.15C11.23 686.92 10.23 685.78 9.67998 684.45C1.68998 665.32 -0.870019 645.35 0.249981 624.75C1.90998 594.34 12.76 566.25 21.88 537.72C30.19 511.7 38.85 485.78 46.95 459.69C48.2 455.66 48.02 450.82 47.24 446.59C43.13 424.33 38.6 402.14 34.25 379.92C33.96 378.46 33.98 376.93 33.77 375.45C33.26 371.96 34.56 370.39 38.24 369.92C56.91 367.5 75.56 364.98 94.17 362.13C96.97 361.7 100.08 359.93 102.03 357.83C129.68 328.03 162.96 310.24 204.27 309.38C207.92 309.3 211.62 309.55 215.23 310.07C219.9 310.74 221.03 308.99 220.44 304.52C218.53 290.09 220.66 275.95 224.17 261.96C224.4 261.03 224.9 260.16 225.8 257.99V258ZM270.74 713.29C271.19 713.84 271.65 714.39 272.1 714.94C273.72 714.94 275.34 714.94 276.96 714.94C286.46 714.94 295.97 715.18 305.45 714.81C309.68 714.64 314.2 713.98 318.02 712.27C332.44 705.83 344.95 696.27 356.05 685.31C367.97 673.55 379.34 661.04 386.76 645.69C388.83 641.41 391.11 636.91 391.67 632.31C392.93 622.09 393.51 611.76 393.75 601.46C394.08 587.41 393.83 573.35 393.83 558.5C397.57 581.97 395.15 604.74 394.78 627.54C399.16 612.93 404.86 599.26 402.34 582.74C396.26 542.99 388.11 503.72 378.66 464.7C373 441.31 363.58 419.29 352.52 397.82C337.12 367.94 317.46 342.22 288.56 324.14C272.77 314.26 256.42 308.87 237.8 314.23C237.14 314.42 236.31 314.04 235.34 313.89C240.46 296.1 238.37 279.86 227.25 265.25C222.03 281.03 222.22 297.04 224.13 313.38C221.5 313.38 219.53 313.57 217.6 313.35C191.57 310.37 167.17 315.71 144.36 328.23C136.24 332.69 127.83 337.26 121.13 343.48C112.29 351.67 104.21 360.97 97.25 370.82C88.16 383.67 78.58 396.74 72.61 411.12C62.27 436.02 61.85 462.74 64.41 489.38C65.25 498.1 66.53 506.78 67.61 515.48C60.28 485.54 59.53 455.44 65.63 424.97C65.15 425.38 64.82 425.53 64.71 425.77C63.38 428.83 62.07 431.89 60.78 434.96C51.86 456.27 46.38 478.1 53.02 501.11C56.34 512.61 60.81 523.78 64.76 535.1C65.29 536.63 65.82 538.17 66.36 539.7C55.95 519.71 48.23 499.01 48.73 476.04C48.19 476.01 47.64 475.98 47.1 475.95C42.44 494.6 37.77 513.26 33.11 531.91C32.83 531.84 32.55 531.78 32.26 531.71C35.08 518.91 37.9 506.12 40.72 493.32C39.6 494.22 39.21 495.3 38.85 496.38C34.03 510.74 29.87 525.38 24.23 539.41C16.35 559.03 13.3 578.91 16.91 599.81C21.1 624.06 28.62 647.27 38.75 669.63C40.84 674.24 44.33 678.22 47.17 682.49C47.54 682.25 47.92 682.01 48.29 681.76C36.75 663.88 29.32 644.38 25.9 623.47C22.08 600.11 23.59 567.97 28.9 561.37C25.25 580.44 24.21 598.89 27.01 617.52C31.23 645.58 39.96 671.64 59.79 692.8C65 698.35 71.68 702.58 76.55 708.37C80.46 713.02 85.01 714.61 90.36 714.89C96.51 715.22 102.69 714.89 108.85 714.98C111.69 715.02 113.07 713.86 113.57 711.05C115.92 697.98 115.9 684.89 114.25 671.76C110.51 642 102.36 613.38 91.84 585.39C84.63 566.22 77.2 547.13 69.93 527.99C69.29 526.3 69.02 524.48 68.57 522.72C68.96 522.62 69.36 522.52 69.75 522.42C75.03 536.83 80.31 551.23 85.59 565.64C85.87 555.6 84.92 545.88 84.65 536.14C84.38 526.51 84.34 516.82 85.05 507.22C85.78 497.44 87.23 487.67 88.96 478.01C90.66 468.51 92.83 459.08 95.31 449.76C97.77 440.54 100.88 431.49 103.7 422.36C104.2 422.52 104.71 422.67 105.21 422.83C97.3 445.26 92.45 468.32 90.04 491.87C90.47 492.05 90.91 492.22 91.34 492.4C95 486.5 98.67 480.6 102.8 473.96C104.14 477.42 104.84 479.98 106.08 482.24C107.37 484.59 109.18 486.66 111.43 489.76C112.23 454.06 116.86 428.43 123.87 422.3C122.74 425.36 121.48 427.75 121 430.28C119.52 438.07 117.18 445.93 117.28 453.74C117.51 472.38 132.1 487.34 148.25 487.27C148.25 479.05 147.34 470.72 148.43 462.66C151.09 442.95 160.24 425.69 170.58 409.02C171.96 406.8 173.38 404.41 173.97 401.91C177.18 388.41 183.09 376.21 191.19 365.03C191.76 364.25 192.66 363.71 193.41 363.06C191.7 367.79 189.5 372.05 187.14 376.22C176.67 394.72 172.27 414.72 173.25 435.78C174.1 453.87 179.64 470.14 194.63 481.85C202.48 487.98 216.89 491.57 223.81 489.43C208.15 474.49 194.86 458.82 198.53 434.17C200.96 417.89 205.61 402.73 213.19 388.31C214.38 386.05 215.85 383.95 217.18 381.77C217.57 381.99 217.95 382.22 218.34 382.44C217.64 383.81 216.96 385.2 216.23 386.56C209.35 399.58 203.87 413.06 201.25 427.7C197.32 449.58 203.55 467.82 219.79 482.75C221.74 484.54 224.15 485.84 226.02 487.14C227 476.9 227.36 467.26 228.99 457.85C230.62 448.44 234.24 439.55 240.31 431.57C239.92 445.63 245.01 457.8 251.67 469.45C258.57 481.51 268.32 489.71 281.93 492.25C279.43 482.69 276.27 473.73 274.87 464.5C272.78 450.73 274.01 440.67 275.86 438.21C276.47 447.63 276.17 458.17 278.08 468.3C280.12 479.13 290.71 489.57 298.04 490.67C296.08 484.76 293.78 478.87 292.21 472.78C290.68 466.84 289.95 460.7 291.8 454.6C294.81 474.04 305.65 487.68 322.38 497.43C321.46 486.83 320.01 476.49 318 466.27C315.98 455.98 313.91 445.65 310.96 435.61C308.09 425.84 304.07 416.4 300.55 406.81L302.23 406.42C319.75 453.06 331.07 500.94 329.83 552.78C331.62 546.01 333.07 540.57 334.5 535.13C340.29 513.13 341.73 490.64 342.09 467.98C342.55 469.04 342.71 470.11 342.77 471.19C344.13 496.41 340.48 520.98 333.91 545.29C329.15 562.9 325.15 580.72 320.82 598.45C321.36 598.61 321.9 598.77 322.44 598.93C326.65 586.95 330.85 574.98 335.06 563C335.46 563.15 335.85 563.29 336.25 563.44C325.62 597.61 311.8 630.63 298.58 664.75C308.37 653.68 317.99 643.54 326.77 632.71C343.5 612.1 356.83 589.55 363.95 563.69C371.3 536.98 377.9 510.15 377.03 482.12C377 481.28 377.19 480.43 377.28 479.59C378.38 482.4 378.91 485.22 378.62 487.95C377.17 501.82 375.96 515.73 373.82 529.5C367.39 570.97 350.83 607.82 323.36 639.83C310.04 655.36 297.3 671.44 285.11 687.86C279.35 695.62 275.48 704.79 270.75 713.33L270.74 713.29ZM176.43 528.53C176.47 529.23 176.5 529.94 176.54 530.64C174.86 530.91 173.17 531.47 171.5 531.41C160.36 530.99 149.22 530.06 138.08 530.01C122.79 529.94 107.49 530.49 92.2 530.83C88.07 530.92 86.58 533.04 86.8 537.28C87.67 554.32 89.81 571.08 95.66 587.25C99.45 597.74 102.9 608.36 106.33 618.98C108.23 624.86 109.98 629.27 117.29 631.92C144.14 641.66 171.56 647.82 200.02 649.26C217.04 650.12 233.91 648.64 250.35 643.72C256.72 641.81 263.35 640.61 269.49 638.17C281.01 633.59 292.15 628.04 303.68 623.49C309.81 621.07 313.24 617.41 315.05 610.99C320.97 589.91 325.55 568.57 326.46 546.68C327.05 532.29 329.69 517.03 316.7 505.71C316.35 505.4 316.27 504.8 315.96 504.41C310.45 497.41 304.93 490.41 299.41 483.42C299.06 483.68 298.71 483.94 298.36 484.21C299.69 486.86 301.34 489.42 302.2 492.21C302.59 493.48 301.84 496.15 300.88 496.59C298.55 497.66 295.77 498.33 293.22 498.21C277.12 497.51 264.02 490.29 254.37 477.79C249.64 471.66 243.72 469.62 236.94 468.57C235.81 468.39 233.25 470.39 233.2 471.47C232.91 477.44 232.29 483.62 233.52 489.36C234.87 495.68 232.19 498.67 225.25 500.09C223.19 500.51 220.93 500.15 218.79 499.89C202.44 497.88 190.74 489.37 182.86 474.92C177.22 464.59 172.37 454.15 171.51 442.2C171.23 438.35 170.35 434.54 169.75 430.71C160.9 441.35 156.7 453.44 154.75 467.13H166.76C163.59 468.92 160.39 469.68 157.15 470.15C154.01 470.61 152.44 471.97 152.57 475.39C152.77 480.44 152.62 485.5 152.62 490.53C144.68 490.89 138.93 488.27 120.44 475.84C119.15 481.77 117.95 487.32 116.61 493.48C115 492.94 113.26 492.59 111.73 491.82C103.93 487.87 103.92 487.81 97.46 493.94C95.9 495.42 94.42 497.04 93.13 498.76C91.38 501.09 88.87 503.42 88.42 506.04C87.37 512.25 87.31 518.63 86.97 524.94C86.91 526.12 87.36 527.32 87.66 529.03C117.77 510.84 147.16 515.23 176.44 528.52L176.43 528.53ZM170.39 668.38C169.9 675.48 170.8 681.92 168.79 687.26C165.47 696.1 169.16 703.14 172 710.67C173.12 713.62 175.11 715.03 178.48 715C195.97 714.88 213.46 715 230.95 714.82C233.06 714.8 235.87 713.94 237.13 712.44C241.93 706.73 246.36 700.7 250.61 694.57C251.63 693.09 251.45 690.78 251.82 688.85C251.41 688.76 251 688.68 250.59 688.59C250.28 689.46 249.97 690.33 249.66 691.21L248.07 691.28C247.29 686.31 246.17 681.36 245.82 676.36C245.4 670.24 243.91 669 238.7 672.25C230.47 677.39 221.59 680.04 212 680.96C198.47 682.25 185.76 680.87 175.13 671.25C173.98 670.21 172.43 669.61 170.38 668.4L170.39 668.38ZM341.2 361.78C358.84 389.76 373.95 417.23 382.03 448.62C387.41 440.23 386.49 432.35 379.85 425.54C380.81 423.88 381.93 422.24 382.76 420.46C385.01 415.67 383.84 410.22 379.36 407.77C376.44 406.17 376.35 404.52 376.92 401.78C378.22 395.6 376.36 392.38 370.72 389.25C369.65 388.66 368.55 386.78 368.67 385.62C369.15 380.93 367.06 377.81 363.14 375.97C359.52 374.27 355.56 373.28 356.65 367.85C356.78 367.22 355.74 365.86 355 365.62C350.84 364.32 346.6 363.25 341.19 361.78H341.2ZM252.09 684.08C256.78 692.4 252.07 698.36 247.37 704.36C244.86 707.56 242.51 710.88 239.53 714.9C248.52 714.9 256.61 714.97 264.69 714.82C265.82 714.8 267.51 714 267.96 713.08C270.57 707.74 273.95 702.41 274.78 696.75C275.11 694.5 269.59 691.39 266.74 688.67C266.14 688.1 265.43 687.59 264.98 686.92C261.89 682.37 257.67 682.61 252.11 684.09L252.09 684.08ZM51.73 449.25C60.34 418.52 72.69 390.14 95.32 366.96C93 366.7 91.19 366.81 89.68 367.54C88.31 368.21 87.43 370.02 86.05 370.52C82.63 371.76 80.23 373.49 79.84 377.46C79.74 378.5 78.56 380.18 77.71 380.29C70.51 381.25 67.87 385.7 68.17 392.31C60.6 394.51 58.48 398.77 59.7 408.79C53.38 411.34 51.29 415.82 52.91 422.72C53.29 424.32 53.6 426.58 52.79 427.71C49.07 432.88 48.23 442.84 51.74 449.26L51.73 449.25ZM169.38 714.57C168.03 710.16 166.61 706.28 165.7 702.29C164.75 698.1 164.46 693.76 163.46 689.58C163.28 688.84 160.8 687.87 159.85 688.23C157.08 689.27 154.65 691.23 151.88 692.29C144.89 694.96 136.16 706.64 135.8 714.57H169.38ZM238.88 453.91C238.12 453.93 237.37 453.95 236.61 453.97C235.82 457.86 235.03 461.74 234.16 466.03C238.33 466.27 241.16 466.44 244.62 466.64C242.47 461.86 240.68 457.88 238.89 453.9L238.88 453.91ZM165.12 528.21C156.64 523.14 149.2 522.17 147.55 526.08C153.17 526.76 158.63 527.42 165.12 528.21ZM103.5 525.56C109.707 526.08 113.537 525.08 114.99 522.56C110.54 523.72 107.02 524.64 103.5 525.56ZM79.83 370.74C79.7 370.09 79.58 369.44 79.45 368.79C76.34 369.12 73.23 369.44 70.13 369.77L70.34 371.74C73.5 371.41 76.67 371.08 79.83 370.74Z" fill="#280E49"/>
<path d="M173.62 345.73C161.82 359.72 149.06 372.61 141.14 389.25C147.19 372.6 155.62 357.52 169.82 346.13C169.26 347.15 168.71 348.16 167.61 350.16C170.11 348.32 171.86 347.03 173.61 345.73H173.62Z" fill="#280E49"/>
<path d="M345.36 440.85C348.92 471.73 347.84 503.84 340.94 535.74C342.41 519.69 344.46 503.67 345.2 487.59C345.94 471.57 345.36 455.49 345.36 440.85Z" fill="#280E49"/>
<path d="M69.81 545.25C79.49 566.44 89.17 587.63 98.85 608.83C98.37 609.05 97.88 609.27 97.4 609.48C87.63 588.33 77.86 567.18 68.09 546.03L69.82 545.25H69.81Z" fill="#280E49"/>
<path d="M130.72 365.56C123.16 381.37 115.6 397.19 108.04 413C113.28 396.06 120.87 380.23 130.72 365.56Z" fill="#280E49"/>
<path d="M199.34 404.78L195.62 427.96C195.21 427.9 194.8 427.85 194.39 427.79C195.47 420.04 196.55 412.29 197.64 404.54C198.21 404.62 198.78 404.7 199.35 404.78H199.34Z" fill="#280E49"/>
<path d="M229.4 530.82C232.33 528.62 233.97 526.91 235.97 525.96C257.87 515.53 279.93 515.14 302.01 525.42C308.79 528.58 315.44 532.02 322.16 535.31C322.91 535.68 323.74 535.88 324.54 536.16C324.19 536.58 323.85 537.01 323.5 537.43C292.64 535.27 261.79 533.1 229.41 530.83L229.4 530.82ZM306.19 532.85C306.33 532.38 306.47 531.91 306.62 531.45C301.38 529.48 296.19 527.4 290.88 525.67C289.98 525.38 288.59 526.59 287.43 527.11C288.3 528.18 289.02 529.99 290.06 530.21C295.39 531.32 300.81 532.02 306.19 532.87V532.85ZM238.59 528.02C238.71 528.48 238.82 528.93 238.94 529.39C242.56 529.11 246.2 528.95 249.79 528.47C250.63 528.36 251.32 527.17 252.08 526.48C251.04 526.02 249.88 525.01 248.98 525.2C245.47 525.93 242.05 527.05 238.59 528.02Z" fill="#280E49"/>
<path d="M154.89 593.21C158.29 599.44 164.46 600.22 170.31 601.01C191.28 603.82 212.32 605.53 233.49 603.29C235.62 603.06 237.81 602.71 239.8 601.97C241.68 601.27 243.34 599.98 245.86 599.78C245.19 600.77 244.67 601.91 243.82 602.71C236.03 610.13 227.33 615.76 216.05 615.5C205.12 615.25 194.15 615.29 183.3 614.23C173.41 613.26 165.07 608.06 157.88 601.35C155.89 599.49 154.82 596.65 153.33 594.26C153.85 593.91 154.37 593.57 154.89 593.22V593.21ZM236.23 605.56C211.2 607.59 187.19 606.05 162.47 602C179.1 616.36 223.61 618.54 236.23 605.56Z" fill="#280E49"/>
<path d="M231.34 519.66C238.99 517.12 246.63 514.58 254.28 512.04L254.8 513.52C247.22 516.16 239.63 518.8 232.05 521.45L231.34 519.66Z" fill="#280E49"/>
<path d="M196.76 563.3C196.91 559.98 197.06 556.66 197.22 553.34C197.88 553.36 198.55 553.38 199.21 553.41V563.34L196.76 563.3Z" fill="#280E49"/>
<path d="M162.84 516.13C167.61 517.88 172.38 519.64 177.14 521.39C176.96 521.88 176.78 522.38 176.59 522.87C171.83 521.09 167.08 519.3 162.32 517.52C162.49 517.06 162.66 516.59 162.83 516.13H162.84Z" fill="#280E49"/>
<path d="M111.78 554.99C110.88 559.17 109.97 563.35 109.07 567.53C108.61 567.44 108.15 567.34 107.69 567.25C108.53 563.1 109.37 558.95 110.21 554.8C110.73 554.86 111.26 554.93 111.78 554.99Z" fill="#280E49"/>
</g>
<g clip-path="url(#clip1_2_167)">
<path d="M762 666.645C763.026 667.732 764.154 668.737 765.051 669.92C766.641 672.033 769.271 672.733 771.228 672.447C773.708 672.081 776.236 670.457 778.22 668.765C779.728 667.48 780.312 665.163 781.508 663.444C782.195 662.466 783.153 661.447 784.22 661.005C789.615 658.763 793.617 654.727 797.531 650.663C799.44 648.679 800.636 646.029 802.328 643.807C806.378 638.487 810.7 633.371 814.573 627.935C816.944 624.598 818.453 620.644 820.777 617.26C823.277 613.618 823.094 609.201 824.86 605.451C825.73 603.609 827.313 601.571 829.087 600.783C835.039 598.133 838.62 593.315 842.385 588.348C847.107 582.117 848.901 574.623 852.21 567.787C854.324 563.425 855.9 558.798 858.027 554.442C860.5 549.387 862.851 544.155 866.113 539.623C870.027 534.173 874.579 529.227 880.654 525.755C886.199 522.581 891.254 518.552 896.5 514.869C899.816 512.539 903.105 510.167 906.394 507.796C915.845 500.96 925.175 493.955 934.769 487.316C942.964 481.643 950.88 475.514 960.135 471.464C962.907 470.248 965.252 468.026 967.739 466.191C968.058 465.954 968.092 465.267 968.18 464.778C968.568 462.611 968.683 460.355 969.356 458.276C970.158 455.802 969.132 453.974 967.671 452.425C966.699 451.399 962.377 452.575 960.93 453.546C957.227 456.026 953.442 458.398 949.596 460.654C949.005 461 947.938 460.525 947.089 460.423C947.469 459.648 947.693 458.724 948.271 458.146C949.1 457.317 950.221 456.801 951.139 456.054C952.008 455.354 952.776 454.538 953.592 453.777C953.469 453.465 953.347 453.152 953.225 452.833C950.119 453.247 947.014 453.784 943.895 454.029C942.611 454.131 940.926 454.049 940.036 453.315C938.235 451.82 938.717 450.523 940.966 449.85C944.792 448.708 947.965 443.327 947.218 439.257C946.368 434.664 944.975 433.76 940.729 432.374C935.041 430.512 928.572 429.432 925.195 423.704C923.075 420.116 920.282 418.825 916.43 418.329C913.515 417.955 910.824 416.746 910.634 413.002C910.593 412.241 909.873 411.534 909.56 410.766C908.982 409.333 907.854 407.777 908.058 406.445C908.683 402.327 908.459 397.999 910.817 394.214C912.108 392.135 911.198 389.172 908.806 387.535C905.619 385.347 902.194 383.499 899.014 381.297C894.462 378.145 890.656 374.197 887.619 369.549C885.968 367.021 884.745 364.338 885.424 361.164C885.818 359.316 886.593 358.671 888.652 359.275C891.771 360.186 895.093 361.395 898.192 361.09C901.555 360.763 904.953 359.187 907.943 357.461C909.145 356.768 909.356 354.247 909.805 352.501C909.852 352.318 908.439 351.611 907.637 351.4C905.218 350.762 902.697 350.429 900.353 349.586C899.524 349.287 899.109 347.853 898.505 346.936C899.558 346.644 900.597 346.134 901.657 346.1C903.58 346.039 905.598 346.678 907.42 346.291C914.357 344.816 918.04 338.171 916.042 331.159C914.942 327.299 916.525 323.888 918.196 320.701C922.43 312.636 926.976 304.74 931.372 296.757C932.846 294.086 934.205 291.348 935.666 288.671C937.617 285.103 939.546 281.523 941.598 278.01C944.792 272.567 948.21 267.247 951.288 261.743C954.359 256.26 956.982 250.532 960.088 245.069C962.649 240.557 965.619 236.283 968.296 232.063C962.371 233.558 956.799 240.02 956.017 246.271C955.902 247.182 954.828 247.963 954.196 248.806C953.503 247.97 952.328 247.202 952.192 246.285C951.56 241.943 952.987 238.09 956.33 235.359C960.781 231.717 965.591 228.523 970.151 225.01C976.246 220.315 982.137 215.355 988.334 210.816C990.713 209.07 993.702 208.152 996.42 206.875C1006.1 202.336 1016.68 203.301 1026.86 201.928C1032.68 201.14 1038.59 200.203 1044.41 200.481C1051.04 200.8 1057.41 199.768 1063.9 199.081C1067.49 198.701 1071.31 199.503 1074.89 200.372C1080.68 201.786 1086.52 202.465 1092.44 202.336C1099.36 202.18 1105.32 204.905 1111.07 208.268C1121.24 214.227 1129.78 222.265 1137.91 230.636C1143.59 236.487 1148.63 242.976 1153.7 249.383C1158.93 255.981 1163.93 262.762 1168.88 269.577C1171.64 273.382 1173.97 277.5 1176.73 281.305C1179.72 285.45 1182.95 289.432 1186.15 293.42C1189.53 297.626 1192.77 301.968 1196.46 305.889C1203.76 313.648 1210.5 321.992 1219.22 328.312C1220.11 328.957 1221.04 329.609 1221.74 330.438C1222.16 330.941 1222.49 331.92 1222.27 332.45C1222.07 332.952 1221.08 333.469 1220.47 333.421C1214.1 332.918 1207.7 332.504 1202.21 328.536C1199.71 326.722 1196.04 328.617 1195.46 332.11C1195.09 334.332 1195.19 336.656 1195.26 338.925C1195.53 348.247 1198.45 356.605 1204.83 363.529C1208.49 367.497 1213.21 369.889 1218.46 370.759C1220.55 371.105 1222.9 370.133 1225.1 369.59C1226.06 369.352 1226.88 368.577 1227.83 368.272C1228.37 368.102 1229.06 368.387 1229.69 368.476C1229.58 369.101 1229.69 369.93 1229.33 370.324C1228.36 371.37 1227.32 372.498 1226.07 373.11C1222.95 374.645 1221.44 377.207 1220.88 380.441C1220.25 384.117 1217.98 386.611 1215.31 388.955C1212.87 391.095 1210.63 393.46 1208.31 395.729C1208.82 396.47 1208.98 396.749 1209.19 397C1211.05 399.236 1211.03 399.935 1208.54 401.267C1206.62 402.293 1206.6 403.306 1207.86 404.828C1208.61 405.731 1209.27 406.73 1209.82 407.77C1210.82 409.7 1211.84 409.244 1212.8 407.831C1213.78 406.39 1214.63 404.868 1215.54 403.387C1215.78 403.414 1216.01 403.442 1216.25 403.476C1216.48 404.182 1216.99 404.95 1216.87 405.595C1216.03 410.06 1215.42 414.51 1211.56 417.867C1208.59 420.456 1206.26 423.785 1203.72 426.85C1203.03 427.679 1202.3 428.718 1202.18 429.731C1201.53 434.908 1197.78 436.688 1193.52 437.246C1189.45 437.782 1186.99 440.249 1184.63 443.001C1184.07 443.646 1184.29 444.937 1184.1 445.916C1183.66 448.049 1183.41 450.258 1182.67 452.283C1181.88 454.457 1179.73 455.109 1177.82 454.375C1176.59 453.906 1175.83 452.215 1174.84 451.093C1174.18 450.353 1173.59 449.442 1172.76 448.994C1171.37 448.246 1169.81 447.805 1168.43 447.275C1168.43 451.012 1168.39 454.837 1168.45 458.67C1168.46 459.852 1168.9 461.048 1168.8 462.203C1168.38 466.626 1171.26 469.052 1174.07 471.695C1177.23 474.658 1180.14 477.872 1183.13 481.011C1185.18 483.158 1187.25 485.292 1189.17 487.554C1191.91 490.789 1194.53 494.138 1197.21 497.441C1199.94 500.811 1202.7 504.161 1205.4 507.565C1208.42 511.377 1211.43 515.195 1214.35 519.089C1218.49 524.606 1222.53 530.198 1226.63 535.75C1231.86 542.837 1236.63 550.331 1242.48 556.868C1247.36 562.324 1248.8 568.575 1249.95 575.275C1250.61 579.168 1251.75 582.987 1252.49 586.874C1253.38 591.589 1254.11 596.339 1254.84 601.089C1255.45 605.023 1256.17 608.95 1256.45 612.911C1256.68 616.091 1256.17 619.326 1256.29 622.519C1256.47 627.051 1256.78 631.584 1257.31 636.088C1257.89 641.083 1258.75 646.043 1259.56 651.003C1259.69 651.784 1260.12 652.539 1260.51 653.245C1260.79 653.755 1261.54 654.156 1261.56 654.631C1261.83 659.673 1265.5 660.407 1269.33 660.747C1275.57 661.304 1281.82 661.915 1288.07 662.106C1295.26 662.33 1302.45 662.18 1309.64 662.072C1311.45 662.045 1312.15 662.697 1311.95 664.43C1311.57 667.548 1311.12 670.66 1310.83 673.786C1310.53 677.129 1310.38 680.492 1310.65 683.897L1311.21 682.218C1311.43 682.239 1311.64 682.259 1311.86 682.279V711.966H1303.2C1303.17 711.035 1303.06 710.104 1303.13 709.18C1303.65 702.351 1304.19 695.523 1304.76 688.694C1305.35 681.777 1305.93 674.853 1306.6 667.942C1306.81 665.897 1305.8 665.415 1304.1 665.408C1296.48 665.381 1288.85 665.279 1281.23 665.401C1280.44 665.415 1279.13 666.583 1278.98 667.392C1278.43 670.205 1278.17 673.086 1277.98 675.954C1277.19 687.953 1276.46 699.96 1275.7 711.966H1270.61C1270.97 707.244 1271.31 702.514 1271.7 697.792C1272.08 693.158 1272.43 688.524 1272.94 683.903C1273.57 678.107 1274.38 672.325 1275.05 666.536C1275.11 666.006 1274.65 665.415 1274.42 664.851C1274.04 665.197 1273.41 665.49 1273.33 665.897C1272.88 668.065 1271.43 668.513 1269.54 668.323C1268.44 668.214 1267.28 667.773 1266.28 668.01C1265.23 668.262 1263.76 668.948 1263.46 669.797C1261.7 674.758 1261.62 679.908 1264.01 684.603C1265.88 688.238 1265.6 691.731 1265.12 695.455C1264.83 697.785 1264.6 700.163 1264.76 702.494C1264.98 705.667 1265.59 708.82 1266.03 711.979H1071.57V701.244C1071.17 701.183 1070.78 701.121 1070.38 701.06C1070.12 701.991 1069.67 702.922 1069.63 703.867C1069.51 706.571 1069.55 709.275 1069.53 711.979H1067.49C1067.36 709.126 1067.22 706.272 1067.1 703.418C1067.02 701.617 1066.15 701.074 1064.43 701.611V711.973H1061.88V682.714C1061.27 682.748 1060.69 682.762 1060.12 682.809C1055.74 683.149 1051.38 683.652 1047 683.795C1041.09 683.985 1035.18 683.856 1029.27 683.999C1028.68 684.012 1027.63 684.977 1027.62 685.521C1027.53 688.823 1027.58 692.139 1027.83 695.427C1027.93 696.732 1028.68 697.989 1029.13 699.273C1029.4 699.192 1029.68 699.117 1029.94 699.035C1030.06 698.567 1030.27 698.098 1030.27 697.622C1030.24 693.994 1030.12 690.358 1030.16 686.73C1030.16 686.023 1030.67 685.324 1030.94 684.617C1031.45 685.154 1032.25 685.623 1032.4 686.248C1032.73 687.634 1032.83 689.095 1032.86 690.528C1032.92 693.328 1032.79 696.134 1032.94 698.927C1032.96 699.477 1033.87 699.98 1034.37 700.51C1034.68 699.96 1035.21 699.423 1035.25 698.852C1035.47 695.475 1035.57 692.098 1035.72 688.721C1035.78 687.416 1035.85 686.118 1035.92 684.821C1036.2 684.787 1036.48 684.76 1036.76 684.726C1038.96 686.608 1037.86 689.38 1038.01 691.758C1038.18 694.333 1038.05 696.929 1038.05 699.518C1038.32 699.661 1038.58 699.796 1038.85 699.939C1039.4 699.334 1040.25 698.804 1040.44 698.098C1040.81 696.725 1040.9 695.251 1040.91 693.817C1040.94 691.357 1040.76 688.898 1040.81 686.438C1040.82 685.84 1041.4 685.256 1041.71 684.664C1042.16 685.188 1042.81 685.65 1043.01 686.254C1043.26 687.036 1043.15 687.933 1043.19 688.775C1043.29 690.895 1043.3 693.022 1043.54 695.122C1043.63 695.788 1044.34 696.385 1044.76 697.011C1045.19 696.372 1045.95 695.76 1046 695.094C1046.17 692.642 1046.05 690.175 1046.17 687.722C1046.21 686.778 1046.6 685.847 1046.83 684.909C1047.09 684.929 1047.35 684.95 1047.61 684.97C1047.84 685.568 1048.26 686.159 1048.28 686.757C1048.35 689.713 1048.22 692.676 1048.39 695.624C1048.44 696.433 1049.26 697.208 1049.73 697.996C1050.21 697.289 1051.07 696.603 1051.11 695.862C1051.3 692.906 1051.18 689.924 1051.32 686.961C1051.36 686.18 1051.95 685.419 1052.29 684.651C1052.76 685.439 1053.6 686.207 1053.63 687.009C1053.78 690.454 1053.7 693.905 1053.7 697.405C1055.54 697.425 1056.4 696.419 1056.37 694.429C1056.35 691.969 1056.35 689.509 1056.51 687.056C1056.57 686.098 1057.07 685.167 1057.37 684.223C1057.66 684.243 1057.96 684.264 1058.25 684.284C1058.44 685.201 1058.86 686.139 1058.77 687.022C1058.26 692.118 1060.07 697.14 1058.92 702.324C1058.24 705.395 1058.81 708.745 1058.82 711.966H1056.78C1056.63 709.363 1056.6 706.741 1056.27 704.165C1056.16 703.337 1055.28 702.603 1054.75 701.828C1054.36 702.596 1053.67 703.357 1053.64 704.145C1053.54 706.747 1053.68 709.363 1053.72 711.973H1051.17V702.97C1049.54 702.97 1048.58 703.676 1048.67 705.674C1048.76 707.767 1048.65 709.873 1048.63 711.973H1045.57C1045.04 709.384 1046.03 706.428 1043.96 704.213C1043.65 704.227 1043.34 704.24 1043.02 704.254V711.966H1040.47C1040.49 710.125 1040.67 708.263 1040.45 706.455C1040.36 705.701 1039.42 705.042 1038.63 704.043C1038.35 707.25 1038.13 709.615 1037.93 711.973H1035.89C1035.74 710.457 1035.57 708.942 1035.46 707.42C1035.32 705.586 1034.48 705.062 1032.84 705.762V711.973H1030.8C1030.65 709.893 1030.49 707.807 1030.33 705.735C1028.14 704.981 1027.17 705.606 1027.44 707.916C1027.6 709.262 1027.65 710.621 1027.75 711.973H1025.2C1024.97 710.627 1024.73 709.282 1024.46 707.746C1022.11 708.745 1022.86 710.539 1022.66 711.973H1014.51C1013.92 709.595 1013.33 707.223 1012.75 704.845C1012.48 704.886 1012.23 704.92 1011.96 704.96V711.973H1008.9C1008.61 708.358 1008.36 704.743 1007.99 701.135C1007.93 700.639 1007.26 700.211 1006.87 699.749C1006.7 699.878 1006.53 700.014 1006.36 700.143V711.966H1004.32C1004.34 708.066 1004.3 704.165 1004.41 700.272C1004.47 698.295 1003.34 698.607 1001.77 698.696V711.959H999.227C999.247 702.508 999.267 693.063 999.274 683.611C999.274 682.599 999.233 681.58 999.199 680.567C999.145 678.875 998.316 677.965 996.611 677.89C996.502 678.148 996.38 678.298 996.38 678.447C996.305 689.618 996.237 700.788 996.169 711.959H993.621C993.621 700.68 993.655 689.394 993.573 678.114C993.566 677.197 992.765 676.28 992.337 675.362C992.106 675.464 991.874 675.566 991.643 675.661C991.494 678.101 991.236 680.533 991.209 682.973C991.12 692.635 991.113 702.29 991.073 711.952H988.525C988.633 706.109 988.837 700.265 988.749 694.429C988.735 693.532 987.41 692.648 986.69 691.765C986.309 692.655 985.623 693.538 985.603 694.435C985.48 700.272 985.494 706.116 985.467 711.959H983.428C983.415 705.769 983.258 699.565 983.469 693.382C983.544 691.126 982.769 689.597 980.88 688.164V711.959H894.835C896.874 709.459 898.579 706.55 901.039 704.58C903.621 702.521 904.702 700 905.435 696.773C904.07 696.875 902.738 697.119 901.8 697.86C900.57 698.832 899.952 699.056 899.184 697.432C898.858 696.746 897.92 696.046 897.173 695.93C894.312 695.495 892.144 693.994 890.31 691.908C885.458 686.39 881.578 680.024 875.599 675.498C874.328 674.54 874.124 673.107 875.266 671.673C875.633 671.218 876.027 670.246 875.809 669.947C874.043 667.521 875.007 665.061 875.571 662.615C876.706 657.709 878.045 652.81 874.056 648.428C873.601 647.925 873.75 646.906 873.37 646.287C873.037 645.751 872.357 645.098 871.8 645.078C866.351 644.854 857.266 652.077 856.274 657.56C855.513 661.773 855.261 666.074 854.534 670.293C853.427 676.748 855.75 682.592 857.578 688.497C858.944 692.907 860.874 697.146 862.348 701.529C863.497 704.947 864.333 708.48 865.304 711.959H775.237C774.618 708.093 773.776 704.363 772.349 700.632C770.297 695.271 767.388 690.515 764.222 685.854C763.767 685.188 762.754 684.902 762 684.44C762 678.495 762 672.549 762 666.604V666.645ZM982.667 669.519C983.123 665.15 983.727 664.83 987.546 666.903C988.219 667.27 988.898 667.616 989.571 667.976C996.957 671.999 1004.51 675.709 1012.83 677.265C1017.22 678.087 1021.77 678.039 1026.2 678.658C1036.54 680.098 1046.85 679.344 1057.13 678.23C1061.24 677.781 1065.32 676.878 1069.32 675.845C1072.2 675.104 1073.37 672.509 1072.18 669.804C1071.34 667.908 1071.57 666.38 1072.69 664.817C1077.57 657.968 1077.67 650.099 1077.53 642.177C1077.52 641.504 1077.46 640.824 1077.53 640.159C1077.87 636.897 1078.35 633.642 1078.57 630.374C1079.03 623.45 1079.31 616.513 1079.77 609.589C1080.18 603.338 1081.14 597.093 1081.06 590.856C1081.02 587.642 1080.63 584.047 1077.71 581.411C1074.85 578.842 1072.31 575.9 1069.87 572.917C1069.04 571.891 1068.56 570.22 1068.65 568.895C1068.75 567.515 1069.53 566.041 1070.43 564.947C1070.7 564.614 1072.35 565.416 1073.73 565.803C1069.96 550.732 1068.96 535.444 1071.7 520.054C1070.07 521.189 1068.68 522.16 1067.29 523.132C1066.21 524.036 1065.02 525.286 1064.69 526.733C1064.06 529.437 1063.75 532.244 1063.63 535.023C1063.45 539.235 1063.64 543.455 1063.49 547.668C1063.46 548.572 1062.69 549.455 1062.24 550.345C1061.51 549.665 1060.64 549.081 1060.09 548.279C1059.63 547.613 1059.38 546.689 1059.36 545.867C1059.22 540.955 1059 536.035 1059.19 531.129C1059.25 529.281 1060.37 527.48 1060.97 525.639C1061.21 524.898 1061.35 524.124 1061.53 523.363C1060.83 523.193 1060.12 522.874 1059.43 522.88C1055.15 522.935 1051.28 524.939 1046.81 524.939C1041.99 524.939 1038.47 523.485 1035.27 520.332C1032.8 517.886 1030.42 515.359 1027.89 512.967C1027.1 512.213 1026.01 511.771 1024.95 511.132C1023.92 513.042 1022.32 514.625 1022.42 516.086C1022.7 520.074 1022.87 524.233 1025.39 527.705C1028.03 531.34 1030.66 534.982 1033.24 538.651C1033.7 539.303 1033.9 540.132 1034.22 540.88C1033.94 541.118 1033.66 541.362 1033.39 541.6C1030.68 539.432 1027.98 537.272 1025.17 535.023C1024.48 536.259 1023.84 537.537 1023.1 538.753C1020.81 542.517 1021.22 546.452 1024.58 549.353C1027.46 551.84 1030.49 554.184 1033.65 556.304C1036.46 558.186 1039.81 559.294 1043.1 558.329C1048.84 556.637 1054.42 554.422 1060.07 552.417C1061.26 551.996 1062.45 551.154 1063.62 551.208C1064.61 551.255 1066.14 552.118 1066.41 552.954C1067.34 555.808 1067.93 558.784 1068.39 561.76C1068.55 562.752 1067.92 563.867 1067.65 564.927C1066.5 564.451 1064.96 564.281 1064.29 563.425C1063.17 561.991 1062.56 560.143 1061.82 558.438C1061.22 557.079 1060.37 556.786 1058.98 557.282C1054.28 558.961 1049.59 560.687 1044.82 562.134C1039.68 563.69 1034.78 562.909 1030.29 559.83C1028.27 558.444 1026.19 557.14 1024.06 555.93C1022.4 554.993 1020.04 555.862 1019.52 557.656C1017.78 563.642 1013.11 565.273 1007.69 565.837C1004 566.224 1000.29 566.53 996.597 566.89C996.183 566.931 995.571 566.945 995.408 567.196C993.797 569.731 991.1 571.545 990.536 574.793C989.938 578.278 989.082 581.717 988.477 585.202C987.166 592.765 985.562 600.307 984.76 607.931C983.51 619.808 982.824 631.747 981.899 643.665C981.865 644.086 981.838 644.514 981.75 644.922C979.929 653.218 980.656 661.419 982.674 669.505L982.667 669.519ZM1120.12 423.717C1119.64 423.846 1119.17 424.009 1118.67 424.091C1117.25 424.315 1115.82 424.505 1114.39 424.709C1114.94 423.208 1115.21 421.516 1116.08 420.231C1118.33 416.916 1120.77 414.028 1121.64 409.672C1122.42 405.745 1122.45 402.185 1121.49 398.522C1121.23 397.55 1120.03 396.389 1119.05 396.144C1115.64 395.274 1115.18 394.703 1115.97 391.238C1116.46 389.105 1117.54 386.788 1117.11 384.817C1116.15 380.366 1115.9 375.433 1111.46 372.444C1109.03 370.806 1106.88 368.727 1104.43 367.117C1103.72 366.655 1102.09 366.729 1101.47 367.259C1100.95 367.708 1101.07 369.196 1101.27 370.147C1101.5 371.289 1102.16 372.335 1102.56 373.449C1103 374.706 1104.54 376.317 1102.67 377.152C1101.78 377.547 1100.13 376.242 1098.84 375.664C1098.63 375.569 1098.54 375.243 1098.33 375.107C1095.59 373.191 1092.85 371.275 1090.09 369.406C1089.86 369.25 1089.43 369.366 1089.1 369.372C1085.54 369.372 1082.17 372.24 1081.3 375.827C1080.76 378.043 1080.01 380.203 1079.3 382.371C1078.73 384.104 1077.56 384.518 1075.73 384.341C1071.04 383.879 1066.32 383.648 1061.61 383.39C1059.22 383.261 1056.79 383.01 1054.44 383.315C1052.21 383.601 1050.75 383.662 1050.09 380.958C1049.87 380.04 1048.22 379.279 1047.07 378.872C1046.63 378.715 1045.77 379.762 1045.09 380.251C1044.24 380.869 1043.34 382.031 1042.51 381.99C1040.04 381.868 1037.54 381.467 1035.14 380.801C1031.53 379.796 1028.35 377.451 1024.3 377.669C1023.06 377.737 1021.01 377.017 1020.6 376.092C1018.44 371.193 1015.41 366.491 1015.61 360.859C1015.77 356.619 1016.09 352.385 1014.52 348.343C1014.09 347.221 1012.97 345.428 1012.35 345.496C1010.91 345.659 1008.79 346.481 1008.38 347.575C1007.19 350.755 1005.8 354.105 1007.2 357.747C1007.47 357.502 1007.74 357.257 1008.09 356.938C1008.38 357.869 1008.39 359.004 1008.96 359.554C1011.53 362.041 1010.95 365.166 1010.92 368.163C1010.91 368.91 1010.53 370.086 1010.02 370.283C1009.32 370.548 1008.32 370.113 1007.48 369.882C1006.41 369.59 1005.37 369.203 1003.8 368.686C1003.98 372.518 1004.19 375.556 1004.23 378.6C1004.24 379.436 1003.75 380.271 1003.49 381.114C1002.6 380.767 1001.29 380.665 1000.9 380.02C1000.06 378.62 999.281 376.955 999.206 375.365C999.043 371.995 999.451 368.598 999.403 365.221C999.39 364.236 998.914 362.924 998.187 362.326C995.122 359.805 989.619 360.852 987.267 364.304C985.657 366.675 984.081 369.08 982.66 371.567C980.024 376.188 979.501 380.849 982.993 385.34C983.965 386.59 984.984 388.167 986.921 387.093C995.945 382.072 1006.64 385.959 1011.72 392.366C1014.95 396.429 1016.05 401.254 1015.52 406.261C1014.97 411.446 1008.29 415.693 1003.11 413.865C997.739 411.976 992.697 409.163 987.2 406.608C986.092 407.274 984.332 408.327 982.844 409.217C983.707 413.43 986.078 415.828 989.306 417.581C990.006 417.962 990.42 418.866 990.964 419.532C990.162 420.184 989.435 421.19 988.531 421.4C987.56 421.631 986.262 421.393 985.358 420.897C982.708 419.457 980.187 417.792 977.632 416.229C973.025 416.909 972.509 420.299 972.747 424.213C972.916 426.999 973.453 429.894 972.937 432.564C971.659 439.148 973.324 444.53 978.21 449.021C979.385 450.101 980.717 451.08 981.641 452.35C985.474 457.623 990.4 461.605 995.917 464.962C998.35 466.443 1000.56 468.441 1003.16 469.453C1005.89 470.52 1007.9 474.121 1011.61 472.232C1011.71 472.178 1011.91 472.361 1012.07 472.388C1012.86 472.511 1013.64 472.619 1014.43 472.735C1014.25 471.756 1014.36 470.574 1013.84 469.827C1011 465.709 1008.03 461.686 1005.07 457.65C1003.09 454.953 1001.96 451.997 1002.28 448.62C1002.63 444.842 1005.14 443.144 1008.83 444.068C1010.72 444.543 1012.62 444.971 1014.52 445.372C1022.48 447.051 1030.46 448.674 1038.39 450.441C1039.23 450.625 1039.88 451.617 1040.62 452.235C1039.82 452.969 1039.13 453.906 1038.19 454.382C1037.52 454.722 1036.52 454.545 1035.68 454.436C1032.91 454.083 1030.15 453.662 1027.39 453.261C1022.63 452.568 1017.87 451.875 1013.76 451.277C1012.57 452.887 1011.67 454.097 1010.46 455.727C1014.55 461.136 1018.75 467.448 1023.76 473.041C1026.97 476.635 1031.42 479.108 1035.21 482.22C1036.22 483.049 1036.81 484.395 1037.59 485.495C1036.49 485.958 1035.39 486.413 1034.3 486.895C1034.18 486.95 1034.12 487.153 1034.08 487.208C1035.66 491.115 1038.48 493.085 1042.71 493.031C1043.61 493.017 1044.57 493.357 1045.4 493.744C1048.59 495.212 1051.53 496.143 1054.94 493.765C1057.26 492.148 1060.25 491.475 1062.96 490.435C1063.96 490.055 1065.03 489.851 1066.06 489.525C1068.33 488.791 1070.72 488.234 1071.81 486.528C1073.69 485.93 1075.25 485.665 1076.57 484.959C1078.8 483.77 1080.82 482.18 1083.05 480.991C1084.5 480.216 1086.17 479.849 1087.43 479.407C1089.17 478.544 1090.69 477.912 1092.09 477.083C1096.08 474.719 1100.09 472.388 1103.97 469.847C1112.49 464.262 1120.31 457.847 1126.41 449.571C1128.25 447.071 1129.62 444.176 1131.71 441.927C1133.35 440.154 1133.98 438.109 1134.8 436.05C1135.76 433.638 1135.13 431.028 1133.66 429.459C1132.18 427.889 1129.92 429.255 1128.05 430.206C1124.96 431.769 1121.79 433.189 1118.6 434.548C1117.62 434.963 1116.45 435.132 1115.38 435.105C1114.76 435.092 1114.16 434.453 1113.55 434.093C1113.92 433.481 1114.21 432.795 1114.69 432.272C1115.01 431.919 1115.59 431.823 1116.03 431.565C1118.3 430.206 1120.56 428.834 1122.95 427.393C1121.81 425.919 1120.99 424.859 1120.12 423.731V423.717ZM1111.77 494.138C1109.27 494.301 1107 494.587 1104.73 494.573C1099.94 494.546 1095.77 496.483 1091.95 498.963C1089.74 500.396 1088.14 502.761 1086.24 504.677C1079.03 511.9 1076.34 521.093 1075.11 530.817C1074.13 538.542 1075.21 546.227 1076.49 553.844C1077.3 558.648 1078.78 563.248 1082.38 566.816C1088.19 572.578 1093.65 578.829 1103.24 577.633C1108.29 577.001 1113.29 576.627 1117.7 573.753C1118.19 573.427 1118.65 572.87 1119.17 572.802C1124.15 572.19 1126.45 568.052 1129.04 564.743C1131.39 561.74 1132.7 557.894 1134.37 554.367C1135.79 551.357 1135.26 549.89 1132.32 547.838C1131.86 548.402 1131.46 549.04 1130.91 549.502C1129.97 550.304 1128.79 550.868 1127.94 551.752C1124.62 555.21 1120.69 556.1 1116.75 553.43C1114.45 551.881 1112.21 549.679 1110.96 547.253C1107.27 540.051 1109.45 526.923 1116.85 521.318C1119.89 519.021 1123.15 518.457 1126.69 519.49C1128.13 519.911 1129.46 520.733 1130.8 521.447C1135.63 523.981 1138.29 520.108 1137.79 516.534C1137.59 515.107 1137.25 513.68 1137.23 512.253C1137.23 511.438 1137.76 510.616 1138.04 509.794C1138.78 510.086 1139.75 510.188 1140.21 510.718C1141.33 512.009 1142.26 511.601 1143.22 510.684C1143.89 510.038 1144.5 509.325 1145.07 508.591C1148.37 504.351 1152.17 500.471 1154.27 495.389C1155.81 491.672 1157.69 488.077 1158.96 484.279C1160.25 480.379 1160.96 476.289 1161.95 472.286C1163.9 464.404 1165.36 456.488 1162.47 448.532C1161.99 447.227 1160.97 445.624 1159.8 445.168C1156.39 443.837 1152.77 445.556 1151.52 449.055C1150.29 452.459 1149.52 456.026 1148.6 459.539C1145.53 471.288 1138.57 480.644 1130.4 489.253C1128.81 490.938 1127.09 492.426 1128.51 495.13C1128.81 495.701 1128.32 496.686 1128.2 497.488C1127.43 497.305 1126.64 497.169 1125.89 496.924C1125.59 496.829 1125.37 496.496 1125.1 496.286C1122.11 493.941 1120.4 493.343 1117.97 496.775C1117.33 497.678 1115.54 498.453 1114.52 498.222C1113.54 497.991 1112.85 496.408 1112.08 495.375C1111.89 495.13 1111.91 494.743 1111.75 494.132L1111.77 494.138ZM994.389 538.644C996.495 541.084 998.602 542.15 1001.49 540.506C1002.27 540.064 1003.48 540.384 1004.5 540.35C1004.11 541.287 1003.85 542.327 1003.29 543.149C1001.18 546.227 997.732 546.248 994.538 546.995C991.29 547.756 989.666 547.165 988.83 543.89C987.329 537.985 985.997 532.033 984.679 526.081C982.844 517.805 981.07 509.515 981.424 500.94C981.655 495.348 981.927 489.742 981.872 484.15C981.845 481.554 981.091 478.966 980.663 476.37C980.282 476.282 979.902 476.193 979.528 476.098C977.931 478.076 975.947 479.849 974.826 482.064C972.536 486.576 970.769 491.325 970.491 496.51C970.063 504.46 969.798 512.376 971.85 520.196C972.781 523.743 973.222 527.413 974.085 530.98C974.86 534.18 975.77 537.367 976.871 540.472C977.687 542.762 979.209 544.828 979.881 547.145C981.2 551.697 984.04 554.823 988.273 556.508C989.632 557.051 991.664 556.678 993.05 556.012C993.607 555.747 993.492 553.539 993.281 552.281C992.826 549.598 993.791 548.096 996.312 548.694C997.27 548.925 998.146 550.624 998.554 551.833C999.791 555.461 999.913 555.625 1003.53 554.687C1006.99 553.79 1007.47 554.048 1008.15 557.378C1009.7 556.1 1011.19 554.891 1012.67 553.661C1014.78 551.901 1016.11 545.378 1014.81 543.061C1014.66 542.782 1014.38 542.551 1014.11 542.361C1011.21 540.37 1009.15 537.741 1008.33 534.316C1007.33 530.103 1005.63 525.999 1006.26 521.494C1006.4 520.461 1006.02 519.327 1005.74 518.274C1004.34 513.13 1004.55 508.224 1007.7 503.692C1008.07 503.162 1008.37 502.482 1008.4 501.857C1008.52 499.133 1009.15 496.496 1008.49 493.656C1007.65 490.075 1005.57 487.867 1002.56 486.27C1002.06 486.005 1001.13 485.924 1000.71 486.216C998.248 487.908 995.877 489.729 993.682 491.353C993.39 493.588 993.118 495.681 992.853 497.753C994.096 498.236 995.394 498.521 996.42 499.214C997.195 499.737 997.63 500.777 998.214 501.586C997.304 501.993 996.346 502.829 995.503 502.72C993.335 502.435 991.983 503.461 991.12 505.085C988.953 509.182 987.41 513.504 988.226 518.26C988.939 522.432 989.761 526.59 990.665 530.722C991.521 534.615 991.664 534.635 995.625 533.609C996.115 533.48 996.638 533.283 997.113 533.358C997.739 533.453 998.33 533.779 998.934 534.01C998.669 534.663 998.574 535.498 998.105 535.92C996.984 536.925 995.686 537.727 994.402 538.658L994.389 538.644ZM1117.57 661.12L1117.61 660.849C1118.84 661.1 1120.12 661.195 1121.29 661.617C1128.36 664.158 1132.14 669.58 1133.49 676.633C1134.37 681.206 1133.58 685.745 1130.97 689.808C1130.03 691.269 1129.31 692.886 1128.3 694.293C1126.87 696.29 1128.05 697.575 1129.52 698.424C1131.08 699.334 1132.86 699.708 1134.22 697.724C1135.24 696.243 1136.45 695.081 1136.76 693.022C1137.06 691.086 1138.73 689.394 1139.57 687.491C1140.52 685.317 1141.36 683.068 1142 680.785C1142.83 677.815 1142.89 674.506 1144.27 671.849C1145.88 668.758 1146.93 665.591 1147.28 662.276C1147.48 660.339 1147.04 658.022 1146.07 656.337C1143.53 651.886 1141.4 647.11 1137.23 643.733C1134.47 641.504 1132.93 637.923 1129.3 636.605C1127.14 635.817 1126.44 634.288 1126.91 631.964C1127.27 630.184 1124.56 627.187 1123.05 627.643C1120.66 628.37 1118.36 629.396 1116.05 630.36C1113.63 631.366 1111.3 632.569 1108.84 633.472C1105.93 634.546 1102.55 634.825 1100.07 636.496C1096.86 638.657 1094.21 641.721 1091.59 644.643C1089.38 647.103 1088.14 650.099 1087.75 653.51C1087.55 655.311 1088.13 657.587 1089.72 658.43C1093.21 660.278 1096.93 659.497 1100.59 659.51C1102.54 659.517 1104.5 659.87 1106.43 660.196C1107.48 660.373 1108.49 661.025 1109.54 661.08C1112.2 661.209 1114.88 661.12 1117.55 661.12H1117.57ZM921.791 629.878C922.029 630 922.267 630.123 922.504 630.245C923.123 628.988 924.061 627.785 924.298 626.46C925.358 620.447 924.441 614.515 921.968 609.086C919.705 604.119 916.47 599.607 913.8 594.817C913.318 593.954 913.501 592.724 913.372 591.664C914.344 591.902 915.54 591.868 916.226 592.439C917.272 593.315 917.959 594.613 918.801 595.734C919.182 595.462 919.562 595.191 919.943 594.912C919.447 593.173 919.175 591.331 918.421 589.714C916.205 584.964 913.324 580.65 909.594 576.906C906.951 574.249 903.689 572.693 900.258 573.841C896.106 575.227 892.804 578.129 891.343 582.593C889.827 587.227 890.887 591.657 892.946 595.755C895.753 601.347 898.939 606.742 902.085 612.157C902.745 613.292 903.961 614.087 904.878 615.079C906.455 616.778 908.249 618.347 909.478 620.27C910.511 621.887 911.259 623.579 913.372 623.81C914.595 623.946 916.199 624.286 916.973 623.688C917.66 623.158 917.741 621.385 917.531 620.27C917.164 618.381 916.314 616.594 915.743 614.739C914.69 611.281 914.683 611.315 911.367 612.578C910.627 612.857 909.648 612.504 908.779 612.443C908.908 611.6 908.765 610.56 909.213 609.962C910.613 608.108 912.36 606.327 914.908 606.796C917.34 607.245 918.713 609.14 919.447 611.485C921.064 616.635 922.396 621.779 919.066 626.983C920.398 627.303 921.424 627.541 922.64 627.833C922.314 628.621 922.056 629.253 921.791 629.878ZM937.358 632.773C940.233 634.553 943.1 635.62 943.12 639.438C947.918 637.583 947.945 633.724 948.033 629.749C946.851 630.856 945.859 632.093 944.595 632.861C943.691 633.411 942.407 633.35 941.299 633.554C941.503 632.426 941.32 630.924 941.979 630.231C944.303 627.792 946.912 625.625 949.419 623.355C950.221 622.635 951.363 622.084 951.791 621.188C953.483 617.62 955.222 614.033 956.418 610.289C957.56 606.701 958.056 602.896 958.817 599.193C959.693 594.939 961.555 590.91 961.419 586.419C961.249 580.697 959.958 577.184 954.679 577.585C952.436 577.755 949.929 579.033 948.203 580.555C943.372 584.822 940.96 590.319 940.756 596.903C940.6 601.883 939.798 606.85 939.322 611.824C938.643 618.884 937.99 625.951 937.351 632.773H937.358ZM920.337 636.985C918.747 637.346 917.612 637.549 916.511 637.855C910.396 639.567 906.788 637.114 905.986 630.863C905.687 628.539 905.497 625.944 904.328 624.035C900.754 618.184 896.738 612.599 892.878 606.925C892.763 606.755 892.464 606.715 892.104 606.545C892.104 607.211 892.104 607.761 892.104 607.611C890.731 608.257 889.603 608.522 888.842 609.201C886.559 611.24 885.519 613.788 885.166 616.954C884.704 621.079 885.879 624.714 888.081 627.778C891.336 632.304 895.229 636.374 898.892 640.6C901.725 643.875 904.797 646.756 908.738 648.856C912.625 650.928 917.49 652.185 918.781 658.07C919.535 657.207 920.282 656.745 920.289 656.283C920.364 649.943 920.344 643.597 920.344 636.985H920.337ZM887.021 632.412C884.819 634.981 883.073 636.924 881.456 638.969C880.865 639.724 880.532 640.702 880.172 641.613C878.942 644.711 879.886 647.055 881.701 649.929C886.144 656.982 891.696 662.941 897.676 668.588C898.627 669.485 899.891 670.198 901.141 670.579C902.853 671.102 904.015 670.592 904.097 668.384C904.199 665.517 904.593 662.656 904.919 659.795C905.435 655.25 905.327 650.969 900.998 647.993C900.054 647.341 899.449 646.213 898.661 645.329C894.828 641.062 890.982 636.809 887.028 632.419L887.021 632.412ZM929.639 622.2C930.794 621.582 931.664 621.12 932.527 620.657C932.826 620.895 933.125 621.14 933.424 621.378C934.973 608.25 936.516 595.129 938.085 582.009C938.378 579.563 937.915 577.49 936.183 575.547C934.396 573.542 931.216 572.251 928.613 573.046C925.882 573.875 924.081 576.335 924.06 579.304C924.02 585.161 923.877 591.025 924.02 596.876C924.081 599.376 924.59 601.904 925.182 604.35C926.051 607.965 927.247 611.491 928.171 615.093C928.797 617.518 929.191 620.005 929.632 622.2H929.639ZM881.041 657.078C879.92 661.426 878.935 664.892 878.194 668.411C878.031 669.172 878.588 670.246 879.105 670.959C883.311 676.803 887.544 682.64 891.873 688.395C893.449 690.494 895.671 691.84 898.355 691.996C901.053 692.159 903.771 692.139 906.475 692.078C907.134 692.064 908.269 691.649 908.35 691.242C909.166 687.274 910.076 683.292 910.396 679.263C910.572 677.041 908.126 677.367 906.665 677.238C906.217 677.197 905.388 678.44 905.184 679.215C904.749 680.846 904.729 682.578 904.321 684.223C903.825 686.227 903.112 688.177 902.493 690.155C902.181 690.08 901.868 690.005 901.555 689.93C901.555 688.945 901.454 687.953 901.576 686.981C901.82 685.052 902.228 683.136 902.486 681.206C903.118 676.422 903.071 676.477 898.926 674.2C897.227 673.27 895.535 672.21 894.129 670.891C891.411 668.343 888.876 665.598 886.308 662.894C884.697 661.202 883.168 659.429 881.041 657.071V657.078ZM921.22 399.555C918.937 400.717 916.362 401.729 914.14 403.265C912.373 404.488 912.013 406.594 912.407 408.789C913.277 413.579 921.098 416.195 924.122 414.789C925.161 414.306 926.092 413.525 926.942 412.737C928.443 411.351 930.108 410.039 931.209 408.361C932.255 406.757 931.188 403.047 929.687 402.436C927.118 401.396 924.441 400.635 921.213 399.555H921.22ZM1006.71 408.708C1010.76 408.653 1011.93 406.778 1010.51 403.007C1009.39 400.078 1007.35 397.999 1004.85 396.361C1001.39 394.099 998.839 394.065 996.23 396.701C995.211 397.727 994.409 400.2 994.946 401.315C996.957 405.46 1001.58 408.606 1006.7 408.708H1006.71ZM909.315 672.509C910.056 671.517 911.32 670.552 911.551 669.383C912.183 666.169 912.543 662.874 912.699 659.598C912.849 656.568 911.728 655.406 908.432 654.496C908.187 655.372 907.807 656.235 907.719 657.125C907.331 660.985 907.141 664.864 906.645 668.703C906.366 670.878 907.066 672.06 909.315 672.502V672.509ZM1064.59 697.969C1066.35 697.887 1067.01 697.276 1067.05 695.468C1067.13 691.439 1067.59 687.423 1067.77 683.394C1067.79 682.796 1066.95 681.586 1066.75 681.634C1065.51 681.94 1063.42 681.342 1063.53 683.564C1063.77 688.279 1064.21 692.981 1064.59 697.962V697.969ZM988.654 687.138C988.654 683.333 988.443 679.786 988.722 676.266C988.919 673.772 987.831 673.202 985.582 673.073C985.582 676.633 985.643 680.017 985.562 683.394C985.508 685.555 986.561 686.628 988.654 687.138ZM925.61 640.091V658.07C927.139 652.226 930.285 646.315 925.61 640.091ZM1006.88 688.972C1006.72 688.999 1006.56 689.02 1006.4 689.047C1006.55 689.781 1006.55 690.603 1006.91 691.215C1007.24 691.792 1007.95 692.152 1008.49 692.608C1008.73 691.969 1009.13 691.344 1009.17 690.698C1009.33 688.021 1009.48 685.337 1009.38 682.667C1009.36 682.116 1008.28 681.6 1007.69 681.07C1007.18 681.648 1006.22 682.225 1006.23 682.789C1006.27 684.855 1006.64 686.913 1006.88 688.972ZM1004.89 693.688C1002.96 689.203 1004.91 684.454 1003.09 680.282C1002.65 680.302 1002.22 680.323 1001.77 680.35C1001.77 683.842 1001.81 687.335 1001.76 690.821C1001.74 692.574 1002.52 693.498 1004.89 693.688H1004.89ZM1021.85 682.939C1022.45 687.518 1022.99 691.724 1023.53 695.93C1026.22 691.493 1025.28 684.76 1021.85 682.939ZM1011.58 682.198C1011.8 685.704 1012.01 688.932 1012.25 692.594C1015.52 689.292 1014.11 685.724 1014.09 682.198H1011.58ZM1071 685.059C1070.57 685.031 1070.15 685.004 1069.73 684.984C1069.66 688.884 1069.57 692.784 1069.55 696.684C1069.55 696.875 1070.15 697.065 1071 697.575V685.065V685.059ZM982.728 678.597C980.418 680.785 980.486 682.388 982.728 683.591V678.597ZM914.215 683.421C913.916 683.36 913.623 683.292 913.324 683.231C913.114 685.059 912.896 686.893 912.686 688.721C912.923 688.755 913.168 688.789 913.406 688.816C913.732 687.172 914.058 685.527 914.364 683.883C914.391 683.74 914.269 683.577 914.215 683.421Z" fill="#280E49"/>
<path d="M763.352 643.835C764.602 641.137 765.309 638.372 766.933 636.333C773.613 627.921 780.55 619.713 787.468 611.491C788.317 610.486 789.499 609.562 790.716 609.134C791.708 608.787 792.978 609.236 794.127 609.338C793.719 610.248 793.495 611.322 792.876 612.055C785.857 620.284 778.668 628.363 771.792 636.714C769.964 638.936 769.128 641.959 767.694 644.528C767.232 645.363 766.301 645.934 765.581 646.621C764.901 645.771 764.222 644.915 763.359 643.841L763.352 643.835Z" fill="#280E49"/>
<path d="M773.069 643.488C774.088 641.395 774.7 639.275 775.971 637.685C780.89 631.543 786 625.557 791.089 619.55C791.959 618.524 793.026 617.654 794.093 616.825C795.316 615.867 796.804 615.663 797.558 617.165C797.932 617.906 797.592 619.462 797.001 620.148C792.075 625.842 786.917 631.332 782.052 637.074C780.163 639.303 778.913 642.068 777.228 644.494C776.643 645.33 775.624 645.866 774.802 646.539C774.258 645.581 773.715 644.616 773.069 643.488Z" fill="#280E49"/>
<path d="M1032.66 608.896C1033.01 609.8 1033.18 610.031 1033.18 610.262C1033.09 625.652 1034.38 637.407 1037.46 652.41C1038.98 659.796 1040.11 667.256 1041.32 674.697C1041.46 675.539 1040.98 676.484 1040.77 677.387L1039.85 677.449C1039.13 675.342 1038.13 673.283 1037.74 671.116C1036 661.522 1034.47 651.893 1032.79 642.292C1032.22 639.044 1031.41 635.844 1030.67 632.623C1030.57 632.148 1030.33 631.55 1029.96 631.312C1027.37 629.64 1028.17 627.527 1028.91 625.258C1029.41 623.756 1029.62 622.132 1029.74 620.549C1029.91 618.449 1029.57 616.689 1026.79 616.526C1025.47 616.452 1024.73 615.242 1025.91 614.182C1027.96 612.348 1030.23 610.771 1032.66 608.889V608.896Z" fill="#280E49"/>
<path d="M1032.35 599.043C1030.48 599.764 1028.64 600.661 1026.71 601.095C1026.16 601.218 1025.18 600.09 1024.69 599.349C1024.57 599.166 1025.48 597.868 1026.08 597.718C1028.06 597.216 1030.15 596.672 1032.06 597.895C1032.16 598.276 1032.25 598.663 1032.35 599.043Z" fill="#280E49"/>
<path d="M1079.45 388.113C1080.69 387.888 1081.85 387.827 1082.91 387.467C1089.76 385.103 1096.71 384.858 1103.6 386.883C1110.68 388.962 1113.28 395.111 1109.49 401.437C1104.18 410.304 1096.74 416.542 1086.02 417.806C1082.7 418.2 1079.41 418.01 1076.42 416.223C1073.99 414.755 1072.23 412.689 1071.76 409.87C1070.5 402.429 1071.9 395.716 1077.58 390.301C1078.29 389.628 1078.86 388.812 1079.44 388.119L1079.45 388.113ZM1081.94 408.348C1083.05 408.66 1084.03 409.231 1084.96 409.143C1089.28 408.714 1093.49 407.824 1097.07 405.12C1097.48 404.807 1098.01 404.033 1097.88 403.707C1097.08 401.668 1096.59 399.134 1095.06 397.877C1093.88 396.898 1091.35 397.367 1089.44 397.551C1088.83 397.605 1088.37 398.828 1087.77 399.44C1087.3 399.922 1086.62 400.214 1086.2 400.717C1085.18 401.892 1084.12 403.068 1083.34 404.4C1082.71 405.467 1082.47 406.758 1081.93 408.348H1081.94Z" fill="#280E49"/>
<path d="M1084.17 454.742C1079.04 454.994 1073.73 455.381 1068.41 455.483C1061.3 455.619 1054.18 455.619 1047.08 455.483C1045.75 455.456 1043.48 455.904 1043.65 453.241C1043.81 450.699 1045.82 451.277 1047.29 451.263C1055.1 451.196 1062.89 451.311 1070.69 451.162C1073.1 451.114 1075.5 450.496 1077.89 450.027C1083.36 448.96 1088.81 447.723 1094.3 446.759C1096.88 446.303 1099.14 448.573 1099.57 451.528C1100.02 454.606 1098.9 457.256 1097.19 459.628C1092.34 466.341 1086.55 472.062 1079.35 476.323C1076.59 477.953 1074.22 480.243 1071.43 481.786C1068.45 483.43 1065.17 484.531 1062.03 485.89C1060.27 486.651 1058.58 487.595 1056.77 488.18C1055.94 488.445 1054.76 488.288 1053.98 487.881C1053.29 487.52 1052.93 486.535 1052.43 485.829C1053.16 485.339 1053.85 484.49 1054.61 484.422C1060.8 483.865 1066.06 481.079 1070.93 477.566C1075.24 474.454 1079.29 470.948 1083.38 467.537C1084.33 466.742 1084.98 465.58 1085.83 464.642C1087.4 462.896 1087.62 461.17 1086.22 459.145C1085.38 457.943 1084.95 456.461 1084.17 454.763V454.742Z" fill="#280E49"/>
<path d="M1035.61 423.955C1036.56 422.786 1037.34 421.828 1038.11 420.864C1038.63 422.08 1039.34 423.262 1039.63 424.533C1040.17 426.911 1040.59 429.343 1040.77 431.769C1040.85 432.788 1040.45 434.154 1039.75 434.793C1039.36 435.146 1037.69 434.569 1036.96 433.971C1033.6 431.226 1031.26 427.876 1032.06 423.249C1032.24 422.236 1033.12 421.346 1033.68 420.395C1034.2 421.258 1034.73 422.114 1035.23 422.99C1035.42 423.323 1035.52 423.704 1035.61 423.948V423.955Z" fill="#280E49"/>
<path d="M984.482 430.036C984.536 430.967 984.747 431.925 984.604 432.822C984.468 433.638 983.897 435.078 983.605 435.051C982.538 434.97 981.2 434.677 980.534 433.95C979.12 432.394 979.909 425.681 981.485 424.268C981.804 423.982 982.579 423.745 982.81 423.921C983.428 424.397 984.203 425.049 984.312 425.735C984.543 427.135 984.38 428.603 984.38 430.043C984.414 430.043 984.448 430.043 984.482 430.043V430.036Z" fill="#280E49"/>
<path d="M1097.79 435.044C1097.59 436.39 1098.76 438.516 1096.34 438.646C1094.34 438.754 1093.45 437.015 1093.37 435.173C1093.29 433.312 1092.66 430.566 1095.29 430.403C1098.26 430.22 1097.48 433.162 1097.8 435.044H1097.79Z" fill="#280E49"/>
<path d="M988.579 431.81C988.98 430.485 988.993 429.452 989.517 428.936C990.502 427.957 991.779 427.271 992.935 426.462C993.07 427.692 993.274 428.915 993.308 430.145C993.322 430.798 993.234 431.62 992.846 432.082C992.18 432.884 991.249 433.461 990.427 434.134C989.768 433.305 989.109 432.469 988.586 431.803L988.579 431.81Z" fill="#280E49"/>
<path d="M1105.36 433.108C1105.77 433.556 1106.94 434.705 1106.86 434.806C1105.85 436.023 1104.66 437.076 1103.52 438.177C1102.9 437.402 1101.82 436.661 1101.75 435.839C1101.57 433.862 1103.22 433.475 1105.36 433.115V433.108Z" fill="#280E49"/>
<path d="M1092.73 539.888C1093.42 541.097 1094.35 542.232 1094.78 543.53C1096.74 549.55 1098.72 555.57 1100.39 561.679C1101.4 565.382 1103.41 567.815 1107.08 568.902C1107.8 569.119 1108.56 569.364 1109.16 569.799C1109.58 570.098 1110.02 570.777 1109.96 571.212C1109.89 571.654 1109.26 572.061 1108.8 572.374C1108.54 572.544 1108.14 572.516 1107.81 572.53C1104.24 572.734 1098.1 569.425 1096.95 566.055C1094.42 558.642 1091.11 551.378 1091.28 543.285C1091.3 542.252 1091.6 541.226 1091.77 540.194C1092.09 540.092 1092.41 539.997 1092.74 539.895L1092.73 539.888Z" fill="#280E49"/>
<path d="M1111 498.902C1110.75 499.452 1110.64 499.88 1110.39 500.2C1107.78 503.509 1105.19 506.831 1102.48 510.052C1102.09 510.521 1101.08 510.473 1100.35 510.663C1100.38 509.869 1100.09 508.856 1100.48 508.313C1102.91 504.868 1105.45 501.504 1108.07 498.195C1108.42 497.747 1109.4 497.584 1110.05 497.658C1110.41 497.699 1110.7 498.487 1111 498.909L1111 498.902Z" fill="#280E49"/>
<path d="M1092.62 535.689C1091.12 532.638 1091.93 529.492 1092.6 526.4C1093 524.593 1093.66 522.833 1094.32 521.094C1094.52 520.557 1095.11 520.163 1095.53 519.707C1095.84 520.312 1096.48 520.951 1096.42 521.528C1096.19 523.961 1095.79 526.38 1095.4 528.792C1095.14 530.375 1094.85 531.952 1094.44 533.501C1094.23 534.33 1093.75 535.091 1093.39 535.879L1092.61 535.689H1092.62Z" fill="#280E49"/>
<path d="M1136.13 503.475C1135.71 503.665 1134.86 504.372 1134.49 504.174C1132.73 503.23 1131.03 502.15 1129.49 500.879C1129.09 500.546 1129.13 499.262 1129.43 498.644C1129.69 498.114 1130.61 497.645 1131.25 497.618C1132.76 497.55 1136.17 501.423 1136.13 503.475Z" fill="#280E49"/>
</g>
<defs>
<filter id="filter0_f_2_167" x="-449" y="7" width="1174" height="1168" filterUnits="userSpaceOnUse" color-interpolation-filters="sRGB">
<feFlood flood-opacity="0" result="BackgroundImageFix"/>
<feBlend mode="normal" in="SourceGraphic" in2="BackgroundImageFix" result="shape"/>
<feGaussianBlur stdDeviation="150" result="effect1_foregroundBlur_2_167"/>
</filter>
<filter id="filter1_f_2_167" x="592" y="-477" width="1174" height="1168" filterUnits="userSpaceOnUse" color-interpolation-filters="sRGB">
<feFlood flood-opacity="0" result="BackgroundImageFix"/>
<feBlend mode="normal" in="SourceGraphic" in2="BackgroundImageFix" result="shape"/>
<feGaussianBlur stdDeviation="150" result="effect1_foregroundBlur_2_167"/>
</filter>
<filter id="filter2_f_2_167" x="534" y="-98" width="982" height="978" filterUnits="userSpaceOnUse" color-interpolation-filters="sRGB">
<feFlood flood-opacity="0" result="BackgroundImageFix"/>
<feBlend mode="normal" in="SourceGraphic" in2="BackgroundImageFix" result="shape"/>
<feGaussianBlur stdDeviation="150" result="effect1_foregroundBlur_2_167"/>
</filter>
<filter id="filter3_f_2_167" x="-456" y="-443" width="982" height="978" filterUnits="userSpaceOnUse" color-interpolation-filters="sRGB">
<feFlood flood-opacity="0" result="BackgroundImageFix"/>
<feBlend mode="normal" in="SourceGraphic" in2="BackgroundImageFix" result="shape"/>
<feGaussianBlur stdDeviation="150" result="effect1_foregroundBlur_2_167"/>
</filter>
<clipPath id="clip0_2_167">
<rect width="410.3" height="459.58" fill="white" transform="translate(0 258)"/>
</clipPath>
<clipPath id="clip1_2_167">
<rect width="550" height="513" fill="white" transform="translate(762 199)"/>
</clipPath>
</defs>
</svg>
