<svg width="1280" height="720" viewBox="0 0 1280 720" fill="none" xmlns="http://www.w3.org/2000/svg">
<g clip-path="url(#clip0_50_1648)">
<path d="M565.081 720C570.865 701.284 576.055 682.35 582.589 663.901C589.777 643.586 595.645 622.496 609.706 605.342C614.788 599.14 620.172 593.204 627.009 585.294C611.617 585.294 598.646 585.463 585.687 585.258C546.846 584.676 511.671 572.683 479.909 550.515C476.448 548.104 473.254 545.149 470.423 542.011C463.622 534.464 456.955 527.475 446.428 524.361C437.269 521.66 429.888 515.312 426.342 502.266C430.747 504.894 433.433 506.239 435.841 507.995C438.406 509.873 440.669 513.883 443.101 513.919C457.282 514.125 463.102 525.997 471.173 533.955C491.513 554.016 516.644 564.64 543.204 572.187C575.535 581.381 608.786 580.485 641.867 577.614C680.515 574.258 715.532 560.582 747.609 538.825C763.061 528.347 778.876 518.716 788.967 502.011C801.793 480.776 812.768 458.922 811.037 433.362C809.392 409.195 806.742 385.004 795.707 362.823C793.383 358.159 790.528 353.605 787.128 349.692C777.799 338.959 769.68 341.951 762.032 353.702C755.486 363.756 744.451 370.891 735.328 379.237C734.42 380.073 732.702 380.025 731.819 380.861C717.456 394.44 700.334 384.979 684.556 386.469C683.394 386.578 682.076 384.87 680.019 383.453C689.287 375.47 706.155 391.993 710.039 372.793C722.937 382.884 726.144 382.012 731.831 367.317C741.232 369.801 753.816 363.671 757.289 353.786C760.568 344.471 766.824 339.528 775.863 336.9C777.98 336.282 781.211 334.089 781.259 332.539C781.949 312.151 778.525 292.393 772.801 273.048C771.979 273.072 771.156 273.084 770.321 273.108C768.349 293.169 766.388 313.217 764.416 333.278C763.073 333.568 761.718 333.859 760.375 334.15C746.193 284.544 723.216 239.359 694.998 196.815C693.946 197.251 692.893 197.687 691.828 198.136C701.907 222.375 711.975 246.615 722.054 270.843C699.137 243.453 681.737 212.515 666.721 180.05C665.849 180.377 664.978 180.704 664.107 181.031C664.966 188.226 665.559 195.458 666.757 202.593C670.484 224.919 674.416 247.197 678.312 269.498C679.704 277.457 683.019 280.728 692.409 279.359C702.573 277.881 713.306 279.359 723.663 280.558C727.572 281.018 731.141 284.35 733.851 288.311C724.571 286.555 715.302 284.774 706.021 283.029C705.053 282.848 704.061 282.763 703.081 282.714C683.636 281.612 681.64 283.829 684.617 302.993C684.75 303.865 684.326 304.822 684.024 306.53C674.973 306.773 676.074 288.941 666.878 294.659C665.305 289.111 664.797 283.332 662.183 278.777C646.356 251.194 630.082 223.865 613.868 196.512C610.698 191.158 607.576 185.658 603.583 180.946C601.599 178.596 597.69 177.869 594.665 176.403C593.358 179.492 590.551 182.799 590.975 185.622C594.677 210.213 598.949 234.719 603.123 259.238C603.595 262 604.539 264.689 605.253 267.403C604.406 267.899 603.571 268.396 602.724 268.893C601.199 266.882 599.033 265.077 598.259 262.811C589.462 237.045 580.992 211.182 572.123 185.452C571.082 182.424 568.578 178.245 566.17 177.821C563.726 177.385 560.325 180.631 557.772 182.763C554.07 185.876 550.73 189.414 547.282 192.818C509.336 230.274 485.874 274.949 479.933 328.359C479.8 329.522 479.062 330.613 477.84 333.653C469.672 323.344 474.113 312.563 472.855 303.054C471.512 292.951 472.552 282.545 470.568 271.582C468.862 275.846 466.647 279.977 465.546 284.374C460.609 304.011 458.298 323.865 463.574 343.804C466.212 353.798 464.094 361.382 454.354 365.852C428.085 377.917 419.869 401.139 417.957 427.208C416.36 448.989 422.107 469.473 434.582 487.765C436.095 489.97 436.881 492.684 437.995 495.155C436.93 495.918 435.865 496.681 434.8 497.444C431.013 492.781 426.112 488.625 423.717 483.344C419.966 475.058 418.792 465.573 414.871 457.396C410.612 448.492 404.478 440.485 399.166 432.078C397.786 429.885 396.431 427.669 395.076 425.464C388.179 429.437 388.058 429.522 395.645 441.2C399.02 446.397 403.038 451.182 406.764 456.148L404.381 458.426C400.714 454.61 396.189 451.291 393.563 446.845C388.832 438.85 384.948 431.412 376.672 425.234C369.968 420.219 368.613 408.032 366.447 398.293C376.321 404.349 370.803 421.357 383.702 422.944C382.322 412.611 380.87 401.806 379.443 390.976C382.31 398.826 384.779 406.869 388.215 414.477C389.401 417.093 392.995 418.607 395.499 420.63C396.734 417.953 397.968 415.276 399.202 412.599L398.972 412.805C402.215 415.506 405.458 418.208 408.7 420.897C408.168 421.66 407.636 422.423 407.103 423.186C405.24 422.981 403.376 422.775 399.396 422.326C402.977 428.989 405.675 434.028 408.386 439.068C409.426 438.68 410.455 438.292 411.496 437.905C410.83 434.428 408.374 429.728 409.777 427.669C417.037 417.021 407.611 409.558 406.244 400.606C404.465 389.001 393.684 376.245 407.418 364.943C407.793 378.704 404.151 393.132 415.731 408.093C420.232 394.889 424.08 383.598 427.927 372.308C429.198 370.455 425.786 366.833 425.435 367.112C421.708 370.055 418.477 373.617 415.101 376.996C416.106 371.23 417.715 362.775 421.297 361.83C425.991 360.594 432.247 365.282 440.911 368.602C438.031 363.223 437.051 358.535 434.316 357.009C430.553 354.901 424.83 353.459 421.103 354.864C415.888 356.827 411.75 361.648 407.152 365.246C408.374 361.539 409.596 357.844 411.629 351.666C404.018 354.404 395.112 355.47 394.58 358.172C392.765 367.475 393.878 377.348 393.878 386.106C389.51 387.632 384.343 389.449 379.176 391.254C378.511 384.144 377.845 377.045 377.18 369.934C377.954 369.789 378.741 369.643 379.515 369.498C380.568 371.993 381.609 374.489 383.593 379.213C385.226 374.331 386.291 371.206 387.308 368.081C389.389 361.709 387.259 358.838 380.374 358.995C372.618 359.177 364.717 359.165 358.485 351.097C375.716 343.901 356.247 329.522 365.963 320.086C367.548 327.729 369.049 334.961 370.9 343.914C373.586 340.897 375.934 339.492 376.26 337.699C378.269 326.712 378.245 315.058 381.972 304.749C385.686 294.501 392.341 285.052 398.936 276.173C408.507 263.284 419.361 251.352 429.222 238.668C431.11 236.234 430.952 232.212 431.727 228.917C428.218 229.959 423.777 230.031 421.393 232.272C417.195 236.209 414.254 241.491 410.782 246.203L408.567 244.762C411.834 240.062 414.484 234.707 418.526 230.819C424.515 225.04 424.261 220.171 419.615 213.762C414.073 206.131 409.342 197.893 404.538 189.765C403.764 188.445 404.429 186.276 404.429 184.096C412.657 190.08 420.208 195.895 428.085 201.213C435.466 206.203 441.056 206.058 446.283 196.852C450.397 189.595 457.669 184.12 463.538 177.857C464.324 178.584 465.099 179.299 465.885 180.025C463.755 182.497 461.711 185.053 459.472 187.427C456.556 190.528 452.926 193.12 450.651 196.609C448.969 199.165 448.957 202.824 448.207 205.985C450.808 204.229 453.773 202.836 455.927 200.631C459.968 196.476 463.538 191.861 467.301 187.439C468.124 188.166 468.946 188.905 469.781 189.632C466.43 193.653 463.09 197.675 459.738 201.697C460.21 202.581 460.67 203.466 461.142 204.35C465.788 203.914 470.447 203.563 475.081 203.005C497.188 200.34 516.62 189.959 535.871 180.098C554.578 170.516 573.877 169.159 593.988 170.068C625.702 171.497 657.44 172.454 689.118 174.429C696.39 174.877 703.456 178.657 710.607 180.934C717.178 183.03 723.603 185.683 730.294 187.221C758.838 193.811 780.739 209.183 799.663 231.921C821.637 258.305 836.943 288.856 857.259 316.124C857.949 317.045 858.022 318.426 859.062 321.745C848.16 316.427 838.855 311.897 829.562 307.366C828.933 308.081 828.316 308.796 827.687 309.51C829.974 314.634 832.249 319.746 834.898 325.67C837.476 324.156 839.726 322.848 843.187 320.825C851.088 344.846 850.144 367.826 843.889 391.097C839.69 377.154 853.121 358.305 829.453 348.42C833.676 375.519 838.105 401.491 818.128 423.707C818.927 424.083 819.725 424.458 820.524 424.834C825.194 421.188 829.865 417.541 834.523 413.895C835.092 414.477 835.673 415.046 836.242 415.627C830.373 422.363 824.517 429.086 818.648 435.821C819.132 436.475 819.628 437.13 820.112 437.784C826.295 435.022 832.491 432.272 838.674 429.51C839.097 430.14 839.533 430.77 839.956 431.4C834.027 436.257 827.953 440.933 822.23 446.021C818.818 449.062 814.655 452.236 813.106 456.233C807.661 470.261 803.209 484.676 797.679 501.03C804.068 499.274 811.449 498.522 817.535 495.312C832.769 487.269 849.031 480.025 854.404 460.861C855.118 458.317 861.216 457.735 863.406 455.082C873.812 442.472 884.024 429.667 893.704 416.5C898.315 410.225 901.703 403.041 905.369 396.112C906.518 393.932 906.966 391.303 907.377 388.82C907.632 387.257 906.615 384.446 907.22 384.119C919.308 377.481 913.561 364.774 916.307 355.252C918.739 346.821 916.198 336.597 914.565 327.39C911.467 309.958 908.527 292.369 903.421 275.482C900.42 265.549 893.898 256.488 888.066 247.633C874.707 227.354 860.926 207.366 846.998 187.475C844.433 183.805 840.646 180.861 837.028 178.075C818.866 164.096 801.503 148.772 781.997 136.997C770.151 129.85 759.455 120.764 745.31 115.87C734.783 112.236 725.732 111.328 715.23 110.601C705.949 109.971 697.067 103.817 687.944 100.256C685.73 99.3957 681.749 98.0389 681.144 98.8384C673.86 108.493 664.095 103.987 655.782 102.739C630.493 98.9354 605.41 99.5774 580.29 103.514C579.637 103.611 578.996 103.878 578.354 103.841C543.906 101.903 516.124 121.818 485.511 132.394C481.022 133.944 477.513 138.136 473.169 140.353C470.616 141.649 466.248 142.945 464.53 141.709C456.592 135.967 452.563 140.437 448.848 146.628C445.351 152.454 442.363 158.887 434.038 152.042C432.985 151.17 429.319 151.8 428.133 152.999C409.172 172.139 391.688 192.987 371.239 210.322C352.98 225.804 342.235 245.852 331.152 265.585C322.682 280.667 314.986 297.142 316.256 315.725C317.007 326.724 317.442 337.748 318.047 348.759C318.096 349.74 318.797 350.988 318.41 351.642C308.162 369.038 323.589 382.872 324.981 398.668C325.973 409.898 328.768 420.982 330.946 433.132C323.323 429.074 320.552 422.993 319.451 415.155C317.515 401.382 318.18 386.918 308.585 374.973C306.601 372.502 306.939 367.681 307.169 363.998C307.617 356.742 309.372 349.534 309.468 342.29C309.892 308.359 316.329 276.73 334.866 247.039C357.13 211.364 388.022 184.386 417.654 155.858C421.309 152.333 425.532 148.105 426.693 143.49C431.243 125.392 441.128 110.698 453.156 96.9971C461.166 87.8875 468.922 78.5356 476.472 69.0384C484.604 58.8022 493.921 50.371 506.577 46.1675C508.743 45.4528 511.804 44.7623 512.627 43.139C519.355 29.9107 531.915 27.5364 544.583 25.2469C560.144 22.4365 575.62 18.984 591.289 17.0579C608.52 14.938 626.113 11.9459 643.21 13.3995C683.37 16.7914 722.03 25.5376 756.128 49.7774C787.963 72.406 814.934 100.607 827.881 136.076C838.432 164.98 858.469 185.21 873.594 209.729C883.855 226.361 892.192 244.192 901.352 261.503C901.957 262.654 901.932 264.301 902.779 265.137C918.618 280.922 917.251 302.06 920.409 321.757C922.672 335.882 927.125 349.874 922.152 364.434C918.703 374.513 917.88 385.9 912.738 394.901C901.582 414.404 890.752 434.997 875.458 450.988C855.674 471.678 838.722 496.887 809.585 506.796C804.189 508.638 797.812 508.129 792.851 510.636C787.055 513.556 782.324 518.583 775.246 524.18C792.016 531.86 806.101 537.19 819.023 544.555C832.031 551.969 845.062 560.146 856.037 570.212C884.012 595.906 912.254 621.587 937.603 649.776C952.244 666.057 961.549 687.183 973.093 706.226C974.23 708.104 974.218 710.684 973.528 713.531C949.316 668.758 918.316 630.236 877.127 600.388C876.74 600.763 875.845 601.248 875.881 601.635C877.152 615.191 878.095 628.795 880.116 642.241C880.685 646.008 884.133 649.558 886.82 652.732C904.994 674.197 925.576 693.846 937.494 720.024H931.577C908.636 682.835 881.241 650.212 840.331 631.302C853.666 660.872 867 690.454 880.346 720.024H647.833C651.91 714.706 655.492 708.819 660.441 704.53C661.506 703.61 667.507 708.516 671.331 710.563C671.899 710.866 673.025 710.151 674.489 709.751C673.424 706.578 672.468 703.731 672.166 702.835C676.207 699.673 680.067 697.977 681.894 695.021C704.896 657.783 700.274 614.307 675.287 582.035C674.38 580.872 672.42 579.503 671.234 579.734C657.634 582.326 642.013 580.569 631.594 591.084C620.922 601.841 609.851 613.737 603.885 627.305C590.624 657.492 580.448 689.037 569.025 720.024H565.081V720ZM686.964 72.4787C689.142 76.6217 691.756 81.5762 694.357 86.5308C697.37 83.6477 700.383 80.7525 703.795 77.4817C704.703 84.3866 704.085 92.624 714.528 92.515C715.29 89.0868 715.956 86.1068 716.621 83.1268C721.897 98.4023 723.022 99.2382 733.222 95.2527C735.437 97.7967 737.131 100.825 739.708 102.509C750.804 109.765 762.02 116.888 773.515 123.514C777.557 125.84 780.654 124.132 779.771 118.717C779.263 115.58 778.573 112.467 777.968 109.341L781.054 108.517C782.082 110.904 784.345 113.52 783.945 115.64C781.441 129.05 791.218 134.55 799.542 141.043C805.75 145.876 811.908 150.77 818.297 155.362C820.875 157.215 823.996 158.305 826.864 159.747C826.32 151.861 824.166 145.78 821.625 139.892C806.306 104.471 783.873 74.3927 751.638 52.9997C712.616 27.0882 668.221 20.4861 622.435 21.0797C608.35 21.2614 594.181 21.8308 580.242 23.6963C567.537 25.3922 554.675 27.8998 542.672 32.2487C532.641 35.8707 519.694 35.58 514.333 48.0451C514.237 48.2632 513.765 48.3237 513.45 48.4449C496.28 54.841 483.188 66.3128 472.443 80.9221C461.009 96.4762 449.03 111.619 437.777 127.294C434.57 131.764 432.235 137.663 438.188 142.279C444.71 147.342 447.033 139.892 451.075 137.542C454.801 135.374 459.702 130.734 462.195 131.764C471.064 135.422 475.371 130.54 480.78 125.38C486.031 120.365 491.464 116.404 491.779 107.839C491.961 102.763 495.554 97.8209 497.611 92.8179L500.394 93.8718C499.208 99.1049 498.023 104.338 496.813 109.632C499.003 109.983 499.813 110.383 500.249 110.129C515.422 101.491 532.072 94.2473 535.097 73.8476C535.327 72.2849 536.029 70.4194 537.166 69.4745C538.449 68.3964 540.469 68.2025 543.47 67.185C540.01 75.5678 537.287 82.1577 534.468 89.002C552.097 94.2594 547.076 73.0723 558.256 70.4678C557.264 75.1559 556.587 78.4024 555.897 81.6489C557.034 82.2425 558.172 82.824 559.321 83.4175C563.762 76.3794 568.19 69.3291 572.631 62.291C573.466 62.8846 574.289 63.4903 575.124 64.0838C574.011 66.2522 572.075 68.3843 571.99 70.589C571.869 73.7991 573.079 77.0457 573.72 80.28C576.08 78.3176 578.863 76.6943 580.69 74.32C583.279 70.9524 585.167 67.0396 587.357 63.357C588.192 63.89 589.027 64.423 589.862 64.956C588.276 68.8082 586.703 72.6604 585.651 75.2165C611.218 77.6635 635.854 79.5653 660.332 82.6059C669.576 83.7567 672.287 80.9221 671.718 72.2849C671.549 69.6804 673.243 66.9669 674.549 62.8119C676.425 71.1462 677.707 76.8155 678.99 82.4969C681.688 79.1171 684.387 75.7374 686.976 72.4908L686.964 72.4787ZM839.605 616.705C843.477 601.635 829.357 560.618 819.556 558.837C821.709 564.64 823.863 570.454 826.029 576.257C825.509 576.378 824.989 576.487 824.468 576.608C819.628 568.589 814.8 560.557 809.96 552.538C809.113 552.974 808.254 553.41 807.407 553.834C811.098 563.913 814.8 573.992 818.491 584.083C817.801 584.301 817.111 584.506 816.41 584.725C815.091 583.622 813.772 582.532 812.465 581.43C811.691 582.265 810.904 583.089 810.13 583.925C813.832 587.45 818.418 590.418 821.008 594.634C823.839 599.261 823.718 605.887 826.949 610.03C829.623 613.471 835.298 614.573 839.605 616.693V616.705ZM815.502 417.117C820.245 412.514 823.658 410.455 825.255 407.438C835.007 389.147 832.357 369.256 819.072 353.823C815.393 349.559 812.296 348.129 807.625 352.078C802.797 356.161 799.47 362.533 804.794 365.985C812.284 370.831 810.142 376.766 810.602 382.847C810.856 386.3 811.521 389.728 812.005 393.168C818.951 384.786 819.87 376.9 814.22 368.42C812.913 366.457 814.026 362.884 814.026 360.049C829.611 378.244 815.175 395.967 815.49 417.117H815.502ZM847.349 586.336C843.877 580.303 840.9 575.13 837.936 569.958C839.291 586.723 842.11 602.883 845.486 618.934C847.398 628.032 851.863 623.452 855.347 619.322C857.525 623.683 859.256 627.159 861.579 631.811C867.169 618.401 859.304 585.718 849.588 578.377C848.886 580.884 848.257 583.138 847.361 586.336H847.349ZM425.362 283.369C419.941 286.034 416.13 286.869 413.855 289.195C402.675 300.655 391.664 312.296 381.233 324.422C379.527 326.409 380.991 331.133 380.991 334.598C399.529 320.909 419.336 309.934 425.362 283.369ZM873.062 640.073C878.858 627.741 872.977 597.396 863.358 589.824C865.027 608.044 865.475 624.7 873.062 640.073ZM716.464 563.029C716.706 564.119 716.948 565.221 717.202 566.312C722.211 565.754 727.342 565.657 732.182 564.422C734.142 563.925 735.485 560.933 737.106 559.08C734.565 557.868 731.492 555.094 729.58 555.736C724.922 557.323 720.808 560.485 716.476 563.017L716.464 563.029ZM752.171 543.404C751.167 544.095 750.174 544.797 749.17 545.488C749.327 552.417 752.655 556.669 759.733 557.771C760.568 557.081 761.403 556.39 762.226 555.712C758.874 551.605 755.523 547.511 752.171 543.404ZM809.174 575.47C809.936 575.021 810.699 574.561 811.461 574.113C807.407 566.602 803.366 559.092 799.312 551.581C798.308 552.126 797.292 552.683 796.287 553.229C800.583 560.642 804.878 568.056 809.174 575.47Z" fill="#000000"/>
<path d="M774.665 352.539C779.989 360.873 786.934 368.602 790.334 377.663C799.699 402.593 808.714 428.287 799.954 455.252C790.624 483.986 777.109 510.431 750.138 527.123C724.438 543.029 698.132 557.723 667.955 563.271C659.969 564.737 651.656 564.361 643.501 564.943C615.441 566.93 587.49 570.37 559.248 565.9C527.438 560.873 499.087 550.37 475.637 526.59C454.874 505.549 437.595 483.053 432.259 453.617C427.431 426.99 430.529 401.939 452.962 382.739C459.181 377.421 462.424 376.536 466.732 385.077C469.793 391.121 475.335 396.839 481.179 400.388C502.983 413.641 526.845 420.328 552.23 424.41C588.385 430.225 624.092 429.51 659.872 424.071C687.097 419.94 714.576 414.865 738.074 399.771C749.872 392.2 759.358 380.631 768.675 369.825C771.773 366.24 771.095 359.383 772.148 354.029C772.983 353.532 773.818 353.048 774.652 352.551L774.665 352.539ZM553.344 473.374C553.924 463.041 554.445 452.72 555.147 442.399C555.219 441.261 556.332 440.182 556.962 439.08C558.123 437.021 559.297 434.949 560.458 432.89C558.208 433.932 555.945 434.973 555.34 435.252C549.992 432.817 545.66 430.128 540.941 428.808C528.357 425.295 515.35 423.15 503.032 418.935C495.227 416.27 490.775 418.22 488.137 424.967C483.623 436.512 479.715 448.287 475.65 459.989C473.072 467.414 475.831 472.054 483.381 473.968C502.354 478.789 521.254 483.901 540.36 488.068C542.599 488.553 546.326 484.228 548.685 481.551C550.815 479.141 552.013 475.918 553.622 473.059C553.332 475.991 553.198 478.959 552.702 481.854C551.638 488.044 554.481 490.903 560.35 491.993C586.655 496.899 612.44 493.241 637.959 486.954C640.294 486.373 643.138 481.793 643.162 479.044C643.21 472.587 641.419 466.155 640.875 459.661C639.254 440.376 630.239 433.193 611.327 434.961C602.3 435.809 592.947 435.579 583.981 434.247C569.243 432.066 563.738 435.143 559.878 449.825C557.809 457.699 555.546 465.512 553.356 473.362L553.344 473.374ZM597.242 561.999C606.826 561.066 619.482 559.782 632.151 558.607C644.348 557.481 651.535 549.183 650.107 536.742C648.837 525.718 645.763 514.828 645.364 503.804C644.965 492.538 639.967 492.841 631.631 495.228C607.612 502.096 583.182 503.247 558.619 498.704C552.206 497.517 549.871 500.655 549.423 505.743C548.637 514.537 548.213 523.405 548.25 532.236C548.31 546.191 555.824 555.785 569.642 558.801C577.58 560.533 585.844 560.751 597.23 562.011L597.242 561.999ZM738.982 511.121C735.424 501.66 731.008 489.462 726.059 477.505C725.635 476.488 721.449 476.342 719.259 476.863C698.907 481.66 678.663 486.954 658.251 491.472C652.201 492.817 649.708 495.01 650.712 501.285C652.382 511.63 653.326 522.096 655.201 532.393C657.779 546.506 672.117 557.142 683.661 552.914C698.338 547.547 712.664 541.163 726.918 534.731C735.485 530.855 739.405 523.562 738.97 511.133L738.982 511.121ZM468.269 481.733C468.269 486.203 469.2 489.486 468.111 491.824C462.013 504.858 471.281 511.715 479.134 518.196C491.392 528.286 503.903 538.365 517.552 546.336C528.151 552.526 538.388 546.275 541.05 534.028C542.502 527.341 542.998 520.449 544.027 513.665C546.556 497.045 545.612 496.827 529.204 493.459C505.04 488.505 480.611 483.901 459.411 469.825C454.233 466.385 448.412 463.877 442.895 460.946C442.108 461.648 441.322 462.363 440.535 463.065C445.763 474.077 450.978 485.101 456.205 496.112C457.33 495.906 458.455 495.7 459.581 495.482C462.11 491.472 464.651 487.451 468.269 481.721V481.733ZM658.674 486.712C678.833 481.26 699.052 476.039 719.029 470.019C721.049 469.413 723.143 463.659 722.562 460.849C720.832 452.539 718.218 444.337 715.133 436.415C710.486 424.495 704.231 421.394 691.32 423.829C682.003 425.585 672.795 428.626 663.417 429.244C654.003 429.861 649.055 434.513 648.28 442.787C647.252 453.738 648.111 464.846 647.542 475.858C647.106 484.156 650.676 486.578 658.674 486.712ZM718.436 433.181C721.062 441.212 724.329 452.03 728.406 462.532C728.902 463.804 734.311 464.555 736.489 463.526C745.008 459.492 753.393 455.034 761.367 450.007C784.078 435.725 783.994 435.591 768.808 414.053C757.507 398.026 756.853 397.869 738.389 405.246C726.991 409.801 718.896 416.888 718.436 433.193V433.181ZM782.953 442.678C768.046 451.206 753.26 459.371 738.837 468.141C735.739 470.031 731.383 474.84 732.012 477.021C734.916 486.978 738.486 496.972 743.531 505.997C749.666 516.972 757.398 517.953 765.154 508.226C774.253 496.803 782.046 484.204 789.33 471.497C795.973 459.892 793.299 451.085 782.965 442.666L782.953 442.678ZM454.511 387.766C443.609 394.223 434.776 410.419 435.381 427.305C435.611 433.944 437.668 442 441.903 446.663C448.328 453.738 457.233 458.668 465.473 463.877C466.732 464.677 471.705 462.666 472.225 461.067C475.855 449.91 479.473 438.656 481.639 427.16C483.006 419.916 482.498 412.296 475.335 406.712C468.281 401.2 462.013 394.671 454.511 387.778V387.766ZM786.402 429.28C792.827 425.234 795.464 420.037 793.395 413.169C790.092 402.193 786.752 391.206 782.796 380.461C781.513 376.972 778.234 374.198 775.499 370.613C762.347 390.988 765.384 406.094 786.414 429.28H786.402ZM543.603 540.667C540.009 545.476 537.698 548.577 534.443 552.95C540.977 554.598 545.721 555.785 552.835 557.578C549.29 551.085 547.015 546.917 543.603 540.679V540.667ZM657.307 546.518C656.169 546.506 655.02 546.494 653.882 546.481C653.181 549.449 652.467 552.429 651.765 555.397C655.189 556.003 658.614 556.596 662.026 557.202C662.449 556.33 662.861 555.47 663.284 554.598C661.288 551.908 659.303 549.207 657.307 546.518Z" fill="#000000"/>
<path d="M503.056 379.226C503.722 375.373 503.467 371.061 505.186 367.754C519.161 340.813 539.997 339.965 564.064 349.644C566.799 350.746 569.388 353.835 570.598 356.633C571.869 359.565 571.385 363.247 571.675 366.603C568.711 365.61 565.105 365.367 562.891 363.49C547.148 350.092 535.472 350.286 520.988 364.798C515.858 369.946 510.897 375.264 505.863 380.498L503.044 379.238L503.056 379.226Z" fill="#000000"/>
<path d="M708.405 337.76C695.966 337.082 690.001 346.131 683.927 354.622C681.458 358.075 680.853 365.258 674.924 360.849C672.408 358.971 671.428 351.231 673.17 348.032C686.492 323.684 725.333 320.861 741.729 342.751C743.096 344.58 742.491 347.899 742.793 350.528C740.482 350.092 737.929 350.164 735.921 349.147C727.124 344.725 718.497 339.989 709.797 335.374C709.337 336.161 708.865 336.96 708.405 337.748V337.76Z" fill="#000000"/>
<path d="M613.105 410.334C601.465 408.141 595.984 399.989 597.92 389.692C599.989 378.656 601.296 367.487 603.05 355.591C610.492 358.329 610.819 364.919 609.233 370.625C605.579 383.805 602.506 396.451 613.674 407.693C613.916 407.935 613.432 408.905 613.093 410.334H613.105Z" fill="#000000"/>
<path d="M813.118 239.783C794.993 220.861 781.247 197.203 752.51 187.451C768.348 181.915 812.187 222.642 813.118 239.783Z" fill="#000000"/>
<path d="M340.819 358.063C336.693 353.423 330.075 349.28 329.034 344.023C327.425 335.931 329.651 327.088 332.047 318.802C332.047 325.695 331.841 332.599 332.18 339.468C332.265 341.285 334.007 343.017 334.999 344.798C336.367 343.042 338.702 341.394 338.908 339.516C339.706 332.297 339.815 325.004 340.178 317.748C341.231 317.772 342.283 317.796 343.336 317.821C343.336 322.787 343.034 327.778 343.433 332.721C343.748 336.742 345.502 340.679 345.526 344.665C345.55 349.026 344.328 353.387 343.651 357.748C342.707 357.857 341.763 357.966 340.819 358.063Z" fill="#000000"/>
<path d="M849.297 402.726C859.8 378.608 856.545 353.896 852.468 328.372C864.979 338.717 862.74 390.576 849.297 402.726Z" fill="#000000"/>
<path d="M493.606 315.155C502.221 296.076 553.029 285.234 559.345 301.939C535.424 293.617 514.249 298.39 493.606 315.155Z" fill="#000000"/>
<path d="M885.61 405.379C882.282 402.763 879.874 400.873 875.917 397.772C878.434 390.286 881.556 380.97 884.823 371.267C891.139 382.932 892.434 394.114 885.61 405.379Z" fill="#000000"/>
<path d="M848.523 443.586C842.025 452.175 835.54 460.764 829.042 469.365C828.122 468.747 827.191 468.129 826.271 467.523C829.55 462.448 832.841 457.36 836.834 451.182C831.849 452.72 827.796 453.968 823.742 455.216C823.222 453.956 822.701 452.696 822.181 451.424C829.998 447.523 837.814 443.623 845.631 439.722C846.599 441.006 847.555 442.29 848.523 443.586Z" fill="#000000"/>
<path d="M400.025 465.101C386.896 461.297 378.184 449.51 378.644 437.033C385.698 446.288 392.402 455.107 400.025 465.101Z" fill="#000000"/>
<path d="M769.679 181.988C780.799 178.487 792.343 185.974 797.025 198.705C788.229 193.339 779.444 187.96 769.679 181.988Z" fill="#000000"/>
<path d="M360.47 398.45C364.487 409.135 368.444 419.625 372.437 430.225C363.12 425.646 356.997 408.977 360.47 398.45Z" fill="#000000"/>
<path d="M830.833 229.862C823.343 220.619 815.853 211.364 808.363 202.121C809.065 201.528 809.779 200.934 810.481 200.341C821.165 206.918 825.956 218.426 832.805 228.227C832.152 228.772 831.486 229.317 830.833 229.862Z" fill="#000000"/>
<path d="M353.476 346.906V321.649C354.008 321.552 354.529 321.455 355.061 321.358C356.38 329.704 357.699 338.063 359.03 346.409L353.476 346.906Z" fill="#000000"/>
<path d="M819.543 238.269C813.614 229.85 807.698 221.431 801.769 213.012C802.882 212.236 803.995 211.461 805.12 210.674C810.868 219.214 816.615 227.766 822.363 236.307C821.419 236.961 820.487 237.603 819.543 238.257V238.269Z" fill="#000000"/>
<path d="M861.772 398.802C864.301 389.147 866.842 379.504 869.371 369.849L872.735 370.722C870.121 380.364 867.508 389.995 864.894 399.637C863.854 399.359 862.813 399.08 861.772 398.802Z" fill="#000000"/>
<path d="M413.649 223.938C408.737 231.304 403.824 238.669 398.911 246.034C398.004 245.428 397.096 244.823 396.189 244.217C401.065 236.912 405.954 229.608 410.83 222.315C411.774 222.86 412.705 223.405 413.649 223.95V223.938Z" fill="#000000"/>
<path d="M800.922 186.301C795.21 181.104 790.092 176.452 784.526 171.376C792.803 170.347 798.538 175.653 800.922 186.301Z" fill="#000000"/>
<path d="M870.121 331.206V357.954C869.347 357.954 868.561 357.966 867.786 357.978V331.449C868.561 331.364 869.347 331.291 870.121 331.206Z" fill="#000000"/>
<path d="M877.091 359.916C878.446 349.813 879.814 339.698 881.169 329.595C881.883 329.656 882.597 329.716 883.298 329.765C882.343 339.916 881.399 350.068 880.443 360.219C879.318 360.11 878.204 360.013 877.079 359.904L877.091 359.916Z" fill="#000000"/>
<path d="M893.414 333.496V357.142L889.917 357.057C890.304 349.22 890.679 341.394 891.067 333.556C891.853 333.532 892.627 333.508 893.414 333.496Z" fill="#000000"/>
<path d="M729.144 168.832C734.432 170.516 739.72 172.212 745.02 173.896C744.693 175.144 744.366 176.379 744.04 177.627C738.667 176.379 733.295 175.132 727.922 173.872C728.334 172.188 728.733 170.504 729.144 168.832Z" fill="#000000"/>
<path d="M407.26 212.6C402.88 218.245 398.5 223.89 394.12 229.535L391.797 227.766C396.141 222.024 400.497 216.282 404.84 210.54C405.651 211.231 406.45 211.921 407.26 212.612V212.6Z" fill="#000000"/>
<path d="M399.226 412.599C395.753 406.324 392.293 400.049 388.82 393.774C389.885 393.266 390.962 392.757 392.027 392.248C397.072 397.929 400.932 404.132 399.008 412.793C398.996 412.805 399.226 412.599 399.226 412.599Z" fill="#000000"/>
</g>
<defs>
<clipPath id="clip0_50_1648">
<rect width="667" height="707" fill="white" transform="translate(307 13)"/>
</clipPath>
</defs>
</svg>
