<svg width="1280" height="720" viewBox="0 0 1280 720" fill="none" xmlns="http://www.w3.org/2000/svg">
<g clip-path="url(#clip0_43_429)">
<path d="M705.266 682.254C735.093 678.286 764.941 674.319 794.768 670.351C794.893 670.708 795.038 671.064 795.163 671.442C787.03 673.773 778.939 676.25 770.765 678.391C721.677 691.239 672.027 700.833 621.317 703.751C604.136 704.738 586.082 708.265 569.941 704.318C555.11 700.686 540.738 698.944 526.032 699.573C503.006 700.539 480.064 703.373 457.038 704.675C439.774 705.661 422.448 705.326 405.142 705.829C350.917 707.425 296.712 700.644 242.549 704.108C200.554 706.795 158.683 711.582 116.792 715.696C107.619 716.599 98.5504 718.551 89.44 720.021H58.24C61.5056 719.181 64.7088 718.027 68.016 717.544C85.7792 714.983 103.584 712.694 121.347 710.154C148.678 706.228 175.926 701.505 203.341 698.398C227.032 695.711 250.89 693.716 274.726 693.338C309.962 692.793 345.238 693.926 380.494 694.388C392.496 694.535 404.56 695.564 416.499 694.829C430.331 693.968 444.08 691.596 457.87 689.875C453.69 689.098 449.634 689.602 445.557 689.728C434.595 690.084 422.49 693.317 413.005 689.707C403.749 686.18 396.011 686.894 387.358 687.943C385.674 688.153 383.885 687.418 382.158 687.103C382.117 686.516 382.096 685.928 382.054 685.34C384.384 684.584 386.714 683.828 389.251 682.989C380.432 680.742 370.698 692.457 361.462 679.525C402.73 678.517 442.686 677.53 482.643 676.565C482.602 675.2 482.581 673.857 482.539 672.492C435.51 674.213 388.461 675.956 341.432 677.677C341.39 676.208 341.349 674.738 341.307 673.269C386.568 671.652 431.85 670.036 477.922 668.377C475.717 665.774 474.24 664.011 472.43 661.869C476.798 659.413 480.75 657.188 484.723 654.984C484.994 653.724 485.285 652.465 485.555 651.205C479.419 647.573 473.658 642.115 467.043 640.687C456.352 638.399 445.099 638.042 434.096 638.105C390.666 638.357 347.069 638.084 307.008 659.203C306.114 659.686 304.99 660.4 304.138 660.211C283.046 655.592 260.333 654.333 241.342 645.222C220.626 635.271 217.942 624.795 240.843 609.302C234.229 599.813 228.966 588.918 220.771 581.192C201.49 562.949 177.112 563.264 154.19 566.455C151.528 560.535 150.675 553.754 146.952 551.235C131.976 541.053 115.835 532.026 96.8448 536.099C80.6832 539.562 64.3344 543.404 49.1504 549.723C37.4608 554.594 27.248 557.281 15.2672 551.886C10.7744 549.87 5.11679 550.5 -0.020813 549.933C-0.020813 548.527 -0.020813 547.141 -0.020813 545.734C6.48959 546.028 13.8736 544.412 19.3232 546.973C36.192 554.909 47.9856 543.047 61.8384 539.29C61.6512 538.198 61.464 537.127 61.2768 536.036C51.7296 537.505 42.1616 538.975 31.3872 540.633C24.0864 531.564 12.3136 529.549 -1.29895e-05 528.94C-1.29895e-05 515.651 -1.29895e-05 502.341 -1.29895e-05 489.053C3.51519 491.866 7.05119 494.7 10.5664 497.513C10.816 499.864 10.192 503.328 11.4816 504.378C15.2048 507.38 19.7184 509.416 24.3152 512.061C24.7312 510.865 25.7296 508.051 27.7056 502.488C28.808 508.177 29.3488 510.949 29.3488 511.012C35.5888 509.458 41.3504 508.009 47.0912 506.561C47.4864 501.334 47.84 496.589 48.2144 491.845C47.4864 492.411 46.7792 492.999 46.0512 493.566C43.5968 490.417 40.5184 487.583 38.8336 484.077C36.4416 479.081 35.0896 473.58 33.3008 468.311C31.9072 466.338 30.5344 464.364 28.4544 461.404V478.304C22.88 474.399 16.9104 472.342 14.8928 468.269C12.2096 462.832 12.6256 455.862 11.7104 449.543C10.6704 449.69 9.60959 449.858 8.56959 450.005C9.06879 453.7 9.56799 457.395 10.0256 460.837C6.57279 463.294 3.28639 465.666 -1.29895e-05 468.059C-1.29895e-05 440.768 -1.29895e-05 413.477 -1.29895e-05 386.185C7.00959 398.046 14.4976 392.861 23.1296 385.199C20.696 379.215 17.888 372.267 15.0592 365.297C19.6768 361.581 11.3776 352.722 20.696 350.875C37.5232 355.724 54.3296 360.573 72.4672 365.801C69.7632 356.333 78.2912 342.309 60.632 344.031C54.7456 346.403 62.8992 358.285 51.792 355.619C49.1712 354.989 47.1952 351.693 44.3248 349.09C37.3152 351.084 29.6816 349.846 23.6496 342.456C22.6304 342.372 21.632 342.288 20.6128 342.225L20.1552 342.372C19.8848 340.357 20.176 338.027 19.2608 336.389C9.54719 319.112 14.56 303.828 32.4272 296.565C33.9872 295.935 35.2144 294.486 36.5872 293.416C36.0256 292.219 35.464 291.002 34.9024 289.805C28.0384 292.723 20.6544 294.822 14.4768 298.79C8.96479 302.317 4.76319 307.964 -1.29895e-05 312.688C-1.29895e-05 297.992 -1.29895e-05 283.297 -1.29895e-05 268.602C1.41439 268.56 2.82879 268.518 4.22239 268.476C4.92959 269.211 5.63679 269.924 6.32319 270.659C7.44639 271.772 8.59039 272.884 9.71359 274.018C9.92159 272.234 10.1088 270.428 10.3168 268.644C6.88479 265.117 3.43199 261.611 -1.29895e-05 258.105C-1.29895e-05 203.522 -1.29895e-05 148.94 -1.29895e-05 94.3362C12.272 106.218 14.7888 122.509 16.64 137.918C20.6752 171.403 22.36 205.181 25.4176 238.812C26.4784 250.484 28.808 262.031 30.576 273.745C39.624 271.436 47.4864 269.441 56.0976 267.258C54.3712 252.71 51.7712 237.658 50.9184 222.521C48.8176 185.195 57.5952 150.535 78.8528 119.612C82.0976 114.91 86.7568 110.795 91.5824 107.709C95.7008 105.085 103.002 101.642 105.269 103.384C108.742 106.05 110.594 112.873 110.531 117.891C110.323 131.41 109.845 145.098 107.474 158.366C101.962 189.163 95.2224 219.708 89.128 250.401C87.9216 256.468 87.3808 262.661 86.5488 268.686C111.842 276.306 128.253 292.324 136.386 332.379C144.581 329.587 152.797 326.774 161.034 323.982C161.346 324.906 161.637 325.809 161.949 326.732C153.982 332.379 139.922 329.818 137.238 344.975C150.301 341.952 162.136 339.223 173.95 336.494C174.158 337.502 174.387 338.488 174.595 339.496C161.658 344.073 145.954 343.233 136.677 355.01C137.155 356.018 137.654 357.005 138.133 358.012C151.237 358.789 164.341 359.587 177.445 360.363C177.403 361.413 177.362 362.442 177.299 363.491C168.501 363.491 159.682 363.282 150.904 363.575C145.558 363.764 137.405 362.799 135.429 365.717C130.042 373.715 125.736 383.183 123.698 392.651C117.104 423.134 139.173 442.678 153.005 465.099C156.541 470.83 158.829 479.92 170.165 477.548C175.178 476.499 177.674 486.512 172.848 491.824C166.92 498.332 160.514 505.364 154.71 502.782C161.45 504.756 172.848 508.114 186.514 512.124C184.496 506.54 183.456 502.383 181.563 498.646C173.534 482.713 174.346 479.207 188.989 469.739C182.333 450.719 186.368 439.529 204.568 429.893C212.742 425.569 221.79 422.987 230.381 419.481C233.563 418.179 236.579 416.479 239.304 414.085C233.147 412.805 227.053 423.973 222.206 414.274C219.773 409.425 221.79 402.308 221.79 395.359C208.624 397.774 206.648 389.922 207.542 379.467C209.123 361.119 210.87 342.771 211.973 324.381C212.285 319.112 210.662 313.716 209.934 308.363C212.472 309.56 214.989 310.777 216.403 311.449C221.478 306.642 226.096 302.275 230.922 297.698C227.49 293.227 223.413 287.223 216.174 295.41C215.342 296.25 214.531 297.069 213.699 297.908C206.253 299.336 209.518 304.416 210.142 308.573C200.096 301.267 202.571 289.658 201.906 279.959C201.219 269.798 195.79 254.872 186.95 249.54C172.723 240.954 170.56 234.991 172.245 217.189C172.661 212.697 169.374 207.385 166.691 203.166C162.136 195.986 160.95 185.951 148.533 185.132C145.142 184.901 142.438 174.237 139.11 167.729C135.762 168.946 131.144 170.857 126.381 172.326C117.894 174.951 112.091 171.802 112.112 163.047C112.112 150.787 113.901 138.527 115.128 123.685C119.496 128.597 121.68 131.033 123.698 133.3C120.39 144.447 111.259 154.734 118.664 167.183C119.662 168.862 124.259 168.38 127.171 168.883C126.339 161.662 125.694 156.036 125.07 150.514C136.906 144.846 134.077 160.591 144.144 161.746C140.504 154.839 137.758 149.717 135.075 144.552C124.384 124.021 112.486 103.993 103.418 82.7689C96.1792 65.8273 114.504 41.601 133.12 41.9789C136.739 42.0419 141.149 46.7234 143.645 50.3552C148.054 56.7582 151.299 64.0009 154.71 70.2989C158.33 67.2548 161.158 64.8826 163.966 62.5104C166.462 65.9323 169.187 69.1862 171.35 72.8181C172.349 74.4975 171.891 77.0167 172.661 78.9271C178.963 94.4622 173.846 106.827 162.344 117.471C159.64 119.276 156.957 121.061 154.19 122.908C159.765 134.832 164.861 145.707 169.936 156.602C172.058 146.547 177.653 141.97 188.573 141.298C185.016 137.561 182.728 133.195 180.606 133.279C175.282 133.51 170.019 135.756 164.258 137.31C163.571 130.823 162.864 124.084 162.157 117.324C165.194 120.746 168.23 124.147 171.87 128.24C187.845 124.357 190.757 126.519 192.317 147.722C212.347 122.362 235.498 105.463 267.717 105.085C299.707 104.707 324.688 117.24 343.803 144.93C345.738 139.199 347.339 134.161 349.128 129.185C353.621 116.757 357.344 115.162 369.387 120.41C371.842 121.481 374.15 122.866 379.309 125.532C377.582 120.956 377.27 118.416 375.877 116.862C373.838 114.574 371.072 112.915 368.555 111.089C359.466 104.581 354.619 97.0024 358.488 84.8682C360.402 78.8432 358.53 71.7054 359.57 65.2605C360.526 59.4034 363.314 54.155 370.698 58.9835C372.216 53.5252 373.173 48.4238 375.149 43.7423C376.002 41.727 378.726 39.8586 380.973 39.2498C384.8 38.2211 388.898 38.2421 395.699 37.5073C398.694 39.3127 404.747 42.3148 410.051 46.3665C413.379 48.9067 417.373 52.7065 417.955 56.4223C420.222 70.8237 421.72 85.3931 422.49 99.9624C422.76 105.148 421.054 110.921 418.725 115.665C404.872 143.922 390 171.676 376.626 200.164C368.68 217.105 362.544 234.949 356.2 252.605C354.099 258.483 353.974 265.054 352.81 271.289C351.333 279.224 349.71 287.16 348.026 295.767C355.597 303.87 364.395 313.066 372.882 322.576C374.608 324.507 375.128 327.53 375.835 329.209C364.125 336.851 352.997 344.136 341.848 351.399C342.118 351.819 342.41 352.239 342.68 352.659C365.539 340.861 388.398 329.083 411.424 317.201C410.8 307.859 410.134 298.034 409.49 288.209C411.112 288.084 412.734 287.937 414.357 287.811C414.814 291.631 415.293 295.452 415.834 299.966C423.862 296.67 430.539 293.395 427.19 282.079C426.026 278.133 427.981 273.241 430.726 269.001C431.205 275.299 431.704 281.576 432.182 287.874C433.077 287.832 433.971 287.79 434.866 287.769C436.696 280.316 430.31 271.289 439.254 262.892C439.254 269.043 438.859 273.157 439.421 277.125C439.691 279.014 441.73 280.652 442.978 282.415C443.955 280.316 445.91 278.154 445.765 276.138C445.037 266.166 443.602 256.258 442.811 246.307C442.624 244.061 444.08 241.688 446.867 239.715C448.198 252.248 449.53 264.802 450.715 275.823C478.691 269.567 506.022 263.458 533.874 257.244C534.165 252.101 534.56 245.32 534.934 238.518C535.933 238.56 536.931 238.602 537.93 238.623C538.325 244.648 538.72 250.673 539.219 258.294H573.81L573.602 258.441C575.286 258.714 576.95 258.987 579.654 259.428V218.008C580.694 217.882 581.755 217.756 582.795 217.63C586.186 223.55 584.605 230.331 584.23 237.07C583.835 244.228 584.147 251.429 584.147 258.861C599.31 264.172 614.099 269.336 629.491 274.732C632.174 249.981 625.29 226.699 609.898 207.343C599.83 194.684 586.477 183.726 572.562 175.475C563.597 170.164 550.95 171.424 539.926 169.996C518.19 167.162 499.179 174.93 479.71 181.395C471.099 184.251 462.592 188.176 454.979 193.11C421.803 214.565 413.13 247.881 410.842 285.795C409.843 283.507 407.867 281.177 407.992 278.951C409.781 243.095 419.91 211.437 451.485 190.255C474.094 175.077 499.782 166.721 525.762 164.244C594.277 157.673 640.099 213.053 634.275 279.728C633.859 284.494 633.526 289.238 633.214 293.29C664.04 304.395 697.112 304.038 724.256 322.618C727.043 324.528 730.496 326.459 731.827 329.272C733.741 333.303 733.99 338.153 734.968 342.645C730.517 343.359 726.066 344.073 721.614 344.786C712.795 346.172 703.976 347.684 695.136 348.922C675.73 351.609 656.282 354.107 636.854 356.837C635.357 357.047 633.298 357.949 632.694 359.146C620.506 382.973 602.742 400.377 576.43 408.102C576.139 409.152 575.848 410.202 575.557 411.251C592.758 422.462 609.877 433.819 627.224 444.799C632.466 448.116 638.435 450.173 643.947 453.07C652.08 457.374 659.277 460.103 668.408 453.406C674.482 448.955 683.093 448.283 686.941 458.843C687.606 460.67 690.456 461.803 692.411 463.042C705.39 471.334 708.885 482.293 703.622 497.198C697.965 513.216 689.624 526.903 672.797 532.845C653.973 539.478 640.453 529.968 641.16 509.71C641.68 494.721 637.416 483.111 626.184 473.077C608.837 457.563 592.322 441.083 575.453 425.002C574.205 426.01 572.957 426.996 571.688 428.004C582.982 455.736 594.214 483.51 605.613 511.2C608.046 517.1 609.315 522.18 603.158 526.903C601.016 528.541 600.413 532.257 599.144 534.923C608.629 541.284 609.627 550.563 601.078 557.638C597.397 560.682 595.754 569.919 587.6 564.293C586.227 567.169 583.939 569.961 583.648 572.942C582.046 589.548 581.506 588.918 566.01 595.216C559.707 597.777 555.61 605.838 550.514 611.402C551.242 612.598 551.99 613.774 552.718 614.97C564.97 610.835 576.971 605.272 589.555 603.193C595.816 602.165 603.97 606.342 609.565 610.499C612.144 612.409 610.688 619.925 611.229 627.315C619.59 636.111 615.077 652.296 598.749 661.89C594.61 664.326 590.346 666.53 584.126 669.952C627.12 672.051 667.93 674.046 708.739 676.04C709.405 677.425 710.07 678.79 710.736 680.176C708.947 680.973 707.179 681.75 705.39 682.548C678.018 681.498 650.666 680.428 623.314 679.378C623.251 680.407 623.21 681.435 623.147 682.443C630.552 685.865 640.39 679.84 646.506 688.216C666.099 686.264 685.672 684.311 705.266 682.38V682.254ZM195.52 239.232C195.624 240.24 195.728 241.247 195.853 242.255C196.685 251.639 198.411 260.183 211.661 259.029C206.024 246.013 202.467 232.43 194.917 221.724C186.202 209.401 181.771 195.377 174.658 182.529C167.024 166.532 159.058 150.682 151.923 134.475C149.261 128.429 146.328 121.439 153.109 115.435C157.706 111.383 162.198 107.184 166.421 102.734C172.619 96.2046 170.144 75.3583 160.826 67.4018C161.2 72.1043 160.285 76.282 161.949 78.2134C166.733 83.7766 164.549 87.7863 160.264 91.4811C156.187 94.987 151.32 97.5692 147.451 101.264C144.789 103.804 143.395 107.667 141.17 110.732C140.338 111.887 138.736 112.474 137.488 113.314C136.344 113.356 135.179 113.419 134.035 113.461C133.016 112.369 131.976 111.299 130.957 110.207C130.624 108.885 130.291 107.541 129.958 106.218C126.048 101.915 121.742 97.9051 118.373 93.2236C115.398 89.0669 113.485 84.1545 111.114 79.5569C110.053 80.0188 108.992 80.4596 107.931 80.9215C109.075 85.3721 109.242 90.4105 111.53 94.1473C119.101 106.596 123.032 120.788 134.763 131.473C142.75 138.737 145.018 152.131 150.675 162.313C155.854 171.592 162.157 180.199 167.96 189.121C169.77 194.6 170.685 200.625 173.597 205.412C179.754 215.615 186.95 225.167 193.731 234.991C193.731 235.684 193.752 236.356 193.773 237.049H193.461C194.147 237.784 194.834 238.497 195.52 239.232ZM216.299 199.387L216.674 199.618C216.091 199.555 215.53 199.513 214.947 199.513C214.594 198.736 214.261 197.959 213.907 197.182C214.053 196.532 214.157 195.86 214.24 195.209C212.243 192.27 210.226 189.352 208.229 186.413C208.894 184.88 209.581 183.369 210.246 181.836C209.394 180.682 208.562 179.506 207.709 178.351L208 178.645C207.043 177.722 206.107 176.777 205.15 175.853C205.837 175.181 206.502 174.489 207.189 173.817C207.501 173.229 207.834 172.641 208.146 172.074C208.146 170.773 208.187 169.492 208.208 168.191C215.28 169.051 218.587 164.013 216.507 155.532C222.997 151.921 230.381 149.276 235.622 144.321C239.034 141.109 249.995 137.247 240.178 128.387C237.37 131.41 235.082 133.888 232.773 136.365C231.837 136.47 230.88 136.575 229.944 136.659C226.824 138.065 223.371 139.031 220.646 141.004C217.485 143.314 214.947 146.505 212.16 149.318C205.899 150.976 201.365 153.831 203.861 161.536C198.141 165.713 191.61 169.345 193.378 178.288C185.453 187.735 186.784 198.064 197.434 210.24C199.368 216.622 198.931 224.642 208.062 226.09C208.666 227.014 209.248 227.959 209.851 228.882C209.914 229.239 209.976 229.596 210.038 229.953C208.582 231.234 205.67 233.291 205.858 233.648C209.144 239.778 212.805 245.677 216.403 251.639C216.528 262.472 223.558 268.056 233.854 274.963C227.614 265.117 232.294 252.689 219.71 249.729C224.702 238.497 219.066 228.358 216.507 217.924C216.133 215.132 215.738 212.34 215.363 209.548C216.632 209.569 217.88 209.59 219.149 209.611C221.146 210.408 223.142 211.227 225.118 212.025C225.701 211.962 226.304 211.899 226.886 211.857C238.472 216.706 250.078 221.556 261.227 226.216C264.43 221.997 266.989 218.617 269.547 215.237C274.123 213.389 273.624 226.657 278.699 218.155C283.546 216.853 289.723 209.988 291.096 221.892C294.653 220.128 298.21 219.183 300.56 216.958C303.118 214.523 305.906 210.933 306.01 207.763C306.072 205.979 301.038 203.816 298.106 202.179C294.923 200.394 291.491 199.03 290.326 198.484C285.958 201.801 282.443 204.467 278.907 207.154C279.531 203.019 281.798 198.253 280.488 194.873C273.437 176.525 278.242 157.379 290.555 147.827C292.718 146.148 293.8 143.02 295.381 140.564C303.514 139.304 311.626 138.044 321.131 136.575C304.699 126.456 301.579 126.477 295.11 135.63C293.8 134.664 292.49 133.72 291.034 132.649C290.68 134.916 290.389 136.827 290.098 138.737C289.307 138.779 288.517 138.8 287.726 138.842C287.082 134.496 286.458 130.151 285.813 125.826C286.042 135.168 285.334 143.251 275.954 145.182C272.064 142.621 269.734 140.165 267.01 139.577C265.054 139.157 260.645 141.361 260.686 142.243C260.832 145.77 262.038 149.36 263.37 152.719C263.952 154.188 265.782 155.133 267.01 156.371C276.952 166.469 277.576 184.44 267.966 194.747C256.547 207.028 242.278 208.939 226.762 205.37C224.682 204.005 222.581 202.641 220.501 201.276L220.605 201.402C220.23 200.017 219.856 198.61 219.482 197.224C218.421 197.938 217.36 198.673 216.32 199.387H216.299ZM378.123 172.158L378.248 172.452C378.227 170.731 378.206 168.988 378.186 167.267V167.75C378.997 167.057 379.85 166.364 380.682 165.692C383.51 162.606 386.859 159.856 389.043 156.371C397.342 143.083 405.787 129.857 413.046 116.001C416.541 109.346 417.477 101.348 419.328 94.8401C403.853 89.9066 391.186 85.8969 378.518 81.8662C386.443 69.795 382.803 57.0521 379.995 44.2672C377.229 55.4566 375.918 66.793 375.003 78.1714C374.92 79.242 377.395 80.5226 378.685 81.6982C378.872 83.5247 378.394 86.3168 379.371 86.9886C384.093 90.2845 388.898 94.1683 394.264 95.6588C402.667 97.9681 402.854 103.51 402.667 109.409C393.952 103.741 385.486 97.5902 376.438 92.5728C369.262 88.5841 367.266 83.5247 368.763 75.6732C369.491 71.8104 368.098 67.5488 367.661 63.4551C366.163 63.56 364.645 63.644 363.147 63.749C363.147 75.4842 361.275 87.6604 363.896 98.7448C365.29 104.602 374.525 108.528 380.162 113.419C383.552 116.379 386.797 119.507 390.166 122.614C389.917 123.706 389.75 124.693 389.438 125.658C385.237 139.325 380.994 152.992 376.792 166.658C376.688 168.38 376.584 170.101 376.48 171.844C374.483 173.649 371.883 175.097 370.594 177.323C367.557 182.592 364.749 188.071 362.544 193.761C358.613 203.921 355.181 214.292 351.541 224.579C347.922 232.682 344.282 240.786 341.12 247.839H354.016C354.474 242.024 355.014 235.285 355.555 228.546C358.675 224.117 362.814 220.086 364.686 215.174C369.803 201.717 373.963 187.882 378.498 174.195C378.56 173.964 378.726 173.691 378.664 173.502C378.518 173.061 378.29 172.641 378.082 172.221L378.123 172.158ZM251.68 378.124C252.533 376.444 253.386 374.744 254.238 373.064C247.624 372.938 241.051 372.876 236.226 382.763C239.907 379.95 241.446 378.796 242.986 377.62H247.978L248.685 377.557L249.392 377.683C250.162 377.83 250.91 377.977 251.68 378.103V378.124ZM228.966 346.76C228.405 343.821 227.843 340.882 227.261 337.943C227.344 329.923 227.157 321.862 227.698 313.884C227.885 311.218 229.923 308.678 231.462 305.361C219.378 313.968 215.405 325.095 215.342 338.656C215.28 350.14 208.998 361.812 215.28 373.463C221.229 369.685 225.493 366.41 230.214 364.1C241.405 358.663 248.872 351.609 243.651 337.775C241.862 332.547 240.053 327.341 238.264 322.114C237.328 322.198 236.392 322.282 235.435 322.366C234.458 330.28 233.48 338.195 232.523 346.109C231.296 346.529 230.09 346.949 228.862 347.369L228.966 346.76ZM336.918 236.923C349.336 228.001 342.555 216.937 340.642 205.811C343.179 207.574 345.696 209.317 349.44 211.92V196.994C345.322 196.322 342.16 195.818 338.978 195.314C339.206 192.06 339.435 188.806 339.602 186.371C343.262 187.211 346.59 187.966 351.957 189.205C342.742 173.082 343.138 155.049 326.581 143.671C327.621 150.115 328.099 153.873 328.869 157.568C330.304 164.433 333.778 171.55 332.883 178.058C332.01 184.461 331.614 189.814 334.963 195.272C334.069 207.742 333.174 220.212 332.301 232.682C331.656 240.702 330.99 248.742 330.346 256.761C331.614 256.824 332.883 256.887 334.131 256.95C335.046 250.275 335.982 243.599 336.898 236.923H336.918ZM345.571 454.98C354.37 451.705 363.189 448.43 371.987 445.156C374.504 445.03 377.104 445.176 379.538 444.694C384.758 443.644 389.896 442.237 396.864 440.537C388.211 463.651 372.57 474.777 354.058 483.174C360.693 505.616 367.058 527.176 373.194 547.876C381.992 549.093 390.042 548.757 396.781 551.613C402.646 554.09 408.678 559.338 411.403 564.964C413.067 568.407 408.616 574.852 406.994 579.66C421.075 583.019 436.28 586.65 451.485 590.261C451.131 591.647 450.798 593.032 450.445 594.439C432.661 590.261 414.877 586.063 395.595 581.528C408.283 567.442 407.805 560.745 396.032 555.517C375.794 546.511 340.205 557.701 326.498 575.776C323.149 580.206 314.954 582.116 308.734 582.767C302.12 583.48 297.461 578.967 295.443 571.913C291.866 559.422 293.405 550.437 305.49 543.047C318.614 535.028 317.824 524.342 315.619 512.334C314.309 505.112 310.398 502.236 302.91 504.923C297.71 506.792 292.198 507.695 286.811 509.038C287.29 505.847 288.538 504.902 289.827 504C298.646 497.723 308.194 492.264 316.077 484.959C323.211 478.346 324.771 460.103 319.03 452.398C312.957 444.232 304.221 449.291 296.483 450.551C295.61 450.698 294.694 450.467 293.8 450.404C293.571 449.396 293.342 448.388 293.134 447.381C299.291 445.953 305.448 444.505 311.667 443.056C296.109 426.325 280.883 438.627 265.595 443.791L264.763 441.104C274.768 437.01 284.794 432.895 294.798 428.802L294.653 427.773C277.472 431.699 260.27 435.625 243.09 439.571C248.726 434.554 255.07 430.733 261.934 428.592C269.027 426.387 276.619 425.8 285.355 424.267C263.099 418.074 247.936 431.237 230.922 439.34C234.499 436.107 238.077 432.853 241.654 429.62C241.363 429.243 241.093 428.886 240.802 428.508C235.144 432.098 229.486 435.688 223.808 439.277C223.33 438.522 222.872 437.766 222.394 437.031L237.12 425.632C236.475 424.855 235.83 424.078 235.186 423.301C222.934 433.819 210.683 444.316 197.33 455.778C201.261 442.825 212.618 437.556 219.877 428.907C208.208 433.336 198.786 440.621 193.253 451.936C191.651 455.232 191.485 460.229 192.816 463.588C193.502 465.33 199.056 466.212 202.093 465.687C211.536 464.07 222.851 468.752 228.467 477.485C211.307 476.394 187.616 498.353 191.734 511.725C184.746 517.372 178.277 518.485 170.435 512.124C166.878 509.227 160.722 508.072 155.917 508.471C127.754 510.802 102.669 523.167 77.1264 534.125C80.3504 534.524 83.3456 534.125 86.2368 533.306C110.656 526.148 131.664 534.776 152.048 547.288C155.272 549.261 159.744 549.576 163.696 549.807C172.994 550.374 183.04 548.401 191.443 551.319C199.68 554.174 203.174 554.741 208.853 547.624C213.637 541.641 220.272 537.127 226.346 532.278C226.762 531.942 229.299 534.293 230.859 535.406L231.088 535.196C221.894 535.322 216.798 541.389 212.701 548.506C206.502 559.275 199.514 561.081 189.613 554.048C181.73 548.443 165.277 551.382 160.118 559.17C172.016 560.157 184.226 559.947 195.894 562.424C217.818 567.106 234.021 579.954 242.299 601.535C244.4 606.993 246.355 612.787 239.325 617.112C228.779 623.62 228.426 626.412 236.954 635.103C240.51 638.714 244.92 641.485 248.622 644.382C271.024 626.916 296.171 617.741 322.192 612.934C349.877 607.833 378.248 606.552 406.328 603.802C410.405 603.403 414.606 604.117 418.746 604.369C425.214 604.768 431.704 604.915 438.131 605.67C450.299 607.119 462.426 608.777 474.51 610.73C476.029 610.982 477.194 613.522 480.397 617.049C472.014 614.32 466.627 611.443 461.053 610.961C441.979 609.323 422.822 607.476 403.728 607.749C391.664 607.917 379.205 610.352 367.723 614.173C340.954 623.074 314.6 633.319 288.184 643.311C284.835 644.592 282.152 647.699 278.158 650.722C293.363 654.69 306.238 656.558 318.448 647.762C321.381 645.642 325.52 645.075 329.181 644.151C370.51 633.696 412.589 632.101 454.875 633.906C462.301 634.221 470.038 635.985 476.923 638.819C486.99 642.975 490.485 651.73 486.907 660.253C491.026 660.778 495.061 661.282 500.115 661.911C505.544 648.644 511.909 635.586 516.214 621.856C520.021 609.743 516.547 607.287 504.338 608.987C498.534 609.785 489.736 610.562 486.97 607.287C481.562 600.926 479.461 591.731 475.925 583.564C470.725 576.742 463.445 570.087 460.221 561.794C458.39 557.092 463.174 549.765 464.88 543.887C464.381 540.276 462.571 535.826 463.445 531.984C469.934 503.244 476.944 474.63 484.536 442.93C471.89 457.835 460.637 471.145 449.342 484.434C445.12 489.388 445.224 493.167 449.758 498.772C462.322 514.286 457.101 530.913 439.026 535.931C437.778 536.266 436.696 537.295 435.635 538.114C423.966 547.057 396.573 540.486 390.582 527.008C389.272 524.069 388.398 519.661 389.626 517.058C392.954 510.025 396.594 502.698 401.856 497.198C406.661 492.181 414.586 490.27 419.744 485.463C446.056 460.838 471.91 435.73 497.474 411.23C474.427 398.088 444.87 394.478 427.149 368.593C420.243 368.593 411.632 367.816 403.229 368.761C387.379 370.524 371.675 373.568 355.846 375.542C344.968 376.906 336.648 368.74 336.606 355.745C330.72 358.243 325.458 360.489 320.216 362.736C319.426 364.352 318.635 365.969 317.824 367.585C331.531 360.405 334.506 369.601 339.373 376.045C340.142 377.074 341.702 377.494 342.784 378.313C346.819 381.399 351.312 384.107 354.744 387.781C361.816 395.359 366.954 406.255 375.461 410.475C382.117 413.77 378.144 419.943 382.803 421.916C380.266 424.75 377.749 427.563 375.211 430.397C364.499 433.861 353.787 437.325 343.096 440.789C339.914 442.72 336.752 444.652 332.654 447.129C329.95 443.476 327.018 439.55 324.126 435.646C335.483 429.327 345.613 423.679 355.742 418.053C355.368 417.402 354.994 416.752 354.619 416.101C344.261 420.992 333.902 425.905 322.442 431.321V423.931C330.512 420.488 338.603 417.045 347.048 413.456C338.541 407.158 321.235 412.658 311.938 423.868C309.088 422.693 301.662 428.739 304.616 418.704C296.234 423.721 290.014 418.053 282.734 399.348C277.222 402.119 271.71 404.89 266.198 407.682C258.71 410.181 251.222 412.658 242.154 415.681C252.533 415.681 260.666 415.87 268.778 415.492C270.13 415.429 271.357 412.889 272.646 411.503L284.128 407.766C284.482 408.711 284.835 409.635 285.21 410.58C283.046 412.553 280.862 414.505 278.574 416.584C326.186 436.359 332.53 452.86 324.667 482.922C319.654 487.94 314.621 492.957 309.442 498.143C325.79 507.254 327.205 532.488 312.832 543.74C309.046 546.7 305.219 549.849 302.224 553.565C297.877 559.002 299.333 574.138 305.178 576.259C310.128 578.043 319.405 578.064 321.734 574.978C333.653 559.275 349.523 551.948 368.347 548.715C361.67 526.463 355.139 504.693 348.962 484.161C342.701 485.232 337.771 486.071 332.862 486.911L332.634 480.025C332.842 472.237 331.198 463.777 341.12 459.977C342.971 459.263 344.136 456.723 345.634 455.022L345.571 454.98ZM690.622 329.419C689.104 330.532 686.858 331.33 686.234 332.82C683.03 340.42 671.258 346.991 666.328 343.548C667.306 341.176 668.283 338.803 669.261 336.41C668.741 336.158 668.221 335.906 667.68 335.654C664.664 340.294 661.627 344.933 658.382 349.909C673.261 348.565 683.738 342.029 689.811 330.301C689.957 330.007 690.29 329.818 690.539 329.587C690.019 334.899 689.52 340.21 689.021 345.185C701.043 343.065 715.021 340.609 729.331 338.069C726.378 327.089 715.645 321.4 705.037 317.705C687.856 311.722 669.947 307.712 652.246 303.367C644.842 301.54 637.062 301.246 629.554 299.777C621.462 298.181 613.538 294.801 605.446 294.424C594.485 293.899 583.44 295.956 572.416 296.061C546.978 296.313 521.56 295.788 496.496 301.582C456.539 310.819 415.813 317.621 379.101 337.376C366.33 344.262 354.557 353.037 341.598 361.413C349.059 367.697 360.034 369.908 374.525 368.047C371.571 365.759 368.472 363.345 365.518 361.056C362.482 362.4 359.57 363.701 356.637 365.003C356.346 364.331 356.034 363.68 355.742 363.009C359.112 359.23 362.461 355.451 366.163 351.294C367.557 351.588 370.24 353.1 372.029 352.386C381.971 348.397 391.352 341.868 401.565 340.105C410.155 338.635 415.376 336.473 417.435 327.992C417.498 327.782 418.018 327.677 418.517 327.446C420.326 328.559 422.24 329.734 423.738 330.679C425.11 328.181 425.88 324.759 427.419 324.381C440.586 321.043 453.856 318.104 467.147 315.354C485.451 311.575 503.693 306.117 522.184 304.92C544.69 303.472 567.466 304.92 590.034 306.558C611 308.09 632.216 308.195 652.267 317.096C659.194 320.161 668.054 318.524 675.979 319.594C688.917 321.358 700.461 326.291 709.218 338.488C705.973 338.048 702.707 337.607 699.858 337.229C698.672 338.551 696.966 340.483 696.342 341.155C694.179 336.767 692.37 333.093 690.56 329.419H690.622ZM456.414 352.302C453.253 361.329 451.568 368.11 456.498 376.675C471.037 401.888 495.81 407.472 520.686 410.454C535.974 412.28 552.427 409.95 567.549 406.192C604.053 397.102 623.563 370.566 615.68 332.442C614.411 326.312 610.002 320.833 607.027 315.06C605.571 316.005 604.094 316.928 602.638 317.873C605.01 321.085 607.381 324.297 609.627 327.341C608.026 328.706 605.738 330.658 603.429 332.631C605.883 335.507 607.984 337.964 610.064 340.441C596.586 335.906 584.958 335.969 573.539 343.905C571.251 345.5 567.341 344.702 564.179 345.017C564.034 343.905 563.888 342.792 563.742 341.679C574.766 337.649 585.79 333.639 598.998 328.811C591.885 320.938 586.477 314.955 581.048 308.951L577.824 311.071C578.822 318.293 579.8 325.515 580.798 332.736L578.802 335.423C570.024 314.661 557.773 301.729 535.018 312.457C534.747 317.285 534.477 322.114 534.206 326.942C533.291 327.509 532.397 328.076 531.482 328.643C529.298 315.585 524.826 310.567 510.432 311.764C495.83 312.982 492.918 320.623 490.422 332.169C489.653 331.708 488.862 331.246 488.093 330.805V316.865C487.136 316.55 486.179 316.257 485.222 315.942C481.062 323.373 476.902 330.805 472.41 338.866C491.046 340.147 507.832 341.302 526.344 342.582C516.714 352.68 508.186 344.744 500.219 345.668C489.944 346.886 479.398 348.712 470.018 352.764C466.482 354.296 465.858 362.736 463.902 368.026C463.341 369.538 462.738 371.049 462.155 372.54C461.448 371.931 460.741 371.343 460.034 370.734C458.91 365.066 457.787 359.377 456.394 352.302H456.414ZM45.24 404.953C44.4704 409.047 44.8032 414.421 42.5152 418.2C37.96 425.716 44.5744 456.849 52.5616 460.691C53.352 461.068 54.7248 459.914 55.8272 459.935C67.3296 459.998 78.8944 460.817 90.3552 460.103C103.147 459.305 112.632 439.34 106.142 428.004C105.373 426.66 104.125 425.233 102.752 424.687C95.472 421.706 92.7888 416.458 92.976 408.543C93.1216 402.959 91.4784 397.312 90.168 388.6V414.631C89.4608 414.694 88.7536 414.757 88.0464 414.82C86.8816 406.549 85.7168 398.277 84.552 390.006C84.1568 390.069 83.7408 390.132 83.3456 390.174C84.0528 398.949 84.76 407.724 85.4672 416.5C84.2608 416.584 83.0336 416.668 81.8272 416.752C81.3072 411.398 80.808 406.045 80.0384 398.151C79.4976 404.995 79.1648 409.215 78.8528 413.414C78.1664 413.456 77.5008 413.477 76.8144 413.519C75.8368 407.808 74.8592 402.098 73.736 395.548C73.32 399.831 72.9872 403.19 72.3632 409.593C70.1376 402.413 68.8064 398.109 67.4752 393.806C67.2256 393.869 66.976 393.911 66.7056 393.974C67.1216 398.886 67.5168 403.82 67.9328 408.732C67.184 408.879 66.4352 409.026 65.6864 409.194C63.7312 401.972 61.7968 394.73 59.8416 387.508C59.5296 387.613 59.1968 387.718 58.8848 387.844C60.0704 396.577 61.256 405.31 62.4416 414.043C61.5472 414.211 60.632 414.379 59.7376 414.547C55.64 407.535 51.5424 400.503 47.9232 394.31C48.568 398.76 49.4208 404.596 50.2736 410.412C49.7536 410.601 49.2336 410.789 48.6928 410.978C47.3616 408.648 46.0304 406.318 45.2608 404.995L45.24 404.953ZM491.109 423.28C474.614 438.732 459.306 453.868 443.123 467.975C431.413 478.178 423.592 492.558 407.222 498.08C398.008 501.187 392.226 510.949 393.869 521.928C395.283 531.396 402.771 534.335 411.424 535.028C413.026 535.154 414.502 536.812 416.104 536.98C420.909 537.442 426.858 539.311 430.227 537.19C433.41 535.175 433.867 528.793 435.531 524.342C434.658 523.733 433.784 523.125 432.91 522.537C430.664 523.754 427.149 524.51 426.504 526.295C425.61 528.751 426.92 532.026 427.274 534.944C426.171 535.238 425.069 535.532 423.966 535.826C423.218 532.614 420.784 528.016 422.032 526.484C424.944 522.915 430.706 517.813 433.368 518.779C437.944 520.438 441.064 526.253 444.995 530.556C453.336 524.384 454.251 513.384 444.205 500.788C439.192 494.511 439.899 490.123 444.038 484.182C456.477 466.338 470.413 450.11 488.238 437.451C492.586 434.365 497.349 430.25 491.109 423.322V423.28ZM314.558 303.325C310.586 298.265 306.218 295.032 305.344 291.023C303.971 284.809 304.99 278.049 304.99 271.52C304.595 271.562 304.221 271.604 303.826 271.646C303.368 277.797 302.91 283.948 302.432 290.099C301.517 290.057 300.581 290.015 299.666 289.973C299.354 285.417 299.042 280.862 298.73 276.306C298.542 276.306 298.355 276.327 298.168 276.348C297.939 281.471 297.71 286.572 297.482 291.484C294.05 290.897 291.491 290.477 289.432 290.12C288.621 281.03 287.872 272.506 287.019 262.619C281.861 272.8 292.053 285.774 277.306 292.786C276.515 281.744 275.829 272.318 275.163 262.892L273.582 262.976C274.019 271.415 274.456 279.854 274.914 288.272C273.915 288.335 272.917 288.419 271.918 288.482C270.691 280.169 269.464 271.856 268.237 263.542C267.634 263.626 267.03 263.731 266.406 263.815C267.051 273.157 267.717 282.499 268.362 291.841C267.342 291.967 266.323 292.093 265.304 292.219C264.118 284.116 262.933 276.033 261.747 267.93C261.29 268.014 260.853 268.077 260.395 268.161C261.082 275.697 261.789 283.234 262.475 290.792C261.498 290.939 260.541 291.086 259.563 291.233C258.232 284.872 256.901 278.511 255.59 272.15C254.53 276.999 254.862 281.513 255.154 286.026C255.403 290.057 255.611 294.088 255.819 298.118C254.862 298.181 253.906 298.265 252.949 298.328C252.013 291.652 251.098 284.998 250.162 278.322C249.808 278.406 249.454 278.511 249.101 278.595V298.475C247.374 295.851 246.584 294.633 244.774 291.862C251.326 316.529 253.635 318.104 275.205 316.089C281.237 315.522 287.394 315.816 293.467 316.173C310.773 317.201 310.773 317.285 314.558 303.283V303.325ZM233.813 165.252C233.667 166.049 233.522 166.847 233.376 167.645C231.774 167.645 230.131 167.855 228.571 167.603C219.565 166.154 218.962 166.805 221.333 175.832C221.562 176.672 222.019 177.932 221.645 178.393C214.677 187.232 222.31 191.997 227.386 196.154C239.408 206 261.664 200.101 268.278 185.993C274.498 172.725 263.39 152.95 249.142 151.921C248.851 154.083 248.539 156.246 248.061 159.751C245.315 155.952 243.63 153.621 241.966 151.312C241.467 151.543 240.989 151.795 240.49 152.026C241.405 154.923 242.341 157.82 243.256 160.717C242.694 161.053 242.154 161.389 241.592 161.725C239.346 159.08 237.099 156.413 234.25 153.076C231.192 155.595 228.259 158.009 224.848 160.822C228.634 162.69 231.213 163.95 233.792 165.21L233.813 165.252ZM286.874 163.152C277.638 181.375 289.973 199.996 307.029 197.287C318.157 195.524 327.246 189.247 328.203 178.687C329.368 166.133 320.362 151.816 309.962 150.283C306.675 149.801 300.331 150.283 300.269 150.871C299.707 156.413 284.336 154.23 293.322 164.244C293.384 164.307 292.968 164.79 292.552 165.399C290.867 164.748 289.099 164.055 286.874 163.173V163.152ZM552.698 588.561C552.282 584.74 550.971 581.696 551.949 580.248C559.603 569.121 548.642 567.19 543.4 563.453C540.571 561.437 533.478 563.978 531.96 561.836C525.2 552.347 518.898 558.435 513.365 561.941C506.147 566.518 499.845 572.564 493.126 577.938C491.858 578.946 490.485 579.807 489.216 580.793C487.157 582.347 483.808 583.69 483.434 585.601C482.893 588.288 484.578 591.437 485.326 594.376C488.197 593.641 491.067 592.885 492.565 592.508C496.642 594.901 499.949 596.832 505.357 600.002C502.154 593.725 500.406 590.303 498.659 586.86C499.387 586.461 500.115 586.042 500.843 585.643C503.776 587.868 506.709 590.114 511.597 593.83C510.245 588.414 509.579 585.748 508.83 582.746C512.512 583.312 516.131 585.097 517.899 583.963C527.904 577.497 537.098 573.698 545.397 586.44C546.229 587.7 549.12 587.595 552.698 588.561ZM27.7472 313.758C16.3696 313.695 21.1744 321.946 21.3824 326.102C21.9024 336.137 31.824 341.26 45.3856 339.643C56.9504 338.258 63.2112 330.322 61.6096 317.558C61.048 313.003 59.28 307.124 56.0144 304.71C51.4592 301.372 45.0528 300.092 39.2704 299.294C37.128 299 34.4656 302.548 32.032 304.332C32.3856 305.004 32.7184 305.697 33.072 306.369C30.4096 306.6 27.768 306.831 25.1056 307.082C25.8752 309.014 26.6448 310.924 27.768 313.737L27.7472 313.758ZM103.189 518.149C116.002 513.846 127.254 510.088 140.067 505.784C128.502 497.66 137.03 492.202 141.357 486.407C134.098 472.132 127.067 458.276 119.122 442.636C116.168 453.931 113.547 463.231 111.426 472.657C111.01 474.546 112.819 476.834 113.069 478.997C113.838 485.442 116.064 492.39 114.525 498.29C112.757 505.028 107.557 510.844 103.21 518.149H103.189ZM90.1472 353.814C95.0352 350.581 97.9056 348.964 100.485 346.949C109.221 340.126 111.53 341.491 114.67 352.617C117.915 364.142 118.29 375.479 116.896 387.214C116.23 392.777 116.792 398.466 116.792 404.072C119.6 392.441 122.346 381.168 125.05 369.894C126.402 364.184 131.269 358.075 123.157 353.898C125.611 350.245 127.712 347.096 130.021 343.695C126.006 344.619 123.157 345.269 120.328 345.941C119.995 345.038 119.683 344.115 119.35 343.212C122.845 340.588 126.318 337.985 129.75 335.402C125.59 330.847 121.763 326.648 117.894 322.387C102.003 337.313 97.344 338.992 79.1024 333.597C83.512 341.637 86.6736 347.39 90.1888 353.814H90.1472ZM112.445 313.506C112.382 304.626 104.146 296.25 95.4928 296.25C86.9232 296.25 77.2304 306.642 77.168 315.858C77.1264 325.032 84.552 331.351 95.2224 331.162C105.643 330.973 112.528 323.919 112.445 313.506ZM655.117 465.876C632.32 452.86 610.397 440.348 588.453 427.815C587.746 428.571 587.059 429.327 586.352 430.082C606.216 447.885 626.08 465.687 645.611 483.174C647.795 479.207 651.56 472.363 655.117 465.876ZM369.658 326.249C369.741 325.179 369.824 324.087 369.907 323.016C361.525 316.173 353.184 309.245 344.656 302.59C343.554 301.729 340.142 301.666 339.934 302.17C336.669 309.854 332.654 317.495 331.178 325.599C330.387 329.986 334.069 335.193 336.378 341.91C344.885 329.356 354.848 322.408 369.637 326.249H369.658ZM364.874 170.101C366.08 169.996 367.266 169.87 368.472 169.765C374.026 154.671 379.6 139.556 385.154 124.462C384.218 124.126 383.282 123.769 382.366 123.433C381.451 126.477 380.557 129.542 379.6 132.733C359.008 119.801 357.011 120.389 351.333 140.459H361.358C361.878 141.109 362.398 141.76 362.918 142.411C361.13 143.838 359.341 145.266 358.176 146.19C360.485 146.421 363.771 146.736 366.683 147.029C370.406 159.52 360.963 157.337 353.517 158.471C357.968 160.045 361.462 160.297 363.23 162.208C364.79 163.887 364.416 167.393 364.894 170.101H364.874ZM609.502 641.17C608.546 633.025 605.363 629.54 596.627 630.547C568.942 633.801 543.795 642.787 526.198 667.076C550.493 646.712 578.24 637.937 609.523 641.17H609.502ZM516.672 646.502C524.056 637.769 533.062 627.105 542.922 615.453C540.8 609.281 537.888 600.716 533.874 588.981C528.424 595.699 520.853 601.01 521.498 604.957C524.056 620.618 522.808 635.145 516.693 646.502H516.672ZM682.947 464.973C679.162 473.685 674.939 481.264 673.234 489.388C672.942 490.753 683.467 496.106 689.187 496.484C692.765 496.715 699.4 491.593 700.024 488.024C701.834 477.779 694.325 471.985 682.968 464.994L682.947 464.973ZM312.811 243.452C317.075 243.809 321.11 244.145 325.894 244.564C327.517 230.373 329.118 216.454 330.886 200.982C317.727 209.492 311.695 223.648 312.79 243.452H312.811ZM222.914 219.016C223.08 221.472 222.955 222.878 223.309 224.138C225.742 232.724 228.259 241.268 230.88 250.254C236.309 249.813 241.301 249.393 246.147 248.994C248.082 221.493 249.974 226.636 222.914 218.995V219.016ZM576.43 614.425C575.016 620.891 574.163 624.795 573.31 628.679L571.314 628.322C571.022 625.341 570.731 622.36 570.378 618.497C565.656 620.534 562.037 622.108 557.752 623.955C559 627.482 560.082 630.568 561.205 633.717C574.912 630.757 588.141 628.364 601.037 624.753C604.053 623.914 605.904 618.938 608.296 615.873C599.997 613.564 593.986 611.884 587.808 610.163C588.432 614.026 589.139 618.392 589.742 622.087C584.646 619.148 580.59 616.818 576.43 614.425ZM220.73 701.316H387.15C331.781 693.8 276.245 697.81 220.73 701.316ZM306.592 244.228V219.267C298.771 229.344 279.344 226.363 278.678 244.228H306.592ZM91.936 178.288L88.5872 179.8C87.5888 190.696 87.152 201.696 85.5088 212.487C81.1824 240.702 80.9744 240.681 85.488 244.186C89.4816 228.043 94.2032 212.319 96.9072 196.238C97.8432 190.696 93.7456 184.293 91.9568 178.288H91.936ZM698.693 502.068C698.152 500.935 697.632 499.78 697.091 498.646C682.822 506.687 672.818 499.297 662.334 489.43C660.691 493.524 658.861 498.059 660.358 500.536C665.995 509.752 675.563 512.943 685.506 511.305C690.269 510.529 694.325 505.301 698.693 502.068ZM74.2976 170.521C73.6528 170.521 73.008 170.5 72.3632 170.479C71.864 167.792 71.3648 165.084 70.8448 162.397C69.992 162.397 69.1392 162.376 68.3072 162.355C66.8096 183.138 65.2704 203.9 64.0432 224.705C63.9808 225.775 66.8304 227.014 68.4528 228.274C71.0528 206.21 73.5488 184.901 75.7744 166.007C75.8368 165.839 75.0464 168.191 74.2768 170.521H74.2976ZM292.032 321.61C288.766 321.61 285.21 321.085 281.923 321.82C280.197 322.198 277.659 324.843 277.722 326.312C278.075 332.736 279.261 339.118 280.134 345.374C297.107 346.487 299.291 341.973 292.011 321.589L292.032 321.61ZM670.862 476.897C673.712 473.119 677.269 468.878 680.181 464.238C681.262 462.517 681.491 459.536 680.763 457.688C680.326 456.576 677.269 456.03 675.397 456.051C665.517 456.135 660.15 461.74 657.01 474.189C661.19 475.008 665.454 475.848 670.862 476.918V476.897ZM17.9296 202.62C16.5152 202.557 15.1008 202.515 13.6864 202.452C6.01119 219.162 16.4736 234.865 17.6384 251.093C18.9072 251.03 20.1968 250.946 21.4656 250.883C20.28 234.802 19.1152 218.701 17.9296 202.62ZM253.302 249.33C261.456 247.252 267.654 245.677 274.123 244.019C273.728 227.938 259.896 233.711 250.994 227.014C251.93 236.041 252.574 242.339 253.302 249.33ZM73.216 467.513C73.216 473.496 72.5088 479.081 73.5072 484.371C74.0064 487.079 77.5216 489.22 79.6848 491.614C82.1184 488.99 86.2784 486.596 86.6528 483.72C87.36 478.178 85.9248 472.342 85.3424 466.275C80.5584 466.779 77.2304 467.114 73.2368 467.534L73.216 467.513ZM686.525 517.708C679.598 516.407 673.546 516.176 668.242 514.014C663.104 511.914 658.736 507.863 654.118 504.735C653.141 513.195 658.694 521.046 668.845 524.72C676.374 527.449 681.949 524.594 686.525 517.708ZM108.576 347.327C95.368 352.407 95.7008 361.371 99.0912 371.973C103.043 372.561 107.286 373.169 112.861 373.988C111.322 364.457 109.97 356.039 108.576 347.327ZM16.3072 190.591C15.3088 177.365 14.4768 166.7 13.5616 154.545C-0.707213 164.307 8.04959 175.685 7.15519 185.468C7.05119 186.602 11.9184 188.218 16.3072 190.591ZM156.686 84.0705C149.677 71.5165 142.646 58.8785 135.595 46.2405C134.41 46.8703 133.224 47.5001 132.038 48.1299C136.531 58.9835 141.003 69.858 144.976 79.452C149.219 81.1314 152.714 82.517 156.686 84.0705ZM26.2496 380.538C27.6016 381.315 28.9328 382.092 30.2848 382.868C33.1136 378.985 38.0224 375.269 38.3552 371.175C39.104 362.001 32.9056 358.936 23.2544 360.51C24.2528 367.165 25.2512 373.841 26.2496 380.538ZM407.326 700.644C423.134 700.644 439.254 701.001 455.354 700.455C461.178 700.266 466.918 697.894 472.701 696.529C472.43 695.396 472.16 694.262 471.89 693.128C450.216 695.648 428.563 698.188 407.306 700.644H407.326ZM51.6256 532.467C54.496 524.804 52.0208 522.18 44.2624 522.894C39.3536 523.356 34.32 522.369 29.3072 522.012C28.392 529.794 35.8315 533.278 51.6256 532.467ZM571.542 697.327C571.813 698.566 572.062 699.804 572.333 701.064C594.838 698.608 617.365 696.152 639.87 693.716C639.766 692.751 639.683 691.764 639.579 690.798C616.907 692.982 594.214 695.165 571.542 697.327ZM265.075 645.474C265.72 647.006 266.386 648.518 267.03 650.05C278.283 647.741 286.125 637.58 296.837 633.864C308.006 630.002 318.76 624.9 329.701 620.345C329.368 619.547 329.014 618.77 328.682 617.972C307.486 627.147 286.291 636.3 265.075 645.474ZM394.638 80.6066V41.769C385.445 49.4105 386.61 75.9461 394.638 80.6066ZM123.115 93.5385C132.163 83.7346 130.541 77.4996 114.005 56.5902C116.896 68.3675 119.808 80.1238 123.115 93.5385ZM404.352 83.8606V46.3875C397.987 59.2354 398.549 76.7228 404.352 83.8606ZM44.3664 376.885C52.208 375.206 59.2176 373.694 66.2064 372.183C66.248 371.49 66.3104 370.776 66.352 370.083C58.5312 367.984 50.7312 365.885 41.6416 363.45C42.7024 368.719 43.4304 372.33 44.3456 376.864L44.3664 376.885ZM527.155 650.596C526.136 649.504 524.826 648.077 521.602 644.529C522.766 650.806 523.432 654.438 524.202 658.594C541.694 647.699 544.357 643.102 536.682 636.531C533.603 641.086 530.587 645.558 527.176 650.596H527.155ZM251.118 324.171C257.421 345.731 267.738 355.745 281.861 354.045C263.806 351.945 260.229 335.318 251.118 324.171ZM437.965 350.833C425.714 364.331 436.904 381.798 456.227 385.996C435.864 372.666 431.517 365.843 439.296 352.134C441.376 356.9 442.957 360.531 444.538 364.184C445.141 363.533 445.765 362.904 446.368 362.253C443.747 358.705 441.126 355.136 437.944 350.833H437.965ZM73.5072 299.147C71.448 301.54 66.4976 304.689 65.9568 308.489C65.0416 314.766 66.8304 321.484 67.808 327.95C67.912 328.685 70.5952 329.923 71.2816 329.524C72.592 328.748 74.152 326.984 74.152 325.62C74.152 316.823 73.7776 308.048 73.528 299.147H73.5072ZM259.938 327.446C264.077 332.988 268.05 338.279 273.541 345.605C275.267 323.436 273.541 321.4 259.938 327.446ZM118.373 408.669C117.728 408.564 117.062 408.48 116.418 408.375C113.61 425.674 110.781 442.972 107.973 460.271C108.805 460.397 109.637 460.523 110.49 460.649C113.11 443.329 115.752 425.989 118.373 408.669ZM186.659 497.387C196.602 489.64 206.877 481.6 217.381 473.392C204.547 474.903 189.405 487.058 186.659 497.387ZM108.264 462.664C101.483 475.617 95.9712 486.113 89.3776 498.688C102.253 489.388 105.498 477.443 108.264 462.664ZM554.174 652.129C554.299 652.779 554.403 653.409 554.528 654.06C570.357 651.499 586.186 648.938 602.035 646.397C601.869 645.495 601.702 644.571 601.557 643.668C585.77 646.481 569.982 649.316 554.195 652.129H554.174ZM415.854 87.6184C414.69 76.0091 413.629 65.3655 412.568 54.7218C409.032 74.4346 410.176 83.3357 415.854 87.6184ZM91.7696 359.692C85.3008 364.793 79.8512 369.076 74.4848 373.316C80.1424 372.813 86.424 372.246 93.496 371.595C92.8512 367.102 92.3728 363.869 91.7696 359.692ZM544.003 457.856C539.926 454.875 537.618 451.852 535.496 451.978C532.917 452.125 530.504 454.959 528.029 456.618C529.838 458.801 531.565 462.643 533.499 462.769C536.203 462.937 539.094 460.334 544.003 457.835V457.856ZM56.0352 471.124C60.0288 476.708 63.44 481.474 66.8304 486.218C67.4336 485.925 68.0368 485.631 68.64 485.316C68.3904 480.046 68.1408 474.777 67.8496 468.983C63.7104 469.739 60.528 470.305 56.0352 471.124ZM288.933 628.889C277.43 633.277 264.534 635.271 257.462 647.132C267.946 641.044 278.429 634.977 288.933 628.889ZM527.093 481.348C534.456 487.772 538.928 484.791 543.13 477.947C536.328 472.594 530.941 471.124 527.093 481.348ZM545.334 501.46C541.611 498.814 538.678 495.77 537.763 496.295C534.893 497.954 532.75 500.956 530.338 503.433C532.334 505.007 534.643 508.114 536.266 507.779C538.97 507.233 541.258 504.483 545.314 501.481L545.334 501.46ZM741.27 682.149C741.166 681.603 741.062 681.057 740.958 680.511C725.317 683.43 709.675 686.348 694.034 689.266C694.158 689.917 694.283 690.567 694.408 691.218C710.029 688.195 725.65 685.172 741.27 682.149ZM643.344 504.525C656.594 496.232 657.301 493.062 649.043 485.568C647.317 491.299 645.674 496.757 643.344 504.525ZM575.952 679.819C575.827 680.407 575.702 681.015 575.578 681.603H617.906C617.906 681.015 617.906 680.407 617.906 679.819H575.952ZM184.6 484.182C185.328 485.022 186.056 485.862 186.784 486.68C193.71 481.285 200.637 475.869 207.563 470.473C206.877 469.613 206.19 468.752 205.525 467.912C198.557 473.329 191.589 478.766 184.621 484.182H184.6ZM646.901 510.361C643.531 518.821 648.045 526.295 658.362 527.134C654.43 521.382 650.437 515.546 646.901 510.361ZM563.389 588.12C565.323 587.427 567.757 585.58 569.566 586.063C575.598 587.7 575.515 588.015 577.304 580.268C570.482 579.702 563.181 577.917 563.389 588.12Z" fill="#000000"/>
<path d="M1040 606.636C1035.51 608.274 1030.79 609.428 1026.58 611.612C1012.9 618.749 999.378 626.244 985.941 633.529C984.485 630.282 989.615 624.781 1001.33 617.028C988.354 622.276 973.96 625.236 966.389 640.939C965.12 638.336 964.205 636.489 963.019 634.032C959.65 637.055 956.426 639.974 951.579 644.34C951.933 640.603 952.099 638.756 952.307 636.615C947.752 637.223 942.864 637.37 938.226 638.567C914.701 644.613 891.654 635.46 868.296 636.594C864.864 636.762 861.286 636.552 858.042 637.475C833.893 644.34 810.118 652.758 785.678 658.175C751.171 665.837 716.082 669.07 680.701 664.053C679.099 663.822 677.394 663.654 675.958 662.982C675.334 662.688 675.272 661.177 674.44 658.616C682.178 659.497 689.104 660.736 696.072 661.009C732.597 662.352 768.706 658.951 804.003 649.379C821.496 644.634 838.282 636.908 855.92 633.025C867.069 630.569 879.528 631.03 890.864 633.13C912.101 637.034 933.13 636.573 953.472 630.967C967.554 627.084 980.45 618.854 993.949 612.724C997.797 610.982 1001.92 609.827 1006.95 608.043C975.915 596.601 948.355 601.409 923.104 621.688C913.494 629.414 895.752 631.156 886.163 625.698C878.218 621.164 870.126 616.944 862.16 612.43C845.478 602.983 829.005 605.88 812.594 613.144C811.158 613.774 809.682 614.341 807.747 615.159C810.826 604.054 836.867 598.785 863.262 601.22C854.859 596.139 847.038 588.939 837.949 586.357C795.163 574.159 751.483 570.843 707.658 579.45C678.642 585.139 650 592.802 621.192 599.54C620.339 599.75 619.362 599.477 617.531 597.357C620.235 596.098 622.835 594.523 625.664 593.62C654.555 584.278 683.987 578.379 714.147 574.034C756.454 567.945 797.555 570.486 838.302 581.36C848.037 583.963 856.586 591.752 865.093 597.966C867.298 599.582 867.277 604.285 868.982 609.932C871.062 611.003 876.117 613.144 880.755 615.978C898.165 626.622 911.539 627.147 926.869 614.089C948.23 595.909 972.941 596.559 998.192 598.05C999.502 598.134 1001.04 598.617 1002.02 599.456C1014.5 609.953 1027.25 605.964 1040.04 600.338V606.636H1040Z" fill="#000000"/>
<path d="M0 669.616C20.8 666.698 41.9536 659.917 62.3168 661.807C89.1072 664.284 116.917 659.791 142.147 666.509C162.178 671.841 185.182 665.27 202.238 682.8C199.763 682.674 196.269 683.556 194.23 682.212C182.062 674.088 172.078 677.531 159.099 683.115C137.592 692.352 114.213 697.936 91.1248 702.366C63.7728 707.635 35.9008 710.091 8.2368 713.681C5.5328 714.038 2.7664 713.702 0.0208 713.681C0 713.009 0 712.295 0 711.603C2.6 710.784 5.1584 709.587 7.8416 709.209C43.2848 704.213 78.7696 699.532 114.15 694.22C121.451 693.129 128.44 689.833 135.574 687.544C135.304 686.579 135.034 685.613 134.763 684.647C131.082 684.899 127.358 684.899 123.698 685.445C108.93 687.628 94.1824 691.785 79.4144 691.869C52.9568 692.016 26.4784 689.749 0 688.489C0 687.083 0 685.697 0 684.29C53.8928 684.899 107.744 684.71 161.304 678.454C161.242 676.796 161.2 675.137 161.138 673.5C107.432 675.011 53.7056 676.502 0 678.013C0 675.221 0 672.408 0 669.616ZM68.2656 669.532C68.2656 669.826 68.2656 670.12 68.2656 670.414H140.92C140.92 670.12 140.899 669.826 140.878 669.532H68.2448H68.2656Z" fill="#000000"/>
<path d="M1040 644.424C1029.66 648.077 1019.41 651.919 1009.01 655.341C976.955 665.879 945.152 677.279 912.704 686.411C886.226 693.884 859.082 699.112 832.042 704.36C813.301 707.992 794.269 709.986 775.362 712.694C775.154 711.771 774.966 710.868 774.758 709.944C779.126 708.937 783.453 707.572 787.862 706.942C856.939 696.97 924.997 682.254 990.621 658.217C1005.08 652.926 1018.66 644.571 1033.99 640.981C1035.94 640.519 1038 640.477 1040 640.225V644.424Z" fill="#000000"/>
<path d="M1040 673.815C996.798 682.569 953.576 691.26 910.395 700.077C892.174 703.793 874.037 707.95 855.774 711.54C851.032 712.484 846.061 712.107 841.194 712.316C841.09 711.225 840.986 710.112 840.902 709.021C907.275 695.879 973.648 682.737 1040 669.595V673.794V673.815Z" fill="#000000"/>
<path d="M761.28 720C759.512 718.027 757.744 716.053 756.642 714.815C806.021 721.658 856.086 716.011 905.986 717.355C937.768 718.216 969.592 718.048 1001.37 717.229C1014.29 716.893 1027.12 713.576 1040 711.603V720H761.28Z" fill="#000000"/>
<path d="M488.8 720C492.773 719.223 496.725 717.88 500.698 717.775C525.054 717.103 549.411 717.061 573.747 716.095C584.626 715.675 595.4 713.198 606.278 712.379C614.64 711.75 623.064 712.253 631.696 714.71C628.41 715.402 625.144 716.095 621.317 716.893C635.773 717.964 649.646 718.971 663.541 720H488.821H488.8Z" fill="#000000"/>
<path d="M418.08 720C417.83 718.299 417.56 716.599 417.206 714.206C426.234 711.855 434.99 708.79 443.976 707.635C447.491 707.194 451.589 710.994 455.333 712.988C459.597 715.255 463.778 717.649 468 719.979H418.08V720Z" fill="#000000"/>
<path d="M1040 682.212C1009.49 687.628 978.973 693.045 948.459 698.503C944.237 699.259 940.035 700.161 934.898 701.169C935.834 699.007 936.083 697.453 936.624 697.348C969.009 690.693 1001.42 684.143 1033.86 677.698C1035.82 677.3 1037.96 677.887 1040.02 678.034V682.233L1040 682.212Z" fill="#000000"/>
<path d="M1040 709.503C1025.42 711.057 1010.88 713.093 996.278 714.038C980.158 715.067 963.997 715.109 947.835 715.549C944.029 715.654 940.243 715.549 936.437 715.549V711.645C970.965 710.238 1005.47 708.811 1040 707.404V709.503Z" fill="#000000"/>
<path d="M0 633.927C17.7632 631.807 35.5264 629.666 53.2896 627.545C53.3728 628.217 53.4352 628.91 53.5184 629.582C35.6928 633.822 17.8464 638.084 0 642.325C0 639.533 0 636.719 0 633.927Z" fill="#000000"/>
<path d="M1040 690.609C1026.63 692.415 1013.27 694.22 999.898 696.026C999.731 694.913 999.565 693.821 999.419 692.709C1012.94 690.609 1026.48 688.51 1040 686.411V690.609Z" fill="#000000"/>
<path d="M291.2 720C299.312 719.244 307.424 717.775 315.536 717.88C327.538 718.006 339.539 719.244 351.52 720H291.2Z" fill="#000000"/>
<path d="M-2.5979e-05 335.78C1.22717 336.368 2.45437 336.956 3.68157 337.565C3.68157 339.097 3.68157 340.63 3.68157 342.141C4.26397 342.057 4.84637 341.952 5.42877 341.868C4.78397 340.399 4.11837 338.908 3.47357 337.439C5.63677 337.082 7.79997 336.725 11.4816 336.137C10.1712 340.21 9.19357 343.233 8.21597 346.256C6.80157 347.453 5.36637 348.67 3.95197 349.867C2.62077 350.077 1.28957 350.266 -0.041626 350.476C-0.041626 349.783 -0.041626 349.069 -0.041626 348.376V346.277C-0.041626 342.771 -0.041626 339.286 -0.041626 335.78H-2.5979e-05Z" fill="#000000"/>
<path d="M4.0144 358.537C2.6832 357.949 1.3312 357.382 0 356.795C0 356.102 0 355.388 0 354.695C1.3936 354.695 2.7664 354.695 4.16 354.695C4.1184 355.976 4.0768 357.257 4.0352 358.537H4.0144Z" fill="#000000"/>
<path d="M4.264 264.487C2.8496 264.466 1.4144 264.445 0 264.403C0 263.71 0 262.997 0 262.304C1.4144 263.039 2.8496 263.752 4.264 264.487Z" fill="#000000"/>
<path d="M452.774 81.4674C450.694 80.9216 447.221 80.9635 446.742 79.7459C442.187 68.6825 447.845 60.0542 454.022 49.0537C457.662 54.7849 460.158 58.6686 462.363 62.1535C467.979 59.4454 473.637 56.0445 479.731 54.323C481.062 53.9452 484.037 59.5714 485.68 61.6707C489.466 62.8673 495.29 63.0982 496.163 65.3025C497.827 69.5222 496.642 74.8545 496.642 82.3911C499.138 84.9313 507.27 88.3742 501.966 97.7792C501.238 99.0808 504.608 102.356 505.17 104.917C506.168 109.43 507.728 114.469 506.584 118.563C505.981 120.725 500.136 121.397 497.806 122.299C496.912 127.989 496.309 133.951 494.624 139.577C494.416 140.249 488.384 139.136 483.85 138.758C480.792 144.3 476.216 148.688 470.184 139.703C461.094 148.877 458.162 148.1 454.334 136.155C443.248 146.925 441.938 147.092 427.045 139.43C425.589 142.957 424.154 146.442 422.677 149.927C418.538 159.772 414.232 161.41 405.226 156.623C401.066 154.398 401.461 154.713 405.018 149.906C406.536 147.848 405.184 143.713 406.598 141.466C407.784 139.619 411.133 139.22 414.128 137.897C415.272 141.235 416.146 143.818 417.248 147.051C423.072 137.75 428.501 129.059 433.41 121.229C432.578 121.46 429.894 122.173 424.424 123.664C428.022 113.272 436.155 116.967 440.773 113.356C442.125 120.137 443.248 125.868 444.829 133.741C456.602 116.946 451.547 97.9052 434.47 86.3378C432.328 88.1853 430.082 90.0956 427.357 92.4259C428.23 82.58 434.096 78.3814 441.314 81.9292C446.618 84.5324 451.714 87.5974 457.766 90.9354C458.619 87.2615 459.243 84.5534 459.846 81.8243C464.173 82.5171 468.52 83.2098 473.99 84.0916C469.435 90.2426 466.544 94.1683 462.592 99.5216C471.432 97.1494 471.12 97.1074 470.101 103.51C469.747 105.715 470.683 109.535 472.264 110.417C479.981 114.784 477.922 120.158 474.698 125.952C474.448 126.582 474.406 127.212 474.594 127.863C475.301 131.683 476.008 135.504 476.694 139.325C477.36 139.367 478.026 139.409 478.691 139.451C479.648 134.14 480.605 128.828 481.915 121.502C485.493 127.632 487.989 131.914 490.152 135.63C498.971 127.779 477.214 115.099 496.309 109.116C494.478 105.253 492.856 101.768 491.254 98.388C493.854 96.2047 496.33 94.1473 500.032 91.0403C494.395 88.7731 490.339 87.1356 486.387 85.5401C489.008 79.3471 491.296 73.9518 493.563 68.5565C492.752 67.8427 491.941 67.129 491.13 66.4152C486.429 69.3752 481.749 72.3563 475.862 76.0721C476.694 72.4193 477.402 70.5089 477.526 68.5565C477.672 65.9113 477.36 63.2242 477.256 60.558C474.469 61.8176 471.266 62.5524 468.998 64.4628C465.795 67.129 463.278 70.6558 460.262 74.0358C457.766 68.5355 455.832 64.2739 453.19 58.4167C449.904 67.4019 446.971 74.3507 452.733 81.4464L452.774 81.4674Z" fill="#000000"/>
<path d="M318.552 94.1893C317.387 94.8821 315.328 96.3307 315.203 96.1837C308.339 87.5974 297.544 88.2062 288.787 84.2175C273.25 77.1428 262.454 75.0224 245.357 79.9559C246.875 77.5416 247.894 75.9252 249.787 72.9021C242.133 76.6809 235.602 79.8929 230.069 82.622C232.128 71.1177 233.896 59.6133 236.33 48.256C237.286 43.7634 239.72 39.5647 241.488 35.2401C240.49 46.5765 239.47 57.8919 238.472 69.2703C239.283 69.1863 240.032 69.2703 240.614 68.9974C273.562 54.9948 298.147 61.2508 321.734 89.4029C323.752 91.8171 326.914 93.2656 329.638 95.218C333.195 88.7101 336.294 83.0419 339.498 77.1638H315.515C321.942 64.4838 327.35 53.7772 333.195 42.2519C324.771 45.9887 317.138 49.7255 309.254 52.7905C296.795 57.619 288.974 52.2657 288.808 38.62C288.725 30.8735 289.64 23.106 290.181 14.0578C287.706 17.8366 286.062 20.8387 283.941 23.4838C277.264 31.8392 270.899 40.5304 263.515 48.193C256.318 55.6666 253.302 54.7849 247.79 45.7578C245.669 42.2939 243.464 38.8719 241.322 35.45C242.112 33.6446 242.902 31.8392 244.483 28.2283C248.726 35.681 252.179 41.769 255.861 48.256C275.6 38.704 279.635 15.4224 297.149 1.021C295.651 15.4644 293.904 26.4019 293.571 37.4024C293.197 49.2426 298.48 52.8745 309.171 48.214C322.005 42.6088 334.402 35.9959 347.173 29.7399C338.957 43.1966 330.408 57.2201 321.859 71.2436C322.587 72.1673 323.294 73.0911 324.022 74.0148C332.259 72.6922 340.496 71.3696 349.419 69.9421C343.616 80.2078 338.146 89.9067 332.093 100.634C328.182 98.8499 323.274 96.6036 318.386 94.3783C311.979 79.9349 299.374 74.1827 286.645 69.6272C297.003 77.6046 307.778 85.918 318.573 94.2103L318.552 94.1893Z" fill="#000000"/>
<path d="M939.182 661.849C935.667 663.381 932.131 664.893 928.616 666.425C928.658 666.74 928.72 667.034 928.762 667.349C941.179 664.41 953.597 661.45 968.094 658.007C951.725 671.338 761.051 708.874 734.864 703.163C764.171 698.86 793.458 694.535 822.765 690.232C822.702 689.749 822.64 689.266 822.578 688.783C798.325 691.659 774.051 694.367 749.819 697.432C726.232 700.434 702.853 705.872 678.787 704.087C765.586 690.337 853.466 683.598 938.413 658.889C938.662 659.875 938.912 660.862 939.162 661.87L939.182 661.849Z" fill="#000000"/>
<path d="M155.002 320.287C144.352 293.269 143.354 257.286 103.771 249.078C109.886 237.427 115.232 227.245 121.139 215.993C121.722 218.911 122.054 221.661 122.886 224.264C123.76 227.014 125.112 229.638 126.256 232.304C128.898 230.898 132.226 230.079 134.077 227.959C140.546 220.611 146.536 212.823 152.152 205.874C152.152 219.855 151.778 233.753 152.256 247.629C152.776 262.661 158.018 267.615 177.57 270.365C181.501 270.911 185.307 272.507 191.006 274.165C181.251 282.856 173.659 289.616 164.882 297.447C171.829 303.493 177.341 308.321 184.059 314.178C177.486 314.724 172.474 315.144 167.461 315.543C169.146 320.476 170.81 325.389 172.786 331.204C167.003 327.677 161.678 324.402 155.002 320.308V320.287ZM118.352 234.929C117.894 235.936 116.688 238.539 115.107 241.94C131.56 247.252 142.106 258.399 147.846 273.031C153.421 287.265 156.624 302.443 160.888 317.201C159.058 315.585 157.227 313.947 155.397 312.331C158.704 309.791 162.011 307.25 165.526 304.542C151.57 290.204 176.197 286.53 181.272 275.907C151.965 269.672 147.202 270.785 146.682 221.472C137.613 225.377 134.909 243.83 118.373 234.908L118.352 234.929Z" fill="#000000"/>
<path d="M43.0768 111.446C40.2272 107.373 36.6288 104.014 35.568 99.9625C35.048 98.0101 39.312 94.7772 40.872 92.8038C40.1856 86.1699 39.1872 79.0952 39.2496 72.0204C39.2496 71.4326 46.4048 70.8868 50.024 70.3619C51.8752 66.3102 52.9776 59.2145 56.5344 57.556C59.7376 56.0655 65.6864 60.5161 69.7216 62.0696C72.3216 58.5637 75.4624 54.344 78.6032 50.1244C82.056 54.533 85.4256 58.9836 88.9616 63.3082C93.5584 68.9344 97.136 74.2877 86.84 77.8356C84.8224 70.068 82.888 62.5524 80.9536 55.0368L77.5632 55.4987C76.856 62.6154 76.128 69.7321 75.192 79.0952C69.2016 72.5243 64.1888 67.045 59.1968 61.5657C58.1984 61.9646 57.2208 62.3425 56.2224 62.7414C58.136 68.6615 60.0496 74.6026 62.5248 82.3281C55.4944 79.704 49.4208 77.4367 43.368 75.1694C42.536 75.6313 41.6832 76.1141 40.8512 76.576C44.1376 82.2442 47.4032 87.9124 51.168 94.4203C49.4 95.6169 46.8 97.3803 42.3904 100.361C57.1792 104.266 58.4272 115.12 57.2208 127.338C61.1312 125.679 64.4384 124.273 67.7664 122.887C68.3072 123.601 68.848 124.315 69.3888 125.05C62.9824 130.781 56.5552 136.512 50.1488 142.264C49.1088 141.508 48.0896 140.732 47.0496 139.976C48.2976 135.21 49.5456 130.445 50.8144 125.679C36.6288 120.851 36.5872 120.788 43.0976 111.488L43.0768 111.446Z" fill="#000000"/>
<path d="M673.587 364.772C689.894 364.919 700.918 375.689 701.48 391.77C701.563 394.478 702.624 397.144 703.082 399.852C705.349 412.721 696.883 423.302 684.05 424.54C679.058 425.023 674.149 426.87 669.282 428.445C656.386 432.581 638.269 422.462 636.813 409.047C636.189 403.295 639.184 397.123 640.578 391.161C643.386 379.174 661.523 364.688 673.566 364.793L673.587 364.772ZM648.773 399.159C645.674 403.61 641.389 407.011 641.784 409.698C643.698 422.273 660.005 428.97 671.091 422.84C674.44 420.992 678.6 419.964 682.448 419.817C694.845 419.313 701.064 411.041 697.611 398.907C697.05 396.955 696.093 394.982 696.134 393.029C696.342 379.279 690.622 371.616 678.454 369.685C664.768 367.501 657.114 372.225 653.12 385.157C652.787 386.269 651.914 387.781 651.019 388.033C639.704 391.098 646.963 396.094 648.794 399.18L648.773 399.159Z" fill="#000000"/>
<path d="M694.512 644.781C700.939 642.283 707.699 640.435 713.69 637.139C729.851 628.238 746.699 629.708 764.067 633.172C724.027 627.587 692.931 655.928 654.014 660.085C657.446 662.772 659.318 664.242 661.17 665.69C660.712 666.635 660.254 667.58 659.776 668.524C654.285 666.278 648.794 664.032 640.827 660.778C653.224 657.02 663.437 653.934 673.629 650.848C680.576 648.812 687.523 646.796 694.491 644.76L694.512 644.781Z" fill="#000000"/>
<path d="M71.6144 92.5308C73.4864 93.8534 75.3584 95.176 75.2336 95.092C79.6848 92.4259 83.1168 90.3685 87.7552 87.5974C87.568 90.7044 87.464 92.7408 87.2976 95.4909C88.8784 95.8688 91.0624 96.3936 95.264 97.4013C89.44 103.72 84.3232 109.284 79.56 114.427C73.32 111.719 67.912 109.346 62.504 106.995C62.5248 106.323 62.5664 105.673 62.5872 105.001C66.0608 104.329 69.5344 103.657 73.7152 102.839C72.488 99.7525 71.3232 96.8345 70.1584 93.9374C70.6368 93.4755 71.1152 93.0137 71.5936 92.5518L71.6144 92.5308Z" fill="#000000"/>
<path d="M694.512 644.781C687.565 646.817 680.618 648.833 673.65 650.869C659.901 651.52 646.173 652.15 632.424 652.8C632.445 652.129 632.486 651.478 632.507 650.806C654.659 647.426 676.832 644.025 702.395 640.12C698.485 642.43 696.488 643.605 694.512 644.802V644.781Z" fill="#000000"/>
<path d="M573.81 258.294C565.282 245.95 572.915 233.459 572.229 221.031C573.539 221.031 574.829 221.031 576.139 221.031C575.307 233.501 574.454 245.95 573.622 258.42L573.81 258.294Z" fill="#000000"/>
<path d="M345.55 455.001C341.786 454.057 338 453.112 333.611 452.02C336.586 448.472 339.81 444.652 343.034 440.831C353.746 437.367 364.458 433.903 375.17 430.439C376.002 431.405 376.813 432.392 377.686 433.336C378.664 434.386 380.411 435.373 380.474 436.443C380.515 437.43 378.747 438.501 377.749 439.508C375.835 441.419 373.901 443.287 371.987 445.177C363.189 448.451 354.37 451.726 345.571 455.001H345.55Z" fill="#000000"/>
<path d="M324.397 482.692C327.122 481.789 329.826 480.907 332.55 480.004C332.634 482.293 332.696 484.602 332.779 486.89C338.978 508.072 345.155 529.276 351.354 550.458C349.939 550.92 348.504 551.403 347.09 551.864C341.12 533.327 335.15 514.769 329.056 495.854C326.373 496.421 323.794 496.967 319.259 497.933C321.256 491.992 322.837 487.331 324.397 482.65V482.692Z" fill="#000000"/>
<path d="M214.365 201.969C211.453 202.914 208.582 204.173 205.587 204.74C203.112 205.202 200.491 204.824 197.933 204.824C197.974 201.57 197.995 198.316 198.037 195.062C202.218 195.44 206.398 195.797 210.579 196.175C211.682 196.511 212.805 196.847 213.907 197.204C214.261 197.98 214.594 198.757 214.926 199.534C214.635 200.143 214.406 200.793 214.24 201.444L214.365 201.99V201.969Z" fill="#000000"/>
<path d="M222.435 207.826C223.85 207.826 225.285 207.805 226.699 207.784C226.762 209.149 226.824 210.492 226.886 211.857C226.304 211.899 225.701 211.962 225.118 212.025C224.286 210.576 223.454 209.107 222.622 207.658L222.435 207.826Z" fill="#000000"/>
<path d="M254.218 373.064C253.365 374.744 252.512 376.444 251.68 378.124C252.221 376.822 252.762 375.521 253.282 374.24C253.594 373.841 253.906 373.463 254.218 373.064Z" fill="#000000"/>
<path d="M213.907 197.182C212.805 196.847 211.682 196.511 210.579 196.154C211.806 195.839 213.034 195.524 214.261 195.188C214.178 195.86 214.053 196.511 213.928 197.161L213.907 197.182Z" fill="#000000"/>
<path d="M208 178.645C206.586 178.561 205.171 178.498 203.757 178.414C204.214 177.554 204.693 176.693 205.15 175.832C206.107 176.756 207.043 177.701 208 178.624V178.645Z" fill="#000000"/>
<path d="M378.227 172.452C377.666 172.179 377.083 171.97 376.48 171.802C376.584 170.08 376.688 168.359 376.792 166.616C377.146 167.057 377.603 167.267 378.165 167.267C378.186 168.988 378.206 170.731 378.227 172.452Z" fill="#000000"/>
<path d="M214.261 228.651C212.846 229.092 211.432 229.533 210.018 229.953C209.955 229.596 209.893 229.239 209.83 228.882L209.997 228.798C211.411 228.756 212.826 228.693 214.261 228.651Z" fill="#000000"/>
<path d="M208.062 226.09C208.749 225.608 209.456 225.125 210.142 224.621L209.997 224.411C209.997 225.88 209.997 227.329 209.997 228.798L209.83 228.882C209.227 227.959 208.645 227.014 208.042 226.09H208.062Z" fill="#000000"/>
<path d="M226.595 348.46C227.365 347.894 228.155 347.327 228.925 346.76L228.821 347.369C228.072 347.726 227.344 348.103 226.595 348.46Z" fill="#000000"/>
<path d="M216.299 207.574C217.256 208.267 218.192 208.939 219.149 209.632C217.88 209.611 216.632 209.59 215.363 209.569C215.675 208.918 215.987 208.246 216.299 207.595V207.574Z" fill="#000000"/>
<path d="M378.518 174.132C378.331 173.481 378.186 172.83 378.102 172.158C378.31 172.578 378.539 172.998 378.685 173.439C378.747 173.628 378.581 173.901 378.518 174.132Z" fill="#000000"/>
<path d="M207.189 173.796C207.418 173.166 207.75 172.578 208.146 172.053C207.834 172.641 207.501 173.229 207.189 173.796Z" fill="#000000"/>
<path d="M216.653 199.618C215.842 200.227 215.03 200.814 214.24 201.423C214.406 200.772 214.635 200.122 214.926 199.513C215.509 199.513 216.091 199.555 216.653 199.618Z" fill="#000000"/>
<path d="M232.773 136.344C231.837 136.449 230.88 136.554 229.944 136.638C230.88 136.533 231.837 136.428 232.773 136.344Z" fill="#000000"/>
<path d="M193.69 234.97C193.794 235.663 193.794 236.335 193.731 237.028C193.731 236.335 193.71 235.663 193.69 234.97Z" fill="#000000"/>
<path d="M137.446 113.293C136.302 113.356 135.138 113.398 133.994 113.44C135.138 113.377 136.302 113.335 137.446 113.293Z" fill="#000000"/>
<path d="M23.6496 342.435C22.6304 342.351 21.632 342.267 20.6128 342.204C21.632 342.288 22.6304 342.372 23.6496 342.435Z" fill="#000000"/>
<path d="M195.52 239.232C195.624 240.24 195.728 241.248 195.853 242.255C195.749 241.248 195.645 240.24 195.52 239.232Z" fill="#000000"/>
<path d="M378.144 167.729C378.976 167.036 379.808 166.343 380.661 165.672C379.829 166.364 378.997 167.057 378.144 167.729Z" fill="#000000"/>
<path d="M24.7312 691.554H55.9104C55.9104 692.31 55.9104 693.066 55.9104 693.821H24.5024C24.5856 693.066 24.6688 692.31 24.752 691.554H24.7312Z" fill="#000000"/>
<path d="M20.6544 493.209C19.9888 493.209 19.344 493.293 18.72 493.503C18.72 492.936 18.72 492.349 18.7408 491.782C19.3856 492.265 20.0096 492.726 20.6544 493.209Z" fill="#000000"/>
<path d="M6.32317 268.686C5.57437 268.686 4.82557 268.686 4.05597 268.686C4.05597 267.216 4.05597 265.747 4.05597 264.277C4.80477 265.747 5.55357 267.216 6.30237 268.686H6.32317Z" fill="#000000"/>
<path d="M6.13599 270.806C6.13599 270.05 6.13599 269.274 6.13599 268.518C7.59199 268.518 9.06879 268.518 10.5248 268.518C9.06879 269.274 7.59199 270.029 6.13599 270.806Z" fill="#000000"/>
<path d="M412.589 400.566C421.429 400.524 431.205 410.181 430.872 418.62C430.248 434.764 424.216 444.82 414.918 445.261C401.003 445.911 386.214 434.995 385.986 423.952C385.778 413.288 400.171 400.65 412.568 400.566H412.589ZM412.36 405.289C404.248 405.289 393.723 411.02 391.726 418.41C390.541 422.756 391.165 430.88 393.744 432.371C400.837 436.443 409.282 438.522 417.456 439.865C418.954 440.117 421.907 433.315 423.592 429.495C424.362 427.773 422.968 425.086 423.758 423.386C428.043 414.023 422.656 405.31 412.36 405.31V405.289Z" fill="#000000"/>
<path d="M262.454 539.856C253.427 544.748 245.669 548.968 237.89 553.187L236.454 551.466C242.258 547.351 248.061 543.236 253.885 539.122C253.282 538.303 252.699 537.463 252.096 536.644C242.174 543.74 232.274 550.836 222.352 557.932C229.341 546.679 238.514 537.946 251.472 534.881C254.446 534.188 258.461 537.925 262.475 539.856H262.454Z" fill="#000000"/>
<path d="M230.818 535.406C243.963 525.161 248.206 523.503 253.531 524.993C242.57 533.181 230.402 542.271 218.525 551.151C216.57 547.729 217.464 546.217 231.046 535.196L230.818 535.406Z" fill="#000000"/>
<path d="M574.35 393.239C570.378 395.296 567.798 397.585 565.011 397.921C548.309 399.873 531.565 401.552 514.779 402.77C512.408 402.938 509.226 400.629 507.603 398.529C506.792 397.48 508.04 393.743 509.434 392.189C520.395 379.803 561.205 376.885 569.483 387.109C570.752 388.662 571.979 390.258 574.33 393.239H574.35ZM562.474 390.069C562.411 389.103 562.349 388.159 562.286 387.193C546 384.296 529.922 383.12 515.57 395.359C531.211 393.596 546.832 391.832 562.474 390.069Z" fill="#000000"/>
<path d="M578.698 357.697C575.203 355.976 571.709 354.233 567.902 352.365C581.589 351.273 594.381 350.245 607.963 349.153C605.218 352.638 602.68 357.529 598.728 360.447C594.36 363.659 588.702 366.725 583.565 366.787C577.803 366.871 572 363.554 566.696 359.482H578.573C578.614 358.894 578.656 358.306 578.677 357.718L578.698 357.697Z" fill="#000000"/>
<path d="M515.237 355.892C506.813 366.389 482.373 369.601 472.722 361.392C486.554 359.608 501.654 357.655 515.237 355.892Z" fill="#000000"/>
<path d="M555.61 336.83C555.942 340.252 556.296 343.653 556.566 347.075C556.92 351.462 556.774 355.934 557.648 360.196C558.854 365.99 558.626 370.419 551.886 371.847V337.355C553.134 337.187 554.362 337.019 555.61 336.83Z" fill="#000000"/>
<path d="M220.834 351.252C222.144 350.98 223.434 350.686 224.744 350.413C223.954 351.399 223.163 352.407 222.373 353.394C221.853 352.68 221.333 351.966 220.813 351.252H220.834Z" fill="#000000"/>
<path d="M220.792 344.975C220.75 345.941 220.709 346.886 220.688 347.852C220.73 346.886 220.771 345.941 220.792 344.975Z" fill="#000000"/>
<path d="M213.949 220.464C214.053 221.829 214.157 223.193 214.24 224.537C212.826 224.495 211.411 224.453 209.976 224.39L210.122 224.6C211.39 223.214 212.659 221.829 213.928 220.443L213.949 220.464Z" fill="#000000"/>
<path d="M222.622 207.658C222.082 207.406 221.52 207.154 220.979 206.923C221.354 206.672 221.728 206.42 222.082 206.147C222.206 206.714 222.31 207.259 222.435 207.826L222.622 207.658Z" fill="#000000"/>
<path d="M204.09 184.482C204.214 184.23 204.339 183.978 204.464 183.726C204.298 183.936 204.152 184.167 203.986 184.377L204.09 184.482Z" fill="#000000"/>
<path d="M224.598 341.994C225.118 342.309 225.659 342.645 226.179 342.96C225.638 342.645 225.077 342.351 224.536 342.036L224.598 341.973V341.994Z" fill="#000000"/>
</g>
<defs>
<clipPath id="clip0_43_429">
<rect width="1040" height="719" fill="white" transform="translate(0 1)"/>
</clipPath>
</defs>
</svg>
