<svg width="1280" height="720" viewBox="0 0 1280 720" fill="none" xmlns="http://www.w3.org/2000/svg">
<g clip-path="url(#clip0_61_49)">
<path d="M598.981 256.903C599.672 254.87 600.108 252.693 601.108 250.823C605.998 241.75 610.961 232.712 616.05 223.729C618.45 219.519 617.177 216.379 612.397 216.524C607.27 216.67 602.144 217.522 597.055 218.303C593.401 218.865 589.801 219.9 586.148 220.481C585.348 220.608 584.403 219.773 583.53 219.374C584.003 218.648 584.294 217.613 584.966 217.25C588.674 215.2 592.528 213.403 596.218 211.334C607.398 205.055 618.559 198.721 629.666 192.315C631.12 191.481 632.356 190.138 633.447 188.813C635.992 185.71 634.756 182.879 630.866 181.79C620.195 178.795 609.525 175.855 599 172.444C592.492 170.339 586.257 167.417 579.913 164.84C579.058 164.495 578.077 164.078 577.586 163.388C576.804 162.317 576.368 160.974 575.786 159.758C577.113 159.613 578.567 159.051 579.749 159.395C594.582 163.878 609.579 163.37 624.685 161.247C630.593 160.412 636.501 159.722 642.427 159.087C651.752 158.089 660.35 154.677 668.967 151.302C669.712 151.011 670.421 150.648 671.112 150.267C676.329 147.327 676.856 145.022 672.729 140.776C664.404 132.192 658.278 122.156 653.461 111.395C649.389 102.267 648.116 92.8479 654.97 84.137C655.86 82.9937 657.169 82.177 658.223 81.2878C659.423 86.968 660.368 92.2127 661.677 97.3485C664.677 109.145 670.457 118.908 681.237 125.532C691.944 132.101 703.668 134.823 715.866 136.185C717.647 136.384 719.629 136.166 721.337 135.586C724.355 134.569 725.137 132.609 724.009 129.343C720.338 118.817 720.083 108.201 724.482 97.7659C726.009 94.1364 727.9 90.6339 729.681 87.1132C733.317 79.963 739.497 75.8254 746.732 72.9762C747.15 72.8128 747.695 72.958 749.131 72.958C747.005 75.7891 745.423 78.1301 743.587 80.2534C739.152 85.4073 736.843 90.8879 737.807 98.0563C738.697 104.698 738.025 111.54 738.116 118.309C738.297 129.452 748.495 142.246 759.311 144.95C764.801 146.329 766.31 144.514 767.528 139.106C769.527 130.141 772.145 121.249 775.362 112.647C777.744 106.259 781.397 100.307 784.669 94.2634C785.615 92.5031 787.196 91.0694 788.487 89.4906C788.978 89.672 789.45 89.8535 789.941 90.0168C789.705 91.6501 789.541 93.3016 789.232 94.9167C788.214 100.361 787.123 105.769 786.105 111.213C785.524 114.317 785.251 117.492 784.506 120.541C782.179 130.16 780.525 140.086 786.942 148.416C790.85 153.497 796.903 156.964 802.047 161.083C811.791 168.905 823.534 172.934 834.713 177.979C838.549 179.721 842.821 180.483 846.765 182.026C848.129 182.57 849.092 184.131 850.237 185.22C848.765 186.381 847.365 188.414 845.82 188.541C840.021 189.031 834.168 188.922 828.333 188.976C827.006 188.976 825.697 188.722 824.37 188.704C818.589 188.613 815.972 191.735 818.299 197.07C820.862 202.968 824.206 208.576 827.606 214.038C831.241 219.864 835.495 225.308 839.149 231.133C840.003 232.476 839.549 234.636 839.694 236.414C837.585 236.251 835.404 236.36 833.405 235.815C831.95 235.416 830.841 233.692 829.387 233.402C827.624 233.039 825.061 232.875 823.988 233.855C822.934 234.817 822.898 237.412 823.152 239.173C823.697 242.929 825.279 246.577 825.424 250.315C825.679 257.23 823.77 263.345 816.772 266.721C815.172 267.483 813.754 268.989 812.718 270.477C803.229 284.179 789.596 293.089 776.089 302.127C774.381 303.27 771.981 303.434 770.309 304.613C765.328 308.152 763.946 313.36 765.037 319.041C765.91 323.541 765.819 327.497 763.328 331.581C760.747 335.827 762.601 339.003 767.509 339.039C780.488 339.13 793.54 339.765 806.41 338.622C822.734 337.188 838.931 334.339 855.127 331.78C859.381 331.109 863.435 329.149 867.597 327.897C874.559 325.792 881.722 324.213 888.466 321.545C894.446 319.186 900.318 316.101 903.971 310.312C904.735 309.096 905.662 307.735 905.735 306.41C906.498 294.977 913.278 285.976 918.132 276.285C922.786 266.975 928.493 258.191 933.801 249.208C934.347 248.283 935.328 247.611 936.128 246.813C936.91 247.775 938.31 248.718 938.364 249.716C938.891 262.184 942.672 274.452 940.291 287.101C939.491 291.347 939.473 295.83 939.709 300.149C940.018 305.611 938.346 310.239 935.347 314.649C931.947 319.658 931.438 325.084 932.983 330.964C933.438 332.651 932.947 335.628 931.765 336.553C924.022 342.469 917.587 350.309 907.88 353.412C902.226 355.227 896.5 356.806 890.829 358.584C875.014 363.539 859.617 369.4 845.166 377.694C837.149 382.303 828.387 385.624 820.316 390.143C808.81 396.604 796.158 400.977 785.724 409.416C783.851 410.922 780.688 410.741 778.198 411.558C775.726 412.374 772.926 412.955 771.036 414.534C763.619 420.722 756.512 427.165 750.695 435.095C743.096 445.439 734.571 455.094 726.682 465.22C722.537 470.537 718.72 476.145 715.066 481.807C713.066 484.91 713.284 488.304 715.284 491.571C719.029 497.705 716.866 505.853 710.721 509.246C709.213 510.081 707.686 510.898 706.213 511.769C701.178 514.763 699.578 520.371 701.432 525.924C702.523 529.191 702.996 532.857 702.832 536.305C702.65 540.261 700.178 542.838 695.925 543.201C694.87 543.292 693.816 543.4 692.762 543.509C683.127 544.489 678.256 550.442 679.582 560.024C681.709 575.322 683.818 590.639 686.345 605.883C687.908 615.356 690.071 624.72 692.216 634.084C693.216 638.44 695.052 638.984 699.524 638.694C711.285 637.895 723.064 637.369 734.844 636.952C736.061 636.915 738.279 638.295 738.37 639.184C738.534 640.726 737.897 643.086 736.734 643.939C731.935 647.459 726.991 650.871 721.792 653.756C707.54 661.669 693.252 669.509 678.728 676.859C675.256 678.619 670.803 678.746 666.785 678.964C665.458 679.036 663.295 677.294 662.768 675.915C660.314 669.509 658.369 662.903 656.115 656.424C655.26 653.956 653.897 651.651 652.988 649.183C648.135 636.081 643.372 622.942 638.5 609.839C635.955 603.034 633.283 596.265 630.593 589.514C629.03 585.594 627.557 581.619 625.703 577.827C619.522 565.141 613.506 552.365 606.762 539.971C603.253 533.546 597.509 529.39 589.456 530.098C585.366 530.461 581.294 530.933 577.186 530.987C573.787 531.042 570.351 530.697 566.97 530.28C562.662 529.753 558.408 528.646 554.082 528.356C544.175 527.703 534.231 526.868 524.324 527.14C514.436 527.412 504.474 528.32 494.731 530.062C479.643 532.766 464.573 535.887 449.758 539.789C434.671 543.763 419.565 547.919 405.931 556.013C401.041 558.917 395.752 561.094 390.771 563.853C388.608 565.051 386.717 566.793 384.845 568.444C378.228 574.324 372.593 574.251 367.303 567.101C363.413 561.838 360.414 555.868 357.451 549.988C353.052 541.259 348.889 532.385 344.871 523.474C342.054 517.231 338.836 511.007 339.091 503.857C339.145 502.278 339.545 499.737 340.472 499.374C341.836 498.83 344.09 499.41 345.489 500.282C350.434 503.348 354.924 507.25 360.068 509.882C367.867 513.856 375.174 519.282 384.481 519.7C385.717 519.754 386.899 520.861 388.171 521.024C392.28 521.514 396.679 522.875 400.496 521.95C412.057 519.155 423.4 515.544 434.78 512.059C444.359 509.138 453.83 505.853 463.392 502.949C472.117 500.3 480.934 497.904 489.695 495.4C497.057 493.295 504.383 491.135 511.745 489.066C517.326 487.506 522.888 485.909 528.524 484.656C536.504 482.878 539.794 479.466 541.43 471.608C542.648 465.783 544.738 460.139 545.883 454.313C546.629 450.484 546.447 446.474 546.574 442.554C546.629 440.848 546.229 439.106 546.374 437.418C546.847 431.883 549.21 429.596 554.773 429.433C557.408 429.36 560.062 429.723 562.716 429.869C566.097 430.068 568.897 429.07 569.788 425.477C571.933 416.893 573.932 408.291 575.95 399.689C576.513 397.239 576.477 394.535 577.55 392.357C580.494 386.423 578.677 381.65 574.786 377.059C566.915 367.767 558.863 358.621 551.337 349.057C540.866 335.755 530.905 322.053 520.562 308.66C512.327 297.989 504.347 287.083 494.276 278.009C491.749 275.722 488.841 273.78 485.86 272.093C483.642 270.822 481.352 269.552 481.97 266.812C482.697 263.581 481.988 259.389 486.587 257.956C487.878 257.556 489.077 256.467 489.986 255.415C492.749 252.203 495.476 248.954 497.93 245.524C499.021 244 499.966 242.022 500.057 240.207C500.366 234.672 500.366 229.119 500.275 223.584C500.075 211.788 499.784 200.01 499.457 188.232C499.312 183.06 498.839 182.697 493.513 182.57C490.913 182.516 489.986 181.336 491.477 179.049C492.84 176.944 494.349 174.894 496.003 173.006C498.512 170.139 501.584 170.774 502.365 174.585C503.638 180.646 504.929 186.817 505.219 192.969C505.728 203.676 505.437 214.437 505.528 225.163C505.583 232.476 507.528 234.382 514.726 233.928C518.58 233.674 520.362 236.36 521.689 238.937C527.887 251.041 537.031 260.478 548.156 267.991C563.643 278.426 579.276 288.625 594.982 298.733C599.181 301.437 603.908 303.325 608.343 305.72C612.306 307.862 614.851 306.664 614.96 302.145C614.996 300.403 613.942 298.661 613.578 296.882C613.306 295.594 612.778 293.634 613.396 293.035C614.342 292.128 616.214 291.765 617.614 291.892C619.123 292.019 620.54 293.089 622.067 293.525C626.085 294.686 628.339 293.253 628.466 289.061C628.666 282.437 628.339 275.813 628.611 269.189C628.757 265.541 629.811 261.948 630.247 258.318C630.902 252.965 631.72 247.575 631.793 242.203C631.865 237.92 628.957 236.578 625.339 239.1C617.977 244.254 610.852 249.735 603.617 255.052C602.435 255.923 601.199 256.703 599.999 257.52C599.672 257.284 599.345 257.066 599.036 256.83L598.981 256.903ZM662.368 206.452C662.913 206.979 663.459 207.487 664.004 208.013C667.567 205.908 671.166 203.875 674.674 201.698C683.563 196.199 692.343 190.482 701.378 185.22C702.887 184.349 705.45 185.31 707.522 185.419C706.868 187.397 706.322 189.43 705.486 191.317C705.141 192.079 704.105 192.533 703.45 193.186C700.651 196.017 697.797 198.776 695.179 201.77C694.379 202.696 694.288 204.238 693.87 205.509C695.216 205.364 696.815 205.618 697.87 204.982C702.978 201.934 707.958 198.649 712.975 195.437C713.866 194.874 714.739 193.949 715.684 193.84C717.247 193.676 719.283 193.531 720.338 194.348C721.028 194.892 720.447 197.179 720.228 198.667C720.138 199.248 719.483 199.738 719.138 200.3C716.775 204.129 714.321 207.904 712.176 211.86C711.539 213.04 711.848 214.746 711.721 216.198C713.012 215.889 714.466 215.835 715.593 215.2C717.32 214.256 718.811 212.895 720.428 211.752C727.9 206.489 735.189 200.936 744.714 199.629C749.822 198.921 751.731 200.318 751.295 205.472C750.64 212.986 749.859 220.481 749.204 227.994C749.077 229.427 749.113 230.934 749.404 232.331C749.568 233.075 750.422 234.128 751.022 234.164C751.64 234.218 752.567 233.311 752.949 232.621C753.694 231.224 754.112 229.663 754.712 228.193C756.857 222.949 758.802 217.577 761.329 212.514C762.092 211.007 764.546 210.336 766.219 209.283C767.219 210.989 768.927 212.641 769.054 214.401C769.273 217.65 768.618 220.952 768.182 224.219C767.528 228.937 766.582 233.619 766.128 238.356C766.001 239.626 767.182 241.024 767.764 242.385C769 241.568 770.654 241.006 771.363 239.862C772.436 238.102 772.926 235.961 773.508 233.946C774.853 229.246 775.926 224.455 777.525 219.845C777.962 218.593 779.907 217.867 781.161 216.905C782.088 218.176 783.488 219.319 783.833 220.716C784.578 223.765 784.887 226.941 785.178 230.099C785.451 232.948 785.778 235.852 785.524 238.683C785.251 241.423 784.142 244.073 783.633 246.795C783.361 248.228 783.633 249.771 783.633 251.259C785.106 251.096 786.578 250.932 788.069 250.787C789.723 250.624 791.432 250.134 793.013 250.388C795.467 250.805 797.957 251.477 800.23 252.511C804.156 254.29 807.883 256.486 811.773 258.355C812.954 258.917 814.845 259.589 815.626 259.063C816.663 258.337 817.262 256.558 817.426 255.143C817.79 252.166 817.899 249.136 817.826 246.141C817.753 242.929 818.008 239.517 816.972 236.596C815.045 231.115 812.118 226.016 809.973 220.589C809.282 218.829 808.937 215.617 809.9 214.855C811.3 213.73 813.99 214.111 816.135 214.056C816.844 214.056 817.535 214.782 818.299 215C819.607 215.381 820.953 215.599 822.28 215.889C822.17 214.401 822.207 212.895 821.916 211.461C821.734 210.608 821.08 209.828 820.589 209.048C815.517 201.28 810.446 193.531 805.374 185.782C804.065 183.768 802.157 181.354 804.538 179.485C805.865 178.451 808.682 178.723 810.646 179.195C816.917 180.719 823.098 182.661 829.333 184.349C830.332 184.621 831.478 184.385 832.55 184.385C832.714 183.967 832.877 183.55 833.041 183.133C831.223 181.772 829.514 180.211 827.551 179.104C817.662 173.496 807.774 167.925 797.776 162.517C794.34 160.648 790.577 159.395 787.032 157.671C785.197 156.782 782.942 155.875 781.943 154.314C780.125 151.41 777.998 150.993 774.908 151.447C756.112 154.169 741.733 140.449 736.171 126.566C732.917 118.436 730.99 109.889 731.662 100.96C731.753 99.7077 731.172 98.4192 730.863 96.9856C730.026 97.403 729.663 97.4755 729.59 97.657C726.064 107.13 722.119 120.995 732.826 132.7C733.989 133.971 734.971 136.548 734.444 137.872C733.953 139.106 731.353 139.996 729.608 140.141C718.938 141.03 708.485 139.977 698.106 137.128C683.473 133.118 672.42 124.389 663.55 112.466C662.332 110.832 660.623 109.562 659.132 108.128C659.132 110.379 659.132 112.647 659.205 114.897C659.205 115.26 659.423 115.678 659.641 115.986C665.731 124.298 669.657 134.588 680.6 138.489C682.709 139.252 684.309 141.32 682.636 143.589C679.201 148.253 675.765 152.862 669.785 154.967C653.806 160.593 637.446 164.277 620.522 165.439C616.16 165.729 611.797 166.31 607.489 167.036C606.289 167.235 605.253 168.487 604.144 169.268C605.216 170.103 606.18 171.464 607.361 171.7C620.322 174.313 633.301 176.763 646.299 179.231C647.735 179.503 649.353 179.34 650.589 179.957C651.934 180.646 652.952 182.007 654.097 183.078C652.879 183.895 651.752 184.984 650.407 185.474C646.735 186.835 642.754 187.579 639.264 189.285C634.883 191.444 630.829 194.239 626.721 196.925C622.849 199.447 619.013 202.042 615.36 204.892C614.487 205.581 614.469 207.342 614.051 208.612C615.287 208.558 616.669 208.83 617.741 208.376C621.504 206.761 625.139 204.837 628.866 203.131C630.902 202.206 633.592 200.845 634.665 203.712C635.265 205.309 634.374 208.122 633.174 209.592C629.902 213.566 625.867 216.924 622.631 220.916C620.34 223.747 618.577 227.104 617.05 230.462C615.905 233.002 617.65 234.781 620.286 233.91C624.54 232.494 629.211 231.496 632.756 228.974C638.682 224.763 644.626 220.099 649.171 214.492C654.37 208.068 657.987 200.373 662.422 193.313C663.659 191.335 665.204 189.43 667.003 187.978C667.858 187.288 669.821 187.343 670.912 187.869C671.457 188.123 671.621 190.392 671.148 191.372C669.875 193.967 668.13 196.326 666.64 198.83C665.167 201.335 663.804 203.894 662.386 206.434L662.368 206.452ZM670.275 215.254C669.803 214.764 669.348 214.292 668.876 213.802C666.549 215.109 663.895 216.071 661.95 217.813C656.533 222.676 651.17 227.649 646.28 233.021C643.045 236.596 639.609 240.624 638.137 245.071C634.228 256.885 633.556 269.243 634.574 281.62C635.228 289.569 639.954 295.285 646.935 296.9C650.298 297.681 653.715 298.153 657.096 298.86C680.201 303.615 703.45 307.825 726.373 313.36C738.37 316.246 747.55 310.239 757.711 306.845C758.275 306.664 758.711 305.992 759.147 305.502C765.401 298.207 772.163 291.656 781.888 289.097C784.051 288.534 786.105 287.518 788.178 286.629C795.685 283.399 801.993 278.644 806.028 271.457C809.301 265.632 806.138 260.079 799.503 259.462C793.94 258.935 788.905 260.424 784.778 264.18C781.452 267.211 778.634 270.786 775.235 273.726C773.944 274.851 771.581 275.468 769.927 275.178C768.982 275.014 767.946 272.546 767.855 271.058C767.6 267.302 765.928 265.705 762.165 265.432C757.239 265.069 756.239 263.672 756.421 258.808C756.512 256.286 756.748 253.763 756.584 251.259C756.494 249.952 755.694 248.7 755.221 247.412C754.258 248.482 753.203 249.481 752.367 250.624C751.767 251.459 751.549 252.584 751.004 253.473C747.604 259.099 745.623 259.462 739.842 256.286C738.679 255.651 736.625 255.959 735.262 256.54C733.88 257.121 732.88 258.591 731.662 259.625C725.9 264.579 721.21 264.761 715.248 260.206C714.193 259.407 713.194 258.518 712.194 257.665C708.885 254.852 708.158 251.295 709.231 247.23C712.285 235.743 726.918 231.061 735.862 238.719C739.479 241.822 741.279 241.35 741.769 236.65C742.606 228.484 742.969 220.281 743.478 212.096C743.533 211.062 743.333 209.955 742.969 208.993C742.169 206.852 740.824 206.162 738.643 207.469C726.936 214.419 716.756 223.275 706.922 232.549C703.268 235.997 699.887 239.772 696.052 243.02C694.707 244.163 691.944 245.089 690.58 244.472C687.926 243.274 689.108 240.643 690.053 238.556C690.762 236.995 691.671 235.525 692.471 234.001C695.634 228.03 698.851 222.096 701.851 216.053C702.396 214.946 701.978 213.367 701.996 212.006C700.633 211.987 698.96 211.443 697.96 212.042C691.216 215.98 684.527 220.027 678.019 224.328C674.565 226.596 673.547 229.917 675.074 234.073C675.965 236.505 676.365 239.245 676.42 241.84C676.601 251.114 668.276 258.917 659.223 258.264C655.533 257.992 652.861 256.159 652.643 252.602C652.406 248.736 652.57 244.599 653.752 240.951C656.333 232.948 660.405 225.725 667.131 220.208C668.585 219.011 669.257 216.887 670.294 215.2L670.275 215.254ZM897.827 331.744C898.991 334.684 900.209 337.588 901.299 340.527C902.535 343.83 904.717 344.647 908.17 344.139C916.696 342.887 923.076 338.205 928.348 331.853C929.202 330.818 929.311 328.096 928.53 327.007C925.694 322.979 924.549 318.623 925.076 313.887C925.73 308.134 926.767 302.435 927.512 296.701C927.675 295.539 927.348 294.305 927.239 293.108C926.003 293.616 924.512 293.833 923.604 294.686C921.986 296.211 920.641 298.062 919.314 299.877C912.86 308.569 906.407 317.244 900.099 326.027C899.009 327.552 898.645 329.603 897.827 331.78V331.744ZM678.601 378.511L676.892 378.002C675.529 380.688 673.784 383.247 672.893 386.078C671.148 391.595 670.112 397.348 668.348 402.865C665.749 411.013 662.659 419.016 660.041 427.165C658.369 432.391 657.169 437.763 655.751 443.08C654.842 446.492 653.824 449.904 653.079 453.352C652.515 455.965 652.316 458.633 651.97 461.282C652.461 461.391 652.952 461.518 653.443 461.627C653.952 460.956 654.697 460.357 654.915 459.594C657.278 451.21 659.55 442.808 661.895 434.424C662.931 430.74 664.131 427.11 665.131 423.408C666.731 417.492 667.912 411.43 669.875 405.641C672.475 397.91 675.729 390.415 678.528 382.739C678.983 381.487 678.601 379.926 678.601 378.511ZM613.469 479.884C613.942 480.029 614.414 480.174 614.887 480.319C615.487 479.738 616.396 479.285 616.65 478.577C619.104 472.189 621.577 465.783 623.812 459.322C625.83 453.497 627.539 447.544 629.466 441.683C630.702 437.944 631.138 434.242 629.72 430.413C626.576 437.69 623.867 445.004 621.304 452.372C619.104 458.705 616.941 465.075 614.996 471.499C614.178 474.203 613.96 477.071 613.469 479.865V479.884ZM722.955 254.163C727.172 254.417 730.008 251.967 730.19 248.101C730.317 245.252 729.59 242.73 726.136 242.403C722.664 242.094 716.629 246.758 716.884 249.716C717.229 253.564 720.61 253.564 722.955 254.163ZM633.174 497.741C633.901 497.342 635.156 496.652 636.428 495.944C635.41 494.874 634.574 493.168 633.356 492.841C627.775 491.317 622.104 490.01 616.414 489.012C615.36 488.83 613.996 490.355 612.76 491.099C613.596 492.151 614.251 493.912 615.269 494.148C620.904 495.491 626.648 496.471 633.174 497.723V497.741ZM670.166 240.788C668.712 238.755 667.821 236.868 666.331 235.725C665.695 235.235 663.168 235.906 662.695 236.723C661.277 239.173 660.132 241.895 659.532 244.653C659.278 245.797 660.368 247.902 661.423 248.446C662.513 249.027 664.931 248.809 665.695 247.974C667.44 246.051 668.512 243.528 670.148 240.77L670.166 240.788ZM659.659 342.56C659.55 343.123 659.459 343.685 659.35 344.248C663.15 345.863 666.912 347.641 670.784 349.039C672.729 349.747 674.947 350.073 677.019 350.001C678.019 349.964 678.983 348.621 679.964 347.877C679.201 346.952 678.583 345.464 677.637 345.21C673.311 343.994 668.912 343.014 664.477 342.215C662.931 341.943 661.259 342.433 659.641 342.56H659.659ZM656.551 329.512L657.623 329.621C659.514 325.683 661.55 321.799 663.186 317.77C663.64 316.645 662.877 315.048 662.659 313.651C661.332 314.359 659.278 314.776 658.823 315.865C657.533 318.859 656.769 322.089 656.115 325.302C655.842 326.626 656.387 328.096 656.551 329.512ZM649.153 468.251C647.535 472.007 645.753 475.71 644.39 479.575C644.063 480.482 644.953 481.989 645.626 483.005C645.826 483.295 647.426 483.096 648.007 482.642C650.716 480.464 652.006 472.352 649.153 468.269V468.251ZM780.834 136.094C779.198 133.88 778.016 132.283 776.835 130.686C775.835 132.337 774.853 133.971 773.853 135.622C773.799 135.731 773.799 135.876 773.817 136.003C774.072 138.417 772.617 142.046 776.398 142.191C777.689 142.228 779.089 138.598 780.834 136.076V136.094ZM930.511 274.815C930.966 274.887 931.402 274.942 931.856 275.014C932.729 273.435 933.911 271.929 934.347 270.223C934.547 269.425 933.274 268.263 932.656 267.265C931.511 268.699 930.093 269.987 929.366 271.603C929.039 272.347 930.093 273.708 930.511 274.797V274.815Z" fill="#000000"/>
<path d="M523.143 74.9362C528.614 75.7347 533.449 76.4424 538.303 77.132C539.884 77.3498 541.466 77.5857 543.047 77.622C546.719 77.7309 551.155 77.7309 552.209 73.811C552.991 70.9618 551.137 67.3867 550.41 64.1564C550.337 63.8116 549.828 63.5576 549.719 63.1946C549.282 61.7609 548.919 60.3091 548.519 58.8755C550.119 58.567 551.827 57.714 553.282 58.0225C558.444 59.1295 563.48 60.8173 568.642 61.9061C571.169 62.4324 573.932 62.5594 576.459 62.1058C581.385 61.2165 583.221 58.9662 583.657 53.9937C583.93 50.9631 583.784 47.8961 584.057 44.8655C584.184 43.5407 584.911 42.2885 585.348 41C586.475 41.7622 587.911 42.2885 588.674 43.3229C595.691 52.9412 602.489 62.7228 609.615 72.2685C611.615 74.9543 614.505 76.9687 616.868 79.4186C617.813 80.3805 618.413 81.669 619.177 82.8123C618.122 83.4474 617.123 84.2822 615.977 84.6996C608.688 87.4218 601.344 89.9987 594.055 92.7209C578.894 98.4011 565.897 107.421 554.645 118.89C550.7 122.919 547.174 127.474 544.156 132.228C541.957 135.695 539.212 137.056 535.594 136.457C534.177 136.221 532.013 134.479 531.886 133.245C530.686 120.777 524.833 110.687 516.635 101.65C515.926 100.869 515.144 100.071 514.69 99.1452C514.254 98.2741 513.69 96.8041 514.072 96.3504C514.69 95.6064 516.18 94.9712 517.071 95.2071C519.889 95.8967 522.67 96.8223 525.324 98.0019C528.032 99.1996 530.486 99.5807 532.504 97.0582C534.577 94.4449 533.522 92.0313 531.523 89.9624C528.305 86.6233 524.906 83.4474 521.743 80.072C520.834 79.1101 520.452 77.6765 519.816 76.4606C521.052 75.898 522.306 75.3173 523.161 74.9362H523.143ZM543.084 81.4149C543.084 81.4149 543.084 81.4875 543.084 81.5238C541.23 81.5238 539.357 81.3604 537.521 81.5782C536.194 81.7415 534.922 82.3949 533.613 82.8123C534.049 83.9737 534.304 85.2622 534.958 86.2785C536.103 88.0569 537.558 89.6176 538.739 91.378C541.957 96.1508 539.794 100.76 534.049 101.323C532.613 101.468 531.141 101.232 529.687 101.214C525.578 101.196 524.288 103.101 526.124 106.695C527.196 108.8 528.778 110.669 529.832 112.792C531.923 116.984 533.777 121.303 535.849 125.514C536.322 126.494 537.176 127.8 538.012 127.946C538.867 128.091 540.157 127.183 540.884 126.385C544.084 122.864 546.756 118.781 550.319 115.696C566.097 101.922 583.966 91.3961 603.035 82.8123C608.288 80.4531 608.779 78.6201 605.58 73.811C602.435 69.0745 599.417 64.2653 596.309 59.5106C595.655 58.5307 594.909 57.587 594.073 56.7522C592.128 54.8104 590.565 54.8104 589.183 57.5507C585.947 63.9931 583.766 65.0457 576.622 64.5194C572.405 64.2109 568.151 64.0657 563.916 63.9931C558.371 63.8842 557.59 64.8823 558.644 70.2722C559.88 76.5695 557.044 80.5982 550.628 81.3423C548.137 81.6327 545.592 81.3967 543.084 81.3967V81.4149Z" fill="#000000"/>
<path d="M464.591 226.451C465.1 233.819 468.463 239.354 472.699 244.327C473.717 245.524 476.334 245.252 478.098 245.96C479.879 246.668 482.479 247.394 482.969 248.755C483.751 250.878 483.151 253.546 482.824 255.923C482.788 256.159 480.297 256.594 479.406 256.104C471.317 251.604 465.628 244.563 460.756 236.977C459.302 234.708 459.083 230.952 459.683 228.175C461.338 220.317 463.21 212.423 465.955 204.892C468.282 198.486 471.935 192.533 475.007 186.399C476.371 183.695 478.897 182.752 481.333 183.877C483.06 184.675 485.023 186.78 485.314 188.541C486.75 197.687 487.696 206.924 488.75 216.125C488.877 217.16 488.932 218.339 488.55 219.247C488.132 220.227 487.205 221.624 486.405 221.678C485.332 221.769 483.606 221.025 483.187 220.136C482.351 218.412 482.024 216.379 481.86 214.437C481.442 209.283 481.515 204.093 480.824 198.994C480.57 197.106 478.788 195.437 477.698 193.658C476.425 194.983 474.626 196.072 473.989 197.651C471.117 204.747 468.481 211.951 465.991 219.192C465.137 221.66 464.973 224.364 464.573 226.469L464.591 226.451Z" fill="#000000"/>
</g>
<defs>
<clipPath id="clip0_61_49">
<rect width="602" height="638" fill="white" transform="translate(339 41)"/>
</clipPath>
</defs>
</svg>
